<?xml version="1.0" encoding="utf-8"?>
<svg version="1.1" id="Слой_1" xmlns="http://www.w3.org/2000/svg" xmlns:xlink="http://www.w3.org/1999/xlink" x="0px" y="0px"
	 viewBox="0 0 419.530304 606.6104126" style="enable-background:new 0 0 419.530304 606.6104126;" xml:space="preserve">
<g>
	<g>
		<g>
			<g>
				<polygon style="fill:#595959;" points="243,307.7609253 204,330.3585205 204,285.5040283 243,262.9074402 				"/>
			</g>
			<g>
				<polygon style="fill:#2F2E2E;" points="166,307.7609253 204,330.3585205 204,285.5040283 166,262.9074402 				"/>
			</g>
			<g>
				<polygon style="fill:#D0D2D4;" points="166,262.9015198 204.5,240.3917389 243,262.9015198 243,263.0050354 204.5,285.5138245 
					166,263.0050354 				"/>
			</g>
			<g>
				<g>
					<path style="fill:#0E0F10;" d="M204.1327972,330.5822449l0.4530945-0.0381165L166,307.9972229v-45.171875l-0.4521027-0.0390015
						l38.844696-22.5469208l-0.2167969,0.0381012L243,262.8253479v45.171875l0.0858917,0.0371094L204.1327972,330.5822449z
						 M166,307.8449402l38.5,22.4335022l38.5-22.4335022v-44.8681946l-38.5-22.4326172L166,262.9767456V307.8449402z"/>
				</g>
				<g>
					<polygon style="fill:#0E0F10;" points="204.1679993,285.6671448 204.101593,285.6290283 165.0692902,263.1193237
						165.2012024,262.8907471 204.1679993,285.3624268 243.1347961,262.8907471 243.2665863,263.1193237 					"/>
				</g>
				<g>
					<rect x="204" y="285.6593323" style="fill:#0E0F10;" width="0" height="44.4648018"/>
				</g>
			</g>
			<g>
				<g>
					<path style="fill:#0E0F10;" d="M190.6649933,262.1827393h-1.3867035l-0.3046875,0.7207031h-0.7275085l1.4902039-3.5117188
						h0.5059052l1.4491882,3.5117188h-0.7225952L190.6649933,262.1827393z M190.4687958,261.6359253l-0.4844055-1.2373047
						l-0.4960938,1.2373047H190.4687958z"/>
				</g>
				<g>
					<path style="fill:#0E0F10;" d="M193.7948914,259.4650269v2.8623047h1.0625v0.5761108h-1.7333984v-3.4384155H193.7948914z"/>
				</g>
				<g>
					<path style="fill:#0E0F10;" d="M197.0214996,259.4650269v3.4384155h-0.6699066v-3.4384155H197.0214996z"/>
				</g>
				<g>
					<path style="fill:#0E0F10;" d="M199.1875,259.4650269l0.9179993,2.3095093l0.9178925-2.3095093h0.7324982l-1.4756012,3.5166016
						h-0.3603973l-1.4637909-3.5166016H199.1875z"/>
				</g>
				<g>
					<path style="fill:#0E0F10;" d="M205.0966949,260.0411377h-1.2373047v0.7705078h1.1855011v0.5762024h-1.1855011v0.9394836
						h1.2373047v0.5761108h-1.9082031v-3.4384155h1.9082031V260.0411377z"/>
				</g>
				<g>
					<path style="fill:#0E0F10;" d="M211.0458984,262.1827393h-1.3867035l-0.3047028,0.7207031h-0.7274933l1.4920959-3.5117188
						h0.5039062l1.4501953,3.5117188h-0.7225952L211.0458984,262.1827393z M210.8495941,261.6359253l-0.4844055-1.2373047
						l-0.4940948,1.2373047H210.8495941z"/>
				</g>
				<g>
					<path style="fill:#0E0F10;" d="M213.5048981,262.9034424v-3.5155945h0.4638977l2.0957031,2.3925781v-2.3153992h0.6698914
						v3.5068054h-0.4638977l-2.094696-2.3926086v2.3242188H213.5048981z"/>
				</g>
				<g>
					<path style="fill:#0E0F10;" d="M219.4452972,259.4650269c0.4785004,0,0.8974915,0.0498047,1.2792969,0.3348999
						c0.4179993,0.3145142,0.660202,0.8135071,0.660202,1.3867188c0,0.5722961-0.2382965,1.0664978-0.6914062,1.3867798
						c-0.4023895,0.2841187-0.7773895,0.3300171-1.2578888,0.3300171h-0.8867035v-3.4384155H219.4452972z M219.2187958,262.3273315
						h0.2059937c0.1699066,0,0.5420074-0.0097961,0.8408051-0.2276001c0.2734985-0.1962891,0.4277954-0.5467834,0.4277954-0.9130859
						c0-0.360321-0.1484985-0.710907-0.4228973-0.9169006c-0.2783051-0.2071228-0.6190948-0.2286072-0.8457031-0.2286072h-0.2059937
						V262.3273315z"/>
				</g>
				<g>
					<path style="fill:#0E0F10;" d="M199.1747894,265.6515198c0.4746094,0,0.7168121,0.1230164,0.8760071,0.2588196
						c0.2637024,0.2216797,0.3417969,0.5145874,0.3417969,0.773407c0,0.3349915-0.1347961,0.6288757-0.4024048,0.8096008
						c-0.0887909,0.0604858-0.2128906,0.1181946-0.3768921,0.1483765l1.0722046,1.4492188h-0.835907l-0.9169922-1.3818054
						h-0.0830078v1.3818054h-0.6699066v-3.4394226H199.1747894z M198.8495941,267.2345276h0.1914062
						c0.128891,0,0.660202-0.0145874,0.660202-0.5195007c0-0.5117798-0.526413-0.5166016-0.6504059-0.5166016h-0.2012024
						V267.2345276z"/>
				</g>
				<g>
					<path style="fill:#0E0F10;" d="M204.0780945,266.2296448h-1.2373047v0.7675781h1.1856079v0.578125h-1.1856079v0.9384766
						h1.2373047v0.5771179h-1.9082031v-3.4394226h1.9082031V266.2296448z"/>
				</g>
				<g>
					<path style="fill:#0E0F10;" d="M207.7958984,268.3683472h-1.3867035l-0.3047028,0.7225952h-0.7274933l1.4901886-3.5117188
						h0.5058136l1.449295,3.5117188h-0.722702L207.7958984,268.3683472z M207.5995941,267.8234253l-0.4844055-1.2382812
						l-0.4950867,1.2382812H207.5995941z"/>
				</g>
				<g>
					<path style="fill:#0E0F10;" d="M210.9257965,265.6515198v2.8623047h1.0605011v0.5771179h-1.7324066v-3.4394226H210.9257965z"/>
				</g>
			</g>
			<g>
				<g style="enable-background:new    ;">
					<defs>
						<polygon id="SVGID_1_" style="enable-background:new    ;" points="214.9785004,315.0284424 214.911087,291.1906433 
							235.6562958,279.2120361 235.7245941,303.0480347 						"/>
					</defs>
					<clipPath id="SVGID_2_">
						<use xlink:href="#SVGID_1_"  style="overflow:visible;"/>
					</clipPath>
					<g style="clip-path:url(#SVGID_2_);">
						<g>
							<path style="fill:#0E0F10;" d="M232.6132965,300.146637c-1.1562958,2.2089844-2.6757965,4.2548828-4.4062958,5.8760071
								l1.948288-1.125c1.0615082-1.2578125,2.0166016-2.656311,2.8203125-4.1309204L232.6132965,300.146637
								 M218.0546875,308.530426l-0.3573914,1.0361023c0.8125,0.5498047,1.777298,0.8506165,2.8506012,0.8779907l1.9472046-1.125
								C220.753891,309.7023315,219.2216949,309.4074402,218.0546875,308.530426 M234.9179993,292.4034424
								c-0.1298981,2.1817017-0.7763977,4.5-1.7929993,6.703186l0.375,0.6425171
								c0.5829926-1.1923218,1.0653992-2.4248047,1.4286957-3.6562195L234.9179993,292.4034424 M235.6620941,290.2921448
								l0.0049133,1.6983032c0.0165863-0.2901001,0.0233917-0.5791016,0.0233917-0.8663025
								C235.6894989,290.8390198,235.6806946,290.5616455,235.6620941,290.2921448 M224.6132965,286.4777222l-3.2490082,1.875
								c-2.5869904,2.7187195-4.6484985,6.305603-5.6826935,9.8955078l0.0234985,8.8486023
								c0.3710938,0.835907,0.8652039,1.5273132,1.464798,2.0606079l0.3701019-1.0762024
								c-1.1504059-1.1582031-1.8320007-3.0029907-1.8379059-5.414093
								C215.6846008,296.8331299,219.625,289.7589417,224.6132965,286.4777222 M229.2177887,283.819519l-3.25,1.875
								c4.7519073-2.3613892,8.5771027-0.1992798,8.9463043,5.047821l-0.0108032-3.6875
								C233.8407898,284.7189331,231.7831879,283.5490417,229.2177887,283.819519 M225.2881012,285.1993408
								c-0.2363129,0.1358032-0.4697113,0.280304-0.7022095,0.4317017l1.405304-0.8115234
								C225.7587891,284.9366455,225.5243988,285.0636292,225.2881012,285.1993408"/>
						</g>
						<g>
							<path style="fill:#0E0F10;" d="M218.0546875,308.530426l7.2275085-20.952179l7.3311005,12.5683899l0.3623047,0.6200867
								l1.0917969,1.8721008l-3.9121094,2.2588196l-1.948288,1.125l-5.7118988,3.296875l-1.9472046,1.125l-3.9375,2.273407
								l1.0868988-3.1513977L218.0546875,308.530426 M225.4687958,285.9835205l-0.381897,0.2207031l-7.5469055,21.8770142
								l-0.3701019,1.0762024l-1.4463043,4.1875l0.0010071,0.3905945l19.222702-11.0996094l-0.0010071-0.4082031L233.5,299.7491455
								l-0.375-0.6425171L225.4687958,285.9835205"/>
						</g>
						<g>
							<path style="fill:#0E0F10;" d="M229.2177887,283.819519l5.6670074-3.2724915l0.0184937,6.5078125l0.0108032,3.6875
								l0.0039062,1.6611023l0.0106964,3.6894836l0.0175934,6.1347961l0.0010071,0.4082031l-19.222702,11.0996094
								l-0.0010071-0.3905945l-0.0184937-6.2481079l-0.0234985-8.8486023l-0.0195007-6.6034851l5.7021942-3.2920227l3.2490082-1.875
								l0.4736023-0.2734985l0.381897-0.2207031l0.4989929-0.2890015L229.2177887,283.819519 M235.6298981,279.2540283
								l-9.6387024,5.5654907l-1.405304,0.8115234l-9.6748047,5.5868835l0.0674133,23.8105164l20.719696-11.9627991
								l-0.031189-11.0751953l-0.0049133-1.6983032L235.6298981,279.2540283"/>
						</g>
					</g>
				</g>
			</g>
			<g>
				<g style="enable-background:new    ;">
					<defs>
						<polygon id="SVGID_3_" style="enable-background:new    ;" points="173.9267883,303.0499268 173.9940948,279.2081299 
							194.7431946,291.1886292 194.6757965,315.030426 						"/>
					</defs>
					<clipPath id="SVGID_4_">
						<use xlink:href="#SVGID_3_"  style="overflow:visible;"/>
					</clipPath>
					<g style="clip-path:url(#SVGID_4_);">
						<g>
							<path style="fill:#0E0F10;" d="M185,309.4171448l-1.4043121-0.8115234
								c0.2324066,0.1513977,0.4668121,0.2969055,0.7012024,0.4326172
								C184.5331879,309.1749268,184.7675934,309.2999268,185,309.4171448 M174.7323914,292.3995361l-0.0096893,3.7012024
								c1.0448914,3.5517883,3.089798,7.0937805,5.6493988,9.782196l3.2509003,1.8779907
								C178.8672028,304.632019,175.066391,298.06073,174.7323914,292.3995361 M173.9892883,290.2990417
								c-0.0185852,0.2704773-0.0283966,0.5477905-0.0283966,0.8348999
								c-0.0018921,0.2851868,0.0059052,0.5741882,0.0234985,0.8652039L173.9892883,290.2990417 M192.5087891,294.4796448
								l-0.3759918,0.6425781c1.1524048,2.4912109,1.8280945,5.1309204,1.8222961,7.5557251
								c-0.0175934,5.8358765-3.9853973,8.3465881-8.9776001,5.8641968l3.2510071,1.8769836
								c2.5937958,0.2723999,4.6689911-0.9277954,5.7206879-3.3144836l0.0254059-8.8437195
								C193.6073914,296.9874268,193.1112976,295.7120361,192.5087891,294.4796448 M176.2108917,285.0460205
								c-0.5957031,0.5196228-1.0917969,1.1953125-1.4637909,2.015625l-0.0098114,3.7012024
								c0.1416016-2.0429077,0.804718-3.6191101,1.843811-4.6445007L176.2108917,285.0460205 M181.7108917,284.959137
								l-2.0350952-1.1737976c-1.1054993,0.0087891-2.0986938,0.3016968-2.9346008,0.8544922l0.3574066,1.0350952
								C178.3065948,284.7843323,179.9013977,284.5128479,181.7108917,284.959137 M189.0468903,289.1964417l-2.035202-1.1748047
								c1.8145142,1.6474915,3.4082031,3.7666016,4.6094055,6.0606079l0.3612976-0.6202087
								C191.1503906,291.9347229,190.1562958,290.4865417,189.0468903,289.1964417"/>
						</g>
						<g>
							<path style="fill:#0E0F10;" d="M189.0468903,289.1964417l4.0937042,2.3623047l-0.0350952-0.0185242l-1.1231079,1.921814
								l-0.3612976,0.6202087l-7.3036957,12.5213928l-7.2187958-20.9287109l-0.3574066-1.0350952l-1.0986023-3.1825867
								l4.0332031,2.3280945l2.0350952,1.1737976l5.3007965,3.0625L189.0468903,289.1964417 M193.9921875,291.616333
								l-19.226593-11.1015015l-0.0009918,0.3398132l1.4462891,4.1913757l0.3702087,1.0723267l7.5702972,21.9472961
								l0.3231964,0.1854858l7.6582031-13.1289062l0.3759918-0.6425781l1.4833984-2.5429993V291.616333"/>
						</g>
						<g>
							<path style="fill:#0E0F10;" d="M174.7646027,280.8546448l0.0009918-0.3398132l19.226593,11.1015015v0.3203125
								l-0.0175934,6.3242798l-0.0254059,8.8437195l-0.0184937,6.6064758l-5.7021942-3.2919922l-3.2510071-1.8769836
								l-0.5028992-0.2910156l-0.3231964-0.1854858l-0.5283966-0.304718l-3.2509003-1.8779907l-5.6690063-3.2723999
								l0.0196075-6.5097961l0.0096893-3.7012024l0.0048981-1.6366882l0.0098114-3.7012024L174.7646027,280.8546448
								 M194.7431946,291.1886292l-20.7236938-11.9657898l-0.0302124,11.0762024l-0.0048981,1.7001038l-0.0312958,11.039093
								l9.6425934,5.5673828L185,309.4171448l9.6757965,5.5859985L194.7431946,291.1886292"/>
						</g>
					</g>
				</g>
			</g>
		</g>
		<g>
			<g>
				<polygon style="fill:#484849;" points="243,487.99823 204,510.5958252 204,465.741333 243,443.1437378 				"/>
			</g>
			<g>
				<polygon style="fill:#2F2E2E;" points="166,487.99823 204,510.5958252 204,465.741333 166,443.1437378 				"/>
			</g>
			<g>
				<polygon style="fill:#595959;" points="166,443.1378479 204.5,420.6281433 243,443.1378479 243,443.241333 204.5,465.7511292 
					166,443.241333 				"/>
			</g>
			<g>
				<g>
					<path style="fill:#0E0F10;" d="M204.1327972,510.819519l0.4530945-0.039093L166,488.2335205v-45.1708984l-0.4521027-0.0390015
						l38.844696-22.5478821l-0.2167969,0.0380859L243,443.0626221v45.1708984l0.0858917,0.0362244L204.1327972,510.819519z
						 M166,488.0792236l38.5,22.4356079l38.5-22.4356079v-44.8652039l-38.5-22.4335938L166,443.2140198V488.0792236z"/>
				</g>
				<g>
					<rect x="204" y="465.4484253" style="fill:#0E0F10;" width="0" height="45.2890015"/>
				</g>
				<g>
					<polygon style="fill:#0E0F10;" points="204.1855011,465.9025269 204.1190948,465.8644409 165.0878906,443.3556213 
						165.2187958,443.1271362 204.1855011,465.5978394 243.152298,443.1271362 243.2841949,443.3556213 					"/>
				</g>
			</g>
			<g>
				<g style="enable-background:new    ;">
					<defs>
						<polygon id="SVGID_5_" style="enable-background:new    ;" points="174.0438995,482.7618408 174.1093903,459.9308472 
							193.9785004,471.4025269 193.914093,494.2355347 						"/>
					</defs>
					<clipPath id="SVGID_6_">
						<use xlink:href="#SVGID_5_"  style="overflow:visible;"/>
					</clipPath>
					<g style="clip-path:url(#SVGID_6_);">
						<g>
							<path style="fill:#0E0F10;" d="M183.9843903,486.632019c-4.5820923-2.6454773-8.2988892-9.0820923-8.2831879-14.3466797
								c0.0135956-5.2676086,3.7557983-7.3984985,8.3378906-4.7528992
								c4.5820007,2.6455078,8.2987976,9.0838928,8.2850952,14.3495789
								C192.3085938,487.147644,188.5683899,489.2775269,183.9843903,486.632019 M184.0448914,465.6661377
								c-5.4803925-3.1629944-9.9510956-0.6141968-9.968689,5.6817017
								c-0.0176086,6.2929077,4.4237976,13.9882812,9.9032898,17.1503906
								c5.4775085,3.1631165,9.9501953,0.6141968,9.967804-5.6787109
								C193.964798,476.5245361,189.5214996,468.8292236,184.0448914,465.6661377"/>
						</g>
					</g>
				</g>
			</g>
			<g>
				<g style="enable-background:new    ;">
					<defs>
						<polygon id="SVGID_7_" style="enable-background:new    ;" points="212.6405945,496.9699402 212.5741882,473.2208252 
							236.4355011,459.4435425 236.5019989,483.1915283 						"/>
					</defs>
					<clipPath id="SVGID_8_">
						<use xlink:href="#SVGID_7_"  style="overflow:visible;"/>
					</clipPath>
					<g style="clip-path:url(#SVGID_8_);">
						<g>
							<path style="fill:#0E0F10;" d="M224.5605011,486.3829346l-9.1699066-12.8866882l18.2382965-10.5312195
								L224.5605011,486.3829346 M236.4355011,459.4435425l-23.863205,13.7772827l11.9989929,16.8604126L236.4355011,459.4435425"/>
						</g>
					</g>
				</g>
			</g>
			<g>
				<g style="enable-background:new    ;">
					<defs>
						<polygon id="SVGID_9_" style="enable-background:new    ;" points="184.1239929,442.8898315 204.3036957,431.1642456 
							224.1278992,442.6085205 203.9491882,454.3361206 						"/>
					</defs>
					<clipPath id="SVGID_10_">
						<use xlink:href="#SVGID_9_"  style="overflow:visible;"/>
					</clipPath>
					<g style="clip-path:url(#SVGID_10_);">
						<g>
							<path style="fill:#0E0F10;" d="M187.3212891,442.834137l16.9912109-9.875l16.6190948,9.593811l-16.993103,9.875885
								L187.3212891,442.834137 M224.1278992,442.6085205l-19.8242035-11.4442749l-20.1797028,11.7255859l19.8251953,11.4462891
								L224.1278992,442.6085205"/>
						</g>
					</g>
				</g>
			</g>
		</g>
		<g>
			<g>
				<polygon style="fill:#1F2020;" points="166,397.9767456 126,420.5753479 126,375.7218323 166,353.1241455 				"/>
			</g>
			<g>
				<polygon style="fill:#171819;" points="87,397.9767456 126,420.5753479 126,375.7218323 87,353.1241455 				"/>
			</g>
			<g>
				<polygon style="fill:#353737;" points="87,353.1183472 126.5,330.6085205 166,353.1183472 166,353.2208252 126.5,375.7296448 
					87,353.2208252 				"/>
			</g>
			<g>
				<g>
					<path style="fill:#0E0F10;" d="M125.726593,420.7990417l0.1884079-0.0381165L87,398.2140198v-45.171875l-0.1884995-0.0371094
						l39.0409927-22.5498047l0.5225067,0.0381165L166,353.0421448v45.171875l-0.5839996,0.0371094L125.726593,420.7990417z
						 M87,398.06073l39.5,22.4335938L166,398.06073V353.194519l-39.5-22.4335938L87,353.194519V398.06073z"/>
				</g>
				<g>
					<rect x="126" y="375.8077393" style="fill:#0E0F10;" width="0" height="45.0732994"/>
				</g>
				<g>
					<polygon style="fill:#0E0F10;" points="125.8690948,375.882019 125.8026962,375.8449402 86.7714996,353.3361206 
						86.902298,353.1075439 125.8690948,375.5792236 164.8358917,353.1075439 164.9677887,353.3361206 					"/>
				</g>
			</g>
			<g>
				<g style="enable-background:new    ;">
					<defs>
						<polygon id="SVGID_11_" style="enable-background:new    ;" points="136.3896027,404.428833 136.3251953,381.5968323 
							156.1952972,370.1261292 156.2606964,392.9572449 						"/>
					</defs>
					<clipPath id="SVGID_12_">
						<use xlink:href="#SVGID_11_"  style="overflow:visible;"/>
					</clipPath>
					<g style="clip-path:url(#SVGID_12_);">
						<g>
							<path style="fill:#0E0F10;" d="M146.3202972,396.8273315c-4.5820007,2.6445007-8.3231964,0.5145874-8.3379059-4.75
								c-0.0155945-5.2676086,3.7012024-11.7041016,8.2832031-14.3505859
								c4.5839996-2.647522,8.3242035-0.5127258,8.3399048,4.7528992
								C154.6201019,387.7443237,150.9032898,394.1808472,146.3202972,396.8273315 M146.2617035,375.8624268
								c-5.4795074,3.1611938-9.9219055,10.8575134-9.9043121,17.1524048
								c0.0176086,6.2929077,4.4903107,8.8407898,9.967804,5.6777039c5.4785004-3.164093,9.9208984-10.8573914,9.9033051-17.1503906
								C156.2108917,375.2472229,151.7393036,372.6984253,146.2617035,375.8624268"/>
						</g>
					</g>
				</g>
			</g>
			<g>
				<g style="enable-background:new    ;">
					<defs>
						<polygon id="SVGID_13_" style="enable-background:new    ;" points="101.7782974,352.1954346 122.3115005,340.2628479 
							146.1737976,354.0402222 125.6405945,365.9738464 						"/>
					</defs>
					<clipPath id="SVGID_14_">
						<use xlink:href="#SVGID_13_"  style="overflow:visible;"/>
					</clipPath>
					<g style="clip-path:url(#SVGID_14_);">
						<g>
							<path style="fill:#0E0F10;" d="M116.9081955,357.2267456l6.5742035-14.3858032l18.2383041,10.5292969
								L116.9081955,357.2267456 M146.1737976,354.0402222l-23.8622971-13.7773743l-8.6015015,18.8222961L146.1737976,354.0402222"
								/>
						</g>
					</g>
				</g>
			</g>
			<g>
				<g style="enable-background:new    ;">
					<defs>
						<polygon id="SVGID_15_" style="enable-background:new    ;" points="95.7266006,392.9240417 95.7929993,369.5831299 
							115.6181946,381.030426 115.551796,404.3683472 						"/>
					</defs>
					<clipPath id="SVGID_16_">
						<use xlink:href="#SVGID_15_"  style="overflow:visible;"/>
					</clipPath>
					<g style="clip-path:url(#SVGID_16_);">
						<g>
							<path style="fill:#0E0F10;" d="M97.3848038,391.9777222l0.0546951-19.5410767l16.6170959,9.5947876l-0.0545959,19.5409851
								L97.3848038,391.9777222 M115.6181946,381.030426l-19.8251953-11.4472961l-0.0663986,23.3409119l19.8251953,11.4443054
								L115.6181946,381.030426"/>
						</g>
					</g>
				</g>
			</g>
		</g>
		<g>
			<g>
				<polygon style="fill:#B7B7B9;" points="322,397.9767456 283,420.5753479 283,375.7218323 322,353.1241455 				"/>
			</g>
			<g>
				<polygon style="fill:#848484;" points="243,397.9767456 283,420.5753479 283,375.7218323 243,353.1241455 				"/>
			</g>
			<g>
				<polygon style="fill:#D0D2D4;" points="243,353.1183472 282.5,330.6085205 322,353.1183472 322,353.2208252 282.5,375.7296448 
					243,353.2208252 				"/>
			</g>
			<g>
				<g>
					<path style="fill:#0E0F10;" d="M282.2743835,420.7990417l-0.0829773-0.0381165L243,398.2140198v-45.171875l0.0858917-0.0371094
						l39.1786957-22.5498047l0.3174133,0.0381165L322,353.0421448v45.171875l-0.3096008,0.0371094L282.2743835,420.7990417z
						 M243,398.06073l39.5,22.4335938L322,398.06073V353.194519l-39.5-22.4335938L243,353.194519V398.06073z"/>
				</g>
				<g>
					<rect x="283" y="375.8077393" style="fill:#0E0F10;" width="0" height="45.0732994"/>
				</g>
				<g>
					<polygon style="fill:#0E0F10;" points="282.2099915,375.882019 282.1445007,375.8449402 243.1112976,353.3361206 
						243.2431946,353.1075439 282.2099915,375.5792236 321.1767883,353.1075439 321.3085938,353.3361206 					"/>
				</g>
			</g>
			<g>
				<g style="enable-background:new    ;">
					<defs>
						<polygon id="SVGID_17_" style="enable-background:new    ;" points="262.8739929,352.491333 282.6132812,341.0197449 
							302.4823914,352.491333 282.7431946,363.9640198 						"/>
					</defs>
					<clipPath id="SVGID_18_">
						<use xlink:href="#SVGID_17_"  style="overflow:visible;"/>
					</clipPath>
					<g style="clip-path:url(#SVGID_18_);">
						<g>
							<path style="fill:#0E0F10;" d="M274.4219055,357.2902222c-4.5840149-2.6454773-4.6094055-6.9512024-0.0557251-9.5966797
								c4.5537109-2.6465149,11.9862976-2.6465149,16.5693054,0c4.5830994,2.6454773,4.6075134,6.9512024,0.0527954,9.5975952
								C286.4354858,359.9366455,279.0028992,359.9366455,274.4219055,357.2902222 M292.5478821,346.757019
								c-5.4776001-3.164093-14.3613892-3.164093-19.8067017,0c-5.4403992,3.1611023-5.4111023,8.3076172,0.0674133,11.4707031
								c5.4784851,3.1621094,14.3633118,3.1640015,19.8027039,0.0019226
								C298.0556946,355.0656433,298.0263977,349.9181213,292.5478821,346.757019"/>
						</g>
					</g>
				</g>
			</g>
			<g>
				<g style="enable-background:new    ;">
					<defs>
						<polygon id="SVGID_19_" style="enable-background:new    ;" points="292.6825867,404.7931213 292.6171875,381.5665283 
							312.4414062,370.1202393 312.5087891,393.3478394 						"/>
					</defs>
					<clipPath id="SVGID_20_">
						<use xlink:href="#SVGID_19_"  style="overflow:visible;"/>
					</clipPath>
					<g style="clip-path:url(#SVGID_20_);">
						<g>
							<path style="fill:#0E0F10;" d="M294.2323914,402.1075439l-0.0546875-19.6513062l16.6171875-9.5957031l0.0556946,19.6542969
								L294.2323914,402.1075439 M312.4414062,370.1202393l-19.8242188,11.4462891l0.0653992,23.226593l19.8262024-11.445282
								L312.4414062,370.1202393"/>
						</g>
					</g>
				</g>
			</g>
			<g>
				<g style="enable-background:new    ;">
					<defs>
						<polygon id="SVGID_21_" style="enable-background:new    ;" points="251.0526886,393.5831299 251.1200867,369.835144 
							274.9823914,383.6124268 274.914093,407.3595276 						"/>
					</defs>
					<clipPath id="SVGID_22_">
						<use xlink:href="#SVGID_21_"  style="overflow:visible;"/>
					</clipPath>
					<g style="clip-path:url(#SVGID_22_);">
						<g>
							<path style="fill:#0E0F10;" d="M263.2743835,397.5060425l-9.3475952-24.147522l18.7773132,10.7285156
								L263.2743835,397.5060425z M274.9823914,383.6124268l-23.8623047-13.7772827l11.8633118,30.6366882L274.9823914,383.6124268"
								/>
						</g>
					</g>
				</g>
			</g>
		</g>
	</g>
</g>
</svg>
