<?xml version="1.0" encoding="utf-8"?>
<svg version="1.1" id="Слой_1" xmlns="http://www.w3.org/2000/svg" xmlns:xlink="http://www.w3.org/1999/xlink" x="0px" y="0px"
	 viewBox="0 0 79 90.039093" style="enable-background:new 0 0 79 90.039093;" xml:space="preserve">
<g>
	<g>
		<g>
			<g>
				<polygon style="fill:#1F2020;" points="79,67.5215149 39,90.1201172 39,45.2666016 79,22.6689148 				"/>
			</g>
			<g>
				<polygon style="fill:#171819;" points="0,67.5215149 39,90.1201172 39,45.2666016 0,22.6689148 				"/>
			</g>
			<g>
				<polygon style="fill:#353737;" points="0,22.6631165 39.5,0.1532898 79,22.6631165 79,22.7655945 39.5,45.2744141 0,22.7655945 
									"/>
			</g>
			<g>
				<g>
					<path style="fill:#0E0F10;" d="M38.726593,90.343811l0.1884079-0.0381165L0,67.7587891v-45.171875l-0.1884995-0.0371094
						L38.8524933,0L39.375,0.0381165L79,22.5869141v45.171875l-0.5839996,0.0371094L38.726593,90.343811z M0,67.6054993
						L39.5,90.039093L79,67.6054993V22.7392883L39.5,0.3056946L0,22.7392883V67.6054993z"/>
				</g>
				<g>
					<rect x="39" y="45.3525085" style="fill:#0E0F10;" width="0" height="45.0733032"/>
				</g>
				<g>
					<polygon style="fill:#0E0F10;" points="38.8690948,45.4267883 38.8026962,45.3897095 -0.2285004,22.8808899 
						-0.097702,22.6523132 38.8690948,45.1239929 77.8358917,22.6523132 77.9677887,22.8808899 					"/>
				</g>
			</g>
			<g>
				<g style="enable-background:new    ;">
					<g>
						<defs>
							<polygon id="SVGID_1_" points="49.3896027,73.9736023 49.3251953,51.1416016 69.1952972,39.6708984 69.2606964,62.5020142 
															"/>
						</defs>
						<clipPath id="SVGID_2_">
							<use xlink:href="#SVGID_1_"  style="overflow:visible;"/>
						</clipPath>
						<g style="clip-path:url(#SVGID_2_);">
							<g>
								<path style="fill:#0E0F10;" d="M59.3202972,66.3721008c-4.5820007,2.6445007-8.3231964,0.5145874-8.3379059-4.75
									c-0.0155945-5.2676086,3.7012024-11.7041016,8.2832031-14.3505859
									c4.5839996-2.647522,8.3242035-0.5127258,8.3399048,4.7528992
									C67.6201019,57.289093,63.9032898,63.7256165,59.3202972,66.3721008 M59.2617035,45.407196
									c-5.4795074,3.1611938-9.9219055,10.8575134-9.9043121,17.1524048
									c0.0176086,6.2929077,4.4903107,8.8407898,9.967804,5.6777039
									c5.4785004-3.164093,9.9208984-10.8573914,9.9033051-17.1503906
									C69.2108917,44.7919922,64.7393036,42.2431946,59.2617035,45.407196"/>
							</g>
						</g>
					</g>
				</g>
			</g>
			<g>
				<g style="enable-background:new    ;">
					<g>
						<defs>
							<polygon id="SVGID_3_" points="14.7782974,21.7402039 35.3115005,9.8076172 59.1737976,23.5849915 38.6405945,35.5186157 
															"/>
						</defs>
						<clipPath id="SVGID_4_">
							<use xlink:href="#SVGID_3_"  style="overflow:visible;"/>
						</clipPath>
						<g style="clip-path:url(#SVGID_4_);">
							<g>
								<path style="fill:#0E0F10;" d="M29.9081955,26.7715149l6.5742035-14.3858032l18.2383041,10.5292969L29.9081955,26.7715149
									 M59.1737976,23.5849915L35.3115005,9.8076172l-8.6015015,18.8222961L59.1737976,23.5849915"/>
							</g>
						</g>
					</g>
				</g>
			</g>
			<g>
				<g style="enable-background:new    ;">
					<g>
						<defs>
							<polygon id="SVGID_5_" points="8.7266006,62.468811 8.7929993,39.1278992 28.6181946,50.5751953 28.551796,73.9131165 
															"/>
						</defs>
						<clipPath id="SVGID_6_">
							<use xlink:href="#SVGID_5_"  style="overflow:visible;"/>
						</clipPath>
						<g style="clip-path:url(#SVGID_6_);">
							<g>
								<path style="fill:#0E0F10;" d="M10.3848038,61.5224915l0.0546951-19.5410767l16.6170959,9.5947876l-0.0545959,19.5409851
									L10.3848038,61.5224915 M28.6181946,50.5751953L8.7929993,39.1278992L8.7266006,62.468811L28.551796,73.9131165
									L28.6181946,50.5751953"/>
							</g>
						</g>
					</g>
				</g>
			</g>
		</g>
	</g>
</g>
</svg>
