<?xml version="1.0" encoding="utf-8"?>
<svg version="1.1" id="Слой_1" xmlns="http://www.w3.org/2000/svg" xmlns:xlink="http://www.w3.org/1999/xlink" x="0px" y="0px"
	 viewBox="0 0 78.1963043 90.039093" style="enable-background:new 0 0 78.1963043 90.039093;" xml:space="preserve">
<g>
	<g>
		<g>
			<g>
				<polygon style="fill:#484849;" points="77.9121094,67.5224915 38.9121094,90.1200867 38.9121094,45.2655945 
					77.9121094,22.6679993 				"/>
			</g>
			<g>
				<polygon style="fill:#2F2E2E;" points="0.9121094,67.5224915 38.9121094,90.1200867 38.9121094,45.2655945 
					0.9121094,22.6679993 				"/>
			</g>
			<g>
				<polygon style="fill:#595959;" points="0.9121094,22.6621094 39.4121094,0.1524048 77.9121094,22.6621094 
					77.9121094,22.7655945 39.4121094,45.2753906 0.9121094,22.7655945 				"/>
			</g>
			<g>
				<g>
					<path style="fill:#0E0F10;" d="M39.0449066,90.3437805l0.4530945-0.039093L0.9121094,67.757782V22.5868835
						l-0.4521027-0.0390015L39.3047028,0l-0.2167969,0.0380859l38.8242035,22.5487976V67.757782l0.0858917,0.0362244
						L39.0449066,90.3437805z M0.9121094,67.6034851l38.5,22.4356079l38.5-22.4356079V22.7382812l-38.5-22.4335938l-38.5,22.4335938
						V67.6034851z"/>
				</g>
				<g>
					<rect x="38.9121094" y="44.9726868" style="fill:#0E0F10;" width="0" height="45.2890015"/>
				</g>
				<g>
					<polygon style="fill:#0E0F10;" points="39.0976105,45.4267883 39.0312042,45.3887024 0,22.8798828 0.1309052,22.6513977 
						39.0976105,45.1221008 78.0644073,22.6513977 78.1963043,22.8798828 					"/>
				</g>
			</g>
			<g>
				<g style="enable-background:new    ;">
					<g>
						<defs>
							<polygon id="SVGID_1_" points="8.9560089,62.2861023 9.0214996,39.4551086 28.8906097,50.9267883 28.8262024,73.7597961 
															"/>
						</defs>
						<clipPath id="SVGID_2_">
							<use xlink:href="#SVGID_1_"  style="overflow:visible;"/>
						</clipPath>
						<g style="clip-path:url(#SVGID_2_);">
							<g>
								<path style="fill:#0E0F10;" d="M18.8964996,66.1562805c-4.5820923-2.6454773-8.2988892-9.0820923-8.2831879-14.3466797
									c0.0135956-5.2676086,3.7557983-7.3984985,8.3378906-4.7528992
									c4.5820007,2.6455078,8.2987976,9.0838928,8.2850952,14.3495789
									C27.2207031,66.6719055,23.4804993,68.8017883,18.8964996,66.1562805 M18.9570007,45.1903992
									c-5.4803925-3.1629944-9.9510956-0.6141968-9.968689,5.6817017
									c-0.0176086,6.2929077,4.4237976,13.9882812,9.9032898,17.1503906
									c5.4775085,3.1631165,9.9501953,0.6141968,9.967804-5.6787109
									C28.8769073,56.0487976,24.433609,48.3534851,18.9570007,45.1903992"/>
							</g>
						</g>
					</g>
				</g>
			</g>
			<g>
				<g style="enable-background:new    ;">
					<g>
						<defs>
							<polygon id="SVGID_3_" points="47.5527039,76.4942017 47.4862976,52.7450867 71.3476105,38.967804 71.4141083,62.7157898 
															"/>
						</defs>
						<clipPath id="SVGID_4_">
							<use xlink:href="#SVGID_3_"  style="overflow:visible;"/>
						</clipPath>
						<g style="clip-path:url(#SVGID_4_);">
							<g>
								<path style="fill:#0E0F10;" d="M59.4726105,65.907196l-9.1699066-12.8866882l18.2382965-10.5312195L59.4726105,65.907196
									 M71.3476105,38.967804l-23.863205,13.7772827l11.9989929,16.8604126L71.3476105,38.967804"/>
							</g>
						</g>
					</g>
				</g>
			</g>
			<g>
				<g style="enable-background:new    ;">
					<g>
						<defs>
							<polygon id="SVGID_5_" points="19.0361023,22.414093 39.2158051,10.6885071 59.0400085,22.132782 38.8612976,33.8603821 
															"/>
						</defs>
						<clipPath id="SVGID_6_">
							<use xlink:href="#SVGID_5_"  style="overflow:visible;"/>
						</clipPath>
						<g style="clip-path:url(#SVGID_6_);">
							<g>
								<path style="fill:#0E0F10;" d="M22.2333984,22.3583984l16.9912109-9.875l16.6190948,9.593811l-16.993103,9.875885
									L22.2333984,22.3583984 M59.0400085,22.132782L39.2158051,10.6885071L19.0361023,22.414093l19.8251953,11.4462891
									L59.0400085,22.132782"/>
							</g>
						</g>
					</g>
				</g>
			</g>
		</g>
	</g>
</g>
</svg>
