<?xml version="1.0" encoding="utf-8"?>
<!-- Generator: Adobe Illustrator 20.1.0, SVG Export Plug-In . SVG Version: 6.00 Build 0)  -->
<svg version="1.1" id="Слой_1" xmlns="http://www.w3.org/2000/svg" xmlns:xlink="http://www.w3.org/1999/xlink" x="0px" y="0px"
	 viewBox="0 0 181.0967102 180.7060242" style="enable-background:new 0 0 181.0967102 180.7060242;" xml:space="preserve">
<g>
	<path style="fill:#A8A8A8;" d="M90.5487976,181.0996094c-0.1230011,0-0.2480011,0-0.3710938,0l0.0009918-0.2645874
		c0.3506165,0.0028992,0.7022095,0.000885,1.0527039-0.0010071l0.003006,0.2645874
		C91.0059052,181.0996094,90.777298,181.0996094,90.5487976,181.0996094z M89.1210938,181.0889282
		c-0.3524933-0.0059204-0.7050934-0.0127258-1.0567017-0.022522l0.0079193-0.2637024
		c0.3504944,0.0097961,0.7010956,0.0166016,1.0526886,0.022522L89.1210938,181.0889282z M92.2899933,181.0830078
		l-0.0047913-0.2637024c0.3504944-0.0068054,0.7001038-0.0155945,1.0498047-0.0263062l0.0077972,0.2646179
		C92.9922028,181.0674133,92.6416016,181.0762024,92.2899933,181.0830078z M87.0088043,181.0322266
		c-0.3516083-0.0137024-0.7051086-0.030304-1.0557098-0.0469055l0.0127106-0.2626953
		c0.3506012,0.0166016,0.7011871,0.0322876,1.0527954,0.0449829L87.0088043,181.0322266z M94.3954926,181.0185242
		l-0.0106964-0.2617188c0.3515015-0.0155945,0.7011108-0.031189,1.0516968-0.0507812l0.0147095,0.2637024
		C95.0986023,180.9892273,94.7471008,181.0049133,94.3954926,181.0185242z M84.8975067,180.9277039
		c-0.3516083-0.0233765-0.7022095-0.0477905-1.0538025-0.0722046l0.0196075-0.2626953
		c0.3495941,0.0244141,0.7001953,0.0487976,1.0516815,0.0703125L84.8975067,180.9277039z M96.5048981,180.9062195
		l-0.0155945-0.2617188c0.3495941-0.0233765,0.7000885-0.0487976,1.0497894-0.0741882l0.0205078,0.2616882
		C97.2089996,180.8583984,96.8574066,180.8838196,96.5048981,180.9062195z M82.7899933,180.773407
		c-0.3495941-0.031189-0.7010956-0.063385-1.0516815-0.0966797l0.0262909-0.2626038
		c0.3487091,0.0340881,0.6983032,0.0663757,1.0489044,0.0957031L82.7899933,180.773407z M98.6123047,180.7471008
		l-0.023407-0.2637024c0.3515015-0.0312805,0.7001953-0.0644836,1.0487976-0.0995789l0.0263977,0.2637024
		C99.3143921,180.6826172,98.9629059,180.7158203,98.6123047,180.7471008z M80.6885071,180.5703125
		c-0.3516083-0.039093-0.7012024-0.0780945-1.0508118-0.1210938l0.0322113-0.2617188
		c0.3486938,0.0420227,0.6962891,0.0810242,1.0458984,0.1191101L80.6885071,180.5703125z M100.714798,180.5351257
		l-0.0283051-0.2617188c0.347702-0.0380859,0.6973114-0.0799866,1.0449066-0.1219788l0.0332031,0.2606812
		C101.4149933,180.4560242,101.0653992,180.4971008,100.714798,180.5351257z M78.5888977,180.3174133
		c-0.3495941-0.0469055-0.6972961-0.0947876-1.0449982-0.1455078l0.0372009-0.2597961
		c0.3475952,0.0498047,0.6952972,0.0977173,1.0428925,0.1436157L78.5888977,180.3174133z M102.8125,180.2773132
		l-0.0361023-0.2616882c0.3475952-0.0469055,0.6952972-0.0957031,1.0429077-0.1473999l0.039093,0.2606812
		C103.5106964,180.1807251,103.1611023,180.2295227,102.8125,180.2773132z M76.4989929,180.0176086
		c-0.3495941-0.0556946-0.6962891-0.1113892-1.0428925-0.1699829l0.0428925-0.2607117
		c0.3457031,0.0585938,0.6934052,0.1142883,1.0410004,0.1690063L76.4989929,180.0176086z M104.902298,179.9687195
		l-0.0419922-0.2597046c0.3476868-0.0567017,0.6933899-0.1142883,1.0401001-0.1729126l0.0438995,0.2608032
		C105.5966949,179.8554993,105.25,179.9131165,104.902298,179.9687195z M74.4149933,179.6679993
		c-0.3475952-0.0634766-0.6932983-0.1288757-1.0389862-0.1953735l0.0497894-0.2578125
		c0.344696,0.0664062,0.6894073,0.1308899,1.0361023,0.1933899L74.4149933,179.6679993z M106.9853058,179.6113281
		l-0.0488129-0.2588196c0.3467102-0.063385,0.6914062-0.1289062,1.0362091-0.1962891l0.0498047,0.2587891
		C107.6786957,179.4824219,107.3311005,179.5469055,106.9853058,179.6113281z M72.339798,179.2695007
		c-0.3466034-0.0721741-0.6903992-0.1445007-1.0341034-0.219696l0.055603-0.257782
		c0.342804,0.0751953,0.6865082,0.1473999,1.030304,0.218689L72.339798,179.2695007z M109.0585938,179.2070007l-0.0546875-0.257782
		c0.344696-0.0722961,0.6884918-0.1465149,1.0312958-0.2207031l0.0565948,0.2568054
		C109.7480011,179.0605164,109.4033051,179.1348267,109.0585938,179.2070007z M70.2743988,178.8213196
		c-0.342804-0.0780945-0.6855011-0.1592102-1.0292969-0.242218l0.0625-0.2548828
		c0.3408051,0.0820007,0.6826019,0.1621094,1.0253906,0.2392883L70.2743988,178.8213196z M111.1221008,178.7528992
		l-0.0606079-0.2567749c0.3428192-0.0801086,0.6846008-0.1621094,1.0254059-0.2442017l0.0635071,0.2558899
		C111.8085938,178.5918274,111.4658051,178.672821,111.1221008,178.7528992z M68.219696,178.3262024
		c-0.3417969-0.0859985-0.6815948-0.1757812-1.0214996-0.265686l0.0673981-0.2557983
		c0.338913,0.0907898,0.6787109,0.1796875,1.0196075,0.2655945L68.219696,178.3262024z M113.1748047,178.2510071
		l-0.0653992-0.256897c0.339798-0.0868835,0.6796875-0.1756897,1.0184937-0.2674866l0.0684052,0.2547913
		C113.8563995,178.0732117,113.5166016,178.1621094,113.1748047,178.2510071z M66.1786957,177.7812195
		c-0.339798-0.0937195-0.6786957-0.1903992-1.0166016-0.2879944l0.0732117-0.2530212
		c0.3378906,0.0967102,0.6757965,0.1934204,1.0136871,0.2891235L66.1786957,177.7812195z M115.2138977,177.7002258
		l-0.0702972-0.2539062c0.3368988-0.0957031,0.6748047-0.1934204,1.0117035-0.2929993l0.0741882,0.2539062
		C115.8925934,177.5068054,115.5536957,177.6035156,115.2138977,177.7002258z M64.1493988,177.1914062
		c-0.3379059-0.102478-0.6757965-0.2070007-1.0137024-0.3153992L63.2158051,176.625
		c0.3359985,0.1064148,0.6728973,0.2119141,1.010788,0.3144226L64.1493988,177.1914062z M117.2411957,177.1016235
		l-0.0780945-0.2520142c0.3368988-0.1025085,0.6708984-0.2089844,1.0057983-0.3164062l0.0800934,0.2510071
		C117.914093,176.8926086,117.5771027,176.9980164,117.2411957,177.1016235z M62.1269073,176.5498047
		c-0.335907-0.1112976-0.6708069-0.2236023-1.0048065-0.3388977l0.085907-0.25
		c0.3319855,0.1152954,0.6659851,0.2276001,1.0019989,0.3379211L62.1269073,176.5498047z M119.2528992,176.4560242
		l-0.0830078-0.2509155c0.3330078-0.1103821,0.6651001-0.2226868,0.9971008-0.3388977l0.085907,0.2489929
		C119.9208984,176.2304993,119.5868988,176.3437195,119.2528992,176.4560242z M60.1201019,175.860321
		c-0.3320007-0.1191101-0.6650085-0.2391968-0.996109-0.3612976l0.0918121-0.2471008
		c0.3300934,0.1221008,0.6611023,0.2421875,0.9942017,0.3603821L60.1201019,175.860321z M121.2489929,175.7637024
		l-0.0887909-0.2480774c0.3300018-0.1191101,0.6600952-0.2412109,0.9881897-0.3633118l0.092804,0.2460938
		C121.9111023,175.522522,121.5800934,175.6435242,121.2489929,175.7637024z M58.1318054,175.125
		c-0.3300018-0.1269836-0.6601105-0.2558899-0.988205-0.3857727l0.0975952-0.2451172
		c0.3272095,0.1299133,0.655304,0.2578125,0.9853973,0.3837891L58.1318054,175.125z M123.2285004,175.023407l-0.0957031-0.2460938
		c0.3280945-0.1268921,0.655304-0.2568054,0.9805145-0.3857117l0.098587,0.2441101
		C123.8847961,174.7676086,123.5565948,174.8965149,123.2285004,175.023407z M56.1611023,174.3418274
		c-0.3280945-0.1338196-0.6533051-0.2715149-0.9785004-0.4082031l0.1035004-0.2432251
		c0.3233032,0.1377258,0.6484985,0.2735291,0.9745941,0.4072266L56.1611023,174.3418274z M125.1884918,174.2373047
		l-0.0995941-0.2431946c0.3231964-0.1337891,0.6455078-0.2695007,0.9667969-0.4082031l0.1035004,0.242218
		C125.8368988,173.967804,125.5137024,174.1025085,125.1884918,174.2373047z M54.2100067,173.5117188
		c-0.3243103-0.1405945-0.6464996-0.2842102-0.968811-0.429718l0.1094055-0.2401733
		c0.3202972,0.1454773,0.6425934,0.2870789,0.9658051,0.4286804L54.2100067,173.5117188z M127.1239929,173.4092102
		l-0.1053925-0.2412109c0.3193054-0.140686,0.6385956-0.2841797,0.9559937-0.4296875l0.1094055,0.2391968
		C127.7655945,173.1240234,127.4452972,173.2676086,127.1239929,173.4092102z M52.2793121,172.6396179
		c-0.3193054-0.1494141-0.6397095-0.3006897-0.9561157-0.4541016l0.1132965-0.2373047
		c0.3174133,0.1524048,0.6358185,0.3027954,0.9551086,0.4522095L52.2793121,172.6396179z M129.039093,172.5351257
		l-0.1122894-0.2382202c0.3172913-0.1484985,0.6327972-0.2988892,0.9471893-0.452179l0.1153107,0.2362976
		C129.6737976,172.235321,129.3563995,172.3867188,129.039093,172.5351257z M50.3701019,171.7207031
		c-0.3153992-0.157196-0.6307983-0.3153992-0.9452972-0.476593l0.1190948-0.2352905
		c0.3144989,0.1600952,0.6289062,0.3182983,0.9434052,0.4765015L50.3701019,171.7207031z M130.9335938,171.617218
		l-0.1172028-0.2354126c0.3135071-0.156189,0.6260071-0.3153992,0.9365082-0.4755859l0.1210938,0.2353821
		C131.5614929,171.3017273,131.2480011,171.4619141,130.9335938,171.617218z M48.4853058,170.7578125
		c-0.3134003-0.1650085-0.625-0.3301086-0.9355011-0.4979858l0.1259918-0.2333984
		c0.3095093,0.1669922,0.6201019,0.3338928,0.9316101,0.4979858L48.4853058,170.7578125z M132.8076019,170.655304
		l-0.1230011-0.2333984c0.309494-0.164093,0.6172028-0.3291016,0.9248047-0.4971008l0.1268921,0.2333984
		C133.4268036,170.3242188,133.1181946,170.492218,132.8076019,170.655304z M46.6221008,169.7510071
		c-0.3085938-0.1728821-0.6172028-0.3466797-0.9219055-0.5205078l0.1309052-0.2285767
		c0.3045959,0.1738892,0.6112976,0.3466797,0.9179077,0.5175781L46.6221008,169.7510071z M134.6582031,169.648407
		l-0.1278992-0.2304077c0.3046875-0.1708984,0.6102905-0.3427734,0.9140015-0.5175781l0.1298981,0.2284851
		C135.2704926,169.3037109,134.964798,169.4775085,134.6582031,169.648407z M44.782196,168.6992188
		c-0.3026886-0.1787109-0.6073914-0.3583984-0.9081879-0.539093l0.1347961-0.2265015
		c0.3016968,0.1815796,0.6054993,0.3612976,0.9082031,0.5390015L44.782196,168.6992188z M136.4853058,168.5996094
		l-0.1328125-0.2275085c0.3018188-0.1777954,0.6026001-0.3583984,0.9013977-0.5380859l0.1367035,0.2236023
		C137.089798,168.2412109,136.7881012,168.4208984,136.4853058,168.5996094z M42.9707031,167.6074219
		c-0.2998047-0.1855164-0.5996094-0.3730164-0.8964996-0.5615234l0.1416016-0.2226868
		c0.2968903,0.1895142,0.594696,0.375,0.8945007,0.5606079L42.9707031,167.6074219z M138.289093,167.5088196l-0.1386871-0.2256165
		c0.2969055-0.1855774,0.593689-0.3721008,0.8886871-0.5596008l0.1416016,0.2217102
		C138.8847961,167.1348267,138.5868988,167.3223267,138.289093,167.5088196z M41.1846008,166.4726257
		c-0.2958984-0.1914062-0.5899048-0.3867188-0.8838043-0.5820007l0.1473999-0.2197266
		c0.2920074,0.1953125,0.5850067,0.3887024,0.8798981,0.5820007L41.1846008,166.4726257z M140.0653992,166.3730164
		l-0.1434937-0.2207031c0.2938995-0.1914062,0.5858917-0.3857117,0.8759003-0.5799866l0.1474915,0.2176819
		C140.6543121,165.9883118,140.3603058,166.1816101,140.0653992,166.3730164z M39.4248047,165.2969055
		c-0.2910004-0.1983032-0.5801086-0.3993835-0.8691101-0.6026001l0.1523132-0.2157898
		c0.2870941,0.2022095,0.5761871,0.4032898,0.8661957,0.601593L39.4248047,165.2969055z M141.8173981,165.1992188
		l-0.1504059-0.2187195c0.2900085-0.1992798,0.5771027-0.3984985,0.8641968-0.6005859l0.1513977,0.2148132
		C142.3955078,164.797821,142.1073914,164.9990234,141.8173981,165.1992188z M37.6943054,164.0810242
		c-0.2861023-0.2060242-0.5713043-0.4130249-0.8545074-0.6220093l0.1573029-0.2119141
		c0.2812042,0.2070007,0.5664062,0.4150085,0.8515015,0.6191101L37.6943054,164.0810242z M143.5409851,163.9824219
		l-0.1542969-0.2138977c0.2842102-0.2050171,0.5674133-0.4121094,0.8486023-0.6210022l0.1573181,0.2118835
		C144.1094055,163.5684204,143.8262024,163.7764282,143.5409851,163.9824219z M35.9931946,162.8252258
		c-0.2812958-0.2119141-0.5625-0.4258118-0.8408966-0.6416016l0.1621094-0.2090149
		c0.2773895,0.2157898,0.5576935,0.4287109,0.8369904,0.6405945L35.9931946,162.8252258z M145.2362976,162.7275085
		l-0.1592102-0.2118835c0.2792969-0.210907,0.5577087-0.4248047,0.8340149-0.640625l0.1621094,0.2090149
		C145.7958984,162.2998047,145.5176086,162.5137024,145.2362976,162.7275085z M34.3213043,161.5312195
		c-0.2774048-0.2187195-0.5518036-0.4393921-0.8242035-0.6621094l0.1660004-0.2041016
		c0.2723999,0.2227173,0.5469055,0.4404907,0.8222046,0.6592102L34.3213043,161.5312195z M146.9032898,161.4326172
		l-0.164978-0.2070007c0.2743835-0.218811,0.546875-0.4395142,0.8182983-0.6611938l0.1679993,0.2050781
		C147.4512024,160.992218,147.1777039,161.2119141,146.9032898,161.4326172z M32.6786957,160.1982117
		c-0.2695007-0.2246094-0.539093-0.4511108-0.8076019-0.6796875l0.1709137-0.2021179
		c0.2675934,0.2285156,0.536087,0.4541016,0.8065948,0.6787109L32.6786957,160.1982117z M148.5380859,160.0986023
		l-0.1689758-0.2020874c0.2695923-0.226593,0.5370789-0.4522095,0.8036804-0.6806946l0.1719055,0.2012024
		C149.0770874,159.6445007,148.8075867,159.8730164,148.5380859,160.0986023z M31.0702972,158.8271179
		c-0.2655945-0.2304077-0.5302887-0.4638062-0.7919922-0.6972046l0.1757965-0.1983032
		c0.2617035,0.2344055,0.5254059,0.4667969,0.789093,0.6972961L31.0702972,158.8271179z M150.1435852,158.7266235
		l-0.1738892-0.1993103c0.2647095-0.2304077,0.5274048-0.4638062,0.7881165-0.6962891l0.1757812,0.1962891
		C150.6719055,158.2617188,150.4082031,158.4951172,150.1435852,158.7266235z M29.4940948,157.4208984
		c-0.2606964-0.2382812-0.5184937-0.476593-0.7762909-0.7177734l0.1797028-0.1924133
		c0.2568054,0.2402954,0.5155945,0.4785156,0.7743988,0.7149048L29.4940948,157.4208984z M151.7167969,157.3184204
		l-0.1787109-0.1954041c0.2588196-0.2362976,0.515625-0.4746094,0.7723999-0.7157898l0.179718,0.1923828
		C152.2344055,156.8408203,151.9755859,157.0801086,151.7167969,157.3184204z M27.9501953,155.9775085
		c-0.253891-0.2441101-0.5067902-0.4882812-0.7587891-0.7342834l0.1846008-0.1895142
		c0.2518921,0.2460938,0.503891,0.4902039,0.7557983,0.7344055L27.9501953,155.9775085z M153.2558899,155.8721008
		l-0.1817017-0.1894836c0.2528992-0.242218,0.5049133-0.4873047,0.7549133-0.7344055l0.1854858,0.1895142
		C153.7626953,155.3828125,153.5107117,155.6278992,153.2558899,155.8721008z M26.4414062,154.4990234
		c-0.2490082-0.2480164-0.496109-0.4990234-0.7412109-0.7519226l0.1885071-0.1846008
		c0.2451019,0.2510071,0.4911957,0.5019226,0.7391968,0.75L26.4414062,154.4990234z M154.7637024,154.3926086l-0.1885071-0.1865845
		c0.2489929-0.2480164,0.4941101-0.4980164,0.7383118-0.75l0.1893921,0.1835938
		C155.2578125,153.8916016,155.0116882,154.1426086,154.7637024,154.3926086z M24.9667969,152.9873047
		c-0.2422028-0.2548828-0.4833984-0.5116882-0.7236023-0.7685852l0.1933136-0.1795959
		c0.2382965,0.2557983,0.4794922,0.5116882,0.7206879,0.7655945L24.9667969,152.9873047z M156.2344055,152.8769226
		l-0.1905212-0.1816101c0.2413025-0.2549133,0.4804993-0.5097961,0.7207031-0.7685852l0.1934204,0.178772
		C156.718689,152.3662109,156.4775085,152.6211243,156.2344055,152.8769226z M23.5283051,151.4394226
		c-0.2362976-0.2586975-0.4726105-0.5214233-0.7051086-0.7841187l0.1973114-0.1757812
		c0.2323914,0.2637024,0.4667969,0.5243835,0.7030945,0.7832031L23.5283051,151.4394226z M157.6708984,151.328125
		l-0.1943054-0.1766968c0.2352905-0.2608032,0.4707031-0.5235291,0.7021179-0.7862244l0.1981812,0.1748047
		C158.1435852,150.804718,157.9082031,151.0653992,157.6708984,151.328125z M22.1269073,149.8623047
		c-0.2313995-0.2666016-0.4598999-0.5332031-0.6875-0.8017883l0.2001953-0.1698914
		c0.2276001,0.2675781,0.4561005,0.532196,0.6865997,0.7987976L22.1269073,149.8623047z M159.0722961,149.7451172
		l-0.1993103-0.1719055c0.2295227-0.2666016,0.4571228-0.5340881,0.6846008-0.8016968l0.2022095,0.1708984
		C159.532196,149.210907,159.3027039,149.4785156,159.0722961,149.7451172z M20.7606964,148.2519226
		c-0.2236023-0.2705078-0.4462891-0.5439148-0.6669922-0.8173218l0.2041016-0.1651001
		c0.2207947,0.2734985,0.4433899,0.5420227,0.6669922,0.8145142L20.7606964,148.2519226z M160.4364929,148.1299133
		l-0.2030945-0.1669922c0.2236023-0.2715149,0.4443054-0.5440063,0.6650085-0.8184204l0.2050781,0.1660156
		C160.8837891,147.585022,160.6601868,147.8594055,160.4364929,148.1299133z M19.4346008,146.6094055
		c-0.2167969-0.2763977-0.4335938-0.5536804-0.6484985-0.8310852l0.2089996-0.1611023
		c0.2138977,0.2772827,0.4297028,0.5546875,0.6464996,0.8301086L19.4346008,146.6094055z M161.7626953,146.4844055
		l-0.2070007-0.164093c0.2167969-0.2753906,0.4326172-0.5527039,0.6455078-0.8320007l0.2098999,0.1600952
		C162.1972961,145.9287109,161.9813843,146.2070007,161.7626953,146.4844055z M18.1455078,144.9385071
		c-0.210907-0.2812805-0.4199066-0.5625-0.6289062-0.8457031l0.2138977-0.1572876
		c0.2080078,0.2832031,0.4150085,0.5644836,0.6269073,0.8457031L18.1455078,144.9385071z M163.0498047,144.8076172
		l-0.210022-0.1592102c0.210022-0.281189,0.4200134-0.5643921,0.6270142-0.8475952l0.2128906,0.156189
		C163.4707031,144.2412109,163.2626953,144.5254211,163.0498047,144.8076172z M16.8975067,143.2392273
		c-0.2051086-0.2861023-0.4073029-0.5742188-0.6094055-0.860321l0.2167969-0.1522827
		c0.2012024,0.2879944,0.4033051,0.5741882,0.6074066,0.8583984L16.8975067,143.2392273z M164.2998047,143.0986023
		l-0.2148132-0.1522827c0.2041016-0.2861938,0.4062195-0.5733032,0.6064148-0.8623047l0.2167969,0.1523132
		C164.7070007,142.5254211,164.5039062,142.8115234,164.2998047,143.0986023z M15.6885071,141.5098267
		c-0.1973114-0.2901001-0.3936005-0.5811157-0.5879059-0.874115l0.2187042-0.1455078
		c0.1952972,0.2910156,0.3907013,0.5811157,0.5878906,0.8711243L15.6885071,141.5098267z M165.5087891,141.3633118
		l-0.2187805-0.1474915c0.1972961-0.2910156,0.3925781-0.5830078,0.5868835-0.8768921l0.2207947,0.1454773
		C165.9023132,140.780304,165.7060852,141.0713196,165.5087891,141.3633118z M14.5205078,139.7539062
		c-0.1894073-0.2948914-0.3799057-0.5897827-0.5674057-0.8876953l0.2237015-0.1405945
		c0.1865082,0.2958984,0.375,0.5897827,0.566391,0.8857117L14.5205078,139.7539062z M166.6758118,139.5986023l-0.2217102-0.1416016
		c0.1903992-0.2958984,0.3798828-0.5917969,0.5673828-0.8905945l0.2236023,0.1405945
		C167.0566101,139.0059204,166.8671875,139.304718,166.6758118,139.5986023z M13.3955002,137.9717102
		c-0.1846008-0.2988892-0.3671951-0.5996094-0.5487976-0.9013977l0.2275009-0.1337891
		c0.1796951,0.2998047,0.3612976,0.5995789,0.5458984,0.8964844L13.3955002,137.9717102z M167.8037109,137.8096008
		l-0.2266235-0.1387024c0.1856079-0.2997742,0.367218-0.601593,0.5479126-0.9023743l0.2255859,0.1347961
		C168.1708984,137.2060242,167.9873047,137.5078125,167.8037109,137.8096008z M12.3096008,136.1650085
		c-0.1757965-0.3036804-0.3516006-0.6073914-0.5253983-0.9130859l0.2294998-0.1307983
		c0.1727982,0.3046875,0.3476028,0.6083984,0.5243988,0.9111023L12.3096008,136.1650085z M168.8887024,135.9912109
		l-0.2285156-0.1328125c0.1766968-0.3026733,0.3515015-0.609375,0.5252991-0.914978l0.2295227,0.1289062
		C169.2412109,135.3809204,169.0653992,135.6865234,168.8887024,135.9912109z M11.2686005,134.3320007
		c-0.1699982-0.3055725-0.3378983-0.6141968-0.5039978-0.9237976l0.2324982-0.1239929
		c0.1650009,0.3066101,0.3330002,0.6152039,0.5018997,0.9208984L11.2686005,134.3320007z M169.9306946,134.148407
		l-0.2315063-0.1268921c0.1699219-0.3085938,0.3379211-0.6181946,0.5049133-0.9277954l0.2323914,0.125
		C170.2685852,133.530304,170.1005859,133.8398132,169.9306946,134.148407z M10.2695007,132.4785156
		c-0.1621017-0.3105164-0.3231964-0.6239929-0.4833984-0.9355164l0.2363968-0.1210938
		c0.1582031,0.3125,0.318306,0.6239929,0.4813995,0.9335938L10.2695007,132.4785156z M170.9306946,132.2822266l-0.234375-0.1230164
		c0.1620789-0.3125,0.3222656-0.6240845,0.4813843-0.9394836l0.2353821,0.1192017
		C171.2539062,131.6543274,171.092804,131.9687195,170.9306946,132.2822266z M9.3153992,130.6006165
		c-0.1561966-0.3145142-0.3086014-0.6299133-0.4608994-0.9472961l0.2383041-0.1133118
		c0.1512985,0.3154907,0.3036957,0.6308899,0.4589996,0.9433899L9.3153992,130.6006165z M171.8857117,130.390625
		l-0.2363281-0.1152039c0.155304-0.3164062,0.3076172-0.6328125,0.4580078-0.9512024l0.2393188,0.1132812
		C172.1953125,129.7568054,172.0409851,130.0742188,171.8857117,130.390625z M8.405304,128.7021179
		c-0.1484985-0.3182983-0.2949982-0.6376953-0.4384995-0.9559937l0.2401962-0.1094055
		c0.1436005,0.3183899,0.2901001,0.6376953,0.4375,0.9541016L8.405304,128.7021179z M172.7969055,128.4795227l-0.2402954-0.1123047
		c0.1474915-0.3183899,0.2929993-0.6387024,0.4375-0.9609985l0.2411804,0.1074829
		C173.0907898,127.835907,172.9443054,128.1582031,172.7969055,128.4795227z M7.5400009,126.7842102
		c-0.1406021-0.3212891-0.2792969-0.6435852-0.4160004-0.9657898l0.2422028-0.1044922
		c0.1366959,0.3231812,0.2753983,0.6434937,0.4141006,0.9647827L7.5400009,126.7842102z M173.6630859,126.5439148
		l-0.2431946-0.1044922c0.1416016-0.3242188,0.2792969-0.6464233,0.4151001-0.9716187l0.2420959,0.1015015
		C173.9414062,125.8955078,173.8027039,126.2207031,173.6630859,126.5439148z M6.7197037,124.8457031
		c-0.1338043-0.3262024-0.2656021-0.6522827-0.3945007-0.9794922l0.2441025-0.0967102
		c0.1288986,0.3262024,0.261795,0.6524048,0.3945999,0.9766235L6.7197037,124.8457031z M174.4823914,124.5889282
		l-0.2450867-0.0977173c0.132782-0.3262024,0.2645874-0.6542969,0.3925781-0.9823914l0.2461243,0.0966797
		C174.7471008,123.9336243,174.6152039,124.2627258,174.4823914,124.5889282z M5.9413986,122.8809204
		c-0.1259995-0.3291931-0.2490005-0.6582947-0.3720932-0.9883118l0.2480927-0.0908813
		c0.1211014,0.328186,0.2451019,0.6572876,0.3701019,0.9853821L5.9413986,122.8809204z M175.2578125,122.6162109
		l-0.2471008-0.093689c0.125-0.3291016,0.2480774-0.6602173,0.3681946-0.9913025l0.2479858,0.0908813
		C175.5068054,121.9551086,175.3818054,122.2851257,175.2578125,122.6162109z M5.2099991,120.8994141
		c-0.1171951-0.3320007-0.2343979-0.6650085-0.3476944-0.9989929l0.25-0.0859985
		c0.1132965,0.3339844,0.2285004,0.6651001,0.3466949,0.9960938L5.2099991,120.8994141z M175.9862976,120.6240234
		l-0.2510071-0.0869141c0.117218-0.3339844,0.2325134-0.6659851,0.3457947-1.0010071l0.25,0.085022
		C176.217804,119.9560242,176.101593,120.2900085,175.9862976,120.6240234z M4.5264053,118.9004211
		c-0.1114044-0.3359985-0.2188034-0.6690063-0.3252029-1.006897l0.2509003-0.0800171
		c0.1054993,0.3369141,0.2148972,0.6708984,0.3232956,1.0049133L4.5264053,118.9004211z M176.6659851,118.6142273
		l-0.2509766-0.0820007c0.109375-0.3340149,0.2158813-0.6708984,0.3212891-1.0068054l0.2520142,0.0780945
		C176.8818054,117.9403992,176.7753906,118.2793274,176.6659851,118.6142273z M3.8887024,116.8848267
		c-0.1026001-0.3359985-0.2032013-0.6739197-0.3008041-1.0118103l0.2529068-0.0741882
		c0.0976944,0.3359985,0.1972961,0.6737976,0.3007965,1.0097961L3.8887024,116.8848267z M177.2977905,116.5937195
		l-0.2518921-0.0761108c0.1005859-0.3359985,0.1982117-0.6738892,0.2948914-1.0108032l0.2539062,0.0722961
		C177.4979858,115.9179993,177.398407,116.2559204,177.2977905,116.5937195z M3.2977982,114.8554993
		c-0.0936966-0.3388977-0.1854935-0.6777954-0.2752991-1.0195923l0.2539062-0.0673828
		c0.089798,0.3398743,0.1815948,0.6796875,0.2753983,1.0175781L3.2977982,114.8554993z M177.8808899,114.5625l-0.2548828-0.0712891
		c0.0926819-0.3378906,0.1835938-0.6767883,0.2733765-1.0166016l0.2549133,0.0664062
		C178.0643921,113.8818054,177.9736023,114.2226257,177.8808899,114.5625z M2.7568054,112.8135071
		c-0.0869064-0.3399048-0.1709061-0.6817017-0.2529068-1.0253906l0.2568054-0.0614929
		c0.0820999,0.3417969,0.1651001,0.6825867,0.2519989,1.0223999L2.7568054,112.8135071z M178.4159851,112.5185242
		l-0.2567749-0.0644226c0.0858765-0.3407898,0.1678772-0.6815796,0.25-1.0233765l0.2557983,0.0604858
		C178.5830078,111.835022,178.5,112.1767273,178.4159851,112.5185242z M2.2627029,110.7588196
		c-0.0781021-0.342804-0.1543045-0.6856079-0.2285004-1.032196l0.2567978-0.054718
		c0.0752029,0.3437195,0.1513977,0.6864929,0.2294998,1.0283203L2.2627029,110.7588196z M178.9023132,110.460907
		l-0.2568054-0.0575867c0.0762024-0.3417969,0.1513977-0.6846008,0.2245789-1.0283203l0.2578125,0.054718
		C179.0546875,109.7744141,178.9794922,110.1182251,178.9023132,110.460907z M1.8173981,108.6934204
		c-0.0702972-0.343811-0.1386948-0.6895142-0.2050934-1.0361938l0.2597961-0.0508118
		c0.0653992,0.3457031,0.1338043,0.6914062,0.2031021,1.0342102L1.8173981,108.6934204z M179.3407898,108.3945007
		l-0.2587891-0.0516968c0.0683899-0.3437805,0.1358032-0.6884766,0.2001953-1.0332031l0.2587891,0.047821
		C179.476593,107.703125,179.4101868,108.0498047,179.3407898,108.3945007z M1.4208984,106.6182251
		c-0.0625-0.3457031-0.1231003-0.6934204-0.1796951-1.0401001l0.2597961-0.0439148
		c0.0566025,0.3467102,0.1172028,0.6924133,0.1797028,1.0381165L1.4208984,106.6182251z M179.7304993,106.3184204
		l-0.2597961-0.0458984c0.0614929-0.3448181,0.1181946-0.6924133,0.1757812-1.0381165l0.2607117,0.0429077
		C179.8496094,105.6240234,179.7919922,105.9717102,179.7304993,106.3184204z M1.0713043,104.5351257
		c-0.0527039-0.3476257-0.1054993-0.6972046-0.155304-1.0449219l0.2608032-0.0380859
		c0.0506973,0.3486938,0.1015015,0.6954041,0.1561966,1.0419922L1.0713043,104.5351257z M180.0713196,104.2324219
		l-0.2598267-0.0390015c0.0518188-0.3477173,0.1035156-0.6934204,0.1513977-1.0429993l0.2607117,0.0370789
		C180.1748047,103.5361023,180.1239929,103.8848267,180.0713196,104.2324219z M0.7733994,102.4434204
		c-0.0458984-0.3497009-0.089798-0.6983032-0.1317978-1.0489197l0.2627029-0.0302734
		c0.0410004,0.3486938,0.0849991,0.6972961,0.1298981,1.0439758L0.7733994,102.4434204z M180.3643188,102.140625
		l-0.2627258-0.0342102c0.0448914-0.3475952,0.0869141-0.6962891,0.1289062-1.0448914l0.2616882,0.0292969
		C180.4512024,101.4424133,180.4082031,101.7910156,180.3643188,102.140625z M0.5224991,100.3447266
		c-0.0371933-0.3496094-0.0732956-0.7002258-0.1074982-1.0508118l0.2637024-0.0263062
		c0.0331955,0.3506165,0.0683975,0.6992188,0.1054993,1.0477905L0.5224991,100.3447266z M180.6063843,100.0410156
		l-0.2606812-0.0263977c0.0351868-0.3504944,0.070282-0.6982117,0.1025085-1.0498047l0.2626953,0.0253906
		C180.6787109,99.3418274,180.6435852,99.6914062,180.6063843,100.0410156z M0.3213043,98.2402039
		c-0.0293045-0.3495789-0.0567017-0.6991882-0.0820007-1.0516968l0.2616959-0.0185852
		c0.0263062,0.3505859,0.0527039,0.6991882,0.0820007,1.0498047L0.3213043,98.2402039z M180.8027039,97.9375l-0.2636108-0.0214844
		c0.0282898-0.3496094,0.0545959-0.6991882,0.0780945-1.0508118l0.2637024,0.0176086
		C180.8563843,97.235321,180.8301086,97.585907,180.8027039,97.9375z M0.1679993,96.1328125
		c-0.0205002-0.3496094-0.0401001-0.7020874-0.0576935-1.0546875l0.2636948-0.0117188
		c0.017601,0.351593,0.035202,0.7012024,0.0576019,1.0527039L0.1679993,96.1328125z M180.9472961,95.8291016l-0.2626953-0.014679
		c0.0184937-0.3496094,0.0380859-0.7021179,0.0537109-1.0516968l0.2645874,0.0116882
		C180.9862976,95.1269226,180.967804,95.4785156,180.9472961,95.8291016z M0.0643997,94.0244141
		c-0.0125961-0.3505859-0.0243988-0.7020874-0.0340958-1.0537109l0.2635956-0.007782
		c0.0098038,0.3515015,0.0205002,0.7012024,0.0332031,1.0516968L0.0643997,94.0244141z M181.0448914,93.717804l-0.2637024-0.007782
		c0.0118103-0.3506165,0.0215149-0.7022095,0.0292969-1.0538025l0.2637024,0.0058899
		C181.0653992,93.0146179,181.0575867,93.3662109,181.0448914,93.717804z M0.0088043,91.9160156
		C0.0038986,91.5644226,0.0009995,91.2129211,0,90.8594055h0.2627029c0.0018997,0.3506165,0.0058975,0.7021179,0.0097961,1.0527039
		L0.0088043,91.9160156z M181.092804,91.6054993l-0.2637024-0.0019836c0.0039062-0.3506165,0.0058899-0.7020874,0.0058899-1.0537109
		c0-0.2041016-0.0019836-0.4101868-0.0019836-0.6152039l0.2637024-0.0009766
		c0.0009766,0.2041016,0.0009766,0.4120789,0.0009766,0.6161804
		C181.0976868,90.9033203,181.0967102,91.2539062,181.092804,91.6054993z M0.2656021,89.8057251l-0.2637024-0.0030212
		c0.0029984-0.3515015,0.0079041-0.7030945,0.0147018-1.0565796l0.2637024,0.0057983
		C0.2743988,89.1025085,0.2686005,89.4541016,0.2656021,89.8057251z M180.8193054,88.8828125
		c-0.0057983-0.351593-0.0146179-0.7012024-0.0254211-1.0508118l0.2647095-0.007782
		c0.0097961,0.3496094,0.0184937,0.7012024,0.0253906,1.0527039L180.8193054,88.8828125z M0.3057022,87.6992188
		l-0.2618027-0.0078125c0.0098038-0.351593,0.0234985-0.7050781,0.0381012-1.0565796l0.2647018,0.0116882
		C0.3311005,86.9961243,0.3173981,87.3476257,0.3057022,87.6992188z M180.7587891,86.7832031
		c-0.0155945-0.351593-0.0312805-0.7030945-0.0507812-1.0536804l0.2637024-0.0126953
		c0.0184937,0.351593,0.0350952,0.7020874,0.0497742,1.0536804L180.7587891,86.7832031z M0.3964996,85.5937195l-0.2636948-0.0136108
		c0.0205002-0.351593,0.0399933-0.7041016,0.0634995-1.0546875l0.2636948,0.0175781
		C0.4365005,84.8926086,0.4150009,85.2432251,0.3964996,85.5937195z M180.6474915,84.6777039
		c-0.0234985-0.3495789-0.0478821-0.7010803-0.0742798-1.0507812l0.2626953-0.0195007
		c0.0263977,0.3505859,0.0517883,0.7012024,0.0742798,1.0527039L180.6474915,84.6777039z M0.5342026,83.492218l-0.2617035-0.0215149
		c0.0252991-0.3505859,0.0546036-0.7012024,0.0869064-1.0527039l0.2626953,0.0244141
		C0.5908051,82.7910156,0.5615005,83.1416016,0.5342026,83.492218z M180.4883118,82.578125
		c-0.030304-0.3515015-0.0625-0.7012024-0.0977173-1.0508118l0.2617188-0.0253906
		c0.0341797,0.351593,0.0673828,0.7012024,0.0976868,1.0527954L180.4883118,82.578125z M0.7217026,81.3926086L0.4589996,81.367218
		c0.0361023-0.351593,0.0722046-0.7012024,0.1123047-1.0508118l0.2616959,0.030304
		C0.7938995,80.6943054,0.7568054,81.0439148,0.7217026,81.3926086z M180.280304,80.4804993
		c-0.0401001-0.3495789-0.0801086-0.6982727-0.1231079-1.0458984l0.2616882-0.0322876
		c0.0429993,0.3496094,0.0840149,0.6983032,0.1231079,1.0498047L180.280304,80.4804993z M0.9570007,79.2988281l-0.2626953-0.0312195
		c0.0439987-0.3496094,0.0898972-0.6991882,0.136795-1.0488892l0.2617035,0.0361938
		C1.0458984,78.6035156,1.0009995,78.9512024,0.9570007,79.2988281z M180.023407,78.3887024
		c-0.047821-0.3476868-0.0957031-0.695282-0.1473999-1.0419922l0.2606812-0.0380859
		c0.0518188,0.3475952,0.1006165,0.6972961,0.1484985,1.0458984L180.023407,78.3887024z M1.2412033,77.2129211L0.9794998,77.172821
		c0.0517044-0.3475952,0.1054993-0.6961975,0.1621017-1.0439148l0.2598038,0.0419922
		C1.3467026,76.5176086,1.2919998,76.8652039,1.2412033,77.2129211z M179.717804,76.3057251
		c-0.0556946-0.3487244-0.1123047-0.6954041-0.1700134-1.0401001l0.2597961-0.0449219
		c0.0586243,0.3477173,0.1152039,0.6953125,0.1708984,1.0429993L179.717804,76.3057251z M1.5742035,75.1318054l-0.2598038-0.0438843
		c0.0596008-0.3477173,0.1211014-0.6953125,0.1846008-1.0410156l0.2598038,0.0487976
		C1.6943054,74.4403992,1.6338043,74.7851257,1.5742035,75.1318054z M179.3633118,74.2275085
		c-0.0635071-0.344696-0.1280212-0.6893921-0.1944275-1.0340881l0.2579041-0.0508118
		c0.0664062,0.344696,0.1328125,0.6914062,0.1961975,1.0390015L179.3633118,74.2275085z M1.9561005,73.0605164l-0.2597961-0.0506897
		c0.0682983-0.3477173,0.1386948-0.6905212,0.2098999-1.0372009l0.2587967,0.0546875
		C2.092804,72.3711243,2.0233994,72.7158203,1.9561005,73.0605164z M178.960907,72.1601257
		c-0.0713196-0.3437195-0.1445007-0.6875-0.2187195-1.0312195l0.2568054-0.0556946
		c0.0751953,0.3447876,0.1484985,0.6885071,0.219696,1.0332031L178.960907,72.1601257z M2.385704,70.9980164l-0.2578049-0.0566101
		c0.0762024-0.3457031,0.1543045-0.6875,0.2344055-1.0312805l0.2558975,0.0596008
		C2.5381012,70.3115234,2.4618988,70.6543274,2.385704,70.9980164z M178.5097961,70.1035156
		c-0.0801086-0.343689-0.1611938-0.6846008-0.2442017-1.0253906l0.256897-0.0635071
		c0.0830078,0.3417969,0.1640015,0.6846008,0.2451172,1.0283813L178.5097961,70.1035156z M2.8643036,68.9453125l-0.2559052-0.0625
		c0.0839996-0.3417969,0.1699066-0.6846008,0.2578049-1.0253906l0.2558975,0.0664062
		C3.0342026,68.2637024,2.948204,68.6035156,2.8643036,68.9453125z M178.0107117,68.054718
		c-0.0879211-0.3388977-0.1777039-0.679718-0.2675171-1.0176086l0.2539062-0.0683899
		c0.0907898,0.3399048,0.1816101,0.6796875,0.2684937,1.0205078L178.0107117,68.054718z M3.3896027,66.905304L3.135704,66.8369141
		c0.0917969-0.3407898,0.1856003-0.6806946,0.2812958-1.0184937l0.2538986,0.0722046
		C3.5752029,66.2285156,3.482399,66.5664062,3.3896027,66.905304z M177.4628906,66.0215149
		c-0.0957031-0.3388977-0.1923828-0.6758118-0.2909851-1.0116882l0.2528992-0.0762024
		c0.0986023,0.3388977,0.1972961,0.6766968,0.2929993,1.0166016L177.4628906,66.0215149z M3.964798,64.8778992l-0.2528992-0.0741882
		c0.0996017-0.3388977,0.2012024-0.6748047,0.3067017-1.0107117l0.2518997,0.0771179
		C4.1660004,64.2060242,4.0643997,64.5420227,3.964798,64.8778992z M176.8671875,64
		c-0.1026001-0.3358765-0.2070007-0.6698914-0.3134766-1.0048828l0.2509766-0.0809937
		c0.1074219,0.3358765,0.2129211,0.6717834,0.3153992,1.0086975L176.8671875,64z M4.5889053,62.8613281L4.3368988,62.780304
		c0.1084061-0.3368835,0.2188034-0.6719055,0.330101-1.0087891l0.25,0.0839844
		C4.8057022,62.1903992,4.6963043,62.5254211,4.5889053,62.8613281z M176.2255859,61.9941101
		c-0.1103821-0.3339844-0.2226868-0.6659851-0.3388977-0.9979858l0.2490234-0.0859985
		c0.1152954,0.3330994,0.2286072,0.6660767,0.3398743,1L176.2255859,61.9941101z M5.2598038,60.8554993L5.010704,60.7676086
		c0.1171951-0.3330078,0.2343979-0.6651001,0.3535995-0.9981079l0.2480011,0.0888977
		C5.4932022,60.1894226,5.3759995,60.5215149,5.2598038,60.8554993z M175.5371094,60.0019226
		c-0.1201172-0.3300171-0.2402039-0.6600952-0.3633118-0.9882202l0.2471008-0.0917969
		c0.1239929,0.3291016,0.2441101,0.6600952,0.3633118,0.992218L175.5371094,60.0019226z M5.9794998,58.8662109l-0.2481003-0.0917969
		c0.125-0.3309937,0.25-0.6611023,0.3789062-0.9912109l0.2451935,0.0957031
		C6.2275009,58.2070007,6.1025009,58.5371094,5.9794998,58.8662109z M174.8008118,58.0283203
		c-0.1260071-0.3271179-0.2559204-0.6533203-0.3858032-0.9794922l0.2451782-0.0986023
		c0.1307983,0.3270874,0.2597046,0.6552734,0.3867188,0.9833984L174.8008118,58.0283203z M6.7432022,56.8955078
		l-0.2442017-0.0986023c0.1319046-0.327179,0.2656021-0.6542969,0.4003983-0.9804993l0.2442017,0.101593
		C7.0088043,56.242218,6.8759995,56.5684204,6.7432022,56.8955078z M174.0185852,56.0723267
		c-0.1347961-0.3233032-0.2695923-0.6465149-0.4072876-0.9668274l0.2431946-0.1035767
		c0.1376953,0.3222961,0.273407,0.6455994,0.4082031,0.9687805L174.0185852,56.0723267z M7.5557022,54.9443054L7.3125,54.8398132
		c0.1396027-0.3241882,0.280304-0.648407,0.4238052-0.969696l0.2411957,0.1065063
		C7.8349991,54.297821,7.6943054,54.6211243,7.5557022,54.9443054z M173.1943054,54.1426086
		c-0.1416016-0.319397-0.2841187-0.6387024-0.4287109-0.9570923l0.2383118-0.109314
		c0.1464844,0.3182983,0.289978,0.6396179,0.4315796,0.9598999L173.1943054,54.1426086z M8.4111023,53.0127258l-0.2392044-0.1104126
		c0.1474075-0.3203125,0.2959061-0.6416016,0.4463043-0.960907L8.857399,52.054718
		C8.7070007,52.3730164,8.5586014,52.6924133,8.4111023,53.0127258z M172.3241882,52.2324219
		c-0.1483765-0.3164062-0.2987976-0.6328125-0.4520874-0.9472961l0.2381897-0.1152039
		c0.1524048,0.3164062,0.3038025,0.632782,0.4522095,0.9491882L172.3241882,52.2324219z M9.3134995,51.1025085l-0.2363968-0.1161804
		c0.1542969-0.3174133,0.3106003-0.6328125,0.4687958-0.9492188l0.2353058,0.117218
		C9.6240005,50.4707031,9.467804,50.7851257,9.3134995,51.1025085z M171.4092102,50.3437195
		c-0.155304-0.3143921-0.3135071-0.6268921-0.4737244-0.9384155l0.2354126-0.1201782
		c0.1601868,0.3125,0.3184204,0.625,0.4755859,0.9394836L171.4092102,50.3437195z M10.260704,49.2148132l-0.2363052-0.1210938
		c0.1631012-0.3143921,0.3262024-0.6268921,0.4922028-0.9393921l0.232399,0.1239929
		C10.5849991,48.5889282,10.4208984,48.9004211,10.260704,49.2148132z M170.4520874,48.4746094
		c-0.1640015-0.3104858-0.3291016-0.6181946-0.4960022-0.9267883l0.2314148-0.1259155
		c0.1679993,0.3085938,0.3339844,0.618103,0.4979858,0.929718L170.4520874,48.4746094z M11.2509995,47.3496094l-0.232399-0.1269836
		c0.169899-0.3095093,0.339798-0.618103,0.5117035-0.9267273l0.2304001,0.1299133
		C11.5889053,46.7324219,11.4188995,47.0391235,11.2509995,47.3496094z M169.4491882,46.6289062
		c-0.1698914-0.3065796-0.342804-0.6112976-0.5155945-0.914978l0.2275085-0.1319275
		c0.1748047,0.3057251,0.3476868,0.6104126,0.5185852,0.9170227L169.4491882,46.6289062z M12.2832031,45.5078125
		l-0.2294998-0.1318054c0.1776962-0.3046875,0.3554993-0.6103821,0.5351944-0.9130859l0.2265015,0.1347046
		C12.635704,44.898407,12.4589996,45.203125,12.2832031,45.5078125z M168.405304,44.8057251
		c-0.1777954-0.3028259-0.3565063-0.6045227-0.5381165-0.9034119l0.2236023-0.1357117
		c0.1835938,0.2998047,0.3633118,0.6025085,0.5410156,0.905304L168.405304,44.8057251z M13.3593979,43.6924133l-0.2255936-0.1376953
		c0.1835938-0.3008118,0.3690948-0.6006165,0.5546951-0.9003906l0.2246017,0.1395874
		C13.7266006,43.092804,13.5419998,43.3916016,13.3593979,43.6924133z M167.3173828,43.0059204
		c-0.1845703-0.2969055-0.3710632-0.593811-0.5585938-0.8887024l0.2225952-0.1426086
		c0.1885071,0.2969055,0.375,0.594696,0.5606079,0.8926086L167.3173828,43.0059204z M14.4766083,41.9023132l-0.2217102-0.1416016
		c0.1903992-0.2977905,0.3827972-0.593689,0.5762024-0.8876953l0.2207031,0.1445923
		C14.8583984,41.3115234,14.6660004,41.6064148,14.4766083,41.9023132z M166.1885071,41.2344055
		c-0.1924133-0.2949829-0.3847961-0.5878906-0.5811157-0.8779907l0.2207031-0.1473999
		c0.1953125,0.2919922,0.3897095,0.585907,0.5811157,0.8807983L166.1885071,41.2344055z M15.6356964,40.140625l-0.218689-0.148407
		c0.1972961-0.2929993,0.3964996-0.5840149,0.5975952-0.8731079l0.2158966,0.1494141
		C16.030304,39.5576172,15.8320007,39.8486023,15.6356964,40.140625z M165.0185852,39.4863281
		c-0.1992798-0.2890015-0.3994751-0.5762024-0.601593-0.8613281l0.2158203-0.1532898
		c0.2030945,0.2861023,0.4032898,0.5761108,0.601593,0.8662109L165.0185852,39.4863281z M16.8350067,38.4043274
		l-0.2149048-0.1524048c0.2030945-0.2871094,0.4082031-0.5742188,0.6172028-0.8583984l0.2128906,0.1533813
		C17.2431946,37.8320007,17.0381012,38.117218,16.8350067,38.4043274z M163.8075867,37.7676086
		c-0.2059937-0.2851868-0.4120789-0.5683899-0.6210938-0.8496094l0.2119141-0.1572876
		c0.2099915,0.2822876,0.4169922,0.5674133,0.6230774,0.8526001L163.8075867,37.7676086z M18.0742035,36.6973267
		l-0.2108917-0.156311c0.2098846-0.2832031,0.4218903-0.5643921,0.6356964-0.8457031l0.2099915,0.1601868
		C18.4951019,36.1357117,18.2841949,36.4160156,18.0742035,36.6973267z M162.5556946,36.0762024
		c-0.2109985-0.280304-0.4248047-0.5585938-0.6397095-0.8339844l0.2080078-0.1631165
		c0.2157898,0.2783203,0.429718,0.5576172,0.6426086,0.8369141L162.5556946,36.0762024z M19.3535004,35.0215149
		l-0.2089996-0.1621094c0.217804-0.2774048,0.4356079-0.5536804,0.655304-0.8300781l0.2070007,0.164978
		C19.7870941,34.4697266,19.5693054,34.7441101,19.3535004,35.0215149z M161.2655945,34.4131165
		c-0.218689-0.2734985-0.4385071-0.5479126-0.6592102-0.819397l0.2041016-0.1660156
		c0.2217102,0.2715149,0.4434204,0.5469055,0.6622009,0.8222961L161.2655945,34.4131165z M20.6699066,33.3760071
		l-0.2041016-0.1669922c0.222702-0.2734985,0.4472961-0.5448914,0.6737976-0.8145142l0.2021942,0.1699219
		C21.1161957,32.8330078,20.8916016,33.1035156,20.6699066,33.3760071z M159.9364929,32.7812195
		c-0.2246094-0.2695007-0.4512024-0.5371094-0.6777039-0.8037109l0.2012024-0.1708984
		c0.2285156,0.2676086,0.4541016,0.5371094,0.6795959,0.8067017L159.9364929,32.7812195z M22.0243988,31.7607117
		l-0.2012024-0.1727905c0.2304993-0.2655945,0.4609985-0.5332031,0.6934052-0.7969055l0.1992035,0.1737976
		C22.4833984,31.2285156,22.2528992,31.4941101,22.0243988,31.7607117z M158.5713196,31.179718
		c-0.2315369-0.2637024-0.4629211-0.5253906-0.6973267-0.789093l0.1953125-0.1758118
		c0.2353821,0.2637024,0.4687805,0.5263977,0.7001953,0.7911072L158.5713196,31.179718z M23.4150085,30.1777039
		l-0.1953125-0.1766968c0.2354126-0.2608032,0.472702-0.5224915,0.7109985-0.7812805L24.125,29.398407
		C23.8867035,29.6562195,23.6504059,29.9160156,23.4150085,30.1777039z M157.1669922,29.6113281
		c-0.2362976-0.2597046-0.4746094-0.5176086-0.7149048-0.773407l0.1934204-0.179718
		c0.2402039,0.2568054,0.4794922,0.5146179,0.7167969,0.773407L157.1669922,29.6113281z M24.842804,28.6289062l-0.1914062-0.1815796
		c0.2402039-0.2569275,0.4842987-0.5118103,0.7285004-0.7657166l0.1903992,0.1846008
		C25.3262024,28.1182251,25.0830078,28.3730164,24.842804,28.6289062z M155.7275085,28.0742188
		c-0.242218-0.2528992-0.4873047-0.5057983-0.7324219-0.7568054l0.1875-0.1835938
		c0.2471008,0.2510071,0.492218,0.5028992,0.7354126,0.7568054L155.7275085,28.0742188z M26.3056946,27.1113281l-0.1875-0.1846008
		c0.2480011-0.2509155,0.496109-0.5,0.746109-0.7470093l0.1855011,0.1875
		C26.7998047,26.6152039,26.5518036,26.8613281,26.3056946,27.1113281z M154.2528992,26.5703125
		c-0.2489929-0.2471008-0.4989929-0.4931946-0.75-0.7383118l0.1835938-0.1893921
		c0.2520142,0.2460938,0.5039062,0.492218,0.7528992,0.742218L154.2528992,26.5703125z M27.8036957,25.6309204l-0.1835938-0.1895142
		c0.2519989-0.2460938,0.5077972-0.4882812,0.7626953-0.7294922l0.1816101,0.1924133
		C28.3085938,25.1445007,28.0556946,25.3867188,27.8036957,25.6309204z M152.7431946,25.1016235
		c-0.2538757-0.2413025-0.5108032-0.4825134-0.7676086-0.7207031l0.1787109-0.1934204
		c0.2587891,0.2383118,0.5145874,0.4804993,0.7705078,0.7226257L152.7431946,25.1016235z M29.3330078,24.1846008
		l-0.1777039-0.194397c0.2577972-0.2373047,0.5175018-0.4745789,0.7792969-0.7108765l0.1777039,0.1962891
		C29.8506012,23.710022,29.5917969,23.9473267,29.3330078,24.1846008z M151.1991882,23.6670227
		c-0.2597961-0.2354126-0.5223999-0.469696-0.7841797-0.7022095l0.1748047-0.1982117
		c0.264679,0.235321,0.5263977,0.4687195,0.7870789,0.7060242L151.1991882,23.6670227z M30.8975067,22.7754211l-0.1739044-0.1992188
		c0.2637024-0.2314758,0.5292969-0.4628906,0.7958984-0.6913757l0.1719055,0.1991882
		C31.4257965,22.3125,31.1611023,22.5429993,30.8975067,22.7754211z M149.6229858,22.2695007
		c-0.2655945-0.2294922-0.532196-0.4579773-0.8006897-0.6854858l0.1698914-0.2001953
		c0.2695007,0.2275085,0.5361023,0.4559937,0.8027039,0.6875L149.6229858,22.2695007z M32.4931946,21.4023132l-0.1699982-0.2030945
		c0.2696075-0.2256165,0.5401154-0.4492188,0.8115997-0.6737976l0.1679077,0.2050781
		C33.032196,20.953125,32.7606964,21.1758118,32.4931946,21.4023132z M148.0126953,20.9092102
		c-0.2705078-0.2246094-0.5419922-0.4462891-0.8163757-0.6669922l0.1659851-0.2051086
		c0.2743835,0.2217102,0.5469055,0.4443054,0.8183899,0.6679993L148.0126953,20.9092102z M34.1201019,20.0664062
		l-0.1650085-0.2050781c0.2744141-0.2207031,0.5498047-0.4394226,0.8261108-0.655304l0.1631012,0.2060852
		C34.6688995,19.6309204,34.3936005,19.8476257,34.1201019,20.0664062z M146.3729858,19.585907
		c-0.2762756-0.2167969-0.5536804-0.4335938-0.8320007-0.6473999l0.1602173-0.2099915
		c0.2801819,0.2149048,0.5585938,0.4316101,0.8348999,0.6503906L146.3729858,19.585907z M35.7763977,18.7695007
		l-0.1591949-0.2089844c0.2783051-0.2138062,0.5596008-0.4256897,0.8408051-0.6366882l0.1581879,0.2128906
		C36.3350067,18.3457031,36.0547028,18.5566101,35.7763977,18.7695007z M144.7001953,18.2998047
		c-0.280304-0.2099915-0.5625-0.4188843-0.8467102-0.6278992l0.156311-0.2118835
		c0.2840881,0.2079773,0.5672913,0.4178772,0.8496094,0.6297913L144.7001953,18.2998047z M37.4638977,17.5117188
		l-0.1562958-0.2138977c0.2832031-0.2059937,0.5684052-0.4111023,0.8554993-0.6152039l0.1533051,0.2157898
		C38.030304,17.1016235,37.7460938,17.3057251,37.4638977,17.5117188z M143,17.054718
		c-0.2851868-0.2051086-0.5732117-0.4082031-0.8612976-0.6094055l0.1503906-0.2157898
		c0.2890015,0.2012024,0.5780945,0.405304,0.8641968,0.6102905L143,17.054718z M39.1768036,16.2939148l-0.1495056-0.2177124
		c0.2881012-0.1992798,0.5791016-0.3984985,0.8702087-0.5947876l0.1473999,0.217804
		C39.7548981,15.8965149,39.4658051,16.0937195,39.1768036,16.2939148z M141.2704926,15.8476257
		c-0.2910004-0.1972046-0.5829926-0.3935242-0.8759918-0.5877991l0.1464996-0.2207031
		c0.2939911,0.195282,0.5868988,0.3916016,0.8778992,0.5907898L141.2704926,15.8476257z M40.9188995,15.117218l-0.1445007-0.2217102
		c0.2929993-0.1933899,0.5879059-0.3847961,0.8827972-0.5751953l0.1426086,0.2226868
		C41.5048981,14.7314148,41.2118988,14.922821,40.9188995,15.117218z M139.5126953,14.679718
		c-0.2958984-0.1895142-0.592804-0.3789062-0.8896942-0.5664062l0.1407013-0.2226868
		c0.2987976,0.1875,0.5957031,0.3769836,0.8925018,0.5683899L139.5126953,14.679718z M42.6885071,13.9785156l-0.1407013-0.2225952
		c0.2978973-0.1875,0.5966949-0.3710938,0.8964996-0.5538025l0.1376953,0.2236938
		C43.282196,13.6094055,42.9853058,13.7929993,42.6885071,13.9785156z M137.7274933,13.5557251
		c-0.2997894-0.1827087-0.6006012-0.3663025-0.902298-0.5458984l0.1347961-0.2276001
		c0.3037109,0.1817017,0.6044006,0.3642883,0.9052124,0.5487976L137.7274933,13.5557251z M44.4824066,12.8848267
		l-0.1347046-0.2266235c0.3016968-0.1796875,0.6044006-0.3573914,0.9091034-0.5332031l0.1308899,0.2285156
		C45.0850067,12.5293274,44.782196,12.7060242,44.4824066,12.8848267z M135.9149933,12.4726257
		c-0.3026886-0.1767273-0.6083984-0.3515015-0.9140015-0.5263062l0.1299133-0.2294922
		c0.3065948,0.1747742,0.6131897,0.3505859,0.9169006,0.5272827L135.9149933,12.4726257z M46.3018036,11.8320007
		l-0.1309052-0.2294922c0.3065948-0.1727905,0.6132965-0.3426819,0.9219055-0.5116882l0.1268921,0.2304993
		C46.9111023,11.4902039,46.6063995,11.6601257,46.3018036,11.8320007z M134.0791016,11.4316101
		c-0.3076019-0.1698914-0.6172028-0.3378906-0.9277039-0.5048828l0.1259003-0.2314148
		c0.3096008,0.1669922,0.6210938,0.335907,0.9297028,0.5058899L134.0791016,11.4316101z M48.1425934,10.8223267
		l-0.1239929-0.2325134c0.309494-0.1659851,0.6210022-0.3280945,0.9326019-0.4902039l0.121109,0.2344055
		C48.7606964,10.4961243,48.4521027,10.6582031,48.1425934,10.8223267z M132.2187042,10.4336243
		c-0.3125-0.1621094-0.625-0.3222961-0.9384003-0.4824219l0.1180878-0.234375
		c0.3145142,0.1591797,0.6299133,0.320282,0.9414062,0.4833984L132.2187042,10.4336243z M50.0068054,9.8554993l-0.118103-0.2353821
		c0.3134003-0.157196,0.6278992-0.3135071,0.9443054-0.467804l0.1151886,0.2373047
		C50.6338043,9.5439148,50.3193054,9.6982117,50.0068054,9.8554993z M130.3349915,9.4795227
		c-0.3154907-0.155304-0.6328888-0.3086243-0.9501953-0.460022l0.1123047-0.2382812
		c0.3182983,0.1524048,0.6367035,0.3056946,0.9530945,0.4609985L130.3349915,9.4795227z M51.8936005,8.9336243L51.780304,8.6953125
		C52.097702,8.5449219,52.4149933,8.397522,52.7344055,8.25l0.1102905,0.2392273
		C52.5263977,8.6367188,52.2100067,8.7832031,51.8936005,8.9336243z M128.4268036,8.5703125
		c-0.3184052-0.1474915-0.6387024-0.2929993-0.9609985-0.4375l0.1083984-0.2412109
		c0.3222961,0.1435242,0.6436005,0.2910156,0.9648895,0.4394226L128.4268036,8.5703125z M53.7998047,8.0566101l-0.1074066-0.2412109
		c0.3202972-0.1434937,0.6426086-0.2831726,0.964798-0.421875l0.1035004,0.2413025
		C54.4403992,7.773407,54.1190948,7.9141235,53.7998047,8.0566101z M126.5,7.7051086
		c-0.3231964-0.1387024-0.6464996-0.2792969-0.9706879-0.4159851l0.101593-0.242218
		c0.3260956,0.1367188,0.6502991,0.2754211,0.973587,0.4160156L126.5,7.7051086z M55.726593,7.2246094l-0.1026001-0.2441101
		c0.3242035-0.1347961,0.6485138-0.2675781,0.9737091-0.4003906l0.0986023,0.2441101
		C56.3721008,6.9560242,56.0487976,7.0889282,55.726593,7.2246094z M124.5518036,6.8867188
		c-0.3262024-0.1338196-0.6534119-0.2637024-0.9824982-0.3934937l0.0976868-0.2452087
		c0.3291016,0.1289062,0.6572113,0.2608032,0.9844055,0.3935852L124.5518036,6.8867188z M57.6757965,6.4355164l-0.0966949-0.2460938
		c0.3280945-0.1278992,0.6562042-0.2539062,0.9862976-0.3789062l0.0937958,0.2460938
		C58.3300934,6.1816101,58.0010071,6.3086243,57.6757965,6.4355164z M122.5839996,6.1123047
		c-0.3291016-0.1239929-0.6591949-0.2471008-0.9902954-0.3700867l0.0908966-0.2460938
		c0.3320007,0.1210938,0.6631012,0.2440796,0.993103,0.3700867L122.5839996,6.1123047z M59.6455078,5.6914062l-0.0898132-0.2479858
		c0.3300018-0.1202087,0.6621094-0.2393188,0.9951019-0.3554993l0.0868988,0.2479858
		C60.3065948,5.4521179,59.976593,5.5703125,59.6455078,5.6914062z M120.5986023,5.3848267
		c-0.3310089-0.1163025-0.6650085-0.2315063-0.9990082-0.3448181l0.0830078-0.250885
		c0.3368988,0.1141968,0.6708984,0.2303772,1.003891,0.3475952L120.5986023,5.3848267z M61.6338043,4.9932251l-0.0839996-0.249115
		c0.3339996-0.1131897,0.6679993-0.2246094,1.0019989-0.3330078l0.0820007,0.2510071
		C62.2998047,4.7715149,61.9658051,4.8809204,61.6338043,4.9932251z M118.5957031,4.7051086
		c-0.3350067-0.1094055-0.6699066-0.2167969-1.0077972-0.3222961l0.0790863-0.2518921
		c0.3379059,0.1054077,0.6738129,0.2127991,1.0098114,0.3231812L118.5957031,4.7051086z M63.6376953,4.342804l-0.0780945-0.2519836
		c0.335907-0.1054993,0.6717987-0.2070007,1.0097046-0.3085938l0.0762024,0.2528992
		C64.3085938,4.1367188,63.9736023,4.2383118,63.6376953,4.342804z M116.5762024,4.0723267
		c-0.3350067-0.1006165-0.6718903-0.2002258-1.0097961-0.2969055l0.0731964-0.2539062
		c0.3378906,0.0975952,0.6757965,0.1962891,1.0126953,0.2977905L116.5762024,4.0723267z M65.6562042,3.7402039l-0.0722046-0.2538757
		c0.3379059-0.0976257,0.6766968-0.1933289,1.0166016-0.2861023l0.0702972,0.2548828
		C66.3320007,3.5488281,65.9931946,3.6426086,65.6562042,3.7402039z M114.5518036,3.4902039
		c-0.3379059-0.093689-0.6768036-0.1854858-1.0176086-0.2743835l0.0673981-0.2549133
		c0.3398132,0.0899048,0.680603,0.1817017,1.0205078,0.2734985L114.5518036,3.4902039z M67.6885071,3.1826172l-0.0664062-0.2549133
		c0.339798-0.0878906,0.6815948-0.1757812,1.0233917-0.2606812l0.0645142,0.2568054
		C68.3681946,3.0078125,68.0283051,3.0957031,67.6885071,3.1826172z M112.5146027,2.9541016
		c-0.339798-0.0849915-0.6816101-0.1669922-1.023407-0.2489929l0.0606079-0.256897
		c0.343689,0.0811157,0.6855011,0.1651001,1.0262909,0.25L112.5146027,2.9541016z M69.7324066,2.6758118l-0.0596008-0.2558899
		c0.3417969-0.0820007,0.6855927-0.1600952,1.0292969-0.2383118l0.0576935,0.256897
		C70.4170074,2.5166016,70.0751953,2.5957031,69.7324066,2.6758118z M110.4638977,2.4668274
		c-0.3417969-0.0762024-0.6845856-0.1504211-1.0283966-0.2236023l0.0547028-0.2588196
		c0.3447876,0.0732117,0.6894989,0.148407,1.0322876,0.2265015L110.4638977,2.4668274z M71.7899933,2.2148132l-0.0555878-0.2578125
		c0.344696-0.0712891,0.6893921-0.1434937,1.036087-0.2108765l0.0508118,0.257782
		C72.4756012,2.0723267,72.1318054,2.1435242,71.7899933,2.2148132z M108.4043121,2.0293274
		c-0.343811-0.0703125-0.6895142-0.1358032-1.0342102-0.2012024l0.0487976-0.2597046
		c0.3457031,0.0664062,0.6914062,0.132782,1.0372009,0.2030945L108.4043121,2.0293274z M73.8545074,1.804718l-0.0469055-0.2597961
		c0.344696-0.0644226,0.691391-0.1269226,1.0381012-0.1875l0.0458984,0.2597961
		C74.5458984,1.6777039,74.2001953,1.7392273,73.8545074,1.804718z M106.3329926,1.6387024
		c-0.3456879-0.0605774-0.691391-0.1192017-1.0370941-0.1757812l0.0410004-0.2617188
		c0.3495941,0.0586243,0.6952972,0.117218,1.0420074,0.1787109L106.3329926,1.6387024z M75.9306946,1.4414062l-0.0429993-0.2597961
		C76.2353058,1.125,76.5829926,1.0703125,76.9315948,1.0176086l0.0401001,0.2607117
		C76.6239929,1.3301086,76.2763977,1.3857117,75.9306946,1.4414062z M104.2548981,1.2969055
		c-0.347702-0.0527954-0.694397-0.1034851-1.0429993-0.1513977l0.0361023-0.2616882
		c0.3497009,0.0487976,0.6983032,0.1005859,1.0458984,0.1532898L104.2548981,1.2969055z M78.0137024,1.1269226l-0.0362091-0.2617188
		c0.3487091-0.0467834,0.6973114-0.093689,1.0469055-0.1385803l0.0332031,0.2616882
		C78.7100067,1.0332031,78.3603058,1.078125,78.0137024,1.1269226z M102.1679993,1.0039062
		c-0.3486938-0.0438843-0.6963043-0.085907-1.0458984-0.1269836l0.0312042-0.2617188
		c0.3495941,0.0401001,0.7001953,0.0830078,1.0478973,0.1270142L102.1679993,1.0039062z M80.1035004,0.8623047l-0.030304-0.2616882
		c0.3496094-0.0401001,0.6993103-0.0791016,1.0507965-0.1162109l0.0274048,0.2626953
		C80.8018036,0.7832031,80.4521027,0.8213196,80.1035004,0.8623047z M100.0751953,0.7598267
		c-0.3486023-0.0362244-0.6983032-0.0704041-1.0478973-0.1016235l0.0245056-0.2637024
		c0.3504944,0.0322266,0.7021027,0.0674133,1.0516968,0.1045227L100.0751953,0.7598267z M82.2001953,0.6455078l-0.0253906-0.2626953
		c0.3506012-0.032196,0.7012024-0.0625,1.0526886-0.0907898l0.0214996,0.2626953
		C82.898407,0.5820007,82.5487976,0.6133118,82.2001953,0.6455078z M97.9774933,0.5664062
		c-0.348587-0.0292969-0.6991882-0.0556946-1.0506897-0.0800781l0.0184937-0.2637024
		c0.3525085,0.0253906,0.7041016,0.0507812,1.0536957,0.0800781L97.9774933,0.5664062z M84.2998047,0.4775085L84.282196,0.2129211
		c0.3496094-0.0234985,0.7012024-0.0449219,1.0528107-0.0645142l0.0155945,0.2637024
		C85,0.4307251,84.6493988,0.453125,84.2998047,0.4775085z M95.8759918,0.4179993
		c-0.3495941-0.0195923-0.7001953-0.0370789-1.0527954-0.0546875l0.0137024-0.2637024
		c0.351593,0.0176086,0.7030945,0.0352173,1.0547028,0.0566101L95.8759918,0.4179993z M86.4033051,0.3574219l-0.0117035-0.2637024
		c0.3506012-0.0155945,0.7030945-0.0292969,1.0547028-0.0410156l0.0097961,0.2637024
		C87.1044922,0.328125,86.7528992,0.3418274,86.4033051,0.3574219z M93.7704926,0.3203125
		c-0.3495941-0.0126953-0.7011871-0.0224915-1.0526886-0.031189l0.0067902-0.2618103
		c0.3525085,0.0058899,0.7041016,0.0176086,1.0557098,0.0292969L93.7704926,0.3203125z M88.5068054,0.2871094L88.5010071,0.023407
		c0.3495941-0.0087891,0.7020874-0.0135803,1.0546875-0.0174866l0.0019073,0.2635803
		C89.2061005,0.273407,88.8563995,0.2793274,88.5068054,0.2871094z M91.6649933,0.2705078
		c-0.3495941-0.0028992-0.7020874-0.0058899-1.0536957-0.0058899L90.6123047,0c0.351593,0,0.7050934,0.0028992,1.0565948,0.0078125
		L91.6649933,0.2705078z"/>
</g>
<g>
	<polygon style="fill:#A8A8A8;" points="22.9618988,28.7187347 25.2881012,28.0439301 24.7099915,30.3955231 	"/>
</g>
<g>
	<polygon style="fill:#A8A8A8;" points="155.9921875,26.5019226 153.6659851,25.8262329 154.2441101,28.1787109 	"/>
</g>
<g>
	<polygon style="fill:#A8A8A8;" points="153.2005768,154.145874 155.5276642,153.4710693 154.9485626,155.8225708 	"/>
</g>
<g>
	<polygon style="fill:#A8A8A8;" points="29.4355011,155.6397095 27.1074066,154.9649048 27.6875,157.3164062 	"/>
</g>
</svg>
