<?xml version="1.0" encoding="utf-8"?>
<svg version="1.1" id="Слой_1" xmlns="http://www.w3.org/2000/svg" xmlns:xlink="http://www.w3.org/1999/xlink" x="0px" y="0px"
	 viewBox="0 0 79 90.039093" style="enable-background:new 0 0 79 90.039093;" xml:space="preserve">
<g>
	<g>
		<g>
			<g>
				<polygon style="fill:#484849;" points="79,67.5215149 40,90.1201172 40,45.2666016 79,22.6689148 				"/>
			</g>
			<g>
				<polygon style="fill:#2F2E2E;" points="0,67.5215149 40,90.1201172 40,45.2666016 0,22.6689148 				"/>
			</g>
			<g>
				<polygon style="fill:#595959;" points="0,22.6631165 39.5,0.1532898 79,22.6631165 79,22.7655945 39.5,45.2744141 0,22.7655945
									"/>
			</g>
			<g>
				<g>
					<path style="fill:#0E0F10;" d="M39.2743835,90.343811l-0.0829773-0.0381165L0,67.7587891v-45.171875l0.0858917-0.0371094
						L39.2645874,0l0.3174133,0.0381165L79,22.5869141v45.171875l-0.3096008,0.0371094L39.2743835,90.343811z M0,67.6054993
						L39.5,90.039093L79,67.6054993V22.7392883L39.5,0.3056946L0,22.7392883V67.6054993z"/>
				</g>
				<g>
					<rect x="40" y="45.3525085" style="fill:#0E0F10;" width="0" height="45.0733032"/>
				</g>
				<g>
					<polygon style="fill:#0E0F10;" points="39.2099915,45.4267883 39.1445007,45.3897095 0.1112976,22.8808899
						0.2431946,22.6523132 39.2099915,45.1239929 78.1767883,22.6523132 78.3085938,22.8808899 					"/>
				</g>
			</g>
			<g>
				<g style="enable-background:new    ;">
					<g>
						<defs>
							<polygon id="SVGID_1_" points="19.8739929,22.0361023 39.6132812,10.5645142 59.4823914,22.0361023 39.7431946,33.5087891 
															"/>
						</defs>
						<clipPath id="SVGID_2_">
							<use xlink:href="#SVGID_1_"  style="overflow:visible;"/>
						</clipPath>
						<g style="clip-path:url(#SVGID_2_);">
							<g>
								<path style="fill:#0E0F10;" d="M31.4219055,26.8349915c-4.5840149-2.6454773-4.6094055-6.9512024-0.0557251-9.5966797
									c4.5537109-2.6465149,11.9862976-2.6465149,16.5693054,0c4.5830994,2.6454773,4.6075134,6.9512024,0.0527954,9.5975952
									C43.4354858,29.4814148,36.0028992,29.4814148,31.4219055,26.8349915 M49.5478821,16.3017883
									c-5.4776001-3.164093-14.3613892-3.164093-19.8067017,0c-5.4403992,3.1611023-5.4111023,8.3076172,0.0674133,11.4707031
									c5.4784851,3.1621094,14.3633118,3.1640015,19.8027039,0.0019226
									C55.0556946,24.6104126,55.0263977,19.4628906,49.5478821,16.3017883"/>
							</g>
						</g>
					</g>
				</g>
			</g>
			<g>
				<g style="enable-background:new    ;">
					<g>
						<defs>
							<polygon id="SVGID_3_" points="49.6825867,74.3378906 49.6171875,51.1112976 69.4414062,39.6650085 69.5087891,62.8926086 
															"/>
						</defs>
						<clipPath id="SVGID_4_">
							<use xlink:href="#SVGID_3_"  style="overflow:visible;"/>
						</clipPath>
						<g style="clip-path:url(#SVGID_4_);">
							<g>
								<path style="fill:#0E0F10;" d="M51.2323914,71.6523132l-0.0546875-19.6513062l16.6171875-9.5957031l0.0556946,19.6542969
									L51.2323914,71.6523132 M69.4414062,39.6650085L49.6171875,51.1112976l0.0653992,23.226593l19.8262024-11.445282
									L69.4414062,39.6650085"/>
							</g>
						</g>
					</g>
				</g>
			</g>
			<g>
				<g style="enable-background:new    ;">
					<g>
						<defs>
							<polygon id="SVGID_5_" points="8.0526886,63.1278992 8.1200867,39.3799133 31.9823914,53.157196 31.914093,76.9042969 
															"/>
						</defs>
						<clipPath id="SVGID_6_">
							<use xlink:href="#SVGID_5_"  style="overflow:visible;"/>
						</clipPath>
						<g style="clip-path:url(#SVGID_6_);">
							<g>
								<path style="fill:#0E0F10;" d="M20.2743835,67.0508118l-9.3475952-24.147522l18.7773132,10.7285156L20.2743835,67.0508118z
									 M31.9823914,53.157196L8.1200867,39.3799133l11.8633118,30.6366882L31.9823914,53.157196"/>
							</g>
						</g>
					</g>
				</g>
			</g>
		</g>
	</g>
</g>
</svg>
