<?xml version="1.0" encoding="utf-8"?>
<svg version="1.1" id="Слой_1" xmlns="http://www.w3.org/2000/svg" xmlns:xlink="http://www.w3.org/1999/xlink" x="0px" y="0px"
	 viewBox="0 0 78.1972961 90.3428192" style="enable-background:new 0 0 78.1972961 90.3428192;" xml:space="preserve">
<g>
	<g>
		<g>
			<g>
				<polygon style="fill:#595959;" points="77.9307098,67.5214996 38.9307098,90.1190948 38.9307098,45.2646027 
					77.9307098,22.6680145 				"/>
			</g>
			<g>
				<polygon style="fill:#2F2E2E;" points="0.9307098,67.5214996 38.9307098,90.1190948 38.9307098,45.2646027 
					0.9307098,22.6680145 				"/>
			</g>
			<g>
				<polygon style="fill:#D0D2D4;" points="0.9307098,22.6620941 39.4307098,0.1523132 77.9307098,22.6620941 
					77.9307098,22.7656097 39.4307098,45.2743988 0.9307098,22.7656097 				"/>
			</g>
			<g>
				<g>
					<path style="fill:#0E0F10;" d="M39.0635071,90.3428192l0.4530945-0.0381165L0.9307098,67.7577972v-45.171875
						l-0.4521027-0.0390015L39.3233032,0l-0.2167969,0.0381012l38.8242035,22.547821v45.171875l0.0858917,0.0371094
						L39.0635071,90.3428192z M0.9307098,67.6055145l38.5,22.4335022l38.5-22.4335022V22.7373199l-38.5-22.4326172l-38.5,22.4326172
						V67.6055145z"/>
				</g>
				<g>
					<polygon style="fill:#0E0F10;" points="39.0987091,45.4277191 39.0323029,45.3896027 0,22.8798981 0.1319122,22.6513214 
						39.0987091,45.1230011 78.065506,22.6513214 78.1972961,22.8798981 					"/>
				</g>
				<g>
					<rect x="38.9307098" y="45.4199066" style="fill:#0E0F10;" width="0" height="44.4648132"/>
				</g>
			</g>
			<g>
				<g>
					<path style="fill:#0E0F10;" d="M25.5957031,21.9433136h-1.3867035l-0.3046875,0.7207031h-0.7275085l1.4902039-3.5117188
						h0.5059052l1.4491882,3.5117188h-0.7225952L25.5957031,21.9433136z M25.3995056,21.3964996l-0.4844055-1.2373047
						l-0.4960938,1.2373047H25.3995056z"/>
				</g>
				<g>
					<path style="fill:#0E0F10;" d="M28.7256012,19.2256012v2.8623047h1.0625v0.5761108h-1.7333984v-3.4384155H28.7256012z"/>
				</g>
				<g>
					<path style="fill:#0E0F10;" d="M31.9522095,19.2256012v3.4384155h-0.6699066v-3.4384155H31.9522095z"/>
				</g>
				<g>
					<path style="fill:#0E0F10;" d="M34.1182098,19.2256012l0.9179993,2.3095093l0.9178925-2.3095093h0.7324982
						l-1.4756012,3.5166016h-0.3603973l-1.4637909-3.5166016H34.1182098z"/>
				</g>
				<g>
					<path style="fill:#0E0F10;" d="M40.0274048,19.801712h-1.2373047v0.7705078h1.1855011v0.5762024h-1.1855011v0.9394836
						h1.2373047v0.5761108h-1.9082031v-3.4384155h1.9082031V19.801712z"/>
				</g>
				<g>
					<path style="fill:#0E0F10;" d="M45.9766083,21.9433136h-1.3867035l-0.3047028,0.7207031h-0.7274933l1.4920959-3.5117188
						h0.5039062l1.4501953,3.5117188H46.281311L45.9766083,21.9433136z M45.780304,21.3964996l-0.4844055-1.2373047
						l-0.4940948,1.2373047H45.780304z"/>
				</g>
				<g>
					<path style="fill:#0E0F10;" d="M48.4356079,22.6640167v-3.5155945h0.4638977l2.0957031,2.3925781v-2.3153992h0.6698914
						v3.5068054h-0.4638977l-2.094696-2.3926086v2.3242188H48.4356079z"/>
				</g>
				<g>
					<path style="fill:#0E0F10;" d="M54.3760071,19.2256012c0.4785004,0,0.8974915,0.0498047,1.2792969,0.3348999
						c0.4179993,0.3145142,0.660202,0.8135071,0.660202,1.3867188c0,0.5722961-0.2382965,1.0664978-0.6914062,1.3867798
						c-0.4023895,0.2841187-0.7773895,0.3300171-1.2578888,0.3300171h-0.8867035v-3.4384155H54.3760071z M54.1495056,22.0879059
						h0.2059937c0.1699066,0,0.5420074-0.0097961,0.8408051-0.2276001c0.2734985-0.1962891,0.4277954-0.5467834,0.4277954-0.9130859
						c0-0.360321-0.1484985-0.710907-0.4228973-0.9169006c-0.2783051-0.2071228-0.6190948-0.2286072-0.8457031-0.2286072h-0.2059937
						V22.0879059z"/>
				</g>
				<g>
					<path style="fill:#0E0F10;" d="M34.1054993,25.4120941c0.4746094,0,0.7168121,0.1230164,0.8760071,0.2588196
						c0.2637024,0.2216797,0.3417969,0.5145874,0.3417969,0.773407c0,0.3349915-0.1347961,0.6288757-0.4024048,0.8096008
						c-0.0887909,0.0604858-0.2128906,0.1181946-0.3768921,0.1483765l1.0722046,1.4492188h-0.835907l-0.9169922-1.3818054H33.780304
						v1.3818054h-0.6699066v-3.4394226H34.1054993z M33.780304,26.9951019h0.1914062
						c0.128891,0,0.660202-0.0145874,0.660202-0.5195007c0-0.5117798-0.526413-0.5166016-0.6504059-0.5166016H33.780304V26.9951019z
						"/>
				</g>
				<g>
					<path style="fill:#0E0F10;" d="M39.0088043,25.9902191h-1.2373047v0.7675781h1.1856079v0.578125h-1.1856079v0.9384766
						h1.2373047v0.5771179h-1.9082031v-3.4394226h1.9082031V25.9902191z"/>
				</g>
				<g>
					<path style="fill:#0E0F10;" d="M42.7266083,28.1289215h-1.3867035l-0.3047028,0.7225952h-0.7274933l1.4901886-3.5117188
						h0.5058136l1.449295,3.5117188h-0.722702L42.7266083,28.1289215z M42.530304,27.5839996l-0.4844055-1.2382812
						l-0.4950867,1.2382812H42.530304z"/>
				</g>
				<g>
					<path style="fill:#0E0F10;" d="M45.8565063,25.4120941v2.8623047h1.0605011v0.5771179h-1.7324066v-3.4394226H45.8565063z"/>
				</g>
			</g>
			<g>
				<g style="enable-background:new    ;">
					<g>
						<defs>
							<polygon id="SVGID_1_" points="49.9092102,74.7890167 49.8417969,50.9512177 70.5870056,38.9726105 70.655304,62.808609 
															"/>
						</defs>
						<clipPath id="SVGID_2_">
							<use xlink:href="#SVGID_1_"  style="overflow:visible;"/>
						</clipPath>
						<g style="clip-path:url(#SVGID_2_);">
							<g>
								<path style="fill:#0E0F10;" d="M67.5440063,59.9072113c-1.1562958,2.2089844-2.6757965,4.2548828-4.4062958,5.8760071
									l1.948288-1.125c1.0615082-1.2578125,2.0166016-2.656311,2.8203125-4.1309204L67.5440063,59.9072113 M52.9853973,68.2910004
									l-0.3573914,1.0361023c0.8125,0.5498047,1.777298,0.8506165,2.8506012,0.8779907l1.9472046-1.125
									C55.6846008,69.4629059,54.1524048,69.1680145,52.9853973,68.2910004 M69.8487091,52.1640167
									c-0.1298981,2.1817017-0.7763977,4.5-1.7929993,6.703186l0.375,0.6425171
									c0.5829926-1.1923218,1.0653992-2.4248047,1.4286957-3.6562195L69.8487091,52.1640167 M70.592804,50.0527191
									l0.0049133,1.6983032c0.0165863-0.2901001,0.0233917-0.5791016,0.0233917-0.8663025
									C70.6202087,50.5995941,70.6114044,50.3222198,70.592804,50.0527191 M59.5440063,46.2382965l-3.2490082,1.875
									c-2.5869904,2.7187195-4.6484985,6.305603-5.6826935,9.8955078l0.0234985,8.8486023
									c0.3710938,0.835907,0.8652039,1.5273132,1.464798,2.0606079l0.3701019-1.0762024
									c-1.1504059-1.1582031-1.8320007-3.0029907-1.8379059-5.414093
									C50.6153107,56.5937042,54.5557098,49.519516,59.5440063,46.2382965 M64.1484985,43.5800934l-3.25,1.875
									c4.7519073-2.3613892,8.5771027-0.1992798,8.9463043,5.047821l-0.0108032-3.6875
									C68.7714996,44.4795074,66.7138977,43.3096161,64.1484985,43.5800934 M60.218811,44.9599152
									c-0.2363129,0.1358032-0.4697113,0.280304-0.7022095,0.4317017l1.405304-0.8115234
									C60.6894989,44.6972198,60.4551086,44.8242035,60.218811,44.9599152"/>
							</g>
							<g>
								<path style="fill:#0E0F10;" d="M52.9853973,68.2910004l7.2275085-20.952179l7.3311005,12.5683899l0.3623047,0.6200867
									l1.0917969,1.8721008l-3.9121094,2.2588196l-1.948288,1.125l-5.7118988,3.296875l-1.9472046,1.125l-3.9375,2.273407
									l1.0868988-3.1513977L52.9853973,68.2910004 M60.3995056,45.7440948l-0.381897,0.2207031l-7.5469055,21.8770142
									l-0.3701019,1.0762024l-1.4463043,4.1875l0.0010071,0.3905945l19.222702-11.0996094l-0.0010071-0.4082031
									l-1.4462891-2.4785767l-0.375-0.6425171L60.3995056,45.7440948"/>
							</g>
							<g>
								<path style="fill:#0E0F10;" d="M64.1484985,43.5800934l5.6670074-3.2724915l0.0184937,6.5078125l0.0108032,3.6875
									l0.0039062,1.6611023l0.0106964,3.6894836l0.0175934,6.1347961l0.0010071,0.4082031L50.655304,73.496109
									l-0.0010071-0.3905945l-0.0184937-6.2481079l-0.0234985-8.8486023l-0.0195007-6.6034851l5.7021942-3.2920227
									l3.2490082-1.875l0.4736023-0.2734985l0.381897-0.2207031l0.4989929-0.2890015L64.1484985,43.5800934
									 M70.5606079,39.0146027l-9.6387024,5.5654907l-1.405304,0.8115234l-9.6748047,5.5868835l0.0674133,23.8105164
									l20.719696-11.9627991l-0.031189-11.0751953l-0.0049133-1.6983032L70.5606079,39.0146027"/>
							</g>
						</g>
					</g>
				</g>
			</g>
			<g>
				<g style="enable-background:new    ;">
					<g>
						<defs>
							<polygon id="SVGID_3_" points="8.8574982,62.8105011 8.9248047,38.9687042 29.6739044,50.9492035 29.6065063,74.7910004 
															"/>
						</defs>
						<clipPath id="SVGID_4_">
							<use xlink:href="#SVGID_3_"  style="overflow:visible;"/>
						</clipPath>
						<g style="clip-path:url(#SVGID_4_);">
							<g>
								<path style="fill:#0E0F10;" d="M19.9307098,69.1777191l-1.4043121-0.8115234
									c0.2324066,0.1513977,0.4668121,0.2969055,0.7012024,0.4326172
									C19.4638977,68.9355011,19.6983032,69.0605011,19.9307098,69.1777191 M9.6631012,52.1601105l-0.0096893,3.7012024
									c1.0448914,3.5517883,3.089798,7.0937805,5.6493988,9.782196l3.2509003,1.8779907
									C13.7979126,64.3925934,9.9971008,57.8213043,9.6631012,52.1601105 M8.9199982,50.0596161
									c-0.0185852,0.2704773-0.0283966,0.5477905-0.0283966,0.8348999
									c-0.0018921,0.2851868,0.0059052,0.5741882,0.0234985,0.8652039L8.9199982,50.0596161 M27.4394989,54.2402191
									l-0.3759918,0.6425781c1.1524048,2.4912109,1.8280945,5.1309204,1.8222961,7.5557251
									c-0.0175934,5.8358765-3.9853973,8.3465881-8.9776001,5.8641968l3.2510071,1.8769836
									c2.5937958,0.2723999,4.6689911-0.9277954,5.7206879-3.3144836l0.0254059-8.8437195
									C28.5381012,56.7480011,28.0420074,55.4726105,27.4394989,54.2402191 M11.1416016,44.8065948
									c-0.5957031,0.5196228-1.0917969,1.1953125-1.4637909,2.015625l-0.0098114,3.7012024
									c0.1416016-2.0429077,0.804718-3.6191101,1.843811-4.6445007L11.1416016,44.8065948 M16.6416016,44.7197113
									l-2.0350952-1.1737976c-1.1054993,0.0087891-2.0986938,0.3016968-2.9346008,0.8544922l0.3574066,1.0350952
									C13.2373047,44.5449066,14.8321075,44.2734222,16.6416016,44.7197113 M23.9776001,48.957016l-2.035202-1.1748047
									c1.8145142,1.6474915,3.4082031,3.7666016,4.6094055,6.0606079l0.3612976-0.6202087
									C26.0811005,51.6952972,25.0870056,50.2471161,23.9776001,48.957016"/>
							</g>
							<g>
								<path style="fill:#0E0F10;" d="M23.9776001,48.957016l4.0937042,2.3623047l-0.0350952-0.0185242l-1.1231079,1.921814
									l-0.3612976,0.6202087L19.2481079,66.364212l-7.2187958-20.9287109l-0.3574066-1.0350952l-1.0986023-3.1825867
									l4.0332031,2.3280945l2.0350952,1.1737976l5.3007965,3.0625L23.9776001,48.957016 M28.9228973,51.3769073
									L9.6963043,40.2754059l-0.0009918,0.3398132l1.4462891,4.1913757l0.3702087,1.0723267l7.5702972,21.9472961
									l0.3231964,0.1854858l7.6582031-13.1289062l0.3759918-0.6425781l1.4833984-2.5429993V51.3769073"/>
							</g>
							<g>
								<path style="fill:#0E0F10;" d="M9.6953125,40.6152191l0.0009918-0.3398132l19.226593,11.1015015v0.3203125
									l-0.0175934,6.3242798l-0.0254059,8.8437195l-0.0184937,6.6064758l-5.7021942-3.2919922l-3.2510071-1.8769836
									l-0.5028992-0.2910156l-0.3231964-0.1854858l-0.5283966-0.304718l-3.2509003-1.8779907L9.6338043,62.371109
									l0.0196075-6.5097961l0.0096893-3.7012024l0.0048981-1.6366882l0.0098114-3.7012024L9.6953125,40.6152191
									 M29.6739044,50.9492035L8.9502106,38.9834137L8.9199982,50.0596161l-0.0048981,1.7001038l-0.0312958,11.039093
									l9.6425934,5.5673828l1.4043121,0.8115234l9.6757965,5.5859985L29.6739044,50.9492035"/>
							</g>
						</g>
					</g>
				</g>
			</g>
		</g>
	</g>
</g>
</svg>
