<svg xmlns="http://www.w3.org/2000/svg" width="220" height="226" viewBox="0 0 220 226"><path fill="none" d="M110 6c37.51 0 72.17 20.51 90.93 53.81a109.95 109.95 0 0 1 0 107.63c-18.76 33.3-53.42 53.81-90.93 53.81-37.51 0-72.17-20.51-90.93-53.81a109.95 109.95 0 0 1 0-107.63C37.83 26.51 72.49 6 110 6v3.08C73.56 9.08 39.89 29 21.67 61.35a106.82 106.82 0 0 0 0 104.55c18.22 32.35 51.89 52.28 88.33 52.28s70.11-19.93 88.33-52.28a106.82 106.82 0 0 0 0-104.55C180.11 29 146.44 9.08 110 9.08z"/><path fill="#fff" d="M109.52 6h.96l-.02 3.08h-.92zm10.98.54l.95.11-.33 3.05-.92-.1zm10.86 1.71l.94.2-.64 3.01-.91-.2zm10.63 2.86l.91.31-.94 2.92-.88-.29zm10.28 3.99l.87.4-1.23 2.81-.85-.39zm9.82 5.08l.82.49-1.51 2.65c-.27-.16-.53-.33-.8-.48zm9.24 6.08l.77.58-1.77 2.48-.75-.55zm8.57 7.06l.71.65-2.01 2.28-.69-.64zm7.81 7.93l.64.73-2.24 2.04-.62-.71zm6.96 8.72l.56.79-2.44 1.8-.54-.77zm6.02 9.42l.48.84-2.6 1.53-.47-.82zm5.04 10.02l.39.89-2.75 1.24-.38-.87zm3.98 10.49l.3.94-2.86.93-.29-.9zm2.9 10.87l.19.96-2.93.63-.2-.94zm1.76 11.12l.1.97-2.98.31-.1-.94zm.63 11.24v.99l-3-.02v-.95zm-.53 11.26l-.1.97-2.98-.34.1-.94zm-1.67 11.13l-.19.96-2.94-.65.2-.94zm-2.79 10.89l-.3.94-2.85-.97.29-.9zm-3.89 10.54l-.39.89-2.74-1.26.38-.87zm-4.95 10.07l-.48.84-2.59-1.55.47-.82zm-5.94 9.47l-.56.79-2.42-1.82.54-.77zm-6.88 8.78l-.64.73-2.22-2.06.62-.71zm-7.74 8.01l-.71.65-1.99-2.29.69-.64zm-8.51 7.13l-.77.58-1.75-2.51.75-.55zm-9.19 6.17l-.82.49-1.49-2.66c.27-.15.53-.32.8-.48zm-9.77 5.17l-.87.4-1.21-2.82.85-.39zm-10.24 4.08l-.91.31-.91-2.94.88-.29zm-10.6 2.97l-.94.2-.61-3.01.91-.2zm-10.85 1.8l-.95.11-.3-3.06.92-.1zm-10.97.65h-.96l.02-3.07h.92zm-10.98-.54l-.95-.11.33-3.05.92.1zM88.64 219l-.94-.2.64-3.01.91.2zm-10.63-2.86l-.91-.31.94-2.92.88.29zm-10.28-3.99l-.87-.4 1.23-2.81.85.39zm-9.82-5.08l-.82-.49 1.51-2.65c.27.16.53.33.8.48zm-9.24-6.08l-.77-.58 1.77-2.48.75.55zm-8.57-7.06l-.71-.65L41.4 191l.69.64zM32.29 186l-.64-.73 2.24-2.04.62.71zm-6.96-8.72l-.56-.79 2.44-1.8.54.77zm-6.02-9.42l-.48-.84 2.6-1.53.47.82zm-5.04-10.02l-.39-.89 2.75-1.24.38.87zm-3.98-10.49l-.3-.94 2.86-.93.29.9zm-2.9-10.87l-.19-.96 2.93-.63.2.94zm-1.76-11.12l-.1-.97 2.98-.31.1.94zM5 114.12v-.99l3 .02v.95zm.53-11.26l.1-.97 2.98.34-.1.94zM7.2 91.73l.19-.96 2.94.65-.2.94zm2.79-10.89l.3-.94 2.85.97-.29.9zm3.89-10.54l.39-.89 2.74 1.26-.38.87zm4.95-10.07l.48-.84 2.59 1.55-.47.82zm5.94-9.47l.56-.79 2.42 1.82-.54.77zm6.88-8.78l.64-.73 2.22 2.06-.62.71zm7.74-8.01l.71-.65 1.99 2.29-.69.64zm8.51-7.13l.77-.58 1.75 2.51-.75.55zm9.19-6.17l.82-.49 1.49 2.66c-.27.15-.53.32-.8.48zm9.77-5.17l.87-.4 1.21 2.82-.85.39zm10.24-4.08l.91-.31.91 2.94-.88.29zm10.6-2.97l.94-.2.61 3.01-.91.2zm10.85-1.8l.95-.11.3 3.06-.92.1z"/><path fill="none" d="M110 0c39.3 0 75.61 21.49 95.26 56.38a115.2 115.2 0 0 1 0 112.75C185.61 204.01 149.3 225.5 110 225.5c-39.3 0-75.61-21.49-95.26-56.37a115.2 115.2 0 0 1 0-112.75C34.39 21.49 70.7 0 110 0v6.15c-37.16 0-71.49 20.32-90.07 53.3a108.9 108.9 0 0 0 0 106.6c18.58 32.98 52.91 53.3 90.07 53.3s71.49-20.32 90.07-53.3a108.9 108.9 0 0 0 0-106.6C181.49 26.47 147.16 6.15 110 6.15z"/><path fill="#fff" d="M109.5 0h1l-.03 6.15h-.94zm55.07 14.85l.86.51-3.02 5.31c-.27-.16-.55-.31-.82-.48zm40.44 41.08l.5.89-5.21 3.05-.47-.84zM220 112.24v1.02l-6-.03v-.96zm-14.49 56.44l-.5.89-5.18-3.1.47-.84zm-40.08 41.46l-.86.51-2.98-5.34c.27-.17.55-.32.82-.48zM110.5 225.5h-1l.03-6.15h.94zm-55.07-14.85l-.86-.51 3.02-5.31c.27.16.55.31.82.48zm-40.44-41.08l-.5-.89 5.21-3.05.47.84zM0 113.26v-1.02l6 .03v.96zm14.49-56.44l.5-.89 5.18 3.1-.47.84zm40.08-41.46l.86-.51 2.98 5.34c-.27.17-.55.32-.82.48z"/></svg>