<svg xmlns="http://www.w3.org/2000/svg" width="163" height="198" viewBox="0 0 163 198"><path fill="#d8d8d8" d="M0 1.5a1.5 1.5 0 1 1 3 0 1.5 1.5 0 0 1-3 0zM32 1.5a1.5 1.5 0 1 1 3 0 1.5 1.5 0 0 1-3 0zM64 1.5a1.5 1.5 0 1 1 3 0 1.5 1.5 0 0 1-3 0zM96 1.5a1.5 1.5 0 1 1 3 0 1.5 1.5 0 0 1-3 0zM128 1.5a1.5 1.5 0 1 1 3 0 1.5 1.5 0 0 1-3 0zM160 1.5a1.5 1.5 0 1 1 3 0 1.5 1.5 0 0 1-3 0zM0 34.5a1.5 1.5 0 1 1 3 0 1.5 1.5 0 0 1-3 0zM32 34.5a1.5 1.5 0 1 1 3 0 1.5 1.5 0 0 1-3 0zM64 34.5a1.5 1.5 0 1 1 3 0 1.5 1.5 0 0 1-3 0zM96 34.5a1.5 1.5 0 1 1 3 0 1.5 1.5 0 0 1-3 0zM128 34.5a1.5 1.5 0 1 1 3 0 1.5 1.5 0 0 1-3 0zM160 34.5a1.5 1.5 0 1 1 3 0 1.5 1.5 0 0 1-3 0zM0 66.5a1.5 1.5 0 1 1 3 0 1.5 1.5 0 0 1-3 0zM32 66.5a1.5 1.5 0 1 1 3 0 1.5 1.5 0 0 1-3 0zM64 66.5a1.5 1.5 0 1 1 3 0 1.5 1.5 0 0 1-3 0zM96 66.5a1.5 1.5 0 1 1 3 0 1.5 1.5 0 0 1-3 0zM128 66.5a1.5 1.5 0 1 1 3 0 1.5 1.5 0 0 1-3 0zM160 66.5a1.5 1.5 0 1 1 3 0 1.5 1.5 0 0 1-3 0zM32 99.5a1.5 1.5 0 1 1 3 0 1.5 1.5 0 0 1-3 0zM32 131.5a1.5 1.5 0 1 1 3 0 1.5 1.5 0 0 1-3 0zM0 164.5a1.5 1.5 0 1 1 3 0 1.5 1.5 0 0 1-3 0zM32 164.5a1.5 1.5 0 1 1 3 0 1.5 1.5 0 0 1-3 0zM0 196.5a1.5 1.5 0 1 1 3 0 1.5 1.5 0 0 1-3 0zM32 196.5a1.5 1.5 0 1 1 3 0 1.5 1.5 0 0 1-3 0z"/></svg>