<svg xmlns="http://www.w3.org/2000/svg" width="136" height="137" viewBox="0 0 136 137"><defs><clipPath id="a"><path fill="#fff" d="M1007.81 130.49a67.3 67.3 0 0 0-95.41 0 67.86 67.86 0 0 0 0 95.74 67.25 67.25 0 0 0 89.25 5.41l14.38 14.42 11.53-11.58-14.36-14.42c20.75-26.57 18.99-65.09-5.39-89.57zm-84.18 11.27a51.45 51.45 0 0 1 72.95 0 51.57 51.57 0 0 1 14.53 29.21H909.1a51.45 51.45 0 0 1 14.53-29.21zm0 73.21a51.48 51.48 0 0 1-14.48-28.89h101.91a51.67 51.67 0 0 1-14.48 28.89 51.45 51.45 0 0 1-72.95 0z"/></clipPath></defs><path fill="none" d="M115.81 20.49a67.3 67.3 0 0 0-95.41 0 67.86 67.86 0 0 0 0 95.74 67.25 67.25 0 0 0 89.25 5.41l14.38 14.42 11.53-11.58-14.36-14.42c20.75-26.57 18.99-65.09-5.39-89.57zM31.63 31.76a51.45 51.45 0 0 1 72.95 0 51.57 51.57 0 0 1 14.53 29.21H17.1a51.45 51.45 0 0 1 14.53-29.21zm0 73.21a51.48 51.48 0 0 1-14.48-28.89h101.91a51.67 51.67 0 0 1-14.48 28.89 51.45 51.45 0 0 1-72.95 0z"/><path fill="none" stroke="#565656" stroke-miterlimit="50" stroke-width="1.13" d="M1007.81 130.49a67.3 67.3 0 0 0-95.41 0 67.86 67.86 0 0 0 0 95.74 67.25 67.25 0 0 0 89.25 5.41l14.38 14.42 11.53-11.58-14.36-14.42c20.75-26.57 18.99-65.09-5.39-89.57zm-84.18 11.27a51.45 51.45 0 0 1 72.95 0 51.57 51.57 0 0 1 14.53 29.21H909.1a51.45 51.45 0 0 1 14.53-29.21zm0 73.21a51.48 51.48 0 0 1-14.48-28.89h101.91a51.67 51.67 0 0 1-14.48 28.89 51.45 51.45 0 0 1-72.95 0z" clip-path="url(&quot;#a&quot;)" transform="translate(-892 -110)"/></svg>