<svg version="1.1" xmlns="http://www.w3.org/2000/svg" xmlns:xlink="http://www.w3.org/1999/xlink" x="0px" y="0px"
	 viewBox="0 0 109 25" style="enable-background:new 0 0 109 25;" xml:space="preserve">
<path d="M22.8,7.5l3.1,5.3h-1.6l-3.1-5.3h-4.6v5.3h-1.5v-12h6.8c2.3,0,3.7,1.3,3.7,3.3C25.7,5.8,24.5,7.3,22.8,7.5z M21.8,6.2
	c1.5,0,2.3-0.7,2.3-2c0-1.2-0.8-2-2.2-2h-5.3v3.9L21.8,6.2z M26.9,0.9h11.5v1.3h-5v10.6h-1.5V2.2h-5V0.9z M109,9.2
	c0,2-1.7,3.6-3.8,3.6h-7.7v-12h7.5c1.7,0,3.1,1.3,3.2,3.1c0,0.9-0.4,1.6-1,2.2C108.3,6.7,109,7.9,109,9.2z M99,5.6h6.1
	c0.9,0,1.7-0.8,1.7-1.7c0-1-0.8-1.7-1.8-1.7h-6V5.6z M107.5,9.2c0-1.2-1-2.2-2.2-2.2L99,7v4.5h6.3C106.5,11.5,107.5,10.5,107.5,9.2z
	 M80.3,6.9c0,3.3-2.7,6-6.1,6c-3.3,0-6.1-2.6-6.1-6c0,0,0,0,0,0c0-3.3,2.8-6,6.1-6c0,0,0,0,0,0C77.5,0.8,80.3,3.5,80.3,6.9
	C80.3,6.9,80.3,6.9,80.3,6.9z M78.9,6.9c0-2.6-2.1-4.6-4.7-4.6c0,0,0,0,0,0c-2.6,0-4.7,2-4.7,4.6c0,2.5,2.1,4.6,4.7,4.6
	C76.8,11.5,78.9,9.4,78.9,6.9C78.9,6.9,78.9,6.9,78.9,6.9z M94.7,6.9c0,3.3-2.8,6-6.1,6c-3.3,0-6.1-2.7-6.1-6c0-3.3,2.8-6,6.1-6
	c0,0,0,0,0,0C91.9,0.8,94.6,3.5,94.7,6.9C94.7,6.9,94.7,6.9,94.7,6.9z M93.2,6.9c0-2.5-2.1-4.6-4.7-4.6c-2.6,0-4.7,2-4.7,4.6
	c0,2.5,2.1,4.6,4.7,4.6C91.1,11.5,93.2,9.4,93.2,6.9C93.2,6.9,93.2,6.9,93.2,6.9z M64.7,10.6l1.3,1.3l-1.1,1l-1.3-1.3
	c-2.5,1.9-5.9,1.7-8.1-0.5c-2.3-2.3-2.4-6-0.1-8.4c0,0,0.1-0.1,0.1-0.1c2.4-2.3,6.3-2.3,8.7,0C66.4,4.7,66.6,8.2,64.7,10.6z
	 M63.2,10.1C65,8.4,65,5.5,63.3,3.7c0,0-0.1-0.1-0.1-0.1c-1.8-1.8-4.8-1.8-6.6,0c-1.8,1.7-1.8,4.6-0.1,6.4c0,0,0.1,0.1,0.1,0.1
	C58.4,11.9,61.3,11.9,63.2,10.1z M12.3,6.9c0,3.3-2.8,6-6.1,6c-3.3,0-6.1-2.7-6.1-6c0-3.3,2.8-6,6.1-6c0,0,0,0,0,0
	C9.5,0.8,12.2,3.5,12.3,6.9C12.3,6.9,12.3,6.9,12.3,6.9z M1.5,6.2h9.3c-0.4-2.3-2.3-3.9-4.6-3.9C3.8,2.3,1.9,3.9,1.5,6.2z M10.8,7.6
	H1.5c0.4,2.3,2.3,3.9,4.6,3.9C8.4,11.5,10.4,9.8,10.8,7.6z M51.7,6.9c0,3.3-2.7,6-6.1,6c-3.3,0-6.1-2.6-6.1-6c0,0,0,0,0,0
	c0-3.3,2.8-6,6.1-6c0,0,0,0,0,0C48.9,0.8,51.6,3.5,51.7,6.9C51.6,6.9,51.6,6.9,51.7,6.9z M40.9,6.2h9.3c-0.4-2.3-2.3-3.9-4.6-3.9
	C43.2,2.3,41.3,3.9,40.9,6.2z M50.2,7.6h-9.3c0.4,2.3,2.3,3.9,4.6,3.9C47.8,11.5,49.8,9.8,50.2,7.6z M31.8,19.9l1.9,4.9H33l-0.5-1.3
	h-2.2l-0.5,1.3H29l1.9-4.9H31.8z M32.3,22.9l-0.9-2.6l-0.9,2.6H32.3z M41.3,21.1h-0.8c-0.2-0.5-0.7-0.8-1.4-0.8
	c-0.6,0-1,0.2-1.3,0.5c-0.3,0.4-0.5,0.9-0.5,1.5c0,0.6,0.2,1.1,0.5,1.5c0.3,0.4,0.8,0.5,1.3,0.5c0.7,0,1.2-0.3,1.4-0.8h0.8
	c-0.3,0.9-1,1.4-2.2,1.4c-0.8,0-1.4-0.2-1.8-0.7c-0.5-0.5-0.7-1.2-0.7-1.9c0-0.8,0.2-1.4,0.7-1.9c0.5-0.5,1.2-0.7,1.9-0.7
	c0.6,0,1,0.1,1.4,0.4C41,20.4,41.2,20.7,41.3,21.1z M47,19.9l1.9,4.9h-0.7l-0.5-1.3h-2.2L45,24.8h-0.7l1.9-4.9H47z M47.5,22.9
	l-0.9-2.6l-0.9,2.6H47.5z M52.2,19.9H54c0.6,0,1,0.1,1.4,0.2c0.3,0.1,0.6,0.3,0.8,0.6c0.3,0.4,0.5,1,0.5,1.6c0,0.7-0.2,1.3-0.6,1.8
	c-0.4,0.5-1.1,0.8-2,0.8h-1.9L52.2,19.9z M52.9,20.5v3.7H54c1.3,0,2-0.6,2-1.9c0-0.6-0.2-1.1-0.5-1.4c-0.3-0.3-0.9-0.4-1.7-0.4
	L52.9,20.5z M62.9,19.9v0.6h-2.1V22h2.1v0.6h-2.1v1.6H63v0.6h-2.8v-4.9H62.9z M72.1,19.9l0.4,4.9h-0.7l-0.3-4.2l-1.7,4.2h-0.7
	l-1.7-4.2l-0.3,4.2h-0.7l0.4-4.9h0.9l1.7,4.2l1.7-4.2L72.1,19.9z M79.2,19.9l-1.3,2.4l-1.3-2.4h-0.8l1.6,2.8
	c0.1,0.1,0.1,0.3,0.1,0.4v1.7h0.7v-1.7c0-0.1,0-0.2,0-0.3l0.1-0.1l1.7-2.9H79.2z"/>
</svg>
