<?xml version="1.0" encoding="utf-8"?>
<!-- Generator: Adobe Illustrator 20.1.0, SVG Export Plug-In . SVG Version: 6.00 Build 0)  -->
<svg version="1.1" id="SvgjsSvg1000" xmlns:svgjs="http://svgjs.com/svgjs"
	 xmlns="http://www.w3.org/2000/svg" xmlns:xlink="http://www.w3.org/1999/xlink" x="0px" y="0px" viewBox="0 0 109 14"
	 style="enable-background:new 0 0 109 14;" xml:space="preserve">
<path id="SvgjsPath1007" style="fill:#FFFFFF;" d="M64.1749878,2.5996094c-2.3930054-2.2998047-6.2709961-2.2998047-8.6669922,0
	c-2.3919678,2.4003906-2.3930054,6.2001953,0,8.5c2.2180176,2.2001953,5.7050171,2.3007812,8.1069946,0.5l1.3079834,1.3007812
	l1.0480347-1.1005859l-1.3079834-1.2001953C66.5510254,8.2001953,66.3900146,4.7998047,64.1749878,2.5996094z M88.5300293,0.9003906
	c-3.3840332,0-6.1280518,2.6992188-6.1280518,6c0,3.2998047,2.7440186,6,6.1280518,6c3.3829956,0,6.1299438-2.7001953,6.1299438-6
	C94.6599731,3.5996094,91.9130249,0.9003906,88.5300293,0.9003906z M6.1279907,0.9003906
	C2.7449951,0.9003906,0,3.5996094,0,6.9003906c0,3.2998047,2.7449951,6,6.1279907,6c3.3850098,0,6.1279907-2.7001953,6.1279907-6
	C12.2559814,3.5996094,9.5130005,0.9003906,6.1279907,0.9003906z M45.526001,0.9003906
	c-3.3829956,0-6.1270142,2.6992188-6.1270142,6c0,3.2998047,2.7440186,6,6.1270142,6c3.3850098,0,6.1270142-2.7001953,6.1270142-6
	C51.6530151,3.5996094,48.9110107,0.9003906,45.526001,0.9003906z M74.1959839,0.9003906
	c-3.3829956,0-6.1259766,2.6992188-6.1259766,6c0,3.2998047,2.742981,6,6.1259766,6c3.3840332,0,6.1270142-2.7001953,6.1270142-6
	C80.322998,3.5996094,77.5800171,0.9003906,74.1959839,0.9003906z M26.9140015,2.2001953h5.0180054v10.5996094h1.4819946V2.2001953
	h5.0159912V0.9003906H26.9140015V2.2001953z M107.1300049,6.0996094c0.5899658-0.5,1.0100098-1.2998047,1.0100098-2.1992188
	c0-1.7001953-1.4500122-3-3.1799927-3c-0.0800171,0-7.4700317,0-7.4700317,0v11.8994141h7.7399902
	c2.0400391,0,3.7700195-1.5996094,3.7700195-3.5996094C109,7.9003906,108.210022,6.7001953,107.1300049,6.0996094z
	 M25.664978,4.2001953c0-2.1005859-1.3919678-3.2998047-3.7349854-3.2998047h-6.8330078v11.8994141h1.4830322V7.5h4.6199951
	l3.1389771,5.2998047h1.6370239L22.8339844,7.5C24.5809937,7.2001953,25.664978,5.7998047,25.664978,4.2001953z M74.1959839,11.5
	c-2.5869751,0-4.6859741-2.0996094-4.6859741-4.5996094c0-2.6005859,2.098999-4.6005859,4.6859741-4.6005859
	c2.5889893,0,4.6870117,2,4.6870117,4.6005859C78.8829956,9.4003906,76.7849731,11.5,74.1959839,11.5z M88.5300293,11.5
	c-2.5880127,0-4.6870117-2.0996094-4.6870117-4.5996094c0-2.6005859,2.098999-4.6005859,4.6870117-4.6005859
	c2.5879517,0,4.6859741,2,4.6859741,4.6005859C93.2160034,9.4003906,91.117981,11.5,88.5300293,11.5z M56.5300293,10.0996094
	c-1.8310547-1.7998047-1.8310547-4.6992188,0-6.5c1.8299561-1.7998047,4.7969971-1.7998047,6.6259766,0
	c1.8309937,1.8007812,1.8309937,4.7001953,0,6.5C61.3270264,11.9003906,58.3599854,11.9003906,56.5300293,10.0996094z
	 M105.2299805,11.5c-0.0299683,0-6.2600098,0-6.2600098,0V7h6.3200073c1.2400513,0,2.25,1,2.25,2.2001953
	C107.539978,10.5,106.5,11.5,105.2299805,11.5z M45.526001,11.5c-2.348999,0-4.2890015-1.7001953-4.6279907-4h9.257019
	C49.815979,9.7998047,47.8770142,11.5,45.526001,11.5z M6.1279907,11.5c-2.3479614,0-4.289978-1.7001953-4.6270142-4h9.2550049
	C10.4169922,9.7998047,8.4790039,11.5,6.1279907,11.5z M45.526001,2.2998047c2.3599854,0,4.3070068,1.7001953,4.632019,3.9003906
	h-9.2640381C41.2189941,4,43.1680298,2.2998047,45.526001,2.2998047z M6.1279907,2.2998047
	c2.3599854,0,4.3079834,1.7001953,4.6329956,3.9003906H1.4970093C1.8209839,4,3.7680054,2.2998047,6.1279907,2.2998047z
	 M16.5800171,6.2001953v-4h5.3259888c1.4379883,0,2.210022,0.7998047,2.210022,2s-0.7720337,2-2.2770386,2H16.5800171z
	 M71.1489868,19.9003906l-1.697998,4.1992188l-1.697998-4.1992188h-0.9279785L66.375,24.7998047h0.684021l0.3070068-4.2001953
	l1.7189941,4.2001953h0.7339478l1.7140503-4.2001953l0.3099976,4.2001953h0.6809692l-0.4469604-4.8994141H71.1489868z
	 M98.9699707,2.2001953c0,0,5.960022,0,5.9900513,0c0.9699707,0,1.75,0.7998047,1.75,1.7001953
	c0,0.8994141-0.7400513,1.6992188-1.6700439,1.6992188h-6.0700073V2.2001953z M40.6229858,20.2001953
	c-0.3759766-0.2998047-0.8479614-0.4003906-1.4110107-0.4003906C38.427002,19.7998047,37.8060303,20,37.3460083,20.5
	c-0.4570312,0.4003906-0.6860352,1.0996094-0.6860352,1.9003906c0,0.7998047,0.2230225,1.3994141,0.6719971,1.8994141
	C37.7810059,24.7998047,38.3889771,25,39.15802,25c1.1859741,0,1.9259644-0.5,2.2189941-1.4003906h-0.8140259
	c-0.2260132,0.6005859-0.6859741,0.8007812-1.3809814,0.8007812c-0.5560303,0-0.9920044-0.2001953-1.3070068-0.5
	C37.5599976,23.5,37.401001,23,37.401001,22.4003906c0-0.6005859,0.1560059-1.1005859,0.4680176-1.5
	c0.3109741-0.3007812,0.742981-0.5,1.2999878-0.5c0.7130127,0,1.1699829,0.1992188,1.375,0.7998047h0.7669678
	C41.2280273,20.7001953,40.9979858,20.4003906,40.6229858,20.2001953z M30.9520264,19.9003906l-1.9130249,4.8994141h0.7280273
	L30.2509766,23.5h2.2460327l0.4810181,1.2998047h0.7299805l-1.9100342-4.8994141H30.9520264z M46.184021,19.9003906
	l-1.9120483,4.8994141H45L45.4849854,23.5h2.2440186l0.4819946,1.2998047h0.7299805l-1.9099731-4.8994141H46.184021z
	 M52.2109985,24.7998047h1.8569946c0.9400024,0,1.6220093-0.2001953,2.0460205-0.7001953
	c0.3869629-0.5,0.5819702-1.0996094,0.5819702-1.7998047s-0.1699829-1.2001953-0.5089722-1.5996094
	c-0.2250366-0.2998047-0.5010376-0.5-0.8309937-0.6005859C55.0289917,20,54.572998,19.9003906,53.9890137,19.9003906h-1.7780151
	V24.7998047z M60.1400146,19.9003906v4.8994141h2.8309937v-0.5996094H60.802002v-1.6005859h2.0640259V22H60.802002v-1.5h2.1110229
	v-0.5996094H60.1400146z M53.8079834,20.5c0.7659912,0,1.3170166,0.0996094,1.6470337,0.4003906
	c0.3299561,0.2998047,0.4939575,0.7998047,0.4939575,1.3994141c0,1.2998047-0.657959,1.9003906-1.9709473,1.9003906H52.875V20.5
	H53.8079834z M45.6950073,23l0.9110107-2.5996094L47.5130005,23H45.6950073z M30.4630127,23L31.375,20.4003906L32.2800293,23
	H30.4630127z M79.1829834,19.9003906l-1.3280029,2.3994141l-1.3249512-2.3994141h-0.7940063l1.6489868,2.7998047
	C77.473999,22.9003906,77.5159912,23,77.5159912,23.0996094v1.7001953h0.6630249v-1.5996094
	c0-0.2001953,0.0130005-0.2998047,0.0419922-0.2998047l0.072998-0.1005859l1.6669922-2.8994141H79.1829834z"/>
</svg>
