<svg id="SvgjsSvg1008" xmlns="http://www.w3.org/2000/svg" version="1.1" xmlns:xlink="http://www.w3.org/1999/xlink" xmlns:svgjs="http://svgjs.com/svgjs" width="23" height="22" viewBox="0 0 23 22"><title>Shape 3</title><desc>Created with Avocode.</desc><defs id="SvgjsDefs1009"></defs><path id="SvgjsPath1010" d="M968.345 10980.2C964.062 10976 957.116 10976 952.8330000000001 10980.2C948.5500000000001 10984.5 948.5490000000001 10991.400000000001 952.8330000000001 10995.6C956.7970000000001 10999.5 963.041 10999.800000000001 967.344 10996.5L969.681 10998.8L971.556 10996.9L969.221 10994.6C972.596 10990.4 972.309 10984.2 968.345 10980.2ZM954.659 10982.1C957.932 10978.800000000001 963.246 10978.800000000001 966.519 10982.1C967.851 10983.4 968.6320000000001 10985 968.881 10986.7L952.297 10986.7C952.5450000000001 10985 953.326 10983.400000000001 954.659 10982.1ZM954.659 10993.8C953.34 10992.5 952.563 10990.9 952.306 10989.199999999999L968.873 10989.199999999999C968.6160000000001 10990.9 967.8370000000001 10992.499999999998 966.519 10993.8C963.246 10997 957.932 10997 954.659 10993.8Z " fill="#ffffff" fill-opacity="1" transform="matrix(1,0,0,1,-949,-10977)"></path></svg>