<svg version="1.1" xmlns="http://www.w3.org/2000/svg" xmlns:xlink="http://www.w3.org/1999/xlink" x="0px" y="0px"
	 viewBox="0 0 23 22" style="enable-background:new 0 0 23 22;" xml:space="preserve">
<path d="M19.3,3.2C15-1,8.1-1,3.8,3.2c-4.2,4.2-4.3,11-0.1,15.3c0,0,0.1,0.1,0.1,0.1c3.9,3.9,10.1,4.2,14.5,0.9l2.3,2.3l1.9-1.9
	l-2.3-2.3C23.6,13.3,23.3,7.1,19.3,3.2z M5.7,5.1c3.3-3.2,8.6-3.2,11.9,0c1.3,1.3,2.1,2.9,2.4,4.7H3.3C3.6,8,4.4,6.3,5.7,5.1z
	 M5.7,16.8c-1.3-1.2-2.1-2.9-2.3-4.6h16.6c-0.3,1.8-1.1,3.4-2.4,4.6C14.2,20,8.9,20,5.7,16.8z"/>
</svg>
