<svg xmlns="http://www.w3.org/2000/svg" width="259" height="259" viewBox="0 0 259 259"><defs><clipPath id="a"><path fill="#fff" d="M754.97 2389.42c-50.41-50.42-132.16-50.41-182.55 0-50.41 50.41-50.42 132.14 0 182.55 46.65 46.66 120.13 50.03 170.77 10.3l27.5 27.5 22.08-22.08-27.48-27.5c39.71-50.66 36.34-124.11-10.32-170.77zm-161.07 21.47c38.53-38.54 101.06-38.54 139.59 0a98.22 98.22 0 0 1 27.79 55.71H566.11a98.1 98.1 0 0 1 27.79-55.71zm0 139.6a98.05 98.05 0 0 1-27.69-55.08h194.98a98.26 98.26 0 0 1-27.7 55.08c-38.53 38.54-101.06 38.54-139.59 0z"/></clipPath></defs><path fill="none" d="M220.97 38.42C170.56-12 88.81-11.99 38.42 38.42c-50.41 50.41-50.42 132.14 0 182.55 46.65 46.66 120.13 50.03 170.77 10.3l27.5 27.5 22.08-22.08-27.48-27.5C271 158.53 267.63 85.08 220.97 38.42zM59.9 59.89c38.53-38.54 101.06-38.54 139.59 0a98.22 98.22 0 0 1 27.79 55.71H32.11A98.1 98.1 0 0 1 59.9 59.89zm0 139.6a98.05 98.05 0 0 1-27.69-55.08h194.98a98.26 98.26 0 0 1-27.7 55.08c-38.53 38.54-101.06 38.54-139.59 0z"/><path fill="none" stroke="#fff" stroke-miterlimit="50" stroke-width="2" d="M754.97 2389.42c-50.41-50.42-132.16-50.41-182.55 0-50.41 50.41-50.42 132.14 0 182.55 46.65 46.66 120.13 50.03 170.77 10.3l27.5 27.5 22.08-22.08-27.48-27.5c39.71-50.66 36.34-124.11-10.32-170.77zm-161.07 21.47c38.53-38.54 101.06-38.54 139.59 0a98.22 98.22 0 0 1 27.79 55.71H566.11a98.1 98.1 0 0 1 27.79-55.71zm0 139.6a98.05 98.05 0 0 1-27.69-55.08h194.98a98.26 98.26 0 0 1-27.7 55.08c-38.53 38.54-101.06 38.54-139.59 0z" clip-path="url(&quot;#a&quot;)" transform="translate(-534 -2351)"/></svg>