<svg id="SvgjsSvg1000" xmlns="http://www.w3.org/2000/svg" version="1.1" xmlns:xlink="http://www.w3.org/1999/xlink" xmlns:svgjs="http://svgjs.com/svgjs" width="109" height="25" viewBox="0 0 109 25"><defs id="SvgjsDefs1001"></defs><path id="SvgjsPath1007" d="M970.175 11014.6C967.7819999999999 11012.300000000001 963.904 11012.300000000001 961.5079999999999 11014.6C959.1159999999999 11017 959.1149999999999 11020.800000000001 961.5079999999999 11023.1C963.7259999999999 11025.300000000001 967.213 11025.4 969.6149999999999 11023.6L970.9229999999999 11024.9L971.9709999999999 11023.8L970.6629999999999 11022.599999999999C972.5509999999999 11020.199999999999 972.3899999999999 11016.8 970.1749999999998 11014.599999999999ZM994.53 11012.9C991.146 11012.9 988.4019999999999 11015.6 988.4019999999999 11018.9C988.4019999999999 11022.199999999999 991.146 11024.9 994.53 11024.9C997.913 11024.9 1000.66 11022.199999999999 1000.66 11018.9C1000.66 11015.6 997.913 11012.9 994.53 11012.9ZM912.128 11012.9C908.745 11012.9 906 11015.6 906 11018.9C906 11022.199999999999 908.745 11024.9 912.128 11024.9C915.513 11024.9 918.2560000000001 11022.199999999999 918.2560000000001 11018.9C918.2560000000001 11015.6 915.513 11012.9 912.128 11012.9ZM951.526 11012.9C948.1429999999999 11012.9 945.399 11015.6 945.399 11018.9C945.399 11022.199999999999 948.143 11024.9 951.526 11024.9C954.911 11024.9 957.6529999999999 11022.199999999999 957.6529999999999 11018.9C957.6529999999999 11015.6 954.911 11012.9 951.526 11012.9ZM980.196 11012.9C976.813 11012.9 974.07 11015.6 974.07 11018.9C974.07 11022.199999999999 976.8130000000001 11024.9 980.196 11024.9C983.58 11024.9 986.323 11022.199999999999 986.323 11018.9C986.323 11015.6 983.5799999999999 11012.9 980.196 11012.9ZM932.914 11014.2L937.932 11014.2L937.932 11024.800000000001L939.414 11024.800000000001L939.414 11014.2L944.43 11014.2L944.43 11012.900000000001L932.914 11012.900000000001ZM1013.13 11018.1C1013.72 11017.6 1014.14 11016.800000000001 1014.14 11015.9C1014.14 11014.199999999999 1012.6899999999999 11012.9 1010.96 11012.9C1010.88 11012.9 1003.49 11012.9 1003.49 11012.9L1003.49 11024.8L1011.23 11024.8C1013.27 11024.8 1015 11023.199999999999 1015 11021.199999999999C1015 11019.9 1014.21 11018.699999999999 1013.13 11018.099999999999ZM931.665 11016.2C931.665 11014.1 930.2729999999999 11012.900000000001 927.93 11012.900000000001L921.097 11012.900000000001L921.097 11024.800000000001L922.5799999999999 11024.800000000001L922.5799999999999 11019.500000000002L927.1999999999999 11019.500000000002L930.3389999999999 11024.800000000001L931.9759999999999 11024.800000000001L928.8339999999998 11019.500000000002C930.5809999999998 11019.200000000003 931.6649999999998 11017.800000000001 931.6649999999998 11016.200000000003ZM980.196 11023.5C977.609 11023.5 975.51 11021.4 975.51 11018.9C975.51 11016.3 977.609 11014.3 980.196 11014.3C982.7850000000001 11014.3 984.883 11016.3 984.883 11018.9C984.883 11021.4 982.7850000000001 11023.5 980.196 11023.5ZM994.53 11023.5C991.942 11023.5 989.843 11021.4 989.843 11018.9C989.843 11016.3 991.942 11014.3 994.53 11014.3C997.1179999999999 11014.3 999.216 11016.3 999.216 11018.9C999.216 11021.4 997.118 11023.5 994.53 11023.5ZM962.53 11022.1C960.699 11020.300000000001 960.699 11017.4 962.53 11015.6C964.36 11013.800000000001 967.327 11013.800000000001 969.156 11015.6C970.987 11017.4 970.987 11020.300000000001 969.156 11022.1C967.327 11023.9 964.3599999999999 11023.9 962.53 11022.1ZM1011.23 11023.5C1011.2 11023.5 1004.97 11023.5 1004.97 11023.5L1004.97 11019L1011.2900000000001 11019C1012.5300000000001 11019 1013.5400000000001 11020 1013.5400000000001 11021.2C1013.5400000000001 11022.5 1012.5000000000001 11023.5 1011.2300000000001 11023.5ZM951.526 11023.5C949.1769999999999 11023.5 947.237 11021.8 946.8979999999999 11019.5L956.1549999999999 11019.5C955.8159999999998 11021.8 953.8769999999998 11023.5 951.5259999999998 11023.5ZM912.128 11023.5C909.7800000000001 11023.5 907.8380000000001 11021.8 907.5010000000001 11019.5L916.7560000000001 11019.5C916.417 11021.8 914.479 11023.5 912.128 11023.5ZM951.526 11014.3C953.886 11014.3 955.833 11016 956.1579999999999 11018.199999999999L946.8939999999999 11018.199999999999C947.2189999999999 11015.999999999998 949.1679999999999 11014.3 951.5259999999998 11014.3ZM912.128 11014.3C914.488 11014.3 916.436 11016 916.7610000000001 11018.199999999999L907.4970000000001 11018.199999999999C907.821 11015.999999999998 909.768 11014.3 912.128 11014.3ZM922.58 11018.2L922.58 11014.2L927.9060000000001 11014.2C929.344 11014.2 930.1160000000001 11015 930.1160000000001 11016.2C930.1160000000001 11017.400000000001 929.344 11018.2 927.839 11018.2ZM977.149 11031.9L975.451 11036.1L973.753 11031.9L972.825 11031.9L972.375 11036.8L973.059 11036.8L973.366 11032.599999999999L975.085 11036.8L975.8190000000001 11036.8L977.5330000000001 11032.599999999999L977.8430000000001 11036.8L978.5240000000001 11036.8L978.0770000000001 11031.9ZM1004.97 11014.2C1004.97 11014.2 1010.9300000000001 11014.2 1010.96 11014.2C1011.9300000000001 11014.2 1012.71 11015 1012.71 11015.900000000001C1012.71 11016.800000000001 1011.97 11017.600000000002 1011.0400000000001 11017.600000000002L1004.97 11017.600000000002ZM946.623 11032.2C946.2470000000001 11031.900000000001 945.7750000000001 11031.800000000001 945.2120000000001 11031.800000000001C944.4270000000001 11031.800000000001 943.8060000000002 11032.000000000002 943.3460000000001 11032.500000000002C942.8890000000001 11032.900000000001 942.6600000000001 11033.600000000002 942.6600000000001 11034.400000000001C942.6600000000001 11035.2 942.883 11035.800000000001 943.3320000000001 11036.300000000001C943.7810000000001 11036.800000000001 944.3890000000001 11037.000000000002 945.1580000000001 11037.000000000002C946.3440000000002 11037.000000000002 947.0840000000002 11036.500000000002 947.3770000000002 11035.600000000002L946.5630000000002 11035.600000000002C946.3370000000002 11036.200000000003 945.8770000000002 11036.400000000001 945.1820000000002 11036.400000000001C944.6260000000002 11036.400000000001 944.1900000000003 11036.2 943.8750000000002 11035.900000000001C943.5600000000002 11035.500000000002 943.4010000000002 11035.000000000002 943.4010000000002 11034.400000000001C943.4010000000002 11033.800000000001 943.5570000000001 11033.300000000001 943.8690000000001 11032.900000000001C944.1800000000002 11032.600000000002 944.6120000000002 11032.400000000001 945.1690000000001 11032.400000000001C945.8820000000001 11032.400000000001 946.339 11032.600000000002 946.5440000000001 11033.2L947.3110000000001 11033.2C947.2280000000002 11032.7 946.9980000000002 11032.400000000001 946.6230000000002 11032.2ZM936.952 11031.9L935.039 11036.8L935.7669999999999 11036.8L936.251 11035.5L938.497 11035.5L938.978 11036.8L939.708 11036.8L937.798 11031.9ZM952.184 11031.9L950.2719999999999 11036.8L950.9999999999999 11036.8L951.4849999999999 11035.5L953.7289999999999 11035.5L954.2109999999999 11036.8L954.9409999999999 11036.8L953.031 11031.9ZM958.211 11036.8L960.068 11036.8C961.008 11036.8 961.6899999999999 11036.599999999999 962.114 11036.099999999999C962.501 11035.599999999999 962.696 11034.999999999998 962.696 11034.3C962.696 11033.599999999999 962.5260000000001 11033.099999999999 962.187 11032.699999999999C961.962 11032.4 961.686 11032.199999999999 961.356 11032.099999999999C961.029 11031.999999999998 960.573 11031.899999999998 959.989 11031.899999999998L958.211 11031.899999999998ZM966.14 11031.9L966.14 11036.8L968.971 11036.8L968.971 11036.199999999999L966.802 11036.199999999999L966.802 11034.599999999999L968.866 11034.599999999999L968.866 11033.999999999998L966.802 11033.999999999998L966.802 11032.499999999998L968.913 11032.499999999998L968.913 11031.899999999998ZM959.808 11032.5C960.574 11032.5 961.125 11032.6 961.455 11032.9C961.7850000000001 11033.199999999999 961.9490000000001 11033.699999999999 961.9490000000001 11034.3C961.9490000000001 11035.599999999999 961.291 11036.199999999999 959.9780000000001 11036.199999999999L958.8750000000001 11036.199999999999L958.8750000000001 11032.499999999998ZM951.695 11035L952.606 11032.4L953.513 11035ZM936.463 11035L937.375 11032.4L938.28 11035ZM985.183 11031.9L983.855 11034.3L982.53 11031.9L981.736 11031.9L983.385 11034.699999999999C983.474 11034.9 983.516 11034.999999999998 983.516 11035.099999999999L983.516 11036.8L984.179 11036.8L984.179 11035.199999999999C984.179 11034.999999999998 984.192 11034.9 984.221 11034.9L984.294 11034.8L985.961 11031.9Z " fill="#ffffff" fill-opacity="1" transform="matrix(1,0,0,1,-906,-11012)"></path></svg>