<?xml version="1.0" encoding="utf-8"?>
<svg version="1.1" id="Слой_1" xmlns="http://www.w3.org/2000/svg" xmlns:xlink="http://www.w3.org/1999/xlink" x="0px" y="0px"
	 viewBox="0 0 251 251" style="enable-background:new 0 0 251 251;" xml:space="preserve">
<style type="text/css">
	.st0{fill:#FFFFFF;}
</style>
<path class="st0" d="M31.6,139.3h188.8c-3,20.2-12.4,38.9-26.8,53.3c-37.3,37.3-97.9,37.3-135.2,0C44,178.2,34.6,159.5,31.6,139.3z
	 M193.6,57.4c14.6,14.6,24,33.5,26.9,53.9h-189C34.4,90.9,43.8,72,58.4,57.4C95.7,20.1,156.3,20.1,193.6,57.4z M37.6,36.6
	c-48.8,48.8-48.8,128,0,176.8c45.2,45.2,116.3,48.4,165.4,10l26.6,26.6l21.4-21.4L224.4,202c38.4-49.1,35.2-120.2-10-165.4
	C165.6-12.2,86.4-12.2,37.6,36.6z"/>
</svg>
