<svg width="140px" height="209px" viewBox="0 0 140 209" version="1.1" xmlns="http://www.w3.org/2000/svg" xmlns:xlink="http://www.w3.org/1999/xlink">
    <defs>
        <rect id="path-1" x="0" y="0" width="160" height="235.563771"></rect>
    </defs>
    <g id="Page-1" stroke="none" stroke-width="1" fill="none" fill-rule="evenodd" opacity="0.400000006">
        <g id="GBW-general-1920x1080" transform="translate(-610.000000, -1383.000000)">
            <g id="block-2" transform="translate(0.000000, 1079.000000)">
                <g id="text" transform="translate(559.000000, 277.486137)">
                    <g id="01">
                        <g id="dash-1" transform="translate(41.000000, 0.000000)">
                            <mask id="mask-2" fill="white">
                                <use xlink:href="#path-1"></use>
                            </mask>
                            <g id="Mask"></g>
                            <g id="Icons/dash" mask="url(#mask-2)" fill="#777777">
                                <g transform="translate(10.000000, 26.950092)" id="dash">
                                    <path d="M1,1.99630314 C0.44771525,1.99630314 0,1.54941546 0,0.998151571 C0,0.44688768 0.44771525,0 1,0 C1.55228475,0 2,0.44688768 2,0.998151571 C2,1.54941546 1.55228475,1.99630314 1,1.99630314 Z M24,1.99630314 C23.4477153,1.99630314 23,1.54941546 23,0.998151571 C23,0.44688768 23.4477153,0 24,0 C24.5522847,0 25,0.44688768 25,0.998151571 C25,1.54941546 24.5522847,1.99630314 24,1.99630314 Z M47,1.99630314 C46.4477153,1.99630314 46,1.54941546 46,0.998151571 C46,0.44688768 46.4477153,0 47,0 C47.5522847,0 48,0.44688768 48,0.998151571 C48,1.54941546 47.5522847,1.99630314 47,1.99630314 Z M70,1.99630314 C69.4477153,1.99630314 69,1.54941546 69,0.998151571 C69,0.44688768 69.4477153,0 70,0 C70.5522847,0 71,0.44688768 71,0.998151571 C71,1.54941546 70.5522847,1.99630314 70,1.99630314 Z M93,1.99630314 C92.4477153,1.99630314 92,1.54941546 92,0.998151571 C92,0.44688768 92.4477153,0 93,0 C93.5522847,0 94,0.44688768 94,0.998151571 C94,1.54941546 93.5522847,1.99630314 93,1.99630314 Z M116,1.99630314 C115.447715,1.99630314 115,1.54941546 115,0.998151571 C115,0.44688768 115.447715,0 116,0 C116.552285,0 117,0.44688768 117,0.998151571 C117,1.54941546 116.552285,1.99630314 116,1.99630314 Z M139,1.99630314 C138.447715,1.99630314 138,1.54941546 138,0.998151571 C138,0.44688768 138.447715,0 139,0 C139.552285,0 140,0.44688768 140,0.998151571 C140,1.54941546 139.552285,1.99630314 139,1.99630314 Z M162,1.99630314 C161.447715,1.99630314 161,1.54941546 161,0.998151571 C161,0.44688768 161.447715,0 162,0 C162.552285,0 163,0.44688768 163,0.998151571 C163,1.54941546 162.552285,1.99630314 162,1.99630314 Z M185,1.99630314 C184.447715,1.99630314 184,1.54941546 184,0.998151571 C184,0.44688768 184.447715,0 185,0 C185.552285,0 186,0.44688768 186,0.998151571 C186,1.54941546 185.552285,1.99630314 185,1.99630314 Z M1,24.9537893 C0.44771525,24.9537893 0,24.5069016 0,23.9556377 C0,23.4043738 0.44771525,22.9574861 1,22.9574861 C1.55228475,22.9574861 2,23.4043738 2,23.9556377 C2,24.5069016 1.55228475,24.9537893 1,24.9537893 Z M24,24.9537893 C23.4477153,24.9537893 23,24.5069016 23,23.9556377 C23,23.4043738 23.4477153,22.9574861 24,22.9574861 C24.5522847,22.9574861 25,23.4043738 25,23.9556377 C25,24.5069016 24.5522847,24.9537893 24,24.9537893 Z M47,24.9537893 C46.4477153,24.9537893 46,24.5069016 46,23.9556377 C46,23.4043738 46.4477153,22.9574861 47,22.9574861 C47.5522847,22.9574861 48,23.4043738 48,23.9556377 C48,24.5069016 47.5522847,24.9537893 47,24.9537893 Z M70,24.9537893 C69.4477153,24.9537893 69,24.5069016 69,23.9556377 C69,23.4043738 69.4477153,22.9574861 70,22.9574861 C70.5522847,22.9574861 71,23.4043738 71,23.9556377 C71,24.5069016 70.5522847,24.9537893 70,24.9537893 Z M93,24.9537893 C92.4477153,24.9537893 92,24.5069016 92,23.9556377 C92,23.4043738 92.4477153,22.9574861 93,22.9574861 C93.5522847,22.9574861 94,23.4043738 94,23.9556377 C94,24.5069016 93.5522847,24.9537893 93,24.9537893 Z M116,24.9537893 C115.447715,24.9537893 115,24.5069016 115,23.9556377 C115,23.4043738 115.447715,22.9574861 116,22.9574861 C116.552285,22.9574861 117,23.4043738 117,23.9556377 C117,24.5069016 116.552285,24.9537893 116,24.9537893 Z M139,24.9537893 C138.447715,24.9537893 138,24.5069016 138,23.9556377 C138,23.4043738 138.447715,22.9574861 139,22.9574861 C139.552285,22.9574861 140,23.4043738 140,23.9556377 C140,24.5069016 139.552285,24.9537893 139,24.9537893 Z M162,24.9537893 C161.447715,24.9537893 161,24.5069016 161,23.9556377 C161,23.4043738 161.447715,22.9574861 162,22.9574861 C162.552285,22.9574861 163,23.4043738 163,23.9556377 C163,24.5069016 162.552285,24.9537893 162,24.9537893 Z M185,24.9537893 C184.447715,24.9537893 184,24.5069016 184,23.9556377 C184,23.4043738 184.447715,22.9574861 185,22.9574861 C185.552285,22.9574861 186,23.4043738 186,23.9556377 C186,24.5069016 185.552285,24.9537893 185,24.9537893 Z M1,47.9112754 C0.44771525,47.9112754 0,47.4643877 0,46.9131238 C0,46.36186 0.44771525,45.9149723 1,45.9149723 C1.55228475,45.9149723 2,46.36186 2,46.9131238 C2,47.4643877 1.55228475,47.9112754 1,47.9112754 Z M24,47.9112754 C23.4477153,47.9112754 23,47.4643877 23,46.9131238 C23,46.36186 23.4477153,45.9149723 24,45.9149723 C24.5522847,45.9149723 25,46.36186 25,46.9131238 C25,47.4643877 24.5522847,47.9112754 24,47.9112754 Z M47,47.9112754 C46.4477153,47.9112754 46,47.4643877 46,46.9131238 C46,46.36186 46.4477153,45.9149723 47,45.9149723 C47.5522847,45.9149723 48,46.36186 48,46.9131238 C48,47.4643877 47.5522847,47.9112754 47,47.9112754 Z M70,47.9112754 C69.4477153,47.9112754 69,47.4643877 69,46.9131238 C69,46.36186 69.4477153,45.9149723 70,45.9149723 C70.5522847,45.9149723 71,46.36186 71,46.9131238 C71,47.4643877 70.5522847,47.9112754 70,47.9112754 Z M93,47.9112754 C92.4477153,47.9112754 92,47.4643877 92,46.9131238 C92,46.36186 92.4477153,45.9149723 93,45.9149723 C93.5522847,45.9149723 94,46.36186 94,46.9131238 C94,47.4643877 93.5522847,47.9112754 93,47.9112754 Z M116,47.9112754 C115.447715,47.9112754 115,47.4643877 115,46.9131238 C115,46.36186 115.447715,45.9149723 116,45.9149723 C116.552285,45.9149723 117,46.36186 117,46.9131238 C117,47.4643877 116.552285,47.9112754 116,47.9112754 Z M139,47.9112754 C138.447715,47.9112754 138,47.4643877 138,46.9131238 C138,46.36186 138.447715,45.9149723 139,45.9149723 C139.552285,45.9149723 140,46.36186 140,46.9131238 C140,47.4643877 139.552285,47.9112754 139,47.9112754 Z M162,47.9112754 C161.447715,47.9112754 161,47.4643877 161,46.9131238 C161,46.36186 161.447715,45.9149723 162,45.9149723 C162.552285,45.9149723 163,46.36186 163,46.9131238 C163,47.4643877 162.552285,47.9112754 162,47.9112754 Z M185,47.9112754 C184.447715,47.9112754 184,47.4643877 184,46.9131238 C184,46.36186 184.447715,45.9149723 185,45.9149723 C185.552285,45.9149723 186,46.36186 186,46.9131238 C186,47.4643877 185.552285,47.9112754 185,47.9112754 Z M1,70.8687616 C0.44771525,70.8687616 0,70.4218739 0,69.87061 C0,69.3193461 0.44771525,68.8724584 1,68.8724584 C1.55228475,68.8724584 2,69.3193461 2,69.87061 C2,70.4218739 1.55228475,70.8687616 1,70.8687616 Z M24,70.8687616 C23.4477153,70.8687616 23,70.4218739 23,69.87061 C23,69.3193461 23.4477153,68.8724584 24,68.8724584 C24.5522847,68.8724584 25,69.3193461 25,69.87061 C25,70.4218739 24.5522847,70.8687616 24,70.8687616 Z M47,70.8687616 C46.4477153,70.8687616 46,70.4218739 46,69.87061 C46,69.3193461 46.4477153,68.8724584 47,68.8724584 C47.5522847,68.8724584 48,69.3193461 48,69.87061 C48,70.4218739 47.5522847,70.8687616 47,70.8687616 Z M70,70.8687616 C69.4477153,70.8687616 69,70.4218739 69,69.87061 C69,69.3193461 69.4477153,68.8724584 70,68.8724584 C70.5522847,68.8724584 71,69.3193461 71,69.87061 C71,70.4218739 70.5522847,70.8687616 70,70.8687616 Z M93,70.8687616 C92.4477153,70.8687616 92,70.4218739 92,69.87061 C92,69.3193461 92.4477153,68.8724584 93,68.8724584 C93.5522847,68.8724584 94,69.3193461 94,69.87061 C94,70.4218739 93.5522847,70.8687616 93,70.8687616 Z M116,70.8687616 C115.447715,70.8687616 115,70.4218739 115,69.87061 C115,69.3193461 115.447715,68.8724584 116,68.8724584 C116.552285,68.8724584 117,69.3193461 117,69.87061 C117,70.4218739 116.552285,70.8687616 116,70.8687616 Z M139,70.8687616 C138.447715,70.8687616 138,70.4218739 138,69.87061 C138,69.3193461 138.447715,68.8724584 139,68.8724584 C139.552285,68.8724584 140,69.3193461 140,69.87061 C140,70.4218739 139.552285,70.8687616 139,70.8687616 Z M162,70.8687616 C161.447715,70.8687616 161,70.4218739 161,69.87061 C161,69.3193461 161.447715,68.8724584 162,68.8724584 C162.552285,68.8724584 163,69.3193461 163,69.87061 C163,70.4218739 162.552285,70.8687616 162,70.8687616 Z M185,70.8687616 C184.447715,70.8687616 184,70.4218739 184,69.87061 C184,69.3193461 184.447715,68.8724584 185,68.8724584 C185.552285,68.8724584 186,69.3193461 186,69.87061 C186,70.4218739 185.552285,70.8687616 185,70.8687616 Z M1,93.8262477 C0.44771525,93.8262477 0,93.37936 0,92.8280961 C0,92.2768322 0.44771525,91.8299445 1,91.8299445 C1.55228475,91.8299445 2,92.2768322 2,92.8280961 C2,93.37936 1.55228475,93.8262477 1,93.8262477 Z M24,93.8262477 C23.4477153,93.8262477 23,93.37936 23,92.8280961 C23,92.2768322 23.4477153,91.8299445 24,91.8299445 C24.5522847,91.8299445 25,92.2768322 25,92.8280961 C25,93.37936 24.5522847,93.8262477 24,93.8262477 Z M47,93.8262477 C46.4477153,93.8262477 46,93.37936 46,92.8280961 C46,92.2768322 46.4477153,91.8299445 47,91.8299445 C47.5522847,91.8299445 48,92.2768322 48,92.8280961 C48,93.37936 47.5522847,93.8262477 47,93.8262477 Z M70,93.8262477 C69.4477153,93.8262477 69,93.37936 69,92.8280961 C69,92.2768322 69.4477153,91.8299445 70,91.8299445 C70.5522847,91.8299445 71,92.2768322 71,92.8280961 C71,93.37936 70.5522847,93.8262477 70,93.8262477 Z M93,93.8262477 C92.4477153,93.8262477 92,93.37936 92,92.8280961 C92,92.2768322 92.4477153,91.8299445 93,91.8299445 C93.5522847,91.8299445 94,92.2768322 94,92.8280961 C94,93.37936 93.5522847,93.8262477 93,93.8262477 Z M116,93.8262477 C115.447715,93.8262477 115,93.37936 115,92.8280961 C115,92.2768322 115.447715,91.8299445 116,91.8299445 C116.552285,91.8299445 117,92.2768322 117,92.8280961 C117,93.37936 116.552285,93.8262477 116,93.8262477 Z M139,93.8262477 C138.447715,93.8262477 138,93.37936 138,92.8280961 C138,92.2768322 138.447715,91.8299445 139,91.8299445 C139.552285,91.8299445 140,92.2768322 140,92.8280961 C140,93.37936 139.552285,93.8262477 139,93.8262477 Z M162,93.8262477 C161.447715,93.8262477 161,93.37936 161,92.8280961 C161,92.2768322 161.447715,91.8299445 162,91.8299445 C162.552285,91.8299445 163,92.2768322 163,92.8280961 C163,93.37936 162.552285,93.8262477 162,93.8262477 Z M185,93.8262477 C184.447715,93.8262477 184,93.37936 184,92.8280961 C184,92.2768322 184.447715,91.8299445 185,91.8299445 C185.552285,91.8299445 186,92.2768322 186,92.8280961 C186,93.37936 185.552285,93.8262477 185,93.8262477 Z M1,116.783734 C0.44771525,116.783734 0,116.336846 0,115.785582 C0,115.234318 0.44771525,114.787431 1,114.787431 C1.55228475,114.787431 2,115.234318 2,115.785582 C2,116.336846 1.55228475,116.783734 1,116.783734 Z M24,116.783734 C23.4477153,116.783734 23,116.336846 23,115.785582 C23,115.234318 23.4477153,114.787431 24,114.787431 C24.5522847,114.787431 25,115.234318 25,115.785582 C25,116.336846 24.5522847,116.783734 24,116.783734 Z M47,116.783734 C46.4477153,116.783734 46,116.336846 46,115.785582 C46,115.234318 46.4477153,114.787431 47,114.787431 C47.5522847,114.787431 48,115.234318 48,115.785582 C48,116.336846 47.5522847,116.783734 47,116.783734 Z M70,116.783734 C69.4477153,116.783734 69,116.336846 69,115.785582 C69,115.234318 69.4477153,114.787431 70,114.787431 C70.5522847,114.787431 71,115.234318 71,115.785582 C71,116.336846 70.5522847,116.783734 70,116.783734 Z M93,116.783734 C92.4477153,116.783734 92,116.336846 92,115.785582 C92,115.234318 92.4477153,114.787431 93,114.787431 C93.5522847,114.787431 94,115.234318 94,115.785582 C94,116.336846 93.5522847,116.783734 93,116.783734 Z M116,116.783734 C115.447715,116.783734 115,116.336846 115,115.785582 C115,115.234318 115.447715,114.787431 116,114.787431 C116.552285,114.787431 117,115.234318 117,115.785582 C117,116.336846 116.552285,116.783734 116,116.783734 Z M139,116.783734 C138.447715,116.783734 138,116.336846 138,115.785582 C138,115.234318 138.447715,114.787431 139,114.787431 C139.552285,114.787431 140,115.234318 140,115.785582 C140,116.336846 139.552285,116.783734 139,116.783734 Z M162,116.783734 C161.447715,116.783734 161,116.336846 161,115.785582 C161,115.234318 161.447715,114.787431 162,114.787431 C162.552285,114.787431 163,115.234318 163,115.785582 C163,116.336846 162.552285,116.783734 162,116.783734 Z M185,116.783734 C184.447715,116.783734 184,116.336846 184,115.785582 C184,115.234318 184.447715,114.787431 185,114.787431 C185.552285,114.787431 186,115.234318 186,115.785582 C186,116.336846 185.552285,116.783734 185,116.783734 Z M1,139.74122 C0.44771525,139.74122 0,139.294332 0,138.743068 C0,138.191805 0.44771525,137.744917 1,137.744917 C1.55228475,137.744917 2,138.191805 2,138.743068 C2,139.294332 1.55228475,139.74122 1,139.74122 Z M24,139.74122 C23.4477153,139.74122 23,139.294332 23,138.743068 C23,138.191805 23.4477153,137.744917 24,137.744917 C24.5522847,137.744917 25,138.191805 25,138.743068 C25,139.294332 24.5522847,139.74122 24,139.74122 Z M47,139.74122 C46.4477153,139.74122 46,139.294332 46,138.743068 C46,138.191805 46.4477153,137.744917 47,137.744917 C47.5522847,137.744917 48,138.191805 48,138.743068 C48,139.294332 47.5522847,139.74122 47,139.74122 Z M70,139.74122 C69.4477153,139.74122 69,139.294332 69,138.743068 C69,138.191805 69.4477153,137.744917 70,137.744917 C70.5522847,137.744917 71,138.191805 71,138.743068 C71,139.294332 70.5522847,139.74122 70,139.74122 Z M93,139.74122 C92.4477153,139.74122 92,139.294332 92,138.743068 C92,138.191805 92.4477153,137.744917 93,137.744917 C93.5522847,137.744917 94,138.191805 94,138.743068 C94,139.294332 93.5522847,139.74122 93,139.74122 Z M116,139.74122 C115.447715,139.74122 115,139.294332 115,138.743068 C115,138.191805 115.447715,137.744917 116,137.744917 C116.552285,137.744917 117,138.191805 117,138.743068 C117,139.294332 116.552285,139.74122 116,139.74122 Z M139,139.74122 C138.447715,139.74122 138,139.294332 138,138.743068 C138,138.191805 138.447715,137.744917 139,137.744917 C139.552285,137.744917 140,138.191805 140,138.743068 C140,139.294332 139.552285,139.74122 139,139.74122 Z M162,139.74122 C161.447715,139.74122 161,139.294332 161,138.743068 C161,138.191805 161.447715,137.744917 162,137.744917 C162.552285,137.744917 163,138.191805 163,138.743068 C163,139.294332 162.552285,139.74122 162,139.74122 Z M185,139.74122 C184.447715,139.74122 184,139.294332 184,138.743068 C184,138.191805 184.447715,137.744917 185,137.744917 C185.552285,137.744917 186,138.191805 186,138.743068 C186,139.294332 185.552285,139.74122 185,139.74122 Z M1,162.698706 C0.44771525,162.698706 0,162.251818 0,161.700555 C0,161.149291 0.44771525,160.702403 1,160.702403 C1.55228475,160.702403 2,161.149291 2,161.700555 C2,162.251818 1.55228475,162.698706 1,162.698706 Z M24,162.698706 C23.4477153,162.698706 23,162.251818 23,161.700555 C23,161.149291 23.4477153,160.702403 24,160.702403 C24.5522847,160.702403 25,161.149291 25,161.700555 C25,162.251818 24.5522847,162.698706 24,162.698706 Z M47,162.698706 C46.4477153,162.698706 46,162.251818 46,161.700555 C46,161.149291 46.4477153,160.702403 47,160.702403 C47.5522847,160.702403 48,161.149291 48,161.700555 C48,162.251818 47.5522847,162.698706 47,162.698706 Z M70,162.698706 C69.4477153,162.698706 69,162.251818 69,161.700555 C69,161.149291 69.4477153,160.702403 70,160.702403 C70.5522847,160.702403 71,161.149291 71,161.700555 C71,162.251818 70.5522847,162.698706 70,162.698706 Z M93,162.698706 C92.4477153,162.698706 92,162.251818 92,161.700555 C92,161.149291 92.4477153,160.702403 93,160.702403 C93.5522847,160.702403 94,161.149291 94,161.700555 C94,162.251818 93.5522847,162.698706 93,162.698706 Z M116,162.698706 C115.447715,162.698706 115,162.251818 115,161.700555 C115,161.149291 115.447715,160.702403 116,160.702403 C116.552285,160.702403 117,161.149291 117,161.700555 C117,162.251818 116.552285,162.698706 116,162.698706 Z M139,162.698706 C138.447715,162.698706 138,162.251818 138,161.700555 C138,161.149291 138.447715,160.702403 139,160.702403 C139.552285,160.702403 140,161.149291 140,161.700555 C140,162.251818 139.552285,162.698706 139,162.698706 Z M162,162.698706 C161.447715,162.698706 161,162.251818 161,161.700555 C161,161.149291 161.447715,160.702403 162,160.702403 C162.552285,160.702403 163,161.149291 163,161.700555 C163,162.251818 162.552285,162.698706 162,162.698706 Z M185,162.698706 C184.447715,162.698706 184,162.251818 184,161.700555 C184,161.149291 184.447715,160.702403 185,160.702403 C185.552285,160.702403 186,161.149291 186,161.700555 C186,162.251818 185.552285,162.698706 185,162.698706 Z M1,185.656192 C0.44771525,185.656192 0,185.209305 0,184.658041 C0,184.106777 0.44771525,183.659889 1,183.659889 C1.55228475,183.659889 2,184.106777 2,184.658041 C2,185.209305 1.55228475,185.656192 1,185.656192 Z M24,185.656192 C23.4477153,185.656192 23,185.209305 23,184.658041 C23,184.106777 23.4477153,183.659889 24,183.659889 C24.5522847,183.659889 25,184.106777 25,184.658041 C25,185.209305 24.5522847,185.656192 24,185.656192 Z M47,185.656192 C46.4477153,185.656192 46,185.209305 46,184.658041 C46,184.106777 46.4477153,183.659889 47,183.659889 C47.5522847,183.659889 48,184.106777 48,184.658041 C48,185.209305 47.5522847,185.656192 47,185.656192 Z M70,185.656192 C69.4477153,185.656192 69,185.209305 69,184.658041 C69,184.106777 69.4477153,183.659889 70,183.659889 C70.5522847,183.659889 71,184.106777 71,184.658041 C71,185.209305 70.5522847,185.656192 70,185.656192 Z M93,185.656192 C92.4477153,185.656192 92,185.209305 92,184.658041 C92,184.106777 92.4477153,183.659889 93,183.659889 C93.5522847,183.659889 94,184.106777 94,184.658041 C94,185.209305 93.5522847,185.656192 93,185.656192 Z M116,185.656192 C115.447715,185.656192 115,185.209305 115,184.658041 C115,184.106777 115.447715,183.659889 116,183.659889 C116.552285,183.659889 117,184.106777 117,184.658041 C117,185.209305 116.552285,185.656192 116,185.656192 Z M139,185.656192 C138.447715,185.656192 138,185.209305 138,184.658041 C138,184.106777 138.447715,183.659889 139,183.659889 C139.552285,183.659889 140,184.106777 140,184.658041 C140,185.209305 139.552285,185.656192 139,185.656192 Z M162,185.656192 C161.447715,185.656192 161,185.209305 161,184.658041 C161,184.106777 161.447715,183.659889 162,183.659889 C162.552285,183.659889 163,184.106777 163,184.658041 C163,185.209305 162.552285,185.656192 162,185.656192 Z M185,185.656192 C184.447715,185.656192 184,185.209305 184,184.658041 C184,184.106777 184.447715,183.659889 185,183.659889 C185.552285,183.659889 186,184.106777 186,184.658041 C186,185.209305 185.552285,185.656192 185,185.656192 Z M1,208.613678 C0.44771525,208.613678 0,208.166791 0,207.615527 C0,207.064263 0.44771525,206.617375 1,206.617375 C1.55228475,206.617375 2,207.064263 2,207.615527 C2,208.166791 1.55228475,208.613678 1,208.613678 Z M24,208.613678 C23.4477153,208.613678 23,208.166791 23,207.615527 C23,207.064263 23.4477153,206.617375 24,206.617375 C24.5522847,206.617375 25,207.064263 25,207.615527 C25,208.166791 24.5522847,208.613678 24,208.613678 Z M47,208.613678 C46.4477153,208.613678 46,208.166791 46,207.615527 C46,207.064263 46.4477153,206.617375 47,206.617375 C47.5522847,206.617375 48,207.064263 48,207.615527 C48,208.166791 47.5522847,208.613678 47,208.613678 Z M70,208.613678 C69.4477153,208.613678 69,208.166791 69,207.615527 C69,207.064263 69.4477153,206.617375 70,206.617375 C70.5522847,206.617375 71,207.064263 71,207.615527 C71,208.166791 70.5522847,208.613678 70,208.613678 Z M93,208.613678 C92.4477153,208.613678 92,208.166791 92,207.615527 C92,207.064263 92.4477153,206.617375 93,206.617375 C93.5522847,206.617375 94,207.064263 94,207.615527 C94,208.166791 93.5522847,208.613678 93,208.613678 Z M116,208.613678 C115.447715,208.613678 115,208.166791 115,207.615527 C115,207.064263 115.447715,206.617375 116,206.617375 C116.552285,206.617375 117,207.064263 117,207.615527 C117,208.166791 116.552285,208.613678 116,208.613678 Z M139,208.613678 C138.447715,208.613678 138,208.166791 138,207.615527 C138,207.064263 138.447715,206.617375 139,206.617375 C139.552285,206.617375 140,207.064263 140,207.615527 C140,208.166791 139.552285,208.613678 139,208.613678 Z M162,208.613678 C161.447715,208.613678 161,208.166791 161,207.615527 C161,207.064263 161.447715,206.617375 162,206.617375 C162.552285,206.617375 163,207.064263 163,207.615527 C163,208.166791 162.552285,208.613678 162,208.613678 Z M185,208.613678 C184.447715,208.613678 184,208.166791 184,207.615527 C184,207.064263 184.447715,206.617375 185,206.617375 C185.552285,206.617375 186,207.064263 186,207.615527 C186,208.166791 185.552285,208.613678 185,208.613678 Z M1,231.571165 C0.44771525,231.571165 0,231.124277 0,230.573013 C0,230.021749 0.44771525,229.574861 1,229.574861 C1.55228475,229.574861 2,230.021749 2,230.573013 C2,231.124277 1.55228475,231.571165 1,231.571165 Z M24,231.571165 C23.4477153,231.571165 23,231.124277 23,230.573013 C23,230.021749 23.4477153,229.574861 24,229.574861 C24.5522847,229.574861 25,230.021749 25,230.573013 C25,231.124277 24.5522847,231.571165 24,231.571165 Z M47,231.571165 C46.4477153,231.571165 46,231.124277 46,230.573013 C46,230.021749 46.4477153,229.574861 47,229.574861 C47.5522847,229.574861 48,230.021749 48,230.573013 C48,231.124277 47.5522847,231.571165 47,231.571165 Z M70,231.571165 C69.4477153,231.571165 69,231.124277 69,230.573013 C69,230.021749 69.4477153,229.574861 70,229.574861 C70.5522847,229.574861 71,230.021749 71,230.573013 C71,231.124277 70.5522847,231.571165 70,231.571165 Z M93,231.571165 C92.4477153,231.571165 92,231.124277 92,230.573013 C92,230.021749 92.4477153,229.574861 93,229.574861 C93.5522847,229.574861 94,230.021749 94,230.573013 C94,231.124277 93.5522847,231.571165 93,231.571165 Z M116,231.571165 C115.447715,231.571165 115,231.124277 115,230.573013 C115,230.021749 115.447715,229.574861 116,229.574861 C116.552285,229.574861 117,230.021749 117,230.573013 C117,231.124277 116.552285,231.571165 116,231.571165 Z M139,231.571165 C138.447715,231.571165 138,231.124277 138,230.573013 C138,230.021749 138.447715,229.574861 139,229.574861 C139.552285,229.574861 140,230.021749 140,230.573013 C140,231.124277 139.552285,231.571165 139,231.571165 Z M162,231.571165 C161.447715,231.571165 161,231.124277 161,230.573013 C161,230.021749 161.447715,229.574861 162,229.574861 C162.552285,229.574861 163,230.021749 163,230.573013 C163,231.124277 162.552285,231.571165 162,231.571165 Z M185,231.571165 C184.447715,231.571165 184,231.124277 184,230.573013 C184,230.021749 184.447715,229.574861 185,229.574861 C185.552285,229.574861 186,230.021749 186,230.573013 C186,231.124277 185.552285,231.571165 185,231.571165 Z M1,254.528651 C0.44771525,254.528651 0,254.081763 0,253.530499 C0,252.979235 0.44771525,252.532348 1,252.532348 C1.55228475,252.532348 2,252.979235 2,253.530499 C2,254.081763 1.55228475,254.528651 1,254.528651 Z M24,254.528651 C23.4477153,254.528651 23,254.081763 23,253.530499 C23,252.979235 23.4477153,252.532348 24,252.532348 C24.5522847,252.532348 25,252.979235 25,253.530499 C25,254.081763 24.5522847,254.528651 24,254.528651 Z M47,254.528651 C46.4477153,254.528651 46,254.081763 46,253.530499 C46,252.979235 46.4477153,252.532348 47,252.532348 C47.5522847,252.532348 48,252.979235 48,253.530499 C48,254.081763 47.5522847,254.528651 47,254.528651 Z M70,254.528651 C69.4477153,254.528651 69,254.081763 69,253.530499 C69,252.979235 69.4477153,252.532348 70,252.532348 C70.5522847,252.532348 71,252.979235 71,253.530499 C71,254.081763 70.5522847,254.528651 70,254.528651 Z M93,254.528651 C92.4477153,254.528651 92,254.081763 92,253.530499 C92,252.979235 92.4477153,252.532348 93,252.532348 C93.5522847,252.532348 94,252.979235 94,253.530499 C94,254.081763 93.5522847,254.528651 93,254.528651 Z M116,254.528651 C115.447715,254.528651 115,254.081763 115,253.530499 C115,252.979235 115.447715,252.532348 116,252.532348 C116.552285,252.532348 117,252.979235 117,253.530499 C117,254.081763 116.552285,254.528651 116,254.528651 Z M139,254.528651 C138.447715,254.528651 138,254.081763 138,253.530499 C138,252.979235 138.447715,252.532348 139,252.532348 C139.552285,252.532348 140,252.979235 140,253.530499 C140,254.081763 139.552285,254.528651 139,254.528651 Z M162,254.528651 C161.447715,254.528651 161,254.081763 161,253.530499 C161,252.979235 161.447715,252.532348 162,252.532348 C162.552285,252.532348 163,252.979235 163,253.530499 C163,254.081763 162.552285,254.528651 162,254.528651 Z M185,254.528651 C184.447715,254.528651 184,254.081763 184,253.530499 C184,252.979235 184.447715,252.532348 185,252.532348 C185.552285,252.532348 186,252.979235 186,253.530499 C186,254.081763 185.552285,254.528651 185,254.528651 Z"></path>
                                </g>
                            </g>
                        </g>
                    </g>
                </g>
            </g>
        </g>
    </g>
</svg>