<?xml version="1.0" encoding="UTF-8"?>
<svg width="6px" height="11px" viewBox="0 0 6 11" version="1.1" xmlns="http://www.w3.org/2000/svg" xmlns:xlink="http://www.w3.org/1999/xlink">
    <!-- Generator: Sketch 46.2 (44496) - http://www.bohemiancoding.com/sketch -->
    <title>Social/facebook</title>
    <desc>Created with Sketch.</desc>
    <defs></defs>
    <g id="Page-1" stroke="none" stroke-width="1" fill="none" fill-rule="evenodd">
        <g id="Salons-Kost" transform="translate(-834.000000, -1971.000000)" fill="#FFFFFF">
            <g id="block-3" transform="translate(0.000000, 1683.000000)">
                <g id="gallery" transform="translate(314.000000, 254.000000)">
                    <g id="2" transform="translate(519.886224, 0.000000)">
                        <g id="social" transform="translate(0.000000, 33.562271)">
                            <g id="Social/facebook" transform="translate(0.113776, 0.437729)">
                                <path d="M0.578125,5.21875 L0.578125,3.6015625 L1.6484375,3.6015625 L1.6484375,2.9921875 C1.6484375,2.05468281 1.87760188,1.35677312 2.3359375,0.8984375 C2.78385641,0.450518594 3.41926672,0.2265625 4.2421875,0.2265625 C4.78385687,0.2265625 5.304685,0.299478437 5.8046875,0.4453125 L5.8046875,2.078125 C5.38801875,1.94270766 5.01041836,1.875 4.671875,1.875 C3.92707961,1.875 3.5546875,2.29947492 3.5546875,3.1484375 L3.5546875,3.6171875 L5.7890625,3.6171875 L5.7890625,5.21875 L3.5859375,5.21875 L3.5859375,11 L1.6484375,11 L1.6484375,5.21875 L0.578125,5.21875 Z" id="f"></path>
                            </g>
                        </g>
                    </g>
                </g>
            </g>
        </g>
    </g>
</svg>