<svg width="11px" height="11px" viewBox="0 0 11 11" version="1.1" xmlns="http://www.w3.org/2000/svg" xmlns:xlink="http://www.w3.org/1999/xlink">
    <g id="Contact-Academy-Kiev" stroke="none" stroke-width="1" fill="none" fill-rule="evenodd">
        <g id="Contact-Academy-Kiev-1920x1080" transform="translate(-1863.000000, -1020.000000)" fill-rule="nonzero" fill="#FFFFFF">
            <g id="static" transform="translate(45.000000, 45.000000)">
                <g id="social" transform="translate(1784.000000, 971.000000)">
                    <g id="Social/instagram" transform="translate(34.065045, 4.687092)">
                        <path d="M1.284,0 L8.7166,0 C9.42273333,0 10,0.577466667 10,1.2836 L10,8.7162 C10,9.42213333 9.42273333,9.9992 8.7166,9.9992 L1.284,9.9992 C0.577866667,9.9992 0,9.4221 0,8.7162 L0,1.2836 C0,0.577466667 0.577866667,0 1.284,0 Z M7.28486667,1.11056667 C7.03693333,1.11056667 6.8347,1.3136 6.8347,1.5614 L6.8347,2.63853333 C6.8347,2.88643333 7.03693333,3.089 7.28486667,3.089 L8.41496667,3.089 C8.6625,3.089 8.86516667,2.88643333 8.86516667,2.63853333 L8.86516667,1.5614 C8.86516667,1.3136 8.6625,1.11056667 8.41496667,1.11056667 L7.28486667,1.11056667 Z M8.86946667,4.22853333 L7.9896,4.22853333 C8.07303333,4.50103333 8.11826667,4.7884 8.11826667,5.08716667 C8.11826667,6.7499 6.72606667,8.0985 5.0094,8.0985 C3.29316667,8.0985 1.90093333,6.7499 1.90093333,5.08716667 C1.90093333,4.7884 1.9466,4.50103333 2.02963333,4.22853333 L1.11166667,4.22853333 L1.11166667,8.45293333 C1.11166667,8.6717 1.2903,8.84966667 1.50886667,8.84966667 L8.47243333,8.84966667 C8.6912,8.84966667 8.86946667,8.6717 8.86946667,8.45293333 L8.86946667,4.22853333 Z M5.00943333,3.0322 C3.90076667,3.0322 3.00143333,3.90313333 3.00143333,4.97846667 C3.00143333,6.0527 3.90076667,6.9243 5.00943333,6.9243 C6.1187,6.9243 7.01806667,6.0527 7.01806667,4.97846667 C7.01806667,3.9031 6.1187,3.0322 5.00943333,3.0322 Z"></path>
                    </g>
                </g>
            </g>
        </g>
    </g>
</svg>
