<?xml version="1.0" encoding="utf-8"?>
<!-- Generator: Adobe Illustrator 20.1.0, SVG Export Plug-In . SVG Version: 6.00 Build 0)  -->
<svg version="1.1" id="Слой_1" xmlns="http://www.w3.org/2000/svg" xmlns:xlink="http://www.w3.org/1999/xlink" x="0px" y="0px"
	 viewBox="0 0 492 492" style="enable-background:new 0 0 492 492;" xml:space="preserve">
<style type="text/css">
	.st0{fill:none;stroke:#202020;stroke-miterlimit:50;}
	.st1{fill:url(#SVGID_1_);}
</style>
<path class="st0" d="M138.7,355.3c-22.9-22.9-37.9-52.7-42.6-84.7h299.8c-4.7,32.1-19.7,61.8-42.6,84.7
	C294,414.6,197.9,414.6,138.7,355.3L138.7,355.3z M353.3,140.5c23.2,23.2,38.2,53.2,42.7,85.7H95.9c4.6-32.4,19.6-62.5,42.7-85.7
	C197.9,81.2,294,81.2,353.3,140.5z M386.3,107.5c-77.5-77.6-203.2-77.6-280.7,0s-77.5,203.3,0,280.9c71.7,71.8,184.7,77,262.6,15.9
	l42.3,42.3l33.9-34l-42.2-42.3C463.2,292.3,458,179.3,386.3,107.5L386.3,107.5z"/>
<linearGradient id="SVGID_1_" gradientUnits="userSpaceOnUse" x1="1136.0621" y1="-114.732" x2="827.582" y2="142.2079" gradientTransform="matrix(1 0 0 1 -717.5 257.5)">
	<stop  offset="0" style="stop-color:#FFFFFF;stop-opacity:0.15"/>
	<stop  offset="1" style="stop-color:#2C2C2C;stop-opacity:0.38"/>
</linearGradient>
<path class="st1" d="M138.7,355.3c-22.9-22.9-37.9-52.7-42.6-84.7h299.8c-4.7,32.1-19.7,61.8-42.6,84.7
	C294,414.6,197.9,414.6,138.7,355.3L138.7,355.3z M138.7,140.5c59.2-59.3,155.4-59.3,214.6,0c23.2,23.2,38.2,53.2,42.7,85.7H95.9
	C100.5,193.8,115.5,163.7,138.7,140.5L138.7,140.5z M386.3,107.5c-77.5-77.6-203.2-77.6-280.7,0s-77.5,203.3,0,280.9
	c71.7,71.8,184.7,77,262.6,15.9l42.3,42.3l33.9-34l-42.2-42.3C463.2,292.3,458.1,179.3,386.3,107.5L386.3,107.5z"/>
<path class="st0" d="M246,0.5c135.6,0,245.5,109.9,245.5,245.5S381.6,491.5,246,491.5S0.5,381.6,0.5,246S110.4,0.5,246,0.5z"/>
<path class="st0" d="M245.5,141.5c58,0,105,47,105,105s-47,105-105,105s-105-47-105-105S187.5,141.5,245.5,141.5z"/>
</svg>
