<svg id="SvgjsSvg1000" xmlns="http://www.w3.org/2000/svg" version="1.1" xmlns:xlink="http://www.w3.org/1999/xlink" xmlns:svgjs="http://svgjs.com/svgjs" width="11" height="12" viewBox="0 0 11 12"><title>path22</title><desc>Created with Avocode.</desc><defs id="SvgjsDefs1001"></defs><path id="SvgjsPath1007" d="M2.3 2.3025C1.69 2.9025000000000003 1.3299999999999998 3.6725000000000003 1.2199999999999998 4.452500000000001L8.78 4.452500000000001C8.67 3.6725000000000003 8.309999999999999 2.9025000000000007 7.699999999999999 2.3025000000000007C6.209999999999999 0.8025000000000007 3.789999999999999 0.8025000000000007 2.299999999999999 2.3025000000000007ZM2.3 7.7025C3.79 9.2025 6.21 9.2025 7.7 7.7025C8.3 7.1025 8.66 6.352499999999999 8.780000000000001 5.5725L1.2200000000000015 5.5725C1.3400000000000016 6.3525 1.7000000000000015 7.1025 2.3000000000000016 7.7025ZM8.54 1.4625C10.34 3.2725 10.469999999999999 6.1225000000000005 8.94 8.0825L10 9.1425L9.14 10.0025L8.08 8.942499999999999C6.12 10.472499999999998 3.2700000000000005 10.3425 1.46 8.542499999999999C-0.49 6.582499999999999 -0.49 3.4224999999999985 1.46 1.4624999999999986C3.42 -0.4875000000000014 6.58 -0.4875000000000014 8.54 1.4624999999999986Z " fill="#ffffff" fill-opacity="1" transform="matrix(1,0,0,1,1,1)"></path></svg>