<svg id="SvgjsSvg1008" xmlns="http://www.w3.org/2000/svg" version="1.1" xmlns:xlink="http://www.w3.org/1999/xlink" xmlns:svgjs="http://svgjs.com/svgjs" width="6" height="18" viewBox="0 0 6 18"><title>arrow</title><desc>Created with Avocode.</desc><defs id="SvgjsDefs1009"></defs><path id="SvgjsPath1010" d="M159.23998 458.15002L157.95998 458.15002C157.87998 458.15002 157.81998000000002 458.18001999999996 157.78998 458.25002C157.75998 458.31002 157.76998 458.37002 157.81998000000002 458.43002L159.84998000000002 460.40002000000004C159.88998 460.43002 159.93998000000002 460.45002000000005 159.98998 460.45002000000005C160.03998 460.45002000000005 160.08998 460.43002000000007 160.12998 460.40002000000004L162.12998 458.43002C162.17998 458.37002 162.18998 458.31002 162.15998 458.25002C162.12998 458.18002 162.07997999999998 458.15002 161.98998 458.15002L160.70998 458.15002L160.70998 443.46002C160.70998 443.46002 159.23998 443.48001999999997 159.23998 443.46002C159.21998 443.43002 159.23998 458.15002 159.23998 458.15002Z " fill="#ffffff" fill-opacity="1" transform="matrix(1,0,0,1,-157,-443)"></path></svg>