<?xml version="1.0" encoding="utf-8"?>
<!-- Generator: Adobe Illustrator 20.1.0, SVG Export Plug-In . SVG Version: 6.00 Build 0)  -->
<svg version="1.1" id="Слой_1" xmlns="http://www.w3.org/2000/svg" xmlns:xlink="http://www.w3.org/1999/xlink" x="0px" y="0px"
	 viewBox="0 0 397 398" style="enable-background:new 0 0 397 398;" xml:space="preserve">
<style type="text/css">
	.st0{opacity:0.62;}
	.st1{fill:url(#a_1_);}
</style>
<g transform="translate(-769 -336)" class="st0">
	<g>
		
			<linearGradient id="a_1_" gradientUnits="userSpaceOnUse" x1="1890.0728" y1="73.4694" x2="1581.5826" y2="330.4093" gradientTransform="matrix(1 0 0 -1 -769 736)">
			<stop  offset="0" style="stop-color:#FFFFFF;stop-opacity:0.15"/>
			<stop  offset="1" style="stop-color:#2C2C2C;stop-opacity:0.38"/>
		</linearGradient>
		<path id="a" class="st1" d="M860.2,642c59.2,59.3,155.4,59.3,214.6,0c22.9-22.9,37.9-52.7,42.6-84.7H817.6
			C822.3,589.3,837.2,619,860.2,642L860.2,642z M860.2,427.2c-23.2,23.2-38.2,53.2-42.7,85.7h300.1c-4.6-32.4-19.6-62.5-42.7-85.7
			C1015.5,367.9,919.4,367.9,860.2,427.2L860.2,427.2z M1107.8,394.2c71.7,71.8,76.9,184.8,15.9,262.7l42.2,42.3l-33.9,34
			l-42.3-42.3c-77.9,61.1-190.8,55.9-262.6-15.9c-77.5-77.5-77.5-203.3,0-280.9S1030.3,316.6,1107.8,394.2L1107.8,394.2z"/>
	</g>
</g>
</svg>
