<svg xmlns="http://www.w3.org/2000/svg" width="558.52" height="558" viewBox="0 0 558.52 558"><defs><clipPath id="a"><path fill="#fff" d="M719 6247h.7l-.01 7.33h-.68z"/></clipPath><clipPath id="b"><path fill="#fff" d="M758.01 6250l.69.1-1.03 7.26-.67-.1z"/></clipPath><clipPath id="c"><path fill="#fff" d="M796.02 6258l.66.19-2.03 7.05-.65-.19z"/></clipPath><clipPath id="d"><path fill="#fff" d="M832.98 6271l.63.29-2.99 6.69-.62-.28z"/></clipPath><clipPath id="e"><path fill="#fff" d="M866.88 6289l.58.37-3.89 6.21-.57-.36z"/></clipPath><clipPath id="f"><path fill="#fff" d="M898.71 6312l.52.45-4.71 5.61-.52-.44z"/></clipPath><clipPath id="g"><path fill="#fff" d="M926.45 6339l.46.51-5.46 4.91-.45-.51z"/></clipPath><clipPath id="h"><path fill="#fff" d="M950.07 6370l.39.58-6.09 4.09-.37-.56z"/></clipPath><clipPath id="i"><path fill="#fff" d="M969.58 6403l.31.63-6.59 3.2-.3-.6z"/></clipPath><clipPath id="j"><path fill="#fff" d="M983.96 6439l.22.67-6.97 2.25-.21-.65z"/></clipPath><clipPath id="k"><path fill="#fff" d="M994.21 6477l.13.68-7.22 1.27-.12-.67z"/></clipPath><clipPath id="l"><path fill="#fff" d="M990.74 6516.26v-1.52h8.52v1.52zm.26-1l.02.69 7.33-.25-.03-.7z"/></clipPath><clipPath id="m"><path fill="#fff" d="M988.73 6556.27v-2.54h8.54v2.54zm.34-2.27l-.07.67 7.29.77.08-.68z"/></clipPath><clipPath id="n"><path fill="#fff" d="M982.7 6594.3v-3.6h8.6v3.6zm.46-3.3l-.16.66 7.11 1.78.17-.67z"/></clipPath><clipPath id="o"><path fill="#fff" d="M970.67 6631.33v-4.66h8.66v4.66zm.59-4.33l-.26.62 6.8 2.76.26-.65z"/></clipPath><clipPath id="p"><path fill="#fff" d="M953.66 6666.34v-5.68h7.68v5.68zm.68-5.34l-.34.59 6.34 3.67.35-.6z"/></clipPath><clipPath id="q"><path fill="#fff" d="M932.65 6698.35v-6.7h7.7v6.7zm.77-6.35l-.42.54 5.77 4.52.43-.55z"/></clipPath><clipPath id="r"><path fill="#fff" d="M907.65 6726.35v-6.7h6.7v6.7zm.84-6.35l-.49.48 5.09 5.27.5-.48z"/></clipPath><clipPath id="s"><path fill="#fff" d="M878.65 6752.35v-7.7h5.7v7.7zm.89-7.35l-.54.4 4.3 5.94.56-.41z"/></clipPath><clipPath id="t"><path fill="#fff" d="M846.66 6772.34v-7.68h5.68v7.68zm.93-7.34l-.59.32 3.43 6.48.62-.33z"/></clipPath><clipPath id="u"><path fill="#fff" d="M811.68 6788.33v-8.66h4.64v8.66zm.96-8.33l-.64.23 2.5 6.9.65-.25z"/></clipPath><clipPath id="v"><path fill="#fff" d="M775.7 6799.3v-8.6h3.6v8.6zm.97-8.3l-.67.14 1.52 7.17.68-.14z"/></clipPath><clipPath id="w"><path fill="#fff" d="M737.73 6804.26v-8.52h2.54v8.52zm.94-8.26l-.67.04.5 7.32.69-.05z"/></clipPath><clipPath id="x"><path fill="#fff" d="M699.73 6804.26v-8.52h2.54v8.52zm1.46-8.22l-.67-.04-.52 7.31.7.05z"/></clipPath><clipPath id="y"><path fill="#fff" d="M660.7 6799.3v-8.6h3.6v8.6zm2.5-8.16l-.67-.14-1.53 7.17.68.14z"/></clipPath><clipPath id="z"><path fill="#fff" d="M623.68 6788.33v-8.66h4.64v8.66zm3.47-8.1l-.64-.23-2.51 6.88.65.25z"/></clipPath><clipPath id="A"><path fill="#fff" d="M587.66 6772.34v-7.68h5.68v7.68zm4.39-7.02l-.6-.32-3.45 6.47.62.33z"/></clipPath><clipPath id="B"><path fill="#fff" d="M555.65 6752.35v-7.7h5.7v7.7zm5.21-6.95l-.54-.4-4.32 5.93.56.41z"/></clipPath><clipPath id="C"><path fill="#fff" d="M525.64 6726.35v-6.7h6.72v6.7zm5.95-5.87l-.5-.48-5.09 5.27.5.48z"/></clipPath><clipPath id="D"><path fill="#fff" d="M499.65 6698.35v-6.7h7.7v6.7zm6.55-5.81l-.42-.54-5.78 4.51.43.55z"/></clipPath><clipPath id="E"><path fill="#fff" d="M477.66 6666.34v-5.68h7.68v5.68zm7.03-4.75l-.33-.59-6.36 3.66.35.6z"/></clipPath><clipPath id="F"><path fill="#fff" d="M460.67 6631.33v-4.66h8.66v4.66zm7.39-3.71l-.26-.62-6.8 2.73.26.65z"/></clipPath><clipPath id="G"><path fill="#fff" d="M448.7 6594.3v-3.6h8.6v3.6zm7.58-2.64l-.16-.66-7.12 1.77.17.67z"/></clipPath><clipPath id="H"><path fill="#fff" d="M441.73 6556.27v-2.54h8.54v2.54zm7.64-1.6l-.08-.67-7.29.76.07.68z"/></clipPath><clipPath id="I"><path fill="#fff" d="M440.74 6516.26v-1.52h8.52v1.52zm7.58-.31l.03-.69-7.33-.26-.02.7z"/></clipPath><clipPath id="J"><path fill="#fff" d="M444.71 6479.29v-2.58h8.58v2.58zm7.51-.34l.12-.67-7.22-1.28-.12.68z"/></clipPath><clipPath id="K"><path fill="#fff" d="M454.69 6442.32v-3.64h8.62v3.64zm7.29-.4l.2-.65-6.96-2.27-.22.67z"/></clipPath><clipPath id="L"><path fill="#fff" d="M468.66 6407.33v-4.66h7.68v4.66zm6.93-.5l.3-.6-6.58-3.23-.31.63z"/></clipPath><clipPath id="M"><path fill="#fff" d="M487.65 6375.35v-5.7h7.7v5.7zm6.43-.68l.38-.56-6.07-4.11-.39.58z"/></clipPath><clipPath id="N"><path fill="#fff" d="M511.65 6345.35v-6.7h6.7v6.7zm5.8-.93l.46-.51-5.45-4.91-.46.51z"/></clipPath><clipPath id="O"><path fill="#fff" d="M539.65 6319.35v-7.7h6.7v7.7zm5.06-1.29l.52-.44-4.7-5.62-.53.45z"/></clipPath><clipPath id="P"><path fill="#fff" d="M539.65 6319.35v-7.7h6.7v7.7zm5.06-1.29l.52-.44-4.7-5.62-.53.45z"/></clipPath><clipPath id="Q"><path fill="#fff" d="M571.66 6296.34v-7.68h5.68v7.68zm4.23-.76l.57-.36-3.87-6.22-.59.37z"/></clipPath><clipPath id="R"><path fill="#fff" d="M605.67 6278.34v-7.68h4.66v7.68zm3.31-.36l.63-.28-2.98-6.7-.63.29z"/></clipPath><clipPath id="S"><path fill="#fff" d="M641.7 6266.32v-8.64h3.6v8.64zm2.33-1.08l.65-.19-2.01-7.05-.67.19z"/></clipPath><clipPath id="T"><path fill="#fff" d="M679.72 6258.28v-8.56h2.56v8.56zm1.31-.92l.67-.1-1.01-7.26-.69.1z"/></clipPath></defs><path fill="none" d="M278.82 0a278.57 278.57 0 0 1 241.24 417.84A278.55 278.55 0 1 1 278.82 0v7.33a271.23 271.23 0 1 0 .01 542.46 271.23 271.23 0 0 0-.01-542.46z"/><path fill="#404040" d="M278.26 0h.7l-.01 7.33h-.68z"/><path fill="none" stroke="#404040" stroke-miterlimit="50" stroke-width=".5" d="M719 6247h.7l-.01 7.33h-.68z" clip-path="url(&quot;#a&quot;)" transform="translate(-440.74 -6247)"/><path fill="#404040" d="M317.27 3l.69.1-1.03 7.26-.67-.1z"/><path fill="none" stroke="#404040" stroke-miterlimit="50" stroke-width=".5" d="M758.01 6250l.69.1-1.03 7.26-.67-.1z" clip-path="url(&quot;#b&quot;)" transform="translate(-440.74 -6247)"/><path fill="#404040" d="M355.28 11l.66.19-2.03 7.05-.65-.19z"/><path fill="none" stroke="#404040" stroke-miterlimit="50" stroke-width=".5" d="M796.02 6258l.66.19-2.03 7.05-.65-.19z" clip-path="url(&quot;#c&quot;)" transform="translate(-440.74 -6247)"/><path fill="#404040" d="M392.24 24l.63.29-2.99 6.69-.62-.28z"/><path fill="none" stroke="#404040" stroke-miterlimit="50" stroke-width=".5" d="M832.98 6271l.63.29-2.99 6.69-.62-.28z" clip-path="url(&quot;#d&quot;)" transform="translate(-440.74 -6247)"/><path fill="#404040" d="M426.14 42l.58.37-3.89 6.21-.57-.36z"/><path fill="none" stroke="#404040" stroke-miterlimit="50" stroke-width=".5" d="M866.88 6289l.58.37-3.89 6.21-.57-.36z" clip-path="url(&quot;#e&quot;)" transform="translate(-440.74 -6247)"/><path fill="#404040" d="M457.97 65l.52.45-4.71 5.61-.52-.44z"/><path fill="none" stroke="#404040" stroke-miterlimit="50" stroke-width=".5" d="M898.71 6312l.52.45-4.71 5.61-.52-.44z" clip-path="url(&quot;#f&quot;)" transform="translate(-440.74 -6247)"/><path fill="#404040" d="M485.71 92l.46.51-5.46 4.91-.45-.51z"/><path fill="none" stroke="#404040" stroke-miterlimit="50" stroke-width=".5" d="M926.45 6339l.46.51-5.46 4.91-.45-.51z" clip-path="url(&quot;#g&quot;)" transform="translate(-440.74 -6247)"/><path fill="#404040" d="M509.33 123l.39.58-6.09 4.09-.37-.56z"/><path fill="none" stroke="#404040" stroke-miterlimit="50" stroke-width=".5" d="M950.07 6370l.39.58-6.09 4.09-.37-.56z" clip-path="url(&quot;#h&quot;)" transform="translate(-440.74 -6247)"/><path fill="#404040" d="M528.84 156l.31.63-6.59 3.2-.3-.6z"/><path fill="none" stroke="#404040" stroke-miterlimit="50" stroke-width=".5" d="M969.58 6403l.31.63-6.59 3.2-.3-.6z" clip-path="url(&quot;#i&quot;)" transform="translate(-440.74 -6247)"/><path fill="#404040" d="M543.22 192l.22.67-6.97 2.25-.21-.65z"/><path fill="none" stroke="#404040" stroke-miterlimit="50" stroke-width=".5" d="M983.96 6439l.22.67-6.97 2.25-.21-.65z" clip-path="url(&quot;#j&quot;)" transform="translate(-440.74 -6247)"/><path fill="#404040" d="M553.47 230l.13.68-7.22 1.27-.12-.67z"/><path fill="none" stroke="#404040" stroke-miterlimit="50" stroke-width=".5" d="M994.21 6477l.13.68-7.22 1.27-.12-.67z" clip-path="url(&quot;#k&quot;)" transform="translate(-440.74 -6247)"/><path fill="#404040" d="M557.58 268l.03.7-7.33.25-.02-.69z"/><path fill="none" stroke="#404040" stroke-miterlimit="50" stroke-width=".5" d="M998.32 6515l.03.7-7.33.25-.02-.69z" clip-path="url(&quot;#l&quot;)" transform="translate(-440.74 -6247)"/><path fill="#404040" d="M555.63 307.76l-.08.68-7.29-.77.07-.67z"/><path fill="none" stroke="#404040" stroke-miterlimit="50" stroke-width=".5" d="M996.37 6554.76l-.08.68-7.29-.77.07-.67z" clip-path="url(&quot;#m&quot;)" transform="translate(-440.74 -6247)"/><path fill="#404040" d="M549.54 345.77l-.17.67-7.11-1.78.16-.66z"/><path fill="none" stroke="#404040" stroke-miterlimit="50" stroke-width=".5" d="M990.28 6592.77l-.17.67-7.11-1.78.16-.66z" clip-path="url(&quot;#n&quot;)" transform="translate(-440.74 -6247)"/><path fill="#404040" d="M537.32 382.73l-.26.65-6.8-2.76.26-.62z"/><path fill="none" stroke="#404040" stroke-miterlimit="50" stroke-width=".5" d="M978.06 6629.73l-.26.65-6.8-2.76.26-.62z" clip-path="url(&quot;#o&quot;)" transform="translate(-440.74 -6247)"/><path fill="#404040" d="M519.95 417.66l-.35.6-6.34-3.67.34-.59z"/><path fill="none" stroke="#404040" stroke-miterlimit="50" stroke-width=".5" d="M960.69 6664.66l-.35.6-6.34-3.67.34-.59z" clip-path="url(&quot;#p&quot;)" transform="translate(-440.74 -6247)"/><path fill="#404040" d="M498.46 449.51l-.43.55-5.77-4.52.42-.54z"/><path fill="none" stroke="#404040" stroke-miterlimit="50" stroke-width=".5" d="M939.2 6696.51l-.43.55-5.77-4.52.42-.54z" clip-path="url(&quot;#q&quot;)" transform="translate(-440.74 -6247)"/><path fill="#404040" d="M472.85 478.27l-.5.48-5.09-5.27.49-.48z"/><path fill="none" stroke="#404040" stroke-miterlimit="50" stroke-width=".5" d="M913.59 6725.27l-.5.48-5.09-5.27.49-.48z" clip-path="url(&quot;#r&quot;)" transform="translate(-440.74 -6247)"/><path fill="#404040" d="M443.12 503.93l-.56.41-4.3-5.94.54-.4z"/><path fill="none" stroke="#404040" stroke-miterlimit="50" stroke-width=".5" d="M883.86 6750.93l-.56.41-4.3-5.94.54-.4z" clip-path="url(&quot;#s&quot;)" transform="translate(-440.74 -6247)"/><path fill="#404040" d="M410.31 524.47l-.62.33-3.43-6.48.59-.32z"/><path fill="none" stroke="#404040" stroke-miterlimit="50" stroke-width=".5" d="M851.05 6771.47l-.62.33-3.43-6.48.59-.32z" clip-path="url(&quot;#t&quot;)" transform="translate(-440.74 -6247)"/><path fill="#404040" d="M374.41 539.88l-.65.25-2.5-6.9.64-.23z"/><path fill="none" stroke="#404040" stroke-miterlimit="50" stroke-width=".5" d="M815.15 6786.88l-.65.25-2.5-6.9.64-.23z" clip-path="url(&quot;#u&quot;)" transform="translate(-440.74 -6247)"/><path fill="#404040" d="M337.46 551.17l-.68.14-1.52-7.17.67-.14z"/><path fill="none" stroke="#404040" stroke-miterlimit="50" stroke-width=".5" d="M778.2 6798.17l-.68.14-1.52-7.17.67-.14z" clip-path="url(&quot;#v&quot;)" transform="translate(-440.74 -6247)"/><path fill="#404040" d="M298.45 556.31l-.69.05-.5-7.32.67-.04z"/><path fill="none" stroke="#404040" stroke-miterlimit="50" stroke-width=".5" d="M739.19 6803.31l-.69.05-.5-7.32.67-.04z" clip-path="url(&quot;#w&quot;)" transform="translate(-440.74 -6247)"/><path fill="#404040" d="M259.96 556.36l-.7-.05.52-7.31.67.04z"/><path fill="none" stroke="#404040" stroke-miterlimit="50" stroke-width=".5" d="M700.7 6803.36l-.7-.05.52-7.31.67.04z" clip-path="url(&quot;#x&quot;)" transform="translate(-440.74 -6247)"/><path fill="#404040" d="M220.94 551.31l-.68-.14 1.53-7.17.67.14z"/><path fill="none" stroke="#404040" stroke-miterlimit="50" stroke-width=".5" d="M661.68 6798.31l-.68-.14 1.53-7.17.67.14z" clip-path="url(&quot;#y&quot;)" transform="translate(-440.74 -6247)"/><path fill="#404040" d="M183.91 540.13l-.65-.25 2.51-6.88.64.23z"/><path fill="none" stroke="#404040" stroke-miterlimit="50" stroke-width=".5" d="M624.65 6787.13l-.65-.25 2.51-6.88.64.23z" clip-path="url(&quot;#z&quot;)" transform="translate(-440.74 -6247)"/><path fill="#404040" d="M147.88 524.8l-.62-.33 3.45-6.47.6.32z"/><path fill="none" stroke="#404040" stroke-miterlimit="50" stroke-width=".5" d="M588.62 6771.8l-.62-.33 3.45-6.47.6.32z" clip-path="url(&quot;#A&quot;)" transform="translate(-440.74 -6247)"/><path fill="#404040" d="M115.82 504.34l-.56-.41 4.32-5.93.54.4z"/><path fill="none" stroke="#404040" stroke-miterlimit="50" stroke-width=".5" d="M556.56 6751.34l-.56-.41 4.32-5.93.54.4z" clip-path="url(&quot;#B&quot;)" transform="translate(-440.74 -6247)"/><path fill="#404040" d="M85.76 478.75l-.5-.48 5.09-5.27.5.48z"/><path fill="none" stroke="#404040" stroke-miterlimit="50" stroke-width=".5" d="M526.5 6725.75l-.5-.48 5.09-5.27.5.48z" clip-path="url(&quot;#C&quot;)" transform="translate(-440.74 -6247)"/><path fill="#404040" d="M59.69 450.06l-.43-.55 5.78-4.51.42.54z"/><path fill="none" stroke="#404040" stroke-miterlimit="50" stroke-width=".5" d="M500.43 6697.06l-.43-.55 5.78-4.51.42.54z" clip-path="url(&quot;#D&quot;)" transform="translate(-440.74 -6247)"/><path fill="#404040" d="M37.61 418.26l-.35-.6 6.36-3.66.33.59z"/><path fill="none" stroke="#404040" stroke-miterlimit="50" stroke-width=".5" d="M478.35 6665.26l-.35-.6 6.36-3.66.33.59z" clip-path="url(&quot;#E&quot;)" transform="translate(-440.74 -6247)"/><path fill="#404040" d="M20.52 383.38l-.26-.65 6.8-2.73.26.62z"/><path fill="none" stroke="#404040" stroke-miterlimit="50" stroke-width=".5" d="M461.26 6630.38l-.26-.65 6.8-2.73.26.62z" clip-path="url(&quot;#F&quot;)" transform="translate(-440.74 -6247)"/><path fill="#404040" d="M8.43 346.44l-.17-.67 7.12-1.77.16.66z"/><path fill="none" stroke="#404040" stroke-miterlimit="50" stroke-width=".5" d="M449.17 6593.44l-.17-.67 7.12-1.77.16.66z" clip-path="url(&quot;#G&quot;)" transform="translate(-440.74 -6247)"/><path fill="#404040" d="M1.33 308.44l-.07-.68 7.29-.76.08.67z"/><path fill="none" stroke="#404040" stroke-miterlimit="50" stroke-width=".5" d="M442.07 6555.44l-.07-.68 7.29-.76.08.67z" clip-path="url(&quot;#H&quot;)" transform="translate(-440.74 -6247)"/><path fill="#404040" d="M.26 268.7l.02-.7 7.33.26-.03.69z"/><path fill="none" stroke="#404040" stroke-miterlimit="50" stroke-width=".5" d="M441 6515.7l.02-.7 7.33.26-.03.69z" clip-path="url(&quot;#I&quot;)" transform="translate(-440.74 -6247)"/><path fill="#404040" d="M4.26 230.68l.12-.68 7.22 1.28-.12.67z"/><path fill="none" stroke="#404040" stroke-miterlimit="50" stroke-width=".5" d="M445 6477.68l.12-.68 7.22 1.28-.12.67z" clip-path="url(&quot;#J&quot;)" transform="translate(-440.74 -6247)"/><path fill="#404040" d="M14.26 192.67l.22-.67 6.96 2.27-.2.65z"/><path fill="none" stroke="#404040" stroke-miterlimit="50" stroke-width=".5" d="M455 6439.67l.22-.67 6.96 2.27-.2.65z" clip-path="url(&quot;#K&quot;)" transform="translate(-440.74 -6247)"/><path fill="#404040" d="M28.26 156.63l.31-.63 6.58 3.23-.3.6z"/><path fill="none" stroke="#404040" stroke-miterlimit="50" stroke-width=".5" d="M469 6403.63l.31-.63 6.58 3.23-.3.6z" clip-path="url(&quot;#L&quot;)" transform="translate(-440.74 -6247)"/><path fill="#404040" d="M47.26 123.58l.39-.58 6.07 4.11-.38.56z"/><path fill="none" stroke="#404040" stroke-miterlimit="50" stroke-width=".5" d="M488 6370.58l.39-.58 6.07 4.11-.38.56z" clip-path="url(&quot;#M&quot;)" transform="translate(-440.74 -6247)"/><path fill="#404040" d="M71.26 92.51l.46-.51 5.45 4.91-.46.51z"/><path fill="none" stroke="#404040" stroke-miterlimit="50" stroke-width=".5" d="M512 6339.51l.46-.51 5.45 4.91-.46.51z" clip-path="url(&quot;#N&quot;)" transform="translate(-440.74 -6247)"/><path fill="#404040" d="M99.26 65.45l.53-.45 4.7 5.62-.52.44z"/><path fill="none" stroke="#404040" stroke-miterlimit="50" stroke-width=".5" d="M540 6312.45l.53-.45 4.7 5.62-.52.44z" clip-path="url(&quot;#O&quot;)" transform="translate(-440.74 -6247)"/><path fill="#404040" d="M99.26 65.45l.53-.45 4.7 5.62-.52.44z"/><path fill="none" stroke="#404040" stroke-miterlimit="50" stroke-width=".5" d="M540 6312.45l.53-.45 4.7 5.62-.52.44z" clip-path="url(&quot;#P&quot;)" transform="translate(-440.74 -6247)"/><path fill="#404040" d="M131.26 42.37l.59-.37 3.87 6.22-.57.36z"/><path fill="none" stroke="#404040" stroke-miterlimit="50" stroke-width=".5" d="M572 6289.37l.59-.37 3.87 6.22-.57.36z" clip-path="url(&quot;#Q&quot;)" transform="translate(-440.74 -6247)"/><path fill="#404040" d="M165.26 24.29l.63-.29 2.98 6.7-.63.28z"/><path fill="none" stroke="#404040" stroke-miterlimit="50" stroke-width=".5" d="M606 6271.29l.63-.29 2.98 6.7-.63.28z" clip-path="url(&quot;#R&quot;)" transform="translate(-440.74 -6247)"/><path fill="#404040" d="M201.26 11.19l.67-.19 2.01 7.05-.65.19z"/><path fill="none" stroke="#404040" stroke-miterlimit="50" stroke-width=".5" d="M642 6258.19l.67-.19 2.01 7.05-.65.19z" clip-path="url(&quot;#S&quot;)" transform="translate(-440.74 -6247)"/><path fill="#404040" d="M239.26 3.1l.69-.1 1.01 7.26-.67.1z"/><path fill="none" stroke="#404040" stroke-miterlimit="50" stroke-width=".5" d="M680 6250.1l.69-.1 1.01 7.26-.67.1z" clip-path="url(&quot;#T&quot;)" transform="translate(-440.74 -6247)"/></svg>