<?xml version="1.0" encoding="UTF-8"?>
<svg width="351px" height="439px" viewBox="0 0 351 439" version="1.1" xmlns="http://www.w3.org/2000/svg" xmlns:xlink="http://www.w3.org/1999/xlink">
    <g id="Page-1" stroke="none" stroke-width="1" fill="none" fill-rule="evenodd" stroke-linecap="round" stroke-linejoin="round">
        <g id="GBW-Grey" transform="translate(-224.000000, -503.000000)">
            <g id="block-1">
                <g id="Group-13" transform="translate(226.000000, 298.000000)">
                    <g id="head-layers" transform="translate(0.000000, 207.000000)">
                        <path d="M3.81172697,380.652685 C60.8672141,330.068993 76.9315264,286.501451 52.0046637,249.950058 C33.631752,223.009021 -17.8327866,105.066449 62.6253325,39.8205565 C143.083452,-25.4253358 320.571492,13.4685398 320.22775,166.759388 C320.188607,184.214997 311.873366,193.4575 313.537883,203.895 C319.501732,241.291814 375.913796,250.655047 327.965292,267.302563 C319.371866,271.502813 330.962365,281.719915 331.233637,287.284632 C331.531381,293.39238 322.119523,298.773116 320.22775,299.204779 C318.335977,299.636442 325.728182,301.065895 325.762201,306.894189 C325.79622,312.722483 312.507808,319.122732 312.081039,324.18477 C311.65427,329.246808 319.354799,347.279087 308.435333,356.122857 C297.515867,364.966628 248.005757,357.516774 174.970113,317.810201" id="Path-3-Copy-2" stroke="#666666" stroke-width="3"></path>
                        <path d="M215.014973,338.359384 C193.314059,352.435237 175.326253,384.707478 161.051554,435.176107" id="Path-3" stroke="#666666" stroke-width="3"></path>
                        <path d="M217.559747,111.745376 C207.590633,167.011088 205.653525,235.310552 211.748421,316.643768 C211.748421,316.643768 144.654185,314.847041 10.4657141,311.253587 C-12.3999531,169.128828 2.9865864,76.3178181 56.6253325,32.8205565 C102.057357,-4.0216293 183.331821,-11.8795012 243.456505,21.843871 C289.809994,47.8431092 331.990714,90.0790045 328.465946,176.918051 C328.465946,176.918051 284.771274,176.050061 211.14605,180.080219" id="Path-3-Copy" stroke="#FFFFFF" stroke-width="4"></path>
                        <path d="M64.2621013,293.425048 C88.2586935,282.780358 101.604151,255.69257 104.298473,212.161684" id="Path-5" stroke="#666666" stroke-width="2" stroke-dasharray="10,15"></path>
                        <path d="M140.781721,187.993969 C142.706634,197.851564 146.757524,202.231551 152.93439,201.133933 C162.19969,199.487505 164.301924,188.719426 165.097513,164.075496 C165.893102,139.431567 187.572909,134.191175 200.523334,129.508801 C213.473759,124.826427 221.051194,104.41459 221.214179,87.359146 C221.377165,70.3037016 259.380364,60.4969592 291.764713,73.9280526" id="Path-4" stroke="#666666" stroke-width="2" stroke-dasharray="10,15"></path>
                        <path d="M135.665751,180.564122 C128.129029,174.12146 120.313913,172.567998 112.220404,175.903735 C100.080141,180.907341 94.1223778,200.675364 108.34548,215.824709 C122.568583,230.974055 126.328096,236.911901 129.798765,246.697992 C133.269435,256.484083 146.483879,258.230954 150.255732,247.710895" id="Path-6" stroke="#666666" stroke-width="2"></path>
                    </g>
                </g>
            </g>
        </g>
    </g>
</svg>