<?xml version="1.0" encoding="UTF-8"?>
<svg width="447px" height="461px" viewBox="0 0 447 461" version="1.1" xmlns="http://www.w3.org/2000/svg" xmlns:xlink="http://www.w3.org/1999/xlink">
    <g id="Page-1" stroke="none" stroke-width="1" fill="none" fill-rule="evenodd" stroke-linecap="round" stroke-linejoin="round">
        <g id="GBW-Grey" transform="translate(-128.000000, -481.000000)">
            <g id="block-1">
                <g id="Group-13" transform="translate(130.000000, 298.000000)">
                    <g id="head-lines" transform="translate(0.000000, 185.000000)">
                        <path d="M99.811727,402.652685 C156.867214,352.068993 172.931526,308.501451 148.004664,271.950058 C129.631752,245.009021 78.1672134,127.066449 158.625332,61.8205565 C239.083452,-3.42533577 416.571492,35.4685398 416.22775,188.759388 C416.188607,206.214997 407.873366,215.4575 409.537883,225.895 C415.501732,263.291814 471.913796,272.655047 423.965292,289.302563 C415.371866,293.502813 426.962365,303.719915 427.233637,309.284632 C427.531381,315.39238 418.119523,320.773116 416.22775,321.204779 C414.335977,321.636442 421.728182,323.065895 421.762201,328.894189 C421.79622,334.722483 408.507808,341.122732 408.081039,346.18477 C407.65427,351.246808 415.354799,369.279087 404.435333,378.122857 C393.515867,386.966628 344.005757,379.516774 270.970113,339.810201" id="Path-3-Copy-2" stroke="#666666" stroke-width="3"></path>
                        <path d="M311.014973,360.359384 C289.314059,374.435237 271.326253,406.707478 257.051554,457.176107" id="Path-3" stroke="#666666" stroke-width="3"></path>
                        <path d="M160.262101,315.425048 C184.258694,304.780358 197.604151,277.69257 200.298473,234.161684" id="Path-5" stroke="#666666" stroke-width="2" stroke-dasharray="10,15"></path>
                        <path d="M236.37934,208.536576 C239.043736,215.242896 243.464367,218.047246 249.641234,216.949628 C258.906534,215.3032 260.301924,210.719426 261.097513,186.075496 C261.893102,161.431567 283.572909,156.191175 296.523334,151.508801 C309.473759,146.826427 317.051194,126.41459 317.214179,109.359146 C317.377165,92.3037016 355.380364,82.4969592 387.764713,95.9280526" id="Path-4" stroke="#666666" stroke-width="2" stroke-dasharray="10,15"></path>
                        <path d="M231.665751,202.564122 C224.129029,196.12146 216.313913,194.567998 208.220404,197.903735 C196.080141,202.907341 190.122378,222.675364 204.34548,237.824709 C218.568583,252.974055 222.328096,258.911901 225.798765,268.697992 C229.269435,278.484083 242.483879,280.230954 246.255732,269.710895" id="Path-6" stroke="#666666" stroke-width="2"></path>
                        <path d="M230.234889,284.336263 L213.001742,357.902973 L209.086873,329.516553 L191.938202,357.902973 L191.938202,323.697349 L173.457975,352.226653 L176.302863,318.556368 L154.771084,347.430337 L157.42605,313.470901 L140.477709,335.806411 C144.252589,314.05982 143.213934,293.05823 137.361744,272.80164 C120.782867,215.416024 91.7978721,165.817197 50.4067602,124.005156 L70.3383186,115.090599 L39.8206843,98.6044538 L76.2782029,89.2758667 L26.9923684,65.6442503 L76.2782029,61.719727 L18.2209665,35.500725 L76.2782029,35.500725 C19.9661411,16.6322513 -4.88365159,6.85865606 1.72882477,6.17993931 C154.26664,-9.47682277 279.117255,10.7179832 339.241939,44.4413554 C385.595428,70.4405936 401.977508,100.071538 404.824587,120.972443 C397.186746,115.817156 389.739682,110.78652 382.483394,105.880535 L382.483394,124.005156 L367.4287,108.23276 L367.4287,126.923385 L350.74531,110.996197 L347.536526,129.120939 L333.289223,115.090599 L333.289223,129.120939 L242.269649,252.899541 L248.232987,225.672461 L235.604667,239.258721 L242.269649,215.290865 L228.651643,230.806282 L231.319107,212.567503" id="Path-3-Copy" stroke="#FFFFFF" stroke-width="4"></path>
                    </g>
                </g>
            </g>
        </g>
    </g>
</svg>