<?xml version="1.0" encoding="UTF-8"?>
<svg width="362px" height="439px" viewBox="0 0 362 439" version="1.1" xmlns="http://www.w3.org/2000/svg" xmlns:xlink="http://www.w3.org/1999/xlink">
    <g id="Page-1" stroke="none" stroke-width="1" fill="none" fill-rule="evenodd">
        <g id="GBW-Grey" transform="translate(-213.000000, -503.000000)">
            <g id="block-1">
                <g id="Group-13" transform="translate(215.000000, 298.000000)">
                    <g id="head-gradation" transform="translate(0.000000, 207.000000)">
                        <path d="M14.811727,380.652685 C71.8672141,330.068993 87.9315264,286.501451 63.0046637,249.950058 C44.631752,223.009021 -6.83278664,105.066449 73.6253325,39.8205565 C154.083452,-25.4253358 331.571492,13.4685398 331.22775,166.759388 C331.188607,184.214997 322.873366,193.4575 324.537883,203.895 C330.501732,241.291814 386.913796,250.655047 338.965292,267.302563 C330.371866,271.502813 341.962365,281.719915 342.233637,287.284632 C342.531381,293.39238 333.119523,298.773116 331.22775,299.204779 C329.335977,299.636442 336.728182,301.065895 336.762201,306.894189 C336.79622,312.722483 323.507808,319.122732 323.081039,324.18477 C322.65427,329.246808 330.354799,347.279087 319.435333,356.122857 C308.515867,364.966628 259.005757,357.516774 185.970113,317.810201" id="Path-3-Copy-2" stroke="#666666" stroke-width="3" stroke-linecap="round" stroke-linejoin="round"></path>
                        <path d="M226.014973,338.359384 C204.314059,352.435237 186.326253,384.707478 172.051554,435.176107" id="Path-3" stroke="#666666" stroke-width="3" stroke-linecap="round" stroke-linejoin="round"></path>
                        <path d="M212.748421,406.643768 L38.1751539,301.620155 C14.3430242,253.850979 2.26988338,228.360402 1.95573144,225.148423 C-7.20253869,131.511657 25.707458,66.8130131 67.6253325,32.8205565 C113.057357,-4.0216293 194.331821,-11.8795012 254.456505,21.843871 C284.18392,38.5176998 312.195111,61.869523 327.535026,99.3815492 C244.269004,156.375712 201.342117,276.055898 212.748421,406.643768 Z" id="Path-3-Copy" stroke="#FFFFFF" stroke-width="4" stroke-linecap="round" stroke-linejoin="round"></path>
                        <path d="M75.2621013,293.425048 C99.2586935,282.780358 112.604151,255.69257 115.298473,212.161684" id="Path-5" stroke="#666666" stroke-width="2" stroke-linecap="round" stroke-linejoin="round" stroke-dasharray="10,15"></path>
                        <path d="M151.781721,187.993969 C153.706634,197.851564 157.757524,202.231551 163.93439,201.133933 C173.19969,199.487505 175.301924,188.719426 176.097513,164.075496 C176.893102,139.431567 198.572909,134.191175 211.523334,129.508801 C224.473759,124.826427 232.051194,104.41459 232.214179,87.359146 C232.377165,70.3037016 270.380364,60.4969592 302.764713,73.9280526" id="Path-4" stroke="#666666" stroke-width="2" stroke-linecap="round" stroke-linejoin="round" stroke-dasharray="10,15"></path>
                        <path d="M146.665751,180.564122 C139.129029,174.12146 131.313913,172.567998 123.220404,175.903735 C111.080141,180.907341 105.122378,200.675364 119.34548,215.824709 C133.568583,230.974055 137.328096,236.911901 140.798765,246.697992 C144.269435,256.484083 157.483879,258.230954 161.255732,247.710895" id="Path-6" stroke="#666666" stroke-width="2" stroke-linecap="round" stroke-linejoin="round"></path>
                        <path d="M2.03246232,225.805973 L211.356574,352.140355" id="Path-7" stroke="#FFFFFF" stroke-width="4"></path>
                        <polygon id="Path-7-Copy" fill="#FFFFFF" opacity="0.300000012" points="211.356574 406.151556 38.6631465 301.180149 2.03246232 225.805973 211.356574 352.140355"></polygon>
                    </g>
                </g>
            </g>
        </g>
    </g>
</svg>