<svg id="SvgjsSvg1014" xmlns="http://www.w3.org/2000/svg" version="1.1" xmlns:xlink="http://www.w3.org/1999/xlink" xmlns:svgjs="http://svgjs.com/svgjs" width="143" height="17" viewBox="0 0 143 17"><title>Shape 4 copy 7</title><desc>Created with Avocode.</desc><defs id="SvgjsDefs1015"></defs><path id="SvgjsPath1016" d="M974.193 5221.03C971.053 5218 965.966 5218 962.823 5221.03C959.685 5224.0599999999995 959.683 5228.98 962.823 5232.009999999999C965.732 5234.82 970.307 5235.0199999999995 973.459 5232.629999999999L975.174 5234.289999999999L976.549 5232.959999999999L974.834 5231.3099999999995C977.309 5228.259999999999 977.0989999999999 5223.839999999999 974.193 5221.03ZM898.039 5218.76C893.601 5218.76 890 5222.2300000000005 890 5226.52C890 5230.81 893.601 5234.290000000001 898.039 5234.290000000001C902.48 5234.290000000001 906.078 5230.810000000001 906.078 5226.52C906.078 5222.2300000000005 902.48 5218.76 898.039 5218.76ZM1006.14 5218.76C1001.71 5218.76 998.105 5222.2300000000005 998.105 5226.52C998.105 5230.81 1001.71 5234.290000000001 1006.14 5234.290000000001C1010.58 5234.290000000001 1014.18 5230.810000000001 1014.18 5226.52C1014.18 5222.2300000000005 1010.5799999999999 5218.76 1006.14 5218.76ZM987.34 5218.76C982.9010000000001 5218.76 979.303 5222.2300000000005 979.303 5226.52C979.303 5230.81 982.901 5234.290000000001 987.34 5234.290000000001C991.779 5234.290000000001 995.3770000000001 5230.810000000001 995.3770000000001 5226.52C995.3770000000001 5222.2300000000005 991.7790000000001 5218.76 987.34 5218.76ZM1030.55 5225.55C1031.32 5224.83 1031.8799999999999 5223.820000000001 1031.8799999999999 5222.71C1031.8799999999999 5220.53 1029.9699999999998 5218.76 1027.6999999999998 5218.76C1027.59 5218.76 1017.8999999999999 5218.76 1017.8999999999999 5218.76L1017.8999999999999 5234.25L1028.05 5234.25C1030.73 5234.25 1033 5232.16 1033 5229.57C1033 5227.86 1031.97 5226.36 1030.55 5225.549999999999ZM925.309 5220.49L931.8929999999999 5220.49L931.8929999999999 5234.219999999999L933.8369999999999 5234.219999999999L933.8369999999999 5220.49L940.4169999999999 5220.49L940.4169999999999 5218.76L925.309 5218.76ZM923.67 5223.03C923.67 5220.4 921.8449999999999 5218.759999999999 918.771 5218.759999999999L909.8059999999999 5218.759999999999L909.8059999999999 5234.259999999999L911.752 5234.259999999999L911.752 5227.379999999999L917.8119999999999 5227.379999999999L921.9309999999999 5234.259999999999L924.078 5234.259999999999L919.957 5227.349999999999C922.248 5226.959999999999 923.67 5225.16 923.67 5223.03ZM987.34 5232.46C983.946 5232.46 981.192 5229.8 981.192 5226.52C981.192 5223.240000000001 983.946 5220.580000000001 987.34 5220.580000000001C990.736 5220.580000000001 993.488 5223.240000000001 993.488 5226.52C993.488 5229.8 990.7360000000001 5232.46 987.34 5232.46ZM1006.14 5232.46C1002.75 5232.46 999.996 5229.8 999.996 5226.52C999.996 5223.240000000001 1002.75 5220.580000000001 1006.14 5220.580000000001C1009.54 5220.580000000001 1012.29 5223.240000000001 1012.29 5226.52C1012.29 5229.8 1009.54 5232.46 1006.14 5232.46ZM964.163 5230.72C961.761 5228.400000000001 961.761 5224.650000000001 964.163 5222.320000000001C966.564 5220.01 970.457 5220.01 972.856 5222.320000000001C975.258 5224.650000000001 975.258 5228.400000000001 972.856 5230.72C970.457 5233.04 966.564 5233.04 964.163 5230.72ZM1028.05 5232.49C1028.02 5232.49 1019.8399999999999 5232.49 1019.8399999999999 5232.49L1019.8399999999999 5226.65L1028.1299999999999 5226.66C1029.76 5226.69 1031.08 5227.98 1031.08 5229.57C1031.08 5231.179999999999 1029.72 5232.49 1028.05 5232.49ZM898.039 5220.58C901.136 5220.58 903.691 5222.8 904.117 5225.68L891.9639999999999 5225.68C892.39 5222.8 894.943 5220.58 898.039 5220.58ZM898.039 5232.46C894.959 5232.46 892.412 5230.27 891.9689999999999 5227.41L904.111 5227.41C903.667 5230.2699999999995 901.1229999999999 5232.46 898.039 5232.46ZM911.752 5225.61L911.752 5220.49L918.7389999999999 5220.49C920.6249999999999 5220.49 921.6389999999999 5221.5199999999995 921.6389999999999 5223.09C921.6389999999999 5224.68 920.6249999999999 5225.610000000001 918.6509999999998 5225.610000000001ZM1019.84 5220.5C1019.84 5220.5 1027.66 5220.5 1027.7 5220.5C1028.97 5220.5 1030 5221.49 1030 5222.71C1030 5223.9 1029.03 5224.87 1027.8 5224.92L1019.8399999999999 5224.92ZM949.727 5218.76C945.288 5218.76 941.688 5222.2300000000005 941.688 5226.52C941.688 5230.81 945.288 5234.290000000001 949.727 5234.290000000001C954.168 5234.290000000001 957.766 5230.810000000001 957.766 5226.52C957.766 5222.2300000000005 954.168 5218.76 949.727 5218.76ZM949.727 5220.58C952.823 5220.58 955.377 5222.8 955.803 5225.68L943.649 5225.68C944.076 5222.8 946.633 5220.58 949.727 5220.58ZM949.727 5232.46C946.645 5232.46 944.0989999999999 5230.27 943.655 5227.41L955.8 5227.41C955.3549999999999 5230.2699999999995 952.8109999999999 5232.46 949.727 5232.46Z " fill="#ffffff" fill-opacity="1" transform="matrix(1,0,0,1,-890,-5218)"></path></svg>