<svg id="SvgjsSvg1019" xmlns="http://www.w3.org/2000/svg" version="1.1" xmlns:xlink="http://www.w3.org/1999/xlink" xmlns:svgjs="http://svgjs.com/svgjs" width="145" height="15" viewBox="0 0 145 15"><title>Group 3</title><desc>Created with Avocode.</desc><defs id="SvgjsDefs1020"></defs><path id="SvgjsPath1021" d="M21.96 7.06L21.96 2.3499999999999996L29.01 2.3499999999999996C30.92 2.3499999999999996 31.94 3.2899999999999996 31.94 4.7299999999999995C31.94 6.199999999999999 30.92 7.06 28.92 7.06ZM29.05 0.76L20 0.76L20 15L21.96 15L21.96 8.68L28.080000000000002 8.68L32.230000000000004 15L34.400000000000006 15L30.240000000000006 8.65C32.550000000000004 8.290000000000001 33.99000000000001 6.640000000000001 33.99000000000001 4.68C33.99000000000001 2.26 32.150000000000006 0.7599999999999998 29.050000000000008 0.7599999999999998Z " fill="#ffffff" fill-opacity="1" transform="matrix(1,0,0,1,0,0)"></path><path id="SvgjsPath1022" d="M36 2.39L42.64 2.39L42.64 15L44.6 15L44.6 2.3900000000000006L51.24 2.3900000000000006L51.24 0.7900000000000005L36 0.7900000000000005Z " fill="#ffffff" fill-opacity="1" transform="matrix(1,0,0,1,0,0)"></path><path id="SvgjsPath1023" d="M130.96 13.39L130.96 8.02L139.32 8.03C140.97 8.059999999999999 142.31 9.239999999999998 142.31 10.7C142.31 12.18 140.93 13.389999999999999 139.25 13.389999999999999ZM130.96 2.37L138.9 2.37C140.17000000000002 2.37 141.21 3.2800000000000002 141.21 4.4C141.21 5.5 140.23000000000002 6.380000000000001 139 6.43L130.96 6.43ZM141.76 7.01C142.54 6.35 143.10999999999999 5.43 143.10999999999999 4.4C143.10999999999999 2.4000000000000004 141.17999999999998 0.7700000000000005 138.89999999999998 0.7700000000000005L128.99999999999997 0.7700000000000005L128.99999999999997 15L139.24999999999997 15C141.94999999999996 15 144.23999999999998 13.08 144.23999999999998 10.7C144.23999999999998 9.129999999999999 143.2 7.76 141.76999999999998 7.01C141.76999999999998 7.01 141.76999999999998 7.01 141.76 7.01Z " fill="#ffffff" fill-opacity="1" transform="matrix(1,0,0,1,0,0)"></path><path id="SvgjsPath1024" d="M91.91 7.87C91.91 4.85 94.67999999999999 2.41 98.11 2.41C101.54 2.41 104.31 4.85 104.31 7.87C104.31 10.879999999999999 101.54 13.32 98.11 13.32C94.67999999999999 13.32 91.91 10.88 91.91 7.87ZM90 7.87C90 11.81 93.63 15 98.11 15C102.59 15 106.22 11.81 106.22 7.87C106.22 3.93 102.59 0.7400000000000002 98.11 0.7400000000000002C93.63 0.7400000000000002 90 3.93 90 7.87Z " fill="#ffffff" fill-opacity="1" transform="matrix(1,0,0,1,0,0)"></path><path id="SvgjsPath1025" d="M110.91 7.87C110.91 4.85 113.69 2.41 117.11 2.41C120.54 2.41 123.31 4.85 123.31 7.87C123.31 10.879999999999999 120.54 13.32 117.11 13.32C113.69 13.32 110.91 10.88 110.91 7.87ZM109 7.87C109 11.81 112.63 15 117.11 15C121.59 15 125.22 11.81 125.22 7.87C125.22 3.93 121.59 0.7400000000000002 117.11 0.7400000000000002C112.63 0.7400000000000002 109 3.93 109 7.87Z " fill="#ffffff" fill-opacity="1" transform="matrix(1,0,0,1,0,0)"></path><path id="SvgjsPath1026" d="M74.73 4.01C77.15 1.88 81.08 1.88 83.5 4.01C85.92 6.14 85.92 9.6 83.5 11.719999999999999C81.08 13.86 77.15 13.86 74.73 11.719999999999999C72.3 9.599999999999998 72.3 6.139999999999999 74.73 4.009999999999999ZM73.38 2.83C70.21 5.609999999999999 70.21 10.129999999999999 73.38 12.91C76.31 15.49 80.92999999999999 15.68 84.11 13.48L85.84 15L87.22 13.78L85.49 12.26C87.99 9.46 87.78 5.3999999999999995 84.85 2.83C81.67999999999999 0.040000000000000036 76.55 0.040000000000000036 73.38 2.83Z " fill="#ffffff" fill-opacity="1" transform="matrix(1,0,0,1,0,0)"></path><path id="SvgjsPath1027" d="M8.11 2.41C4.989999999999999 2.41 2.4099999999999993 4.45 1.9799999999999995 7.09L14.239999999999998 7.09C13.809999999999999 4.449999999999999 11.239999999999998 2.41 8.11 2.41ZM8.11 13.32C11.219999999999999 13.32 13.79 11.31 14.239999999999998 8.68L1.9899999999999984 8.68C2.4299999999999984 11.309999999999999 4.999999999999998 13.32 8.11 13.32ZM8.11 0.74C12.59 0.74 16.22 3.9299999999999997 16.22 7.87C16.22 11.81 12.59 15 8.11 15C3.629999999999999 15 0 11.81 0 7.87C0 3.93 3.63 0.7400000000000002 8.11 0.7400000000000002Z " fill="#ffffff" fill-opacity="1" transform="matrix(1,0,0,1,0,0)"></path><path id="SvgjsPath1028" d="M60.11 2.41C56.99 2.41 54.41 4.45 53.98 7.09L66.24 7.09C65.80999999999999 4.449999999999999 63.239999999999995 2.41 60.10999999999999 2.41ZM60.11 13.32C63.22 13.32 65.78999999999999 11.31 66.24 8.68L53.989999999999995 8.68C54.42999999999999 11.309999999999999 56.99999999999999 13.32 60.10999999999999 13.32ZM60.11 0.74C64.59 0.74 68.22 3.9299999999999997 68.22 7.87C68.22 11.81 64.59 15 60.11 15C55.629999999999995 15 52 11.81 52 7.87C52 3.93 55.63 0.7400000000000002 60.11 0.7400000000000002Z " fill="#ffffff" fill-opacity="1" transform="matrix(1,0,0,1,0,0)"></path></svg>