<?xml version="1.0" encoding="utf-8"?>
<!-- Generator: Adobe Illustrator 20.1.0, SVG Export Plug-In . SVG Version: 6.00 Build 0)  -->
<svg version="1.1" id="Слой_1" xmlns="http://www.w3.org/2000/svg" xmlns:xlink="http://www.w3.org/1999/xlink" x="0px" y="0px"
	 viewBox="0 0 68 8" style="enable-background:new 0 0 68 8;" xml:space="preserve">
<style type="text/css">
	.st0{fill:#FFFFFF;}
</style>
<desc>Generated with Avocode.</desc>
<g>
	<g transform="translate(-928 -161)">
		<g>
			<path id="a" class="st0" d="M932.6,165.8l1.1-3.3l1.1,3.3H932.6z M933.2,161.8l-2.4,6.3h0.9l0.6-1.7h2.8l0.6,1.7h0.9l-2.4-6.3
				H933.2z"/>
		</g>
	</g>
	<g transform="translate(-928 -161)">
		<g>
			<path id="b" class="st0" d="M946.6,163.2c-0.1-0.5-0.4-1-0.9-1.3c-0.5-0.3-1.1-0.5-1.8-0.5c-1,0-1.8,0.3-2.3,0.9
				c-0.6,0.6-0.9,1.4-0.9,2.4c0,0.9,0.3,1.8,0.8,2.5c0.6,0.6,1.3,0.9,2.3,0.9c1.5,0,2.4-0.6,2.8-1.8h-1c-0.3,0.7-0.9,1-1.7,1
				c-0.7,0-1.2-0.2-1.6-0.7c-0.4-0.5-0.6-1.1-0.6-1.9c0-0.7,0.2-1.4,0.6-1.9c0.4-0.4,0.9-0.7,1.6-0.7c0.9,0,1.5,0.3,1.7,1
				L946.6,163.2"/>
		</g>
	</g>
	<g transform="translate(-928 -161)">
		<g>
			<path id="c" class="st0" d="M952.6,165.8l1.1-3.3l1.1,3.3H952.6z M953.2,161.8l-2.4,6.3h0.9l0.6-1.7h2.8l0.6,1.7h0.9l-2.4-6.3
				H953.2z"/>
		</g>
	</g>
	<g transform="translate(-928 -161)">
		<g>
			<path id="d" class="st0" d="M962.8,162.6c1,0,1.7,0.2,2.1,0.5c0.4,0.4,0.6,0.9,0.6,1.8c0,1.6-0.8,2.4-2.5,2.4h-1.4l0-4.8H962.8z
				 M960.8,168.2h2.3c1.2,0,2-0.3,2.6-1c0.5-0.6,0.7-1.3,0.7-2.3c0-0.9-0.2-1.5-0.6-2.1c-0.3-0.4-0.6-0.6-1-0.8
				c-0.4-0.1-1-0.2-1.7-0.2h-2.2L960.8,168.2z"/>
		</g>
	</g>
	<g transform="translate(-928 -161)">
		<g>
			<path id="e" class="st0" d="M970.8,161.8l0,6.3h3.6v-0.8h-2.7v-2.1h2.6v-0.8h-2.6l0-1.9h2.7v-0.8H970.8z"/>
		</g>
	</g>
	<g transform="translate(-928 -161)">
		<g>
			<path id="f" class="st0" d="M983.8,161.8l-2.1,5.4l-2.1-5.4h-1.2l-0.6,6.3h0.9l0.4-5.4l2.2,5.4h0.9l2.2-5.4l0.4,5.4h0.8l-0.6-6.3
				H983.8z"/>
		</g>
	</g>
	<g transform="translate(-928 -161)">
		<g>
			<path id="g" class="st0" d="M994.1,161.8l-1.7,3.1l-1.7-3.1h-1l2.1,3.6c0.1,0.2,0.2,0.4,0.2,0.5v2.2h0.8V166c0-0.1,0-0.2,0-0.3
				l0.1-0.2l2.1-3.7H994.1z"/>
		</g>
	</g>
</g>
</svg>
