<svg width="250px" height="250px" viewBox="0 0 250 250" version="1.1" xmlns="http://www.w3.org/2000/svg" xmlns:xlink="http://www.w3.org/1999/xlink">
    <g id="Page-1" stroke="none" stroke-width="1" fill="none" fill-rule="evenodd" opacity="0.100000001">
        <g id="ERTE-in-developing-page-1440" transform="translate(-109.000000, -259.000000)" fill-rule="nonzero" fill="#FFFFFF">
            <g id="design">
                <g id="graphic" transform="translate(54.000000, 0.000000)">
                    <g id="logo" transform="translate(4.000000, 208.000000)">
                        <path d="M108.423731,108.405234 C93.3934216,123.43539 84.5307924,142.224791 81.5970506,161.744208 L270.420859,161.744208 C267.487117,142.224791 258.610843,123.43539 243.594178,108.405234 C206.281076,71.0788691 145.730011,71.0788691 108.423731,108.405234 M108.423731,243.581121 C145.730011,280.914308 206.281076,280.914308 243.594178,243.581121 C258.774586,228.400868 267.671329,209.372677 270.509553,189.64176 L81.5083561,189.64176 C84.3329354,209.372677 93.2296779,228.400868 108.423731,243.581121 M264.396454,264.383184 C215.587178,313.205605 136.423909,313.205605 87.6146326,264.383184 C38.7985339,215.567585 38.7917112,136.411948 87.6146326,87.6031711 C132.794256,42.4103649 203.947728,39.1559916 252.988975,77.6217286 L279.624621,51 L301,72.3819829 L274.391644,99.0105341 C312.84413,148.058101 309.5829,219.1972 264.396454,264.383184" id="Logo/Q/title-large" transform="translate(176.000000, 176.000000) scale(1, -1) translate(-176.000000, -176.000000) "></path>
                    </g>
                </g>
            </g>
        </g>
    </g>
</svg>