<svg xmlns="http://www.w3.org/2000/svg" width="163" height="163" viewBox="0 0 163 163"><defs><clipPath id="a"><path fill="#fff" d="M1017.37 482.99a80.76 80.76 0 0 0-114.5 0c-31.61 31.73-31.62 83.17 0 114.89a80.73 80.73 0 0 0 107.11 6.49l17.25 17.3 13.84-13.89-17.23-17.31c24.91-31.88 22.79-78.11-6.47-107.48zm-101.02 13.52a61.74 61.74 0 0 1 87.54 0 61.87 61.87 0 0 1 17.44 35.05H898.92a61.73 61.73 0 0 1 17.43-35.05zm0 87.85a61.84 61.84 0 0 1-17.37-34.66h122.29a61.86 61.86 0 0 1-17.38 34.66 61.74 61.74 0 0 1-87.54 0z"/></clipPath></defs><path fill="none" d="M138.37 23.99a80.76 80.76 0 0 0-114.5 0c-31.61 31.73-31.62 83.17 0 114.89a80.73 80.73 0 0 0 107.11 6.49l17.25 17.3 13.84-13.89-17.23-17.31c24.91-31.88 22.79-78.11-6.47-107.48zM37.35 37.51a61.74 61.74 0 0 1 87.54 0 61.87 61.87 0 0 1 17.44 35.05H19.92a61.73 61.73 0 0 1 17.43-35.05zm0 87.85A61.84 61.84 0 0 1 19.98 90.7h122.29a61.86 61.86 0 0 1-17.38 34.66 61.74 61.74 0 0 1-87.54 0z"/><path fill="none" stroke="#565656" stroke-miterlimit="50" stroke-width="1.35" d="M1017.37 482.99a80.76 80.76 0 0 0-114.5 0c-31.61 31.73-31.62 83.17 0 114.89a80.73 80.73 0 0 0 107.11 6.49l17.25 17.3 13.84-13.89-17.23-17.31c24.91-31.88 22.79-78.11-6.47-107.48zm-101.02 13.52a61.74 61.74 0 0 1 87.54 0 61.87 61.87 0 0 1 17.44 35.05H898.92a61.73 61.73 0 0 1 17.43-35.05zm0 87.85a61.84 61.84 0 0 1-17.37-34.66h122.29a61.86 61.86 0 0 1-17.38 34.66 61.74 61.74 0 0 1-87.54 0z" clip-path="url(&quot;#a&quot;)" transform="translate(-879 -459)"/></svg>