<?xml version="1.0" encoding="utf-8"?>
<svg version="1.1" id="Layer_1" xmlns="http://www.w3.org/2000/svg" xmlns:xlink="http://www.w3.org/1999/xlink" x="0px" y="0px"
	 viewBox="0 0 139.5567017 69.521759" style="enable-background:new 0 0 139.5567017 69.521759;" xml:space="preserve">
<g>
	<g>
		<g>
			<g>
				<path d="M32.8593979,58.1477623c0-2.6601982-1.7812996-4.3163986-4.7812977-4.3163986h-8.7490005v15.666996h1.8994007
					v-6.9540977h5.9140987l4.0195007,6.9540977h2.0957012l-4.0224018-6.9833984
					C31.4716988,62.1194611,32.8593979,60.2990608,32.8593979,58.1477623z M21.2285004,60.7590637v-5.1738014h6.818409
					c1.8407898,0,2.8300896,1.035099,2.8300896,2.6211014c0,1.6112976-0.9892998,2.5527-2.91609,2.5527H21.2285004z"/>
				<polygon points="34.4589996,55.5852623 40.8838005,55.5852623 40.8838005,69.4572601 42.7812996,69.4572601 
					42.7812996,55.5852623 49.2030983,55.5852623 49.2030983,53.8313637 34.4589996,53.8313637 				"/>
				<path d="M137.1660004,60.6897621c-0.0019073,0.0009003-0.0019073,0.0009003-0.0039062,0.0028992
					c0.7519989-0.7255974,1.2988129-1.7421989,1.2988129-2.8690987c0-2.2041016-1.8652039-3.9921989-4.0722046-3.9921989
					c-0.1094055,0-9.5723038,0-9.5723038,0v15.6494026h9.3613052h0.5488892c2.6172028,0,4.8301086-2.1084061,4.8301086-4.7256012
					C139.5567017,63.0266609,138.5487976,61.516861,137.1660004,60.6897621z M126.7129059,55.5930634c0,0,7.6327972,0,7.6757965,0
					c1.2362976,0,2.2382965,0.9940987,2.2382965,2.2304993c0,1.2030983-0.949295,2.1805992-2.1407013,2.232399h-7.7733917
					V55.5930634z M134.726593,67.7102661c-0.0312958,0-8.0136871,0-8.0136871,0v-5.9043045l8.0878906,0.0049019v0.0038986
					c1.5975952,0.0321999,2.8867035,1.3348999,2.8867035,2.940403
					C137.6875,66.3811646,136.3535004,67.7102661,134.726593,67.7102661z"/>
				<path d="M94.9961014,53.8313637c-4.3320007,0-7.8437042,3.5135994-7.8437042,7.8456993
					c0,4.3320007,3.5117035,7.844696,7.8437042,7.844696c4.3319931,0,7.843811-3.5126953,7.843811-7.844696
					C102.8399124,57.3449631,99.3280945,53.8313637,94.9961014,53.8313637z M94.9961014,67.677063c-3.3125,0-6-2.6875-6-6
					c0-3.3144989,2.6875-6,6-6c3.3144989,0,5.9999924,2.6855011,5.9999924,6
					C100.9960938,64.989563,98.3106003,67.677063,94.9961014,67.677063z"/>
				<path d="M113.3476944,53.8313637c-4.3320999,0-7.8456955,3.5135994-7.8456955,7.8456993
					c0,4.3320007,3.5135956,7.844696,7.8456955,7.844696c4.3320007,0,7.8457031-3.5126953,7.8457031-7.844696
					C121.1933975,57.3449631,117.6796951,53.8313637,113.3476944,53.8313637z M113.3476944,67.677063c-3.3125,0-6-2.6875-6-6
					c0-3.3144989,2.6875-6,6-6c3.3143997,0,6,2.6855011,6,6C119.3476944,64.989563,116.6620941,67.677063,113.3476944,67.677063z"/>
				<path d="M82.1660004,56.1291618c-3.0643997-3.0634995-8.0293045-3.0634995-11.0967026,0
					c-3.0625,3.0634995-3.0643921,8.0312996,0,11.0946999c2.8388977,2.8359985,7.3038025,3.0410995,10.3798981,0.6269989
					l1.6739044,1.6708984l1.3418121-1.3407974l-1.673912-1.6718979
					C85.2070007,63.4309616,85.0019989,58.9651642,82.1660004,56.1291618z M72.3769989,65.9172592
					c-2.3438034-2.3407974-2.3438034-6.1386986,0-8.4833984c2.3436966-2.3428001,6.1425018-2.3428001,8.4842987,0
					c2.3438034,2.3446999,2.3438034,6.142601,0,8.4833984C78.5195007,68.2619629,74.7206955,68.2619629,72.3769989,65.9172592z"/>
				<path d="M7.8456998,53.8313637C3.5146999,53.8313637,0,57.3449631,0,61.677063
					c0,4.3320007,3.5146999,7.844696,7.8456998,7.844696c4.3340001,0,7.8456998-3.5126953,7.8456998-7.844696
					C15.6913996,57.3449631,12.1796999,53.8313637,7.8456998,53.8313637z M7.8456998,55.677063
					c3.0224996,0,5.5155997,2.2362976,5.9317002,5.142601H1.9169999C2.332,57.9133606,4.8241997,55.677063,7.8456998,55.677063z
					 M7.8456998,67.677063c-3.0057907,0-5.4921999-2.2167969-5.9237909-5.107399h11.8495903
					C13.3379087,65.4602661,10.8554993,67.677063,7.8456998,67.677063z"/>
				<path d="M58.2890968,53.8313637c-4.3320999,0-7.8456993,3.5135994-7.8456993,7.8456993
					c0,4.3320007,3.5135994,7.844696,7.8456993,7.844696c4.3340034,0,7.8446999-3.5126953,7.8446999-7.844696
					C66.1337967,57.3449631,62.6231003,53.8313637,58.2890968,53.8313637z M58.2890968,55.677063
					c3.0215034,0,5.5136032,2.2362976,5.9296989,5.142601H52.357399
					C52.7743988,57.9133606,55.2694969,55.677063,58.2890968,55.677063z M58.2890968,67.677063
					c-3.0077972,0-5.4921875-2.2167969-5.9257965-5.107399h11.8524971
					C63.7812996,65.4602661,61.2987976,67.677063,58.2890968,67.677063z"/>
			</g>
		</g>
	</g>
</g>
<g style="display:none;">
	<path style="display:inline;" d="M52.9110985,82.5363617l1.4189987,3.7383041h-0.5424995l-0.357399-0.9883041h-1.668499
		l-0.3597908,0.9883041h-0.5406113l1.4209023-3.7383041H52.9110985z M53.2694969,84.8625641l-0.6727982-1.9608994
		l-0.6772995,1.9608994H53.2694969z"/>
	<path style="display:inline;" d="M59.9790001,83.4963608H59.408699c-0.1519012-0.3935013-0.4916992-0.5907974-1.0214996-0.5907974
		c-0.4136009,0-0.7348022,0.1347961-0.9658012,0.402298c-0.2313995,0.2695999-0.3471985,0.6436005-0.3471985,1.1231003
		c0,0.4843979,0.1177101,0.8633041,0.3516006,1.1367035c0.2343979,0.2733994,0.5581093,0.4101944,0.971199,0.4101944
		c0.516098,0,0.8579102-0.2040939,1.0259094-0.6123962h0.6048889c-0.217701,0.7022018-0.767498,1.051796-1.6488876,1.051796
		c-0.571312,0-1.0224113-0.1806946-1.3559113-0.5419998c-0.3339996-0.3622971-0.5-0.8505936-0.5-1.4657974
		c0-0.5996017,0.1703987-1.0741959,0.5097008-1.4237976c0.3418007-0.3487015,0.8036995-0.5234985,1.3862991-0.5234985
		c0.418911,0,0.769001,0.0937958,1.0482979,0.2773972C59.7460976,82.9250641,59.9174995,83.177063,59.9790001,83.4963608z"/>
	<path style="display:inline;" d="M64.2285004,82.5363617l1.4189987,3.7383041h-0.5419998l-0.3583984-0.9883041h-1.6670036
		l-0.3603973,0.9883041h-0.5410004l1.4208984-3.7383041H64.2285004z M64.5869064,84.8625641l-0.6738091-1.9608994
		l-0.6767998,1.9608994H64.5869064z"/>
	<path style="display:inline;" d="M68.0772018,82.5442657h1.3211975c0.4336014,0,0.7725067,0.044899,1.0157013,0.1307983
		c0.2450943,0.0878983,0.4501953,0.2402954,0.6171951,0.455101c0.2518997,0.3202972,0.3778992,0.732399,0.3778992,1.2343979
		c0,0.5381012-0.1444931,0.9813995-0.4325943,1.3320007c-0.3144989,0.3856964-0.8213043,0.5781021-1.5195999,0.5781021h-1.3797989
		V82.5442657z M68.5702972,83.007164v2.8065948h0.8194046c0.9754944,0,1.464798-0.4784927,1.464798-1.4375
		c0-0.4901962-0.1221008-0.8417969-0.3672028-1.0526962c-0.2451019-0.2109985-0.6542969-0.3163986-1.2236023-0.3163986H68.5702972z"
		/>
	<path style="display:inline;" d="M76.0282974,82.5442657v0.4628983h-1.5682983v1.1063995h1.5331955v0.4638977h-1.5331955v1.2168045
		h1.6112976v0.4804001h-2.1035004v-3.7304001H76.0282974z"/>
	<path style="display:inline;" d="M82.8369064,82.5442657l0.3320923,3.7304001h-0.5058975l-0.2305069-3.1953049
		l-1.2733994,3.1953049h-0.544899l-1.2773895-3.1953049l-0.228508,3.1953049h-0.5077972l0.3339996-3.7304001h0.6893997
		l1.261795,3.1875l1.2617035-3.1875H82.8369064z"/>
	<path style="display:inline;" d="M88.6942978,82.5442657l-1.2381973,2.1737976l-0.0547028,0.094696
		c-0.021492,0.0401001-0.0313034,0.1065063-0.0313034,0.2002029v1.2617035h-0.4921875v-1.2754059
		c0-0.0878983-0.0312119-0.1893997-0.0976105-0.3036957l-1.2246017-2.1512985h0.5898056l0.9844055,1.8514938l0.98629-1.8514938
		H88.6942978z"/>
</g>
<path d="M82.7343979,5.3669624c-7.1542969-7.1561999-18.7573013-7.1556997-25.9106979,0
	c-7.155201,7.1553001-7.1562004,18.7563992,0,25.9106998c6.622097,6.6239986,17.0513,7.1009998,24.2388,1.462801l3.9042969,3.902401
	l3.1327972-3.1338005l-3.9003983-3.9028015C89.835907,22.4162617,89.357399,11.9900627,82.7343979,5.3669624z M59.873497,8.4153624
	c5.467804-5.4716997,14.3432999-5.4716997,19.8121033,0c2.2245941,2.2255001,3.5293121,5.0145998,3.9453125,7.9061995h-27.702713
	C56.3423004,13.4299622,57.6469994,10.6408625,59.873497,8.4153624z M59.873497,28.2287617
	c-2.2030983-2.2025986-3.5018997-4.9569988-3.9315872-7.8177986h27.6752853
	c-0.4296951,2.8607998-1.7304993,5.6152-3.9315948,7.8177986C74.2167969,33.6999626,65.341301,33.6999626,59.873497,28.2287617z"/>
<g style="display:none;">
	<path style="display:inline;" d="M61.8906441,81.7917786c0.2753906,0,0.5415039,0.0527344,0.7978516,0.1572266
		c0.2568359,0.1054688,0.4829102,0.2578125,0.6791992,0.4589844c0.434082,0.4433594,0.6508751,1.0097656,0.6508751,1.7011719
		c0,0.6904297-0.2167931,1.2578125-0.6508751,1.7001953c-0.1962891,0.2011719-0.4223633,0.3535156-0.6791992,0.4589844
		c-0.2563477,0.1044922-0.5224609,0.1572266-0.7978516,0.1572266h-1.953125v-4.6337891H61.8906441z M61.869648,85.9284973
		c0.4853516,0,0.8793945-0.1796875,1.1831055-0.5390625c0.2939453-0.3447266,0.440918-0.7714844,0.440918-1.2802734
		s-0.1469727-0.9355469-0.440918-1.28125c-0.3037109-0.359375-0.6977539-0.5390625-1.1831055-0.5390625h-1.4072266v3.6396484
		H61.869648z"/>
	<path style="display:inline;" d="M68.4150543,81.7361145c0.6904297,0,1.2578125,0.2304688,1.7011719,0.6923828
		c0.4335938,0.4482422,0.6503906,1.0087891,0.6503906,1.6806641s-0.2167969,1.2314453-0.6503906,1.6796875
		c-0.4433594,0.4619141-1.0107422,0.6933594-1.7011719,0.6933594c-0.6914062,0-1.2578125-0.2314453-1.7011719-0.6933594
		c-0.4335938-0.4482422-0.6513672-1.0078125-0.6513672-1.6796875s0.2177734-1.2324219,0.6513672-1.6806641
		C67.1572418,81.9665833,67.7236481,81.7361145,68.4150543,81.7361145z M68.4150543,85.9704895
		c0.5507812,0,0.9960938-0.1796875,1.3369141-0.5390625c0.3261719-0.3447266,0.4902344-0.7861328,0.4902344-1.3222656
		c0-0.5371094-0.1640625-0.9775391-0.4902344-1.3232422c-0.3408203-0.359375-0.7861328-0.5390625-1.3369141-0.5390625
		s-0.9970703,0.1796875-1.3369141,0.5390625c-0.3271484,0.3457031-0.4902344,0.7861328-0.4902344,1.3232422
		c0,0.5361328,0.1630859,0.9775391,0.4902344,1.3222656C67.417984,85.790802,67.8642731,85.9704895,68.4150543,85.9704895z"/>
	<path style="display:inline;" d="M77.6064606,81.7917786v4.6337891h-0.5253906v-3.8359375l-1.7148438,2.2050781
		l-1.7431641-2.2050781v3.8359375h-0.5253906v-4.6337891h0.609375l1.6591797,2.1982422l1.6308594-2.1982422H77.6064606z"/>
</g>
<g style="display:none;">
	<path style="display:inline;" d="M56.0337105,82.5027161c-0.0878906,0.0761719-0.1474609,0.1621094-0.1777344,0.2548828
		c-0.03125,0.09375-0.0458984,0.1923828-0.0458984,0.2978516c0,0.1044922,0.0458984,0.2021484,0.1367188,0.2900391
		c0.0908203,0.0888672,0.2109375,0.1640625,0.3603516,0.2246094s0.3193359,0.1142578,0.5107422,0.1611328
		c0.1914062,0.0458984,0.3867188,0.09375,0.5849609,0.1435547c0.1982422,0.0488281,0.3925781,0.1044922,0.5839844,0.1679688
		c0.1914062,0.0625,0.3623047,0.1425781,0.5117188,0.2412109c0.3310547,0.2099609,0.4960938,0.4970703,0.4960938,0.8613281
		c0,0.4335938-0.1621094,0.7646484-0.4863281,0.9931641c-0.3242188,0.2294922-0.7734375,0.34375-1.3476562,0.34375
		c-0.6484375,0-1.1425781-0.1357422-1.4833984-0.40625c-0.3037109-0.2431641-0.4765625-0.5878906-0.5185547-1.0361328h0.5458984
		c0.0195312,0.3173828,0.1728516,0.5595703,0.4628906,0.7275391c0.2519531,0.1455078,0.5849609,0.2177734,1.0009766,0.2177734
		c0.8671875,0,1.3017578-0.2734375,1.3017578-0.8193359c0-0.1865234-0.078125-0.3339844-0.234375-0.4414062
		c-0.15625-0.1064453-0.3525391-0.1953125-0.5878906-0.265625c-0.2363281-0.0703125-0.4902344-0.1357422-0.7636719-0.1962891
		c-0.2724609-0.0605469-0.5273438-0.1386719-0.7626953-0.234375s-0.4316406-0.2216797-0.5878906-0.3779297
		s-0.234375-0.3671875-0.234375-0.6337891c0-0.3779297,0.1445312-0.6855469,0.4335938-0.9238281
		c0.2890625-0.2373047,0.7255859-0.3564453,1.3095703-0.3564453c0.5878906,0,1.0429688,0.1347656,1.3642578,0.4052734
		c0.2939453,0.2382812,0.4501953,0.5439453,0.4697266,0.9169922h-0.5390625
		c-0.046875-0.3818359-0.2939453-0.6367188-0.7421875-0.7626953c-0.1591797-0.046875-0.3564453-0.0703125-0.5917969-0.0703125
		s-0.4335938,0.0273438-0.5947266,0.0810547S56.1225777,82.4255676,56.0337105,82.5027161z"/>
	<path style="display:inline;" d="M65.3442535,86.4255676h-0.5810547l-0.5673828-1.34375h-2.2958946l-0.5673828,1.34375h-0.5800781
		l1.9667969-4.6337891h0.6582031L65.3442535,86.4255676z M63.9926949,84.5984192l-0.9443359-2.2607422l-0.9453125,2.2607422
		H63.9926949z"/>
	<path style="display:inline;" d="M67.9482574,81.7917786v4.1298828h2.5273438v0.5039062h-3.0517578v-4.6337891H67.9482574z"/>
	<path style="display:inline;" d="M74.7031403,81.7361145c0.6904297,0,1.2578125,0.2304688,1.7011719,0.6923828
		c0.4335938,0.4482422,0.6503906,1.0087891,0.6503906,1.6806641s-0.2167969,1.2314453-0.6503906,1.6796875
		c-0.4433594,0.4619141-1.0107422,0.6933594-1.7011719,0.6933594s-1.2578125-0.2314453-1.7011719-0.6933594
		c-0.4335938-0.4482422-0.6503906-1.0078125-0.6503906-1.6796875s0.2167969-1.2324219,0.6503906-1.6806641
		C73.4453278,81.9665833,74.0127106,81.7361145,74.7031403,81.7361145z M74.7031403,85.9704895
		c0.5507812,0,0.9960938-0.1796875,1.3369141-0.5390625c0.3271484-0.3447266,0.4902344-0.7861328,0.4902344-1.3222656
		c0-0.5371094-0.1630859-0.9775391-0.4902344-1.3232422c-0.3408203-0.359375-0.7861328-0.5390625-1.3369141-0.5390625
		s-0.9960938,0.1796875-1.3369141,0.5390625c-0.3271484,0.3457031-0.4902344,0.7861328-0.4902344,1.3232422
		c0,0.5361328,0.1630859,0.9775391,0.4902344,1.3222656C73.7070465,85.790802,74.152359,85.9704895,74.7031403,85.9704895z"/>
	<path style="display:inline;" d="M83.3838043,81.7917786v4.6337891h-0.609375l-2.8632812-3.9130859v3.9130859H79.386734v-4.6337891
		h0.6083984l2.8632812,3.8994141v-3.8994141H83.3838043z"/>
</g>
<g style="display:none;">
	<path style="display:inline;" d="M52.2480659,86.2995911h-0.5800781l-0.5683594-1.3442383h-2.2954102l-0.5668945,1.3442383
		h-0.5810547l1.9667969-4.6337891h0.6582031L52.2480659,86.2995911z M50.8965034,84.4724426l-0.9433594-2.2607422
		l-0.9458008,2.2607422H50.8965034z"/>
	<path style="display:inline;" d="M56.3925972,85.8445129c0.3310547,0,0.6220703-0.0839844,0.8720703-0.2519531
		c0.2490234-0.1679688,0.4345703-0.394043,0.5556641-0.6791992h0.5537109
		c-0.1542969,0.4389648-0.4082031,0.7841797-0.7636719,1.0361328c-0.3779297,0.2709961-0.8232422,0.40625-1.3369141,0.40625
		c-0.6767578,0-1.2246094-0.230957-1.6445312-0.6933594c-0.3964844-0.4428711-0.5947266-1.0029297-0.5947266-1.6796875
		s0.1982422-1.2368164,0.5947266-1.6801758c0.4199219-0.4619141,0.9677734-0.6928711,1.6445312-0.6928711
		c0.5136719,0,0.9589844,0.1352539,1.3369141,0.4057617c0.3554688,0.2519531,0.609375,0.5976562,0.7636719,1.0361328h-0.5537109
		c-0.1210938-0.284668-0.3066406-0.5107422-0.5556641-0.6787109c-0.25-0.168457-0.5410156-0.2524414-0.8720703-0.2524414
		s-0.6064453,0.0483398-0.8261719,0.1435547c-0.21875,0.0957031-0.4033203,0.2275391-0.5527344,0.3955078
		c-0.3037109,0.3408203-0.4550781,0.7817383-0.4550781,1.3232422s0.1513672,0.9824219,0.4550781,1.3227539
		C55.3310738,85.6648254,55.7910347,85.8445129,56.3925972,85.8445129z"/>
	<path style="display:inline;" d="M64.6953278,86.2995911h-0.5810547l-0.567379-1.3442383h-2.2958984l-0.5673828,1.3442383
		h-0.5800781l1.9667969-4.6337891h0.6582031L64.6953278,86.2995911z M63.3437691,84.4724426l-0.9443359-2.2607422
		l-0.9453125,2.2607422H63.3437691z"/>
	<path style="display:inline;" d="M68.7265778,81.665802c0.2753906,0,0.5419922,0.0522461,0.7988205,0.1572266
		c0.255867,0.1049805,0.4824295,0.2578125,0.6787186,0.4584961c0.4335938,0.4433594,0.6513672,1.0102539,0.6513672,1.7011719
		c0,0.6904297-0.2177734,1.2578125-0.6513672,1.7006836c-0.1962891,0.2006836-0.4228516,0.3535156-0.6787186,0.4584961
		c-0.2568283,0.1049805-0.5234299,0.1577148-0.7988205,0.1577148h-1.9521484V81.665802H68.7265778z M68.7060699,85.8025208
		c0.4853516,0,0.8798828-0.1796875,1.1826172-0.5390625c0.2939453-0.3452148,0.4414062-0.7719727,0.4414062-1.2807617
		s-0.1474609-0.9355469-0.4414062-1.28125c-0.3027344-0.359375-0.6972656-0.5390625-1.1826172-0.5390625h-1.4072266v3.6401367
		H68.7060699z"/>
	<path style="display:inline;" d="M73.7177887,82.1697083v1.5537109h2.5761719v0.5112305h-2.5761719v1.5610352h2.8837891v0.5039062
		h-3.4082031V81.665802h3.4082031v0.5039062H73.7177887z"/>
	<path style="display:inline;" d="M83.4482574,81.665802v4.6337891h-0.5253906v-3.8359375l-1.7148438,2.2050781
		l-1.7431641-2.2050781v3.8359375h-0.5244141V81.665802h0.6083984l1.6591797,2.1977539l1.6308594-2.1977539H83.4482574z"/>
	<path style="display:inline;" d="M87.9697418,86.2995911h-0.5244141v-1.8339844l-1.9462891-2.7998047h0.6367188
		l1.5683594,2.2539062l1.5673828-2.2539062h0.6376953l-1.9394531,2.7998047V86.2995911z"/>
</g>
</svg>
