<svg xmlns="http://www.w3.org/2000/svg" width="14" height="15" viewBox="0 0 14 15"><path fill="#fff" d="M1.79 0h10.34c.98 0 1.78.82 1.78 1.82v10.53c0 1-.8 1.82-1.78 1.82H1.79A1.8 1.8 0 0 1 0 12.35V1.82C0 .82.8 0 1.79 0zm8.35 1.57a.64.64 0 0 0-.63.64v1.53c0 .35.28.64.63.64h1.57c.34 0 .62-.29.62-.64V2.21a.63.63 0 0 0-.62-.64zm2.2 4.42h-1.22a4.29 4.29 0 0 1-4.15 5.48 4.3 4.3 0 0 1-4.15-5.48H1.55v5.98c0 .31.25.57.55.57h9.69c.3 0 .55-.26.55-.57zM6.97 4.3a2.77 2.77 0 0 0-2.79 2.75 2.78 2.78 0 0 0 2.79 2.76 2.78 2.78 0 0 0 2.79-2.76A2.77 2.77 0 0 0 6.97 4.3z"/></svg>