<svg width="116px" height="172px" viewBox="0 0 116 172" version="1.1" xmlns="http://www.w3.org/2000/svg" xmlns:xlink="http://www.w3.org/1999/xlink" style="transform: rotate(90deg);">
    <defs>
        <rect id="path-1" x="0" y="0" width="150.333333" height="220"></rect>
    </defs>
    <g id="Page-1" stroke="none" stroke-width="1" fill="none" fill-rule="evenodd" opacity="0.400000006">
        <g id="GBW-general-1920x1080" transform="translate(-1215.000000, -3505.000000)">
            <g id="block-4" transform="translate(0.000000, 3245.000000)">
                <g id="heading" transform="translate(519.000000, 234.000000)">
                    <g id="dash-2" transform="translate(672.000000, 0.000000)">
                        <mask id="mask-2" fill="white">
                            <use xlink:href="#path-1"></use>
                        </mask>
                        <g id="Mask"></g>
                        <g id="Icons/dash" mask="url(#mask-2)" fill="#777777">
                            <g transform="translate(24.444444, 26.888889)" id="dash">
                                <path d="M1.22222222,2.44444444 C0.547207528,2.44444444 0,1.89723692 0,1.22222222 C0,0.547207528 0.547207528,0 1.22222222,0 C1.89723692,0 2.44444444,0.547207528 2.44444444,1.22222222 C2.44444444,1.89723692 1.89723692,2.44444444 1.22222222,2.44444444 Z M29.3333333,2.44444444 C28.6583186,2.44444444 28.1111111,1.89723692 28.1111111,1.22222222 C28.1111111,0.547207528 28.6583186,0 29.3333333,0 C30.008348,0 30.5555556,0.547207528 30.5555556,1.22222222 C30.5555556,1.89723692 30.008348,2.44444444 29.3333333,2.44444444 Z M57.4444444,2.44444444 C56.7694298,2.44444444 56.2222222,1.89723692 56.2222222,1.22222222 C56.2222222,0.547207528 56.7694298,0 57.4444444,0 C58.1194591,0 58.6666667,0.547207528 58.6666667,1.22222222 C58.6666667,1.89723692 58.1194591,2.44444444 57.4444444,2.44444444 Z M85.5555556,2.44444444 C84.8805409,2.44444444 84.3333333,1.89723692 84.3333333,1.22222222 C84.3333333,0.547207528 84.8805409,0 85.5555556,0 C86.2305702,0 86.7777778,0.547207528 86.7777778,1.22222222 C86.7777778,1.89723692 86.2305702,2.44444444 85.5555556,2.44444444 Z M113.666667,2.44444444 C112.991652,2.44444444 112.444444,1.89723692 112.444444,1.22222222 C112.444444,0.547207528 112.991652,0 113.666667,0 C114.341681,0 114.888889,0.547207528 114.888889,1.22222222 C114.888889,1.89723692 114.341681,2.44444444 113.666667,2.44444444 Z M141.777778,2.44444444 C141.102763,2.44444444 140.555556,1.89723692 140.555556,1.22222222 C140.555556,0.547207528 141.102763,0 141.777778,0 C142.452792,0 143,0.547207528 143,1.22222222 C143,1.89723692 142.452792,2.44444444 141.777778,2.44444444 Z M169.888889,2.44444444 C169.213874,2.44444444 168.666667,1.89723692 168.666667,1.22222222 C168.666667,0.547207528 169.213874,0 169.888889,0 C170.563904,0 171.111111,0.547207528 171.111111,1.22222222 C171.111111,1.89723692 170.563904,2.44444444 169.888889,2.44444444 Z M198,2.44444444 C197.324985,2.44444444 196.777778,1.89723692 196.777778,1.22222222 C196.777778,0.547207528 197.324985,0 198,0 C198.675015,0 199.222222,0.547207528 199.222222,1.22222222 C199.222222,1.89723692 198.675015,2.44444444 198,2.44444444 Z M226.111111,2.44444444 C225.436096,2.44444444 224.888889,1.89723692 224.888889,1.22222222 C224.888889,0.547207528 225.436096,0 226.111111,0 C226.786126,0 227.333333,0.547207528 227.333333,1.22222222 C227.333333,1.89723692 226.786126,2.44444444 226.111111,2.44444444 Z M1.22222222,30.5555556 C0.547207528,30.5555556 0,30.008348 0,29.3333333 C0,28.6583186 0.547207528,28.1111111 1.22222222,28.1111111 C1.89723692,28.1111111 2.44444444,28.6583186 2.44444444,29.3333333 C2.44444444,30.008348 1.89723692,30.5555556 1.22222222,30.5555556 Z M29.3333333,30.5555556 C28.6583186,30.5555556 28.1111111,30.008348 28.1111111,29.3333333 C28.1111111,28.6583186 28.6583186,28.1111111 29.3333333,28.1111111 C30.008348,28.1111111 30.5555556,28.6583186 30.5555556,29.3333333 C30.5555556,30.008348 30.008348,30.5555556 29.3333333,30.5555556 Z M57.4444444,30.5555556 C56.7694298,30.5555556 56.2222222,30.008348 56.2222222,29.3333333 C56.2222222,28.6583186 56.7694298,28.1111111 57.4444444,28.1111111 C58.1194591,28.1111111 58.6666667,28.6583186 58.6666667,29.3333333 C58.6666667,30.008348 58.1194591,30.5555556 57.4444444,30.5555556 Z M85.5555556,30.5555556 C84.8805409,30.5555556 84.3333333,30.008348 84.3333333,29.3333333 C84.3333333,28.6583186 84.8805409,28.1111111 85.5555556,28.1111111 C86.2305702,28.1111111 86.7777778,28.6583186 86.7777778,29.3333333 C86.7777778,30.008348 86.2305702,30.5555556 85.5555556,30.5555556 Z M113.666667,30.5555556 C112.991652,30.5555556 112.444444,30.008348 112.444444,29.3333333 C112.444444,28.6583186 112.991652,28.1111111 113.666667,28.1111111 C114.341681,28.1111111 114.888889,28.6583186 114.888889,29.3333333 C114.888889,30.008348 114.341681,30.5555556 113.666667,30.5555556 Z M141.777778,30.5555556 C141.102763,30.5555556 140.555556,30.008348 140.555556,29.3333333 C140.555556,28.6583186 141.102763,28.1111111 141.777778,28.1111111 C142.452792,28.1111111 143,28.6583186 143,29.3333333 C143,30.008348 142.452792,30.5555556 141.777778,30.5555556 Z M169.888889,30.5555556 C169.213874,30.5555556 168.666667,30.008348 168.666667,29.3333333 C168.666667,28.6583186 169.213874,28.1111111 169.888889,28.1111111 C170.563904,28.1111111 171.111111,28.6583186 171.111111,29.3333333 C171.111111,30.008348 170.563904,30.5555556 169.888889,30.5555556 Z M198,30.5555556 C197.324985,30.5555556 196.777778,30.008348 196.777778,29.3333333 C196.777778,28.6583186 197.324985,28.1111111 198,28.1111111 C198.675015,28.1111111 199.222222,28.6583186 199.222222,29.3333333 C199.222222,30.008348 198.675015,30.5555556 198,30.5555556 Z M226.111111,30.5555556 C225.436096,30.5555556 224.888889,30.008348 224.888889,29.3333333 C224.888889,28.6583186 225.436096,28.1111111 226.111111,28.1111111 C226.786126,28.1111111 227.333333,28.6583186 227.333333,29.3333333 C227.333333,30.008348 226.786126,30.5555556 226.111111,30.5555556 Z M1.22222222,58.6666667 C0.547207528,58.6666667 0,58.1194591 0,57.4444444 C0,56.7694298 0.547207528,56.2222222 1.22222222,56.2222222 C1.89723692,56.2222222 2.44444444,56.7694298 2.44444444,57.4444444 C2.44444444,58.1194591 1.89723692,58.6666667 1.22222222,58.6666667 Z M29.3333333,58.6666667 C28.6583186,58.6666667 28.1111111,58.1194591 28.1111111,57.4444444 C28.1111111,56.7694298 28.6583186,56.2222222 29.3333333,56.2222222 C30.008348,56.2222222 30.5555556,56.7694298 30.5555556,57.4444444 C30.5555556,58.1194591 30.008348,58.6666667 29.3333333,58.6666667 Z M57.4444444,58.6666667 C56.7694298,58.6666667 56.2222222,58.1194591 56.2222222,57.4444444 C56.2222222,56.7694298 56.7694298,56.2222222 57.4444444,56.2222222 C58.1194591,56.2222222 58.6666667,56.7694298 58.6666667,57.4444444 C58.6666667,58.1194591 58.1194591,58.6666667 57.4444444,58.6666667 Z M85.5555556,58.6666667 C84.8805409,58.6666667 84.3333333,58.1194591 84.3333333,57.4444444 C84.3333333,56.7694298 84.8805409,56.2222222 85.5555556,56.2222222 C86.2305702,56.2222222 86.7777778,56.7694298 86.7777778,57.4444444 C86.7777778,58.1194591 86.2305702,58.6666667 85.5555556,58.6666667 Z M113.666667,58.6666667 C112.991652,58.6666667 112.444444,58.1194591 112.444444,57.4444444 C112.444444,56.7694298 112.991652,56.2222222 113.666667,56.2222222 C114.341681,56.2222222 114.888889,56.7694298 114.888889,57.4444444 C114.888889,58.1194591 114.341681,58.6666667 113.666667,58.6666667 Z M141.777778,58.6666667 C141.102763,58.6666667 140.555556,58.1194591 140.555556,57.4444444 C140.555556,56.7694298 141.102763,56.2222222 141.777778,56.2222222 C142.452792,56.2222222 143,56.7694298 143,57.4444444 C143,58.1194591 142.452792,58.6666667 141.777778,58.6666667 Z M169.888889,58.6666667 C169.213874,58.6666667 168.666667,58.1194591 168.666667,57.4444444 C168.666667,56.7694298 169.213874,56.2222222 169.888889,56.2222222 C170.563904,56.2222222 171.111111,56.7694298 171.111111,57.4444444 C171.111111,58.1194591 170.563904,58.6666667 169.888889,58.6666667 Z M198,58.6666667 C197.324985,58.6666667 196.777778,58.1194591 196.777778,57.4444444 C196.777778,56.7694298 197.324985,56.2222222 198,56.2222222 C198.675015,56.2222222 199.222222,56.7694298 199.222222,57.4444444 C199.222222,58.1194591 198.675015,58.6666667 198,58.6666667 Z M226.111111,58.6666667 C225.436096,58.6666667 224.888889,58.1194591 224.888889,57.4444444 C224.888889,56.7694298 225.436096,56.2222222 226.111111,56.2222222 C226.786126,56.2222222 227.333333,56.7694298 227.333333,57.4444444 C227.333333,58.1194591 226.786126,58.6666667 226.111111,58.6666667 Z M1.22222222,86.7777778 C0.547207528,86.7777778 0,86.2305702 0,85.5555556 C0,84.8805409 0.547207528,84.3333333 1.22222222,84.3333333 C1.89723692,84.3333333 2.44444444,84.8805409 2.44444444,85.5555556 C2.44444444,86.2305702 1.89723692,86.7777778 1.22222222,86.7777778 Z M29.3333333,86.7777778 C28.6583186,86.7777778 28.1111111,86.2305702 28.1111111,85.5555556 C28.1111111,84.8805409 28.6583186,84.3333333 29.3333333,84.3333333 C30.008348,84.3333333 30.5555556,84.8805409 30.5555556,85.5555556 C30.5555556,86.2305702 30.008348,86.7777778 29.3333333,86.7777778 Z M57.4444444,86.7777778 C56.7694298,86.7777778 56.2222222,86.2305702 56.2222222,85.5555556 C56.2222222,84.8805409 56.7694298,84.3333333 57.4444444,84.3333333 C58.1194591,84.3333333 58.6666667,84.8805409 58.6666667,85.5555556 C58.6666667,86.2305702 58.1194591,86.7777778 57.4444444,86.7777778 Z M85.5555556,86.7777778 C84.8805409,86.7777778 84.3333333,86.2305702 84.3333333,85.5555556 C84.3333333,84.8805409 84.8805409,84.3333333 85.5555556,84.3333333 C86.2305702,84.3333333 86.7777778,84.8805409 86.7777778,85.5555556 C86.7777778,86.2305702 86.2305702,86.7777778 85.5555556,86.7777778 Z M113.666667,86.7777778 C112.991652,86.7777778 112.444444,86.2305702 112.444444,85.5555556 C112.444444,84.8805409 112.991652,84.3333333 113.666667,84.3333333 C114.341681,84.3333333 114.888889,84.8805409 114.888889,85.5555556 C114.888889,86.2305702 114.341681,86.7777778 113.666667,86.7777778 Z M141.777778,86.7777778 C141.102763,86.7777778 140.555556,86.2305702 140.555556,85.5555556 C140.555556,84.8805409 141.102763,84.3333333 141.777778,84.3333333 C142.452792,84.3333333 143,84.8805409 143,85.5555556 C143,86.2305702 142.452792,86.7777778 141.777778,86.7777778 Z M169.888889,86.7777778 C169.213874,86.7777778 168.666667,86.2305702 168.666667,85.5555556 C168.666667,84.8805409 169.213874,84.3333333 169.888889,84.3333333 C170.563904,84.3333333 171.111111,84.8805409 171.111111,85.5555556 C171.111111,86.2305702 170.563904,86.7777778 169.888889,86.7777778 Z M198,86.7777778 C197.324985,86.7777778 196.777778,86.2305702 196.777778,85.5555556 C196.777778,84.8805409 197.324985,84.3333333 198,84.3333333 C198.675015,84.3333333 199.222222,84.8805409 199.222222,85.5555556 C199.222222,86.2305702 198.675015,86.7777778 198,86.7777778 Z M226.111111,86.7777778 C225.436096,86.7777778 224.888889,86.2305702 224.888889,85.5555556 C224.888889,84.8805409 225.436096,84.3333333 226.111111,84.3333333 C226.786126,84.3333333 227.333333,84.8805409 227.333333,85.5555556 C227.333333,86.2305702 226.786126,86.7777778 226.111111,86.7777778 Z M1.22222222,114.888889 C0.547207528,114.888889 0,114.341681 0,113.666667 C0,112.991652 0.547207528,112.444444 1.22222222,112.444444 C1.89723692,112.444444 2.44444444,112.991652 2.44444444,113.666667 C2.44444444,114.341681 1.89723692,114.888889 1.22222222,114.888889 Z M29.3333333,114.888889 C28.6583186,114.888889 28.1111111,114.341681 28.1111111,113.666667 C28.1111111,112.991652 28.6583186,112.444444 29.3333333,112.444444 C30.008348,112.444444 30.5555556,112.991652 30.5555556,113.666667 C30.5555556,114.341681 30.008348,114.888889 29.3333333,114.888889 Z M57.4444444,114.888889 C56.7694298,114.888889 56.2222222,114.341681 56.2222222,113.666667 C56.2222222,112.991652 56.7694298,112.444444 57.4444444,112.444444 C58.1194591,112.444444 58.6666667,112.991652 58.6666667,113.666667 C58.6666667,114.341681 58.1194591,114.888889 57.4444444,114.888889 Z M85.5555556,114.888889 C84.8805409,114.888889 84.3333333,114.341681 84.3333333,113.666667 C84.3333333,112.991652 84.8805409,112.444444 85.5555556,112.444444 C86.2305702,112.444444 86.7777778,112.991652 86.7777778,113.666667 C86.7777778,114.341681 86.2305702,114.888889 85.5555556,114.888889 Z M113.666667,114.888889 C112.991652,114.888889 112.444444,114.341681 112.444444,113.666667 C112.444444,112.991652 112.991652,112.444444 113.666667,112.444444 C114.341681,112.444444 114.888889,112.991652 114.888889,113.666667 C114.888889,114.341681 114.341681,114.888889 113.666667,114.888889 Z M141.777778,114.888889 C141.102763,114.888889 140.555556,114.341681 140.555556,113.666667 C140.555556,112.991652 141.102763,112.444444 141.777778,112.444444 C142.452792,112.444444 143,112.991652 143,113.666667 C143,114.341681 142.452792,114.888889 141.777778,114.888889 Z M169.888889,114.888889 C169.213874,114.888889 168.666667,114.341681 168.666667,113.666667 C168.666667,112.991652 169.213874,112.444444 169.888889,112.444444 C170.563904,112.444444 171.111111,112.991652 171.111111,113.666667 C171.111111,114.341681 170.563904,114.888889 169.888889,114.888889 Z M198,114.888889 C197.324985,114.888889 196.777778,114.341681 196.777778,113.666667 C196.777778,112.991652 197.324985,112.444444 198,112.444444 C198.675015,112.444444 199.222222,112.991652 199.222222,113.666667 C199.222222,114.341681 198.675015,114.888889 198,114.888889 Z M226.111111,114.888889 C225.436096,114.888889 224.888889,114.341681 224.888889,113.666667 C224.888889,112.991652 225.436096,112.444444 226.111111,112.444444 C226.786126,112.444444 227.333333,112.991652 227.333333,113.666667 C227.333333,114.341681 226.786126,114.888889 226.111111,114.888889 Z M1.22222222,143 C0.547207528,143 0,142.452792 0,141.777778 C0,141.102763 0.547207528,140.555556 1.22222222,140.555556 C1.89723692,140.555556 2.44444444,141.102763 2.44444444,141.777778 C2.44444444,142.452792 1.89723692,143 1.22222222,143 Z M29.3333333,143 C28.6583186,143 28.1111111,142.452792 28.1111111,141.777778 C28.1111111,141.102763 28.6583186,140.555556 29.3333333,140.555556 C30.008348,140.555556 30.5555556,141.102763 30.5555556,141.777778 C30.5555556,142.452792 30.008348,143 29.3333333,143 Z M57.4444444,143 C56.7694298,143 56.2222222,142.452792 56.2222222,141.777778 C56.2222222,141.102763 56.7694298,140.555556 57.4444444,140.555556 C58.1194591,140.555556 58.6666667,141.102763 58.6666667,141.777778 C58.6666667,142.452792 58.1194591,143 57.4444444,143 Z M85.5555556,143 C84.8805409,143 84.3333333,142.452792 84.3333333,141.777778 C84.3333333,141.102763 84.8805409,140.555556 85.5555556,140.555556 C86.2305702,140.555556 86.7777778,141.102763 86.7777778,141.777778 C86.7777778,142.452792 86.2305702,143 85.5555556,143 Z M113.666667,143 C112.991652,143 112.444444,142.452792 112.444444,141.777778 C112.444444,141.102763 112.991652,140.555556 113.666667,140.555556 C114.341681,140.555556 114.888889,141.102763 114.888889,141.777778 C114.888889,142.452792 114.341681,143 113.666667,143 Z M141.777778,143 C141.102763,143 140.555556,142.452792 140.555556,141.777778 C140.555556,141.102763 141.102763,140.555556 141.777778,140.555556 C142.452792,140.555556 143,141.102763 143,141.777778 C143,142.452792 142.452792,143 141.777778,143 Z M169.888889,143 C169.213874,143 168.666667,142.452792 168.666667,141.777778 C168.666667,141.102763 169.213874,140.555556 169.888889,140.555556 C170.563904,140.555556 171.111111,141.102763 171.111111,141.777778 C171.111111,142.452792 170.563904,143 169.888889,143 Z M198,143 C197.324985,143 196.777778,142.452792 196.777778,141.777778 C196.777778,141.102763 197.324985,140.555556 198,140.555556 C198.675015,140.555556 199.222222,141.102763 199.222222,141.777778 C199.222222,142.452792 198.675015,143 198,143 Z M226.111111,143 C225.436096,143 224.888889,142.452792 224.888889,141.777778 C224.888889,141.102763 225.436096,140.555556 226.111111,140.555556 C226.786126,140.555556 227.333333,141.102763 227.333333,141.777778 C227.333333,142.452792 226.786126,143 226.111111,143 Z M1.22222222,171.111111 C0.547207528,171.111111 0,170.563904 0,169.888889 C0,169.213874 0.547207528,168.666667 1.22222222,168.666667 C1.89723692,168.666667 2.44444444,169.213874 2.44444444,169.888889 C2.44444444,170.563904 1.89723692,171.111111 1.22222222,171.111111 Z M29.3333333,171.111111 C28.6583186,171.111111 28.1111111,170.563904 28.1111111,169.888889 C28.1111111,169.213874 28.6583186,168.666667 29.3333333,168.666667 C30.008348,168.666667 30.5555556,169.213874 30.5555556,169.888889 C30.5555556,170.563904 30.008348,171.111111 29.3333333,171.111111 Z M57.4444444,171.111111 C56.7694298,171.111111 56.2222222,170.563904 56.2222222,169.888889 C56.2222222,169.213874 56.7694298,168.666667 57.4444444,168.666667 C58.1194591,168.666667 58.6666667,169.213874 58.6666667,169.888889 C58.6666667,170.563904 58.1194591,171.111111 57.4444444,171.111111 Z M85.5555556,171.111111 C84.8805409,171.111111 84.3333333,170.563904 84.3333333,169.888889 C84.3333333,169.213874 84.8805409,168.666667 85.5555556,168.666667 C86.2305702,168.666667 86.7777778,169.213874 86.7777778,169.888889 C86.7777778,170.563904 86.2305702,171.111111 85.5555556,171.111111 Z M113.666667,171.111111 C112.991652,171.111111 112.444444,170.563904 112.444444,169.888889 C112.444444,169.213874 112.991652,168.666667 113.666667,168.666667 C114.341681,168.666667 114.888889,169.213874 114.888889,169.888889 C114.888889,170.563904 114.341681,171.111111 113.666667,171.111111 Z M141.777778,171.111111 C141.102763,171.111111 140.555556,170.563904 140.555556,169.888889 C140.555556,169.213874 141.102763,168.666667 141.777778,168.666667 C142.452792,168.666667 143,169.213874 143,169.888889 C143,170.563904 142.452792,171.111111 141.777778,171.111111 Z M169.888889,171.111111 C169.213874,171.111111 168.666667,170.563904 168.666667,169.888889 C168.666667,169.213874 169.213874,168.666667 169.888889,168.666667 C170.563904,168.666667 171.111111,169.213874 171.111111,169.888889 C171.111111,170.563904 170.563904,171.111111 169.888889,171.111111 Z M198,171.111111 C197.324985,171.111111 196.777778,170.563904 196.777778,169.888889 C196.777778,169.213874 197.324985,168.666667 198,168.666667 C198.675015,168.666667 199.222222,169.213874 199.222222,169.888889 C199.222222,170.563904 198.675015,171.111111 198,171.111111 Z M226.111111,171.111111 C225.436096,171.111111 224.888889,170.563904 224.888889,169.888889 C224.888889,169.213874 225.436096,168.666667 226.111111,168.666667 C226.786126,168.666667 227.333333,169.213874 227.333333,169.888889 C227.333333,170.563904 226.786126,171.111111 226.111111,171.111111 Z M1.22222222,199.222222 C0.547207528,199.222222 0,198.675015 0,198 C0,197.324985 0.547207528,196.777778 1.22222222,196.777778 C1.89723692,196.777778 2.44444444,197.324985 2.44444444,198 C2.44444444,198.675015 1.89723692,199.222222 1.22222222,199.222222 Z M29.3333333,199.222222 C28.6583186,199.222222 28.1111111,198.675015 28.1111111,198 C28.1111111,197.324985 28.6583186,196.777778 29.3333333,196.777778 C30.008348,196.777778 30.5555556,197.324985 30.5555556,198 C30.5555556,198.675015 30.008348,199.222222 29.3333333,199.222222 Z M57.4444444,199.222222 C56.7694298,199.222222 56.2222222,198.675015 56.2222222,198 C56.2222222,197.324985 56.7694298,196.777778 57.4444444,196.777778 C58.1194591,196.777778 58.6666667,197.324985 58.6666667,198 C58.6666667,198.675015 58.1194591,199.222222 57.4444444,199.222222 Z M85.5555556,199.222222 C84.8805409,199.222222 84.3333333,198.675015 84.3333333,198 C84.3333333,197.324985 84.8805409,196.777778 85.5555556,196.777778 C86.2305702,196.777778 86.7777778,197.324985 86.7777778,198 C86.7777778,198.675015 86.2305702,199.222222 85.5555556,199.222222 Z M113.666667,199.222222 C112.991652,199.222222 112.444444,198.675015 112.444444,198 C112.444444,197.324985 112.991652,196.777778 113.666667,196.777778 C114.341681,196.777778 114.888889,197.324985 114.888889,198 C114.888889,198.675015 114.341681,199.222222 113.666667,199.222222 Z M141.777778,199.222222 C141.102763,199.222222 140.555556,198.675015 140.555556,198 C140.555556,197.324985 141.102763,196.777778 141.777778,196.777778 C142.452792,196.777778 143,197.324985 143,198 C143,198.675015 142.452792,199.222222 141.777778,199.222222 Z M169.888889,199.222222 C169.213874,199.222222 168.666667,198.675015 168.666667,198 C168.666667,197.324985 169.213874,196.777778 169.888889,196.777778 C170.563904,196.777778 171.111111,197.324985 171.111111,198 C171.111111,198.675015 170.563904,199.222222 169.888889,199.222222 Z M198,199.222222 C197.324985,199.222222 196.777778,198.675015 196.777778,198 C196.777778,197.324985 197.324985,196.777778 198,196.777778 C198.675015,196.777778 199.222222,197.324985 199.222222,198 C199.222222,198.675015 198.675015,199.222222 198,199.222222 Z M226.111111,199.222222 C225.436096,199.222222 224.888889,198.675015 224.888889,198 C224.888889,197.324985 225.436096,196.777778 226.111111,196.777778 C226.786126,196.777778 227.333333,197.324985 227.333333,198 C227.333333,198.675015 226.786126,199.222222 226.111111,199.222222 Z M1.22222222,227.333333 C0.547207528,227.333333 0,226.786126 0,226.111111 C0,225.436096 0.547207528,224.888889 1.22222222,224.888889 C1.89723692,224.888889 2.44444444,225.436096 2.44444444,226.111111 C2.44444444,226.786126 1.89723692,227.333333 1.22222222,227.333333 Z M29.3333333,227.333333 C28.6583186,227.333333 28.1111111,226.786126 28.1111111,226.111111 C28.1111111,225.436096 28.6583186,224.888889 29.3333333,224.888889 C30.008348,224.888889 30.5555556,225.436096 30.5555556,226.111111 C30.5555556,226.786126 30.008348,227.333333 29.3333333,227.333333 Z M57.4444444,227.333333 C56.7694298,227.333333 56.2222222,226.786126 56.2222222,226.111111 C56.2222222,225.436096 56.7694298,224.888889 57.4444444,224.888889 C58.1194591,224.888889 58.6666667,225.436096 58.6666667,226.111111 C58.6666667,226.786126 58.1194591,227.333333 57.4444444,227.333333 Z M85.5555556,227.333333 C84.8805409,227.333333 84.3333333,226.786126 84.3333333,226.111111 C84.3333333,225.436096 84.8805409,224.888889 85.5555556,224.888889 C86.2305702,224.888889 86.7777778,225.436096 86.7777778,226.111111 C86.7777778,226.786126 86.2305702,227.333333 85.5555556,227.333333 Z M113.666667,227.333333 C112.991652,227.333333 112.444444,226.786126 112.444444,226.111111 C112.444444,225.436096 112.991652,224.888889 113.666667,224.888889 C114.341681,224.888889 114.888889,225.436096 114.888889,226.111111 C114.888889,226.786126 114.341681,227.333333 113.666667,227.333333 Z M141.777778,227.333333 C141.102763,227.333333 140.555556,226.786126 140.555556,226.111111 C140.555556,225.436096 141.102763,224.888889 141.777778,224.888889 C142.452792,224.888889 143,225.436096 143,226.111111 C143,226.786126 142.452792,227.333333 141.777778,227.333333 Z M169.888889,227.333333 C169.213874,227.333333 168.666667,226.786126 168.666667,226.111111 C168.666667,225.436096 169.213874,224.888889 169.888889,224.888889 C170.563904,224.888889 171.111111,225.436096 171.111111,226.111111 C171.111111,226.786126 170.563904,227.333333 169.888889,227.333333 Z M198,227.333333 C197.324985,227.333333 196.777778,226.786126 196.777778,226.111111 C196.777778,225.436096 197.324985,224.888889 198,224.888889 C198.675015,224.888889 199.222222,225.436096 199.222222,226.111111 C199.222222,226.786126 198.675015,227.333333 198,227.333333 Z M226.111111,227.333333 C225.436096,227.333333 224.888889,226.786126 224.888889,226.111111 C224.888889,225.436096 225.436096,224.888889 226.111111,224.888889 C226.786126,224.888889 227.333333,225.436096 227.333333,226.111111 C227.333333,226.786126 226.786126,227.333333 226.111111,227.333333 Z M1.22222222,255.444444 C0.547207528,255.444444 0,254.897237 0,254.222222 C0,253.547208 0.547207528,253 1.22222222,253 C1.89723692,253 2.44444444,253.547208 2.44444444,254.222222 C2.44444444,254.897237 1.89723692,255.444444 1.22222222,255.444444 Z M29.3333333,255.444444 C28.6583186,255.444444 28.1111111,254.897237 28.1111111,254.222222 C28.1111111,253.547208 28.6583186,253 29.3333333,253 C30.008348,253 30.5555556,253.547208 30.5555556,254.222222 C30.5555556,254.897237 30.008348,255.444444 29.3333333,255.444444 Z M57.4444444,255.444444 C56.7694298,255.444444 56.2222222,254.897237 56.2222222,254.222222 C56.2222222,253.547208 56.7694298,253 57.4444444,253 C58.1194591,253 58.6666667,253.547208 58.6666667,254.222222 C58.6666667,254.897237 58.1194591,255.444444 57.4444444,255.444444 Z M85.5555556,255.444444 C84.8805409,255.444444 84.3333333,254.897237 84.3333333,254.222222 C84.3333333,253.547208 84.8805409,253 85.5555556,253 C86.2305702,253 86.7777778,253.547208 86.7777778,254.222222 C86.7777778,254.897237 86.2305702,255.444444 85.5555556,255.444444 Z M113.666667,255.444444 C112.991652,255.444444 112.444444,254.897237 112.444444,254.222222 C112.444444,253.547208 112.991652,253 113.666667,253 C114.341681,253 114.888889,253.547208 114.888889,254.222222 C114.888889,254.897237 114.341681,255.444444 113.666667,255.444444 Z M141.777778,255.444444 C141.102763,255.444444 140.555556,254.897237 140.555556,254.222222 C140.555556,253.547208 141.102763,253 141.777778,253 C142.452792,253 143,253.547208 143,254.222222 C143,254.897237 142.452792,255.444444 141.777778,255.444444 Z M169.888889,255.444444 C169.213874,255.444444 168.666667,254.897237 168.666667,254.222222 C168.666667,253.547208 169.213874,253 169.888889,253 C170.563904,253 171.111111,253.547208 171.111111,254.222222 C171.111111,254.897237 170.563904,255.444444 169.888889,255.444444 Z M198,255.444444 C197.324985,255.444444 196.777778,254.897237 196.777778,254.222222 C196.777778,253.547208 197.324985,253 198,253 C198.675015,253 199.222222,253.547208 199.222222,254.222222 C199.222222,254.897237 198.675015,255.444444 198,255.444444 Z M226.111111,255.444444 C225.436096,255.444444 224.888889,254.897237 224.888889,254.222222 C224.888889,253.547208 225.436096,253 226.111111,253 C226.786126,253 227.333333,253.547208 227.333333,254.222222 C227.333333,254.897237 226.786126,255.444444 226.111111,255.444444 Z M1.22222222,283.555556 C0.547207528,283.555556 0,283.008348 0,282.333333 C0,281.658319 0.547207528,281.111111 1.22222222,281.111111 C1.89723692,281.111111 2.44444444,281.658319 2.44444444,282.333333 C2.44444444,283.008348 1.89723692,283.555556 1.22222222,283.555556 Z M29.3333333,283.555556 C28.6583186,283.555556 28.1111111,283.008348 28.1111111,282.333333 C28.1111111,281.658319 28.6583186,281.111111 29.3333333,281.111111 C30.008348,281.111111 30.5555556,281.658319 30.5555556,282.333333 C30.5555556,283.008348 30.008348,283.555556 29.3333333,283.555556 Z M57.4444444,283.555556 C56.7694298,283.555556 56.2222222,283.008348 56.2222222,282.333333 C56.2222222,281.658319 56.7694298,281.111111 57.4444444,281.111111 C58.1194591,281.111111 58.6666667,281.658319 58.6666667,282.333333 C58.6666667,283.008348 58.1194591,283.555556 57.4444444,283.555556 Z M85.5555556,283.555556 C84.8805409,283.555556 84.3333333,283.008348 84.3333333,282.333333 C84.3333333,281.658319 84.8805409,281.111111 85.5555556,281.111111 C86.2305702,281.111111 86.7777778,281.658319 86.7777778,282.333333 C86.7777778,283.008348 86.2305702,283.555556 85.5555556,283.555556 Z M113.666667,283.555556 C112.991652,283.555556 112.444444,283.008348 112.444444,282.333333 C112.444444,281.658319 112.991652,281.111111 113.666667,281.111111 C114.341681,281.111111 114.888889,281.658319 114.888889,282.333333 C114.888889,283.008348 114.341681,283.555556 113.666667,283.555556 Z M141.777778,283.555556 C141.102763,283.555556 140.555556,283.008348 140.555556,282.333333 C140.555556,281.658319 141.102763,281.111111 141.777778,281.111111 C142.452792,281.111111 143,281.658319 143,282.333333 C143,283.008348 142.452792,283.555556 141.777778,283.555556 Z M169.888889,283.555556 C169.213874,283.555556 168.666667,283.008348 168.666667,282.333333 C168.666667,281.658319 169.213874,281.111111 169.888889,281.111111 C170.563904,281.111111 171.111111,281.658319 171.111111,282.333333 C171.111111,283.008348 170.563904,283.555556 169.888889,283.555556 Z M198,283.555556 C197.324985,283.555556 196.777778,283.008348 196.777778,282.333333 C196.777778,281.658319 197.324985,281.111111 198,281.111111 C198.675015,281.111111 199.222222,281.658319 199.222222,282.333333 C199.222222,283.008348 198.675015,283.555556 198,283.555556 Z M226.111111,283.555556 C225.436096,283.555556 224.888889,283.008348 224.888889,282.333333 C224.888889,281.658319 225.436096,281.111111 226.111111,281.111111 C226.786126,281.111111 227.333333,281.658319 227.333333,282.333333 C227.333333,283.008348 226.786126,283.555556 226.111111,283.555556 Z M1.22222222,311.666667 C0.547207528,311.666667 0,311.119459 0,310.444444 C0,309.76943 0.547207528,309.222222 1.22222222,309.222222 C1.89723692,309.222222 2.44444444,309.76943 2.44444444,310.444444 C2.44444444,311.119459 1.89723692,311.666667 1.22222222,311.666667 Z M29.3333333,311.666667 C28.6583186,311.666667 28.1111111,311.119459 28.1111111,310.444444 C28.1111111,309.76943 28.6583186,309.222222 29.3333333,309.222222 C30.008348,309.222222 30.5555556,309.76943 30.5555556,310.444444 C30.5555556,311.119459 30.008348,311.666667 29.3333333,311.666667 Z M57.4444444,311.666667 C56.7694298,311.666667 56.2222222,311.119459 56.2222222,310.444444 C56.2222222,309.76943 56.7694298,309.222222 57.4444444,309.222222 C58.1194591,309.222222 58.6666667,309.76943 58.6666667,310.444444 C58.6666667,311.119459 58.1194591,311.666667 57.4444444,311.666667 Z M85.5555556,311.666667 C84.8805409,311.666667 84.3333333,311.119459 84.3333333,310.444444 C84.3333333,309.76943 84.8805409,309.222222 85.5555556,309.222222 C86.2305702,309.222222 86.7777778,309.76943 86.7777778,310.444444 C86.7777778,311.119459 86.2305702,311.666667 85.5555556,311.666667 Z M113.666667,311.666667 C112.991652,311.666667 112.444444,311.119459 112.444444,310.444444 C112.444444,309.76943 112.991652,309.222222 113.666667,309.222222 C114.341681,309.222222 114.888889,309.76943 114.888889,310.444444 C114.888889,311.119459 114.341681,311.666667 113.666667,311.666667 Z M141.777778,311.666667 C141.102763,311.666667 140.555556,311.119459 140.555556,310.444444 C140.555556,309.76943 141.102763,309.222222 141.777778,309.222222 C142.452792,309.222222 143,309.76943 143,310.444444 C143,311.119459 142.452792,311.666667 141.777778,311.666667 Z M169.888889,311.666667 C169.213874,311.666667 168.666667,311.119459 168.666667,310.444444 C168.666667,309.76943 169.213874,309.222222 169.888889,309.222222 C170.563904,309.222222 171.111111,309.76943 171.111111,310.444444 C171.111111,311.119459 170.563904,311.666667 169.888889,311.666667 Z M198,311.666667 C197.324985,311.666667 196.777778,311.119459 196.777778,310.444444 C196.777778,309.76943 197.324985,309.222222 198,309.222222 C198.675015,309.222222 199.222222,309.76943 199.222222,310.444444 C199.222222,311.119459 198.675015,311.666667 198,311.666667 Z M226.111111,311.666667 C225.436096,311.666667 224.888889,311.119459 224.888889,310.444444 C224.888889,309.76943 225.436096,309.222222 226.111111,309.222222 C226.786126,309.222222 227.333333,309.76943 227.333333,310.444444 C227.333333,311.119459 226.786126,311.666667 226.111111,311.666667 Z"></path>
                            </g>
                        </g>
                        <g id="Icons/dash-Copy-3" mask="url(#mask-2)" fill="#777777">
                            <g transform="translate(24.444444, 26.888889)" id="dash">
                                <path d="M1.22222222,2.44444444 C0.547207528,2.44444444 0,1.89723692 0,1.22222222 C0,0.547207528 0.547207528,0 1.22222222,0 C1.89723692,0 2.44444444,0.547207528 2.44444444,1.22222222 C2.44444444,1.89723692 1.89723692,2.44444444 1.22222222,2.44444444 Z M29.3333333,2.44444444 C28.6583186,2.44444444 28.1111111,1.89723692 28.1111111,1.22222222 C28.1111111,0.547207528 28.6583186,0 29.3333333,0 C30.008348,0 30.5555556,0.547207528 30.5555556,1.22222222 C30.5555556,1.89723692 30.008348,2.44444444 29.3333333,2.44444444 Z M57.4444444,2.44444444 C56.7694298,2.44444444 56.2222222,1.89723692 56.2222222,1.22222222 C56.2222222,0.547207528 56.7694298,0 57.4444444,0 C58.1194591,0 58.6666667,0.547207528 58.6666667,1.22222222 C58.6666667,1.89723692 58.1194591,2.44444444 57.4444444,2.44444444 Z M85.5555556,2.44444444 C84.8805409,2.44444444 84.3333333,1.89723692 84.3333333,1.22222222 C84.3333333,0.547207528 84.8805409,0 85.5555556,0 C86.2305702,0 86.7777778,0.547207528 86.7777778,1.22222222 C86.7777778,1.89723692 86.2305702,2.44444444 85.5555556,2.44444444 Z M113.666667,2.44444444 C112.991652,2.44444444 112.444444,1.89723692 112.444444,1.22222222 C112.444444,0.547207528 112.991652,0 113.666667,0 C114.341681,0 114.888889,0.547207528 114.888889,1.22222222 C114.888889,1.89723692 114.341681,2.44444444 113.666667,2.44444444 Z M141.777778,2.44444444 C141.102763,2.44444444 140.555556,1.89723692 140.555556,1.22222222 C140.555556,0.547207528 141.102763,0 141.777778,0 C142.452792,0 143,0.547207528 143,1.22222222 C143,1.89723692 142.452792,2.44444444 141.777778,2.44444444 Z M169.888889,2.44444444 C169.213874,2.44444444 168.666667,1.89723692 168.666667,1.22222222 C168.666667,0.547207528 169.213874,0 169.888889,0 C170.563904,0 171.111111,0.547207528 171.111111,1.22222222 C171.111111,1.89723692 170.563904,2.44444444 169.888889,2.44444444 Z M198,2.44444444 C197.324985,2.44444444 196.777778,1.89723692 196.777778,1.22222222 C196.777778,0.547207528 197.324985,0 198,0 C198.675015,0 199.222222,0.547207528 199.222222,1.22222222 C199.222222,1.89723692 198.675015,2.44444444 198,2.44444444 Z M226.111111,2.44444444 C225.436096,2.44444444 224.888889,1.89723692 224.888889,1.22222222 C224.888889,0.547207528 225.436096,0 226.111111,0 C226.786126,0 227.333333,0.547207528 227.333333,1.22222222 C227.333333,1.89723692 226.786126,2.44444444 226.111111,2.44444444 Z M1.22222222,30.5555556 C0.547207528,30.5555556 0,30.008348 0,29.3333333 C0,28.6583186 0.547207528,28.1111111 1.22222222,28.1111111 C1.89723692,28.1111111 2.44444444,28.6583186 2.44444444,29.3333333 C2.44444444,30.008348 1.89723692,30.5555556 1.22222222,30.5555556 Z M29.3333333,30.5555556 C28.6583186,30.5555556 28.1111111,30.008348 28.1111111,29.3333333 C28.1111111,28.6583186 28.6583186,28.1111111 29.3333333,28.1111111 C30.008348,28.1111111 30.5555556,28.6583186 30.5555556,29.3333333 C30.5555556,30.008348 30.008348,30.5555556 29.3333333,30.5555556 Z M57.4444444,30.5555556 C56.7694298,30.5555556 56.2222222,30.008348 56.2222222,29.3333333 C56.2222222,28.6583186 56.7694298,28.1111111 57.4444444,28.1111111 C58.1194591,28.1111111 58.6666667,28.6583186 58.6666667,29.3333333 C58.6666667,30.008348 58.1194591,30.5555556 57.4444444,30.5555556 Z M85.5555556,30.5555556 C84.8805409,30.5555556 84.3333333,30.008348 84.3333333,29.3333333 C84.3333333,28.6583186 84.8805409,28.1111111 85.5555556,28.1111111 C86.2305702,28.1111111 86.7777778,28.6583186 86.7777778,29.3333333 C86.7777778,30.008348 86.2305702,30.5555556 85.5555556,30.5555556 Z M113.666667,30.5555556 C112.991652,30.5555556 112.444444,30.008348 112.444444,29.3333333 C112.444444,28.6583186 112.991652,28.1111111 113.666667,28.1111111 C114.341681,28.1111111 114.888889,28.6583186 114.888889,29.3333333 C114.888889,30.008348 114.341681,30.5555556 113.666667,30.5555556 Z M141.777778,30.5555556 C141.102763,30.5555556 140.555556,30.008348 140.555556,29.3333333 C140.555556,28.6583186 141.102763,28.1111111 141.777778,28.1111111 C142.452792,28.1111111 143,28.6583186 143,29.3333333 C143,30.008348 142.452792,30.5555556 141.777778,30.5555556 Z M169.888889,30.5555556 C169.213874,30.5555556 168.666667,30.008348 168.666667,29.3333333 C168.666667,28.6583186 169.213874,28.1111111 169.888889,28.1111111 C170.563904,28.1111111 171.111111,28.6583186 171.111111,29.3333333 C171.111111,30.008348 170.563904,30.5555556 169.888889,30.5555556 Z M198,30.5555556 C197.324985,30.5555556 196.777778,30.008348 196.777778,29.3333333 C196.777778,28.6583186 197.324985,28.1111111 198,28.1111111 C198.675015,28.1111111 199.222222,28.6583186 199.222222,29.3333333 C199.222222,30.008348 198.675015,30.5555556 198,30.5555556 Z M226.111111,30.5555556 C225.436096,30.5555556 224.888889,30.008348 224.888889,29.3333333 C224.888889,28.6583186 225.436096,28.1111111 226.111111,28.1111111 C226.786126,28.1111111 227.333333,28.6583186 227.333333,29.3333333 C227.333333,30.008348 226.786126,30.5555556 226.111111,30.5555556 Z M1.22222222,58.6666667 C0.547207528,58.6666667 0,58.1194591 0,57.4444444 C0,56.7694298 0.547207528,56.2222222 1.22222222,56.2222222 C1.89723692,56.2222222 2.44444444,56.7694298 2.44444444,57.4444444 C2.44444444,58.1194591 1.89723692,58.6666667 1.22222222,58.6666667 Z M29.3333333,58.6666667 C28.6583186,58.6666667 28.1111111,58.1194591 28.1111111,57.4444444 C28.1111111,56.7694298 28.6583186,56.2222222 29.3333333,56.2222222 C30.008348,56.2222222 30.5555556,56.7694298 30.5555556,57.4444444 C30.5555556,58.1194591 30.008348,58.6666667 29.3333333,58.6666667 Z M57.4444444,58.6666667 C56.7694298,58.6666667 56.2222222,58.1194591 56.2222222,57.4444444 C56.2222222,56.7694298 56.7694298,56.2222222 57.4444444,56.2222222 C58.1194591,56.2222222 58.6666667,56.7694298 58.6666667,57.4444444 C58.6666667,58.1194591 58.1194591,58.6666667 57.4444444,58.6666667 Z M85.5555556,58.6666667 C84.8805409,58.6666667 84.3333333,58.1194591 84.3333333,57.4444444 C84.3333333,56.7694298 84.8805409,56.2222222 85.5555556,56.2222222 C86.2305702,56.2222222 86.7777778,56.7694298 86.7777778,57.4444444 C86.7777778,58.1194591 86.2305702,58.6666667 85.5555556,58.6666667 Z M113.666667,58.6666667 C112.991652,58.6666667 112.444444,58.1194591 112.444444,57.4444444 C112.444444,56.7694298 112.991652,56.2222222 113.666667,56.2222222 C114.341681,56.2222222 114.888889,56.7694298 114.888889,57.4444444 C114.888889,58.1194591 114.341681,58.6666667 113.666667,58.6666667 Z M141.777778,58.6666667 C141.102763,58.6666667 140.555556,58.1194591 140.555556,57.4444444 C140.555556,56.7694298 141.102763,56.2222222 141.777778,56.2222222 C142.452792,56.2222222 143,56.7694298 143,57.4444444 C143,58.1194591 142.452792,58.6666667 141.777778,58.6666667 Z M169.888889,58.6666667 C169.213874,58.6666667 168.666667,58.1194591 168.666667,57.4444444 C168.666667,56.7694298 169.213874,56.2222222 169.888889,56.2222222 C170.563904,56.2222222 171.111111,56.7694298 171.111111,57.4444444 C171.111111,58.1194591 170.563904,58.6666667 169.888889,58.6666667 Z M198,58.6666667 C197.324985,58.6666667 196.777778,58.1194591 196.777778,57.4444444 C196.777778,56.7694298 197.324985,56.2222222 198,56.2222222 C198.675015,56.2222222 199.222222,56.7694298 199.222222,57.4444444 C199.222222,58.1194591 198.675015,58.6666667 198,58.6666667 Z M226.111111,58.6666667 C225.436096,58.6666667 224.888889,58.1194591 224.888889,57.4444444 C224.888889,56.7694298 225.436096,56.2222222 226.111111,56.2222222 C226.786126,56.2222222 227.333333,56.7694298 227.333333,57.4444444 C227.333333,58.1194591 226.786126,58.6666667 226.111111,58.6666667 Z M1.22222222,86.7777778 C0.547207528,86.7777778 0,86.2305702 0,85.5555556 C0,84.8805409 0.547207528,84.3333333 1.22222222,84.3333333 C1.89723692,84.3333333 2.44444444,84.8805409 2.44444444,85.5555556 C2.44444444,86.2305702 1.89723692,86.7777778 1.22222222,86.7777778 Z M29.3333333,86.7777778 C28.6583186,86.7777778 28.1111111,86.2305702 28.1111111,85.5555556 C28.1111111,84.8805409 28.6583186,84.3333333 29.3333333,84.3333333 C30.008348,84.3333333 30.5555556,84.8805409 30.5555556,85.5555556 C30.5555556,86.2305702 30.008348,86.7777778 29.3333333,86.7777778 Z M57.4444444,86.7777778 C56.7694298,86.7777778 56.2222222,86.2305702 56.2222222,85.5555556 C56.2222222,84.8805409 56.7694298,84.3333333 57.4444444,84.3333333 C58.1194591,84.3333333 58.6666667,84.8805409 58.6666667,85.5555556 C58.6666667,86.2305702 58.1194591,86.7777778 57.4444444,86.7777778 Z M85.5555556,86.7777778 C84.8805409,86.7777778 84.3333333,86.2305702 84.3333333,85.5555556 C84.3333333,84.8805409 84.8805409,84.3333333 85.5555556,84.3333333 C86.2305702,84.3333333 86.7777778,84.8805409 86.7777778,85.5555556 C86.7777778,86.2305702 86.2305702,86.7777778 85.5555556,86.7777778 Z M113.666667,86.7777778 C112.991652,86.7777778 112.444444,86.2305702 112.444444,85.5555556 C112.444444,84.8805409 112.991652,84.3333333 113.666667,84.3333333 C114.341681,84.3333333 114.888889,84.8805409 114.888889,85.5555556 C114.888889,86.2305702 114.341681,86.7777778 113.666667,86.7777778 Z M141.777778,86.7777778 C141.102763,86.7777778 140.555556,86.2305702 140.555556,85.5555556 C140.555556,84.8805409 141.102763,84.3333333 141.777778,84.3333333 C142.452792,84.3333333 143,84.8805409 143,85.5555556 C143,86.2305702 142.452792,86.7777778 141.777778,86.7777778 Z M169.888889,86.7777778 C169.213874,86.7777778 168.666667,86.2305702 168.666667,85.5555556 C168.666667,84.8805409 169.213874,84.3333333 169.888889,84.3333333 C170.563904,84.3333333 171.111111,84.8805409 171.111111,85.5555556 C171.111111,86.2305702 170.563904,86.7777778 169.888889,86.7777778 Z M198,86.7777778 C197.324985,86.7777778 196.777778,86.2305702 196.777778,85.5555556 C196.777778,84.8805409 197.324985,84.3333333 198,84.3333333 C198.675015,84.3333333 199.222222,84.8805409 199.222222,85.5555556 C199.222222,86.2305702 198.675015,86.7777778 198,86.7777778 Z M226.111111,86.7777778 C225.436096,86.7777778 224.888889,86.2305702 224.888889,85.5555556 C224.888889,84.8805409 225.436096,84.3333333 226.111111,84.3333333 C226.786126,84.3333333 227.333333,84.8805409 227.333333,85.5555556 C227.333333,86.2305702 226.786126,86.7777778 226.111111,86.7777778 Z M1.22222222,114.888889 C0.547207528,114.888889 0,114.341681 0,113.666667 C0,112.991652 0.547207528,112.444444 1.22222222,112.444444 C1.89723692,112.444444 2.44444444,112.991652 2.44444444,113.666667 C2.44444444,114.341681 1.89723692,114.888889 1.22222222,114.888889 Z M29.3333333,114.888889 C28.6583186,114.888889 28.1111111,114.341681 28.1111111,113.666667 C28.1111111,112.991652 28.6583186,112.444444 29.3333333,112.444444 C30.008348,112.444444 30.5555556,112.991652 30.5555556,113.666667 C30.5555556,114.341681 30.008348,114.888889 29.3333333,114.888889 Z M57.4444444,114.888889 C56.7694298,114.888889 56.2222222,114.341681 56.2222222,113.666667 C56.2222222,112.991652 56.7694298,112.444444 57.4444444,112.444444 C58.1194591,112.444444 58.6666667,112.991652 58.6666667,113.666667 C58.6666667,114.341681 58.1194591,114.888889 57.4444444,114.888889 Z M85.5555556,114.888889 C84.8805409,114.888889 84.3333333,114.341681 84.3333333,113.666667 C84.3333333,112.991652 84.8805409,112.444444 85.5555556,112.444444 C86.2305702,112.444444 86.7777778,112.991652 86.7777778,113.666667 C86.7777778,114.341681 86.2305702,114.888889 85.5555556,114.888889 Z M113.666667,114.888889 C112.991652,114.888889 112.444444,114.341681 112.444444,113.666667 C112.444444,112.991652 112.991652,112.444444 113.666667,112.444444 C114.341681,112.444444 114.888889,112.991652 114.888889,113.666667 C114.888889,114.341681 114.341681,114.888889 113.666667,114.888889 Z M141.777778,114.888889 C141.102763,114.888889 140.555556,114.341681 140.555556,113.666667 C140.555556,112.991652 141.102763,112.444444 141.777778,112.444444 C142.452792,112.444444 143,112.991652 143,113.666667 C143,114.341681 142.452792,114.888889 141.777778,114.888889 Z M169.888889,114.888889 C169.213874,114.888889 168.666667,114.341681 168.666667,113.666667 C168.666667,112.991652 169.213874,112.444444 169.888889,112.444444 C170.563904,112.444444 171.111111,112.991652 171.111111,113.666667 C171.111111,114.341681 170.563904,114.888889 169.888889,114.888889 Z M198,114.888889 C197.324985,114.888889 196.777778,114.341681 196.777778,113.666667 C196.777778,112.991652 197.324985,112.444444 198,112.444444 C198.675015,112.444444 199.222222,112.991652 199.222222,113.666667 C199.222222,114.341681 198.675015,114.888889 198,114.888889 Z M226.111111,114.888889 C225.436096,114.888889 224.888889,114.341681 224.888889,113.666667 C224.888889,112.991652 225.436096,112.444444 226.111111,112.444444 C226.786126,112.444444 227.333333,112.991652 227.333333,113.666667 C227.333333,114.341681 226.786126,114.888889 226.111111,114.888889 Z M1.22222222,143 C0.547207528,143 0,142.452792 0,141.777778 C0,141.102763 0.547207528,140.555556 1.22222222,140.555556 C1.89723692,140.555556 2.44444444,141.102763 2.44444444,141.777778 C2.44444444,142.452792 1.89723692,143 1.22222222,143 Z M29.3333333,143 C28.6583186,143 28.1111111,142.452792 28.1111111,141.777778 C28.1111111,141.102763 28.6583186,140.555556 29.3333333,140.555556 C30.008348,140.555556 30.5555556,141.102763 30.5555556,141.777778 C30.5555556,142.452792 30.008348,143 29.3333333,143 Z M57.4444444,143 C56.7694298,143 56.2222222,142.452792 56.2222222,141.777778 C56.2222222,141.102763 56.7694298,140.555556 57.4444444,140.555556 C58.1194591,140.555556 58.6666667,141.102763 58.6666667,141.777778 C58.6666667,142.452792 58.1194591,143 57.4444444,143 Z M85.5555556,143 C84.8805409,143 84.3333333,142.452792 84.3333333,141.777778 C84.3333333,141.102763 84.8805409,140.555556 85.5555556,140.555556 C86.2305702,140.555556 86.7777778,141.102763 86.7777778,141.777778 C86.7777778,142.452792 86.2305702,143 85.5555556,143 Z M113.666667,143 C112.991652,143 112.444444,142.452792 112.444444,141.777778 C112.444444,141.102763 112.991652,140.555556 113.666667,140.555556 C114.341681,140.555556 114.888889,141.102763 114.888889,141.777778 C114.888889,142.452792 114.341681,143 113.666667,143 Z M141.777778,143 C141.102763,143 140.555556,142.452792 140.555556,141.777778 C140.555556,141.102763 141.102763,140.555556 141.777778,140.555556 C142.452792,140.555556 143,141.102763 143,141.777778 C143,142.452792 142.452792,143 141.777778,143 Z M169.888889,143 C169.213874,143 168.666667,142.452792 168.666667,141.777778 C168.666667,141.102763 169.213874,140.555556 169.888889,140.555556 C170.563904,140.555556 171.111111,141.102763 171.111111,141.777778 C171.111111,142.452792 170.563904,143 169.888889,143 Z M198,143 C197.324985,143 196.777778,142.452792 196.777778,141.777778 C196.777778,141.102763 197.324985,140.555556 198,140.555556 C198.675015,140.555556 199.222222,141.102763 199.222222,141.777778 C199.222222,142.452792 198.675015,143 198,143 Z M226.111111,143 C225.436096,143 224.888889,142.452792 224.888889,141.777778 C224.888889,141.102763 225.436096,140.555556 226.111111,140.555556 C226.786126,140.555556 227.333333,141.102763 227.333333,141.777778 C227.333333,142.452792 226.786126,143 226.111111,143 Z M1.22222222,171.111111 C0.547207528,171.111111 0,170.563904 0,169.888889 C0,169.213874 0.547207528,168.666667 1.22222222,168.666667 C1.89723692,168.666667 2.44444444,169.213874 2.44444444,169.888889 C2.44444444,170.563904 1.89723692,171.111111 1.22222222,171.111111 Z M29.3333333,171.111111 C28.6583186,171.111111 28.1111111,170.563904 28.1111111,169.888889 C28.1111111,169.213874 28.6583186,168.666667 29.3333333,168.666667 C30.008348,168.666667 30.5555556,169.213874 30.5555556,169.888889 C30.5555556,170.563904 30.008348,171.111111 29.3333333,171.111111 Z M57.4444444,171.111111 C56.7694298,171.111111 56.2222222,170.563904 56.2222222,169.888889 C56.2222222,169.213874 56.7694298,168.666667 57.4444444,168.666667 C58.1194591,168.666667 58.6666667,169.213874 58.6666667,169.888889 C58.6666667,170.563904 58.1194591,171.111111 57.4444444,171.111111 Z M85.5555556,171.111111 C84.8805409,171.111111 84.3333333,170.563904 84.3333333,169.888889 C84.3333333,169.213874 84.8805409,168.666667 85.5555556,168.666667 C86.2305702,168.666667 86.7777778,169.213874 86.7777778,169.888889 C86.7777778,170.563904 86.2305702,171.111111 85.5555556,171.111111 Z M113.666667,171.111111 C112.991652,171.111111 112.444444,170.563904 112.444444,169.888889 C112.444444,169.213874 112.991652,168.666667 113.666667,168.666667 C114.341681,168.666667 114.888889,169.213874 114.888889,169.888889 C114.888889,170.563904 114.341681,171.111111 113.666667,171.111111 Z M141.777778,171.111111 C141.102763,171.111111 140.555556,170.563904 140.555556,169.888889 C140.555556,169.213874 141.102763,168.666667 141.777778,168.666667 C142.452792,168.666667 143,169.213874 143,169.888889 C143,170.563904 142.452792,171.111111 141.777778,171.111111 Z M169.888889,171.111111 C169.213874,171.111111 168.666667,170.563904 168.666667,169.888889 C168.666667,169.213874 169.213874,168.666667 169.888889,168.666667 C170.563904,168.666667 171.111111,169.213874 171.111111,169.888889 C171.111111,170.563904 170.563904,171.111111 169.888889,171.111111 Z M198,171.111111 C197.324985,171.111111 196.777778,170.563904 196.777778,169.888889 C196.777778,169.213874 197.324985,168.666667 198,168.666667 C198.675015,168.666667 199.222222,169.213874 199.222222,169.888889 C199.222222,170.563904 198.675015,171.111111 198,171.111111 Z M226.111111,171.111111 C225.436096,171.111111 224.888889,170.563904 224.888889,169.888889 C224.888889,169.213874 225.436096,168.666667 226.111111,168.666667 C226.786126,168.666667 227.333333,169.213874 227.333333,169.888889 C227.333333,170.563904 226.786126,171.111111 226.111111,171.111111 Z M1.22222222,199.222222 C0.547207528,199.222222 0,198.675015 0,198 C0,197.324985 0.547207528,196.777778 1.22222222,196.777778 C1.89723692,196.777778 2.44444444,197.324985 2.44444444,198 C2.44444444,198.675015 1.89723692,199.222222 1.22222222,199.222222 Z M29.3333333,199.222222 C28.6583186,199.222222 28.1111111,198.675015 28.1111111,198 C28.1111111,197.324985 28.6583186,196.777778 29.3333333,196.777778 C30.008348,196.777778 30.5555556,197.324985 30.5555556,198 C30.5555556,198.675015 30.008348,199.222222 29.3333333,199.222222 Z M57.4444444,199.222222 C56.7694298,199.222222 56.2222222,198.675015 56.2222222,198 C56.2222222,197.324985 56.7694298,196.777778 57.4444444,196.777778 C58.1194591,196.777778 58.6666667,197.324985 58.6666667,198 C58.6666667,198.675015 58.1194591,199.222222 57.4444444,199.222222 Z M85.5555556,199.222222 C84.8805409,199.222222 84.3333333,198.675015 84.3333333,198 C84.3333333,197.324985 84.8805409,196.777778 85.5555556,196.777778 C86.2305702,196.777778 86.7777778,197.324985 86.7777778,198 C86.7777778,198.675015 86.2305702,199.222222 85.5555556,199.222222 Z M113.666667,199.222222 C112.991652,199.222222 112.444444,198.675015 112.444444,198 C112.444444,197.324985 112.991652,196.777778 113.666667,196.777778 C114.341681,196.777778 114.888889,197.324985 114.888889,198 C114.888889,198.675015 114.341681,199.222222 113.666667,199.222222 Z M141.777778,199.222222 C141.102763,199.222222 140.555556,198.675015 140.555556,198 C140.555556,197.324985 141.102763,196.777778 141.777778,196.777778 C142.452792,196.777778 143,197.324985 143,198 C143,198.675015 142.452792,199.222222 141.777778,199.222222 Z M169.888889,199.222222 C169.213874,199.222222 168.666667,198.675015 168.666667,198 C168.666667,197.324985 169.213874,196.777778 169.888889,196.777778 C170.563904,196.777778 171.111111,197.324985 171.111111,198 C171.111111,198.675015 170.563904,199.222222 169.888889,199.222222 Z M198,199.222222 C197.324985,199.222222 196.777778,198.675015 196.777778,198 C196.777778,197.324985 197.324985,196.777778 198,196.777778 C198.675015,196.777778 199.222222,197.324985 199.222222,198 C199.222222,198.675015 198.675015,199.222222 198,199.222222 Z M226.111111,199.222222 C225.436096,199.222222 224.888889,198.675015 224.888889,198 C224.888889,197.324985 225.436096,196.777778 226.111111,196.777778 C226.786126,196.777778 227.333333,197.324985 227.333333,198 C227.333333,198.675015 226.786126,199.222222 226.111111,199.222222 Z M1.22222222,227.333333 C0.547207528,227.333333 0,226.786126 0,226.111111 C0,225.436096 0.547207528,224.888889 1.22222222,224.888889 C1.89723692,224.888889 2.44444444,225.436096 2.44444444,226.111111 C2.44444444,226.786126 1.89723692,227.333333 1.22222222,227.333333 Z M29.3333333,227.333333 C28.6583186,227.333333 28.1111111,226.786126 28.1111111,226.111111 C28.1111111,225.436096 28.6583186,224.888889 29.3333333,224.888889 C30.008348,224.888889 30.5555556,225.436096 30.5555556,226.111111 C30.5555556,226.786126 30.008348,227.333333 29.3333333,227.333333 Z M57.4444444,227.333333 C56.7694298,227.333333 56.2222222,226.786126 56.2222222,226.111111 C56.2222222,225.436096 56.7694298,224.888889 57.4444444,224.888889 C58.1194591,224.888889 58.6666667,225.436096 58.6666667,226.111111 C58.6666667,226.786126 58.1194591,227.333333 57.4444444,227.333333 Z M85.5555556,227.333333 C84.8805409,227.333333 84.3333333,226.786126 84.3333333,226.111111 C84.3333333,225.436096 84.8805409,224.888889 85.5555556,224.888889 C86.2305702,224.888889 86.7777778,225.436096 86.7777778,226.111111 C86.7777778,226.786126 86.2305702,227.333333 85.5555556,227.333333 Z M113.666667,227.333333 C112.991652,227.333333 112.444444,226.786126 112.444444,226.111111 C112.444444,225.436096 112.991652,224.888889 113.666667,224.888889 C114.341681,224.888889 114.888889,225.436096 114.888889,226.111111 C114.888889,226.786126 114.341681,227.333333 113.666667,227.333333 Z M141.777778,227.333333 C141.102763,227.333333 140.555556,226.786126 140.555556,226.111111 C140.555556,225.436096 141.102763,224.888889 141.777778,224.888889 C142.452792,224.888889 143,225.436096 143,226.111111 C143,226.786126 142.452792,227.333333 141.777778,227.333333 Z M169.888889,227.333333 C169.213874,227.333333 168.666667,226.786126 168.666667,226.111111 C168.666667,225.436096 169.213874,224.888889 169.888889,224.888889 C170.563904,224.888889 171.111111,225.436096 171.111111,226.111111 C171.111111,226.786126 170.563904,227.333333 169.888889,227.333333 Z M198,227.333333 C197.324985,227.333333 196.777778,226.786126 196.777778,226.111111 C196.777778,225.436096 197.324985,224.888889 198,224.888889 C198.675015,224.888889 199.222222,225.436096 199.222222,226.111111 C199.222222,226.786126 198.675015,227.333333 198,227.333333 Z M226.111111,227.333333 C225.436096,227.333333 224.888889,226.786126 224.888889,226.111111 C224.888889,225.436096 225.436096,224.888889 226.111111,224.888889 C226.786126,224.888889 227.333333,225.436096 227.333333,226.111111 C227.333333,226.786126 226.786126,227.333333 226.111111,227.333333 Z M1.22222222,255.444444 C0.547207528,255.444444 0,254.897237 0,254.222222 C0,253.547208 0.547207528,253 1.22222222,253 C1.89723692,253 2.44444444,253.547208 2.44444444,254.222222 C2.44444444,254.897237 1.89723692,255.444444 1.22222222,255.444444 Z M29.3333333,255.444444 C28.6583186,255.444444 28.1111111,254.897237 28.1111111,254.222222 C28.1111111,253.547208 28.6583186,253 29.3333333,253 C30.008348,253 30.5555556,253.547208 30.5555556,254.222222 C30.5555556,254.897237 30.008348,255.444444 29.3333333,255.444444 Z M57.4444444,255.444444 C56.7694298,255.444444 56.2222222,254.897237 56.2222222,254.222222 C56.2222222,253.547208 56.7694298,253 57.4444444,253 C58.1194591,253 58.6666667,253.547208 58.6666667,254.222222 C58.6666667,254.897237 58.1194591,255.444444 57.4444444,255.444444 Z M85.5555556,255.444444 C84.8805409,255.444444 84.3333333,254.897237 84.3333333,254.222222 C84.3333333,253.547208 84.8805409,253 85.5555556,253 C86.2305702,253 86.7777778,253.547208 86.7777778,254.222222 C86.7777778,254.897237 86.2305702,255.444444 85.5555556,255.444444 Z M113.666667,255.444444 C112.991652,255.444444 112.444444,254.897237 112.444444,254.222222 C112.444444,253.547208 112.991652,253 113.666667,253 C114.341681,253 114.888889,253.547208 114.888889,254.222222 C114.888889,254.897237 114.341681,255.444444 113.666667,255.444444 Z M141.777778,255.444444 C141.102763,255.444444 140.555556,254.897237 140.555556,254.222222 C140.555556,253.547208 141.102763,253 141.777778,253 C142.452792,253 143,253.547208 143,254.222222 C143,254.897237 142.452792,255.444444 141.777778,255.444444 Z M169.888889,255.444444 C169.213874,255.444444 168.666667,254.897237 168.666667,254.222222 C168.666667,253.547208 169.213874,253 169.888889,253 C170.563904,253 171.111111,253.547208 171.111111,254.222222 C171.111111,254.897237 170.563904,255.444444 169.888889,255.444444 Z M198,255.444444 C197.324985,255.444444 196.777778,254.897237 196.777778,254.222222 C196.777778,253.547208 197.324985,253 198,253 C198.675015,253 199.222222,253.547208 199.222222,254.222222 C199.222222,254.897237 198.675015,255.444444 198,255.444444 Z M226.111111,255.444444 C225.436096,255.444444 224.888889,254.897237 224.888889,254.222222 C224.888889,253.547208 225.436096,253 226.111111,253 C226.786126,253 227.333333,253.547208 227.333333,254.222222 C227.333333,254.897237 226.786126,255.444444 226.111111,255.444444 Z M1.22222222,283.555556 C0.547207528,283.555556 0,283.008348 0,282.333333 C0,281.658319 0.547207528,281.111111 1.22222222,281.111111 C1.89723692,281.111111 2.44444444,281.658319 2.44444444,282.333333 C2.44444444,283.008348 1.89723692,283.555556 1.22222222,283.555556 Z M29.3333333,283.555556 C28.6583186,283.555556 28.1111111,283.008348 28.1111111,282.333333 C28.1111111,281.658319 28.6583186,281.111111 29.3333333,281.111111 C30.008348,281.111111 30.5555556,281.658319 30.5555556,282.333333 C30.5555556,283.008348 30.008348,283.555556 29.3333333,283.555556 Z M57.4444444,283.555556 C56.7694298,283.555556 56.2222222,283.008348 56.2222222,282.333333 C56.2222222,281.658319 56.7694298,281.111111 57.4444444,281.111111 C58.1194591,281.111111 58.6666667,281.658319 58.6666667,282.333333 C58.6666667,283.008348 58.1194591,283.555556 57.4444444,283.555556 Z M85.5555556,283.555556 C84.8805409,283.555556 84.3333333,283.008348 84.3333333,282.333333 C84.3333333,281.658319 84.8805409,281.111111 85.5555556,281.111111 C86.2305702,281.111111 86.7777778,281.658319 86.7777778,282.333333 C86.7777778,283.008348 86.2305702,283.555556 85.5555556,283.555556 Z M113.666667,283.555556 C112.991652,283.555556 112.444444,283.008348 112.444444,282.333333 C112.444444,281.658319 112.991652,281.111111 113.666667,281.111111 C114.341681,281.111111 114.888889,281.658319 114.888889,282.333333 C114.888889,283.008348 114.341681,283.555556 113.666667,283.555556 Z M141.777778,283.555556 C141.102763,283.555556 140.555556,283.008348 140.555556,282.333333 C140.555556,281.658319 141.102763,281.111111 141.777778,281.111111 C142.452792,281.111111 143,281.658319 143,282.333333 C143,283.008348 142.452792,283.555556 141.777778,283.555556 Z M169.888889,283.555556 C169.213874,283.555556 168.666667,283.008348 168.666667,282.333333 C168.666667,281.658319 169.213874,281.111111 169.888889,281.111111 C170.563904,281.111111 171.111111,281.658319 171.111111,282.333333 C171.111111,283.008348 170.563904,283.555556 169.888889,283.555556 Z M198,283.555556 C197.324985,283.555556 196.777778,283.008348 196.777778,282.333333 C196.777778,281.658319 197.324985,281.111111 198,281.111111 C198.675015,281.111111 199.222222,281.658319 199.222222,282.333333 C199.222222,283.008348 198.675015,283.555556 198,283.555556 Z M226.111111,283.555556 C225.436096,283.555556 224.888889,283.008348 224.888889,282.333333 C224.888889,281.658319 225.436096,281.111111 226.111111,281.111111 C226.786126,281.111111 227.333333,281.658319 227.333333,282.333333 C227.333333,283.008348 226.786126,283.555556 226.111111,283.555556 Z M1.22222222,311.666667 C0.547207528,311.666667 0,311.119459 0,310.444444 C0,309.76943 0.547207528,309.222222 1.22222222,309.222222 C1.89723692,309.222222 2.44444444,309.76943 2.44444444,310.444444 C2.44444444,311.119459 1.89723692,311.666667 1.22222222,311.666667 Z M29.3333333,311.666667 C28.6583186,311.666667 28.1111111,311.119459 28.1111111,310.444444 C28.1111111,309.76943 28.6583186,309.222222 29.3333333,309.222222 C30.008348,309.222222 30.5555556,309.76943 30.5555556,310.444444 C30.5555556,311.119459 30.008348,311.666667 29.3333333,311.666667 Z M57.4444444,311.666667 C56.7694298,311.666667 56.2222222,311.119459 56.2222222,310.444444 C56.2222222,309.76943 56.7694298,309.222222 57.4444444,309.222222 C58.1194591,309.222222 58.6666667,309.76943 58.6666667,310.444444 C58.6666667,311.119459 58.1194591,311.666667 57.4444444,311.666667 Z M85.5555556,311.666667 C84.8805409,311.666667 84.3333333,311.119459 84.3333333,310.444444 C84.3333333,309.76943 84.8805409,309.222222 85.5555556,309.222222 C86.2305702,309.222222 86.7777778,309.76943 86.7777778,310.444444 C86.7777778,311.119459 86.2305702,311.666667 85.5555556,311.666667 Z M113.666667,311.666667 C112.991652,311.666667 112.444444,311.119459 112.444444,310.444444 C112.444444,309.76943 112.991652,309.222222 113.666667,309.222222 C114.341681,309.222222 114.888889,309.76943 114.888889,310.444444 C114.888889,311.119459 114.341681,311.666667 113.666667,311.666667 Z M141.777778,311.666667 C141.102763,311.666667 140.555556,311.119459 140.555556,310.444444 C140.555556,309.76943 141.102763,309.222222 141.777778,309.222222 C142.452792,309.222222 143,309.76943 143,310.444444 C143,311.119459 142.452792,311.666667 141.777778,311.666667 Z M169.888889,311.666667 C169.213874,311.666667 168.666667,311.119459 168.666667,310.444444 C168.666667,309.76943 169.213874,309.222222 169.888889,309.222222 C170.563904,309.222222 171.111111,309.76943 171.111111,310.444444 C171.111111,311.119459 170.563904,311.666667 169.888889,311.666667 Z M198,311.666667 C197.324985,311.666667 196.777778,311.119459 196.777778,310.444444 C196.777778,309.76943 197.324985,309.222222 198,309.222222 C198.675015,309.222222 199.222222,309.76943 199.222222,310.444444 C199.222222,311.119459 198.675015,311.666667 198,311.666667 Z M226.111111,311.666667 C225.436096,311.666667 224.888889,311.119459 224.888889,310.444444 C224.888889,309.76943 225.436096,309.222222 226.111111,309.222222 C226.786126,309.222222 227.333333,309.76943 227.333333,310.444444 C227.333333,311.119459 226.786126,311.666667 226.111111,311.666667 Z"></path>
                            </g>
                        </g>
                    </g>
                </g>
            </g>
        </g>
    </g>
</svg>