<svg width="270px" height="110px" viewBox="0 0 270 110" version="1.1" xmlns="http://www.w3.org/2000/svg" xmlns:xlink="http://www.w3.org/1999/xlink">
    <defs>
        <rect id="path-1" x="0" y="0" width="142.294118" height="295"></rect>
    </defs>
    <g id="Page-1" stroke="none" stroke-width="1" fill="none" fill-rule="evenodd" opacity="0.400000006">
        <g id="GBW-general-1920x1080" transform="translate(-520.000000, -3945.000000)">
            <g id="block-4" transform="translate(0.000000, 3245.000000)">
                <g id="heading" transform="translate(519.000000, 234.000000)">
                    <g id="dash-1" transform="translate(148.147059, 514.852941) rotate(90.000000) translate(-148.147059, -514.852941) translate(76.647059, 367.352941)">
                        <mask id="mask-2" fill="white">
                            <use xlink:href="#path-1"></use>
                        </mask>
                        <g id="Mask"></g>
                        <g id="Icons/dash" mask="url(#mask-2)" fill="#777777">
                            <g transform="translate(23.137255, 25.450980)" id="dash">
                                <path d="M1.15686275,2.31372549 C0.517945093,2.31372549 0,1.7957804 0,1.15686275 C0,0.517945093 0.517945093,0 1.15686275,0 C1.7957804,0 2.31372549,0.517945093 2.31372549,1.15686275 C2.31372549,1.7957804 1.7957804,2.31372549 1.15686275,2.31372549 Z M27.7647059,2.31372549 C27.1257882,2.31372549 26.6078431,1.7957804 26.6078431,1.15686275 C26.6078431,0.517945093 27.1257882,0 27.7647059,0 C28.4036235,0 28.9215686,0.517945093 28.9215686,1.15686275 C28.9215686,1.7957804 28.4036235,2.31372549 27.7647059,2.31372549 Z M54.372549,2.31372549 C53.7336314,2.31372549 53.2156863,1.7957804 53.2156863,1.15686275 C53.2156863,0.517945093 53.7336314,0 54.372549,0 C55.0114667,0 55.5294118,0.517945093 55.5294118,1.15686275 C55.5294118,1.7957804 55.0114667,2.31372549 54.372549,2.31372549 Z M80.9803922,2.31372549 C80.3414745,2.31372549 79.8235294,1.7957804 79.8235294,1.15686275 C79.8235294,0.517945093 80.3414745,0 80.9803922,0 C81.6193098,0 82.1372549,0.517945093 82.1372549,1.15686275 C82.1372549,1.7957804 81.6193098,2.31372549 80.9803922,2.31372549 Z M107.588235,2.31372549 C106.949318,2.31372549 106.431373,1.7957804 106.431373,1.15686275 C106.431373,0.517945093 106.949318,0 107.588235,0 C108.227153,0 108.745098,0.517945093 108.745098,1.15686275 C108.745098,1.7957804 108.227153,2.31372549 107.588235,2.31372549 Z M134.196078,2.31372549 C133.557161,2.31372549 133.039216,1.7957804 133.039216,1.15686275 C133.039216,0.517945093 133.557161,0 134.196078,0 C134.834996,0 135.352941,0.517945093 135.352941,1.15686275 C135.352941,1.7957804 134.834996,2.31372549 134.196078,2.31372549 Z M160.803922,2.31372549 C160.165004,2.31372549 159.647059,1.7957804 159.647059,1.15686275 C159.647059,0.517945093 160.165004,0 160.803922,0 C161.442839,0 161.960784,0.517945093 161.960784,1.15686275 C161.960784,1.7957804 161.442839,2.31372549 160.803922,2.31372549 Z M187.411765,2.31372549 C186.772847,2.31372549 186.254902,1.7957804 186.254902,1.15686275 C186.254902,0.517945093 186.772847,0 187.411765,0 C188.050682,0 188.568627,0.517945093 188.568627,1.15686275 C188.568627,1.7957804 188.050682,2.31372549 187.411765,2.31372549 Z M214.019608,2.31372549 C213.38069,2.31372549 212.862745,1.7957804 212.862745,1.15686275 C212.862745,0.517945093 213.38069,0 214.019608,0 C214.658525,0 215.176471,0.517945093 215.176471,1.15686275 C215.176471,1.7957804 214.658525,2.31372549 214.019608,2.31372549 Z M1.15686275,28.9215686 C0.517945093,28.9215686 0,28.4036235 0,27.7647059 C0,27.1257882 0.517945093,26.6078431 1.15686275,26.6078431 C1.7957804,26.6078431 2.31372549,27.1257882 2.31372549,27.7647059 C2.31372549,28.4036235 1.7957804,28.9215686 1.15686275,28.9215686 Z M27.7647059,28.9215686 C27.1257882,28.9215686 26.6078431,28.4036235 26.6078431,27.7647059 C26.6078431,27.1257882 27.1257882,26.6078431 27.7647059,26.6078431 C28.4036235,26.6078431 28.9215686,27.1257882 28.9215686,27.7647059 C28.9215686,28.4036235 28.4036235,28.9215686 27.7647059,28.9215686 Z M54.372549,28.9215686 C53.7336314,28.9215686 53.2156863,28.4036235 53.2156863,27.7647059 C53.2156863,27.1257882 53.7336314,26.6078431 54.372549,26.6078431 C55.0114667,26.6078431 55.5294118,27.1257882 55.5294118,27.7647059 C55.5294118,28.4036235 55.0114667,28.9215686 54.372549,28.9215686 Z M80.9803922,28.9215686 C80.3414745,28.9215686 79.8235294,28.4036235 79.8235294,27.7647059 C79.8235294,27.1257882 80.3414745,26.6078431 80.9803922,26.6078431 C81.6193098,26.6078431 82.1372549,27.1257882 82.1372549,27.7647059 C82.1372549,28.4036235 81.6193098,28.9215686 80.9803922,28.9215686 Z M107.588235,28.9215686 C106.949318,28.9215686 106.431373,28.4036235 106.431373,27.7647059 C106.431373,27.1257882 106.949318,26.6078431 107.588235,26.6078431 C108.227153,26.6078431 108.745098,27.1257882 108.745098,27.7647059 C108.745098,28.4036235 108.227153,28.9215686 107.588235,28.9215686 Z M134.196078,28.9215686 C133.557161,28.9215686 133.039216,28.4036235 133.039216,27.7647059 C133.039216,27.1257882 133.557161,26.6078431 134.196078,26.6078431 C134.834996,26.6078431 135.352941,27.1257882 135.352941,27.7647059 C135.352941,28.4036235 134.834996,28.9215686 134.196078,28.9215686 Z M160.803922,28.9215686 C160.165004,28.9215686 159.647059,28.4036235 159.647059,27.7647059 C159.647059,27.1257882 160.165004,26.6078431 160.803922,26.6078431 C161.442839,26.6078431 161.960784,27.1257882 161.960784,27.7647059 C161.960784,28.4036235 161.442839,28.9215686 160.803922,28.9215686 Z M187.411765,28.9215686 C186.772847,28.9215686 186.254902,28.4036235 186.254902,27.7647059 C186.254902,27.1257882 186.772847,26.6078431 187.411765,26.6078431 C188.050682,26.6078431 188.568627,27.1257882 188.568627,27.7647059 C188.568627,28.4036235 188.050682,28.9215686 187.411765,28.9215686 Z M214.019608,28.9215686 C213.38069,28.9215686 212.862745,28.4036235 212.862745,27.7647059 C212.862745,27.1257882 213.38069,26.6078431 214.019608,26.6078431 C214.658525,26.6078431 215.176471,27.1257882 215.176471,27.7647059 C215.176471,28.4036235 214.658525,28.9215686 214.019608,28.9215686 Z M1.15686275,55.5294118 C0.517945093,55.5294118 0,55.0114667 0,54.372549 C0,53.7336314 0.517945093,53.2156863 1.15686275,53.2156863 C1.7957804,53.2156863 2.31372549,53.7336314 2.31372549,54.372549 C2.31372549,55.0114667 1.7957804,55.5294118 1.15686275,55.5294118 Z M27.7647059,55.5294118 C27.1257882,55.5294118 26.6078431,55.0114667 26.6078431,54.372549 C26.6078431,53.7336314 27.1257882,53.2156863 27.7647059,53.2156863 C28.4036235,53.2156863 28.9215686,53.7336314 28.9215686,54.372549 C28.9215686,55.0114667 28.4036235,55.5294118 27.7647059,55.5294118 Z M54.372549,55.5294118 C53.7336314,55.5294118 53.2156863,55.0114667 53.2156863,54.372549 C53.2156863,53.7336314 53.7336314,53.2156863 54.372549,53.2156863 C55.0114667,53.2156863 55.5294118,53.7336314 55.5294118,54.372549 C55.5294118,55.0114667 55.0114667,55.5294118 54.372549,55.5294118 Z M80.9803922,55.5294118 C80.3414745,55.5294118 79.8235294,55.0114667 79.8235294,54.372549 C79.8235294,53.7336314 80.3414745,53.2156863 80.9803922,53.2156863 C81.6193098,53.2156863 82.1372549,53.7336314 82.1372549,54.372549 C82.1372549,55.0114667 81.6193098,55.5294118 80.9803922,55.5294118 Z M107.588235,55.5294118 C106.949318,55.5294118 106.431373,55.0114667 106.431373,54.372549 C106.431373,53.7336314 106.949318,53.2156863 107.588235,53.2156863 C108.227153,53.2156863 108.745098,53.7336314 108.745098,54.372549 C108.745098,55.0114667 108.227153,55.5294118 107.588235,55.5294118 Z M134.196078,55.5294118 C133.557161,55.5294118 133.039216,55.0114667 133.039216,54.372549 C133.039216,53.7336314 133.557161,53.2156863 134.196078,53.2156863 C134.834996,53.2156863 135.352941,53.7336314 135.352941,54.372549 C135.352941,55.0114667 134.834996,55.5294118 134.196078,55.5294118 Z M160.803922,55.5294118 C160.165004,55.5294118 159.647059,55.0114667 159.647059,54.372549 C159.647059,53.7336314 160.165004,53.2156863 160.803922,53.2156863 C161.442839,53.2156863 161.960784,53.7336314 161.960784,54.372549 C161.960784,55.0114667 161.442839,55.5294118 160.803922,55.5294118 Z M187.411765,55.5294118 C186.772847,55.5294118 186.254902,55.0114667 186.254902,54.372549 C186.254902,53.7336314 186.772847,53.2156863 187.411765,53.2156863 C188.050682,53.2156863 188.568627,53.7336314 188.568627,54.372549 C188.568627,55.0114667 188.050682,55.5294118 187.411765,55.5294118 Z M214.019608,55.5294118 C213.38069,55.5294118 212.862745,55.0114667 212.862745,54.372549 C212.862745,53.7336314 213.38069,53.2156863 214.019608,53.2156863 C214.658525,53.2156863 215.176471,53.7336314 215.176471,54.372549 C215.176471,55.0114667 214.658525,55.5294118 214.019608,55.5294118 Z M1.15686275,82.1372549 C0.517945093,82.1372549 0,81.6193098 0,80.9803922 C0,80.3414745 0.517945093,79.8235294 1.15686275,79.8235294 C1.7957804,79.8235294 2.31372549,80.3414745 2.31372549,80.9803922 C2.31372549,81.6193098 1.7957804,82.1372549 1.15686275,82.1372549 Z M27.7647059,82.1372549 C27.1257882,82.1372549 26.6078431,81.6193098 26.6078431,80.9803922 C26.6078431,80.3414745 27.1257882,79.8235294 27.7647059,79.8235294 C28.4036235,79.8235294 28.9215686,80.3414745 28.9215686,80.9803922 C28.9215686,81.6193098 28.4036235,82.1372549 27.7647059,82.1372549 Z M54.372549,82.1372549 C53.7336314,82.1372549 53.2156863,81.6193098 53.2156863,80.9803922 C53.2156863,80.3414745 53.7336314,79.8235294 54.372549,79.8235294 C55.0114667,79.8235294 55.5294118,80.3414745 55.5294118,80.9803922 C55.5294118,81.6193098 55.0114667,82.1372549 54.372549,82.1372549 Z M80.9803922,82.1372549 C80.3414745,82.1372549 79.8235294,81.6193098 79.8235294,80.9803922 C79.8235294,80.3414745 80.3414745,79.8235294 80.9803922,79.8235294 C81.6193098,79.8235294 82.1372549,80.3414745 82.1372549,80.9803922 C82.1372549,81.6193098 81.6193098,82.1372549 80.9803922,82.1372549 Z M107.588235,82.1372549 C106.949318,82.1372549 106.431373,81.6193098 106.431373,80.9803922 C106.431373,80.3414745 106.949318,79.8235294 107.588235,79.8235294 C108.227153,79.8235294 108.745098,80.3414745 108.745098,80.9803922 C108.745098,81.6193098 108.227153,82.1372549 107.588235,82.1372549 Z M134.196078,82.1372549 C133.557161,82.1372549 133.039216,81.6193098 133.039216,80.9803922 C133.039216,80.3414745 133.557161,79.8235294 134.196078,79.8235294 C134.834996,79.8235294 135.352941,80.3414745 135.352941,80.9803922 C135.352941,81.6193098 134.834996,82.1372549 134.196078,82.1372549 Z M160.803922,82.1372549 C160.165004,82.1372549 159.647059,81.6193098 159.647059,80.9803922 C159.647059,80.3414745 160.165004,79.8235294 160.803922,79.8235294 C161.442839,79.8235294 161.960784,80.3414745 161.960784,80.9803922 C161.960784,81.6193098 161.442839,82.1372549 160.803922,82.1372549 Z M187.411765,82.1372549 C186.772847,82.1372549 186.254902,81.6193098 186.254902,80.9803922 C186.254902,80.3414745 186.772847,79.8235294 187.411765,79.8235294 C188.050682,79.8235294 188.568627,80.3414745 188.568627,80.9803922 C188.568627,81.6193098 188.050682,82.1372549 187.411765,82.1372549 Z M214.019608,82.1372549 C213.38069,82.1372549 212.862745,81.6193098 212.862745,80.9803922 C212.862745,80.3414745 213.38069,79.8235294 214.019608,79.8235294 C214.658525,79.8235294 215.176471,80.3414745 215.176471,80.9803922 C215.176471,81.6193098 214.658525,82.1372549 214.019608,82.1372549 Z M1.15686275,108.745098 C0.517945093,108.745098 0,108.227153 0,107.588235 C0,106.949318 0.517945093,106.431373 1.15686275,106.431373 C1.7957804,106.431373 2.31372549,106.949318 2.31372549,107.588235 C2.31372549,108.227153 1.7957804,108.745098 1.15686275,108.745098 Z M27.7647059,108.745098 C27.1257882,108.745098 26.6078431,108.227153 26.6078431,107.588235 C26.6078431,106.949318 27.1257882,106.431373 27.7647059,106.431373 C28.4036235,106.431373 28.9215686,106.949318 28.9215686,107.588235 C28.9215686,108.227153 28.4036235,108.745098 27.7647059,108.745098 Z M54.372549,108.745098 C53.7336314,108.745098 53.2156863,108.227153 53.2156863,107.588235 C53.2156863,106.949318 53.7336314,106.431373 54.372549,106.431373 C55.0114667,106.431373 55.5294118,106.949318 55.5294118,107.588235 C55.5294118,108.227153 55.0114667,108.745098 54.372549,108.745098 Z M80.9803922,108.745098 C80.3414745,108.745098 79.8235294,108.227153 79.8235294,107.588235 C79.8235294,106.949318 80.3414745,106.431373 80.9803922,106.431373 C81.6193098,106.431373 82.1372549,106.949318 82.1372549,107.588235 C82.1372549,108.227153 81.6193098,108.745098 80.9803922,108.745098 Z M107.588235,108.745098 C106.949318,108.745098 106.431373,108.227153 106.431373,107.588235 C106.431373,106.949318 106.949318,106.431373 107.588235,106.431373 C108.227153,106.431373 108.745098,106.949318 108.745098,107.588235 C108.745098,108.227153 108.227153,108.745098 107.588235,108.745098 Z M134.196078,108.745098 C133.557161,108.745098 133.039216,108.227153 133.039216,107.588235 C133.039216,106.949318 133.557161,106.431373 134.196078,106.431373 C134.834996,106.431373 135.352941,106.949318 135.352941,107.588235 C135.352941,108.227153 134.834996,108.745098 134.196078,108.745098 Z M160.803922,108.745098 C160.165004,108.745098 159.647059,108.227153 159.647059,107.588235 C159.647059,106.949318 160.165004,106.431373 160.803922,106.431373 C161.442839,106.431373 161.960784,106.949318 161.960784,107.588235 C161.960784,108.227153 161.442839,108.745098 160.803922,108.745098 Z M187.411765,108.745098 C186.772847,108.745098 186.254902,108.227153 186.254902,107.588235 C186.254902,106.949318 186.772847,106.431373 187.411765,106.431373 C188.050682,106.431373 188.568627,106.949318 188.568627,107.588235 C188.568627,108.227153 188.050682,108.745098 187.411765,108.745098 Z M214.019608,108.745098 C213.38069,108.745098 212.862745,108.227153 212.862745,107.588235 C212.862745,106.949318 213.38069,106.431373 214.019608,106.431373 C214.658525,106.431373 215.176471,106.949318 215.176471,107.588235 C215.176471,108.227153 214.658525,108.745098 214.019608,108.745098 Z M1.15686275,135.352941 C0.517945093,135.352941 0,134.834996 0,134.196078 C0,133.557161 0.517945093,133.039216 1.15686275,133.039216 C1.7957804,133.039216 2.31372549,133.557161 2.31372549,134.196078 C2.31372549,134.834996 1.7957804,135.352941 1.15686275,135.352941 Z M27.7647059,135.352941 C27.1257882,135.352941 26.6078431,134.834996 26.6078431,134.196078 C26.6078431,133.557161 27.1257882,133.039216 27.7647059,133.039216 C28.4036235,133.039216 28.9215686,133.557161 28.9215686,134.196078 C28.9215686,134.834996 28.4036235,135.352941 27.7647059,135.352941 Z M54.372549,135.352941 C53.7336314,135.352941 53.2156863,134.834996 53.2156863,134.196078 C53.2156863,133.557161 53.7336314,133.039216 54.372549,133.039216 C55.0114667,133.039216 55.5294118,133.557161 55.5294118,134.196078 C55.5294118,134.834996 55.0114667,135.352941 54.372549,135.352941 Z M80.9803922,135.352941 C80.3414745,135.352941 79.8235294,134.834996 79.8235294,134.196078 C79.8235294,133.557161 80.3414745,133.039216 80.9803922,133.039216 C81.6193098,133.039216 82.1372549,133.557161 82.1372549,134.196078 C82.1372549,134.834996 81.6193098,135.352941 80.9803922,135.352941 Z M107.588235,135.352941 C106.949318,135.352941 106.431373,134.834996 106.431373,134.196078 C106.431373,133.557161 106.949318,133.039216 107.588235,133.039216 C108.227153,133.039216 108.745098,133.557161 108.745098,134.196078 C108.745098,134.834996 108.227153,135.352941 107.588235,135.352941 Z M134.196078,135.352941 C133.557161,135.352941 133.039216,134.834996 133.039216,134.196078 C133.039216,133.557161 133.557161,133.039216 134.196078,133.039216 C134.834996,133.039216 135.352941,133.557161 135.352941,134.196078 C135.352941,134.834996 134.834996,135.352941 134.196078,135.352941 Z M160.803922,135.352941 C160.165004,135.352941 159.647059,134.834996 159.647059,134.196078 C159.647059,133.557161 160.165004,133.039216 160.803922,133.039216 C161.442839,133.039216 161.960784,133.557161 161.960784,134.196078 C161.960784,134.834996 161.442839,135.352941 160.803922,135.352941 Z M187.411765,135.352941 C186.772847,135.352941 186.254902,134.834996 186.254902,134.196078 C186.254902,133.557161 186.772847,133.039216 187.411765,133.039216 C188.050682,133.039216 188.568627,133.557161 188.568627,134.196078 C188.568627,134.834996 188.050682,135.352941 187.411765,135.352941 Z M214.019608,135.352941 C213.38069,135.352941 212.862745,134.834996 212.862745,134.196078 C212.862745,133.557161 213.38069,133.039216 214.019608,133.039216 C214.658525,133.039216 215.176471,133.557161 215.176471,134.196078 C215.176471,134.834996 214.658525,135.352941 214.019608,135.352941 Z M1.15686275,161.960784 C0.517945093,161.960784 0,161.442839 0,160.803922 C0,160.165004 0.517945093,159.647059 1.15686275,159.647059 C1.7957804,159.647059 2.31372549,160.165004 2.31372549,160.803922 C2.31372549,161.442839 1.7957804,161.960784 1.15686275,161.960784 Z M27.7647059,161.960784 C27.1257882,161.960784 26.6078431,161.442839 26.6078431,160.803922 C26.6078431,160.165004 27.1257882,159.647059 27.7647059,159.647059 C28.4036235,159.647059 28.9215686,160.165004 28.9215686,160.803922 C28.9215686,161.442839 28.4036235,161.960784 27.7647059,161.960784 Z M54.372549,161.960784 C53.7336314,161.960784 53.2156863,161.442839 53.2156863,160.803922 C53.2156863,160.165004 53.7336314,159.647059 54.372549,159.647059 C55.0114667,159.647059 55.5294118,160.165004 55.5294118,160.803922 C55.5294118,161.442839 55.0114667,161.960784 54.372549,161.960784 Z M80.9803922,161.960784 C80.3414745,161.960784 79.8235294,161.442839 79.8235294,160.803922 C79.8235294,160.165004 80.3414745,159.647059 80.9803922,159.647059 C81.6193098,159.647059 82.1372549,160.165004 82.1372549,160.803922 C82.1372549,161.442839 81.6193098,161.960784 80.9803922,161.960784 Z M107.588235,161.960784 C106.949318,161.960784 106.431373,161.442839 106.431373,160.803922 C106.431373,160.165004 106.949318,159.647059 107.588235,159.647059 C108.227153,159.647059 108.745098,160.165004 108.745098,160.803922 C108.745098,161.442839 108.227153,161.960784 107.588235,161.960784 Z M134.196078,161.960784 C133.557161,161.960784 133.039216,161.442839 133.039216,160.803922 C133.039216,160.165004 133.557161,159.647059 134.196078,159.647059 C134.834996,159.647059 135.352941,160.165004 135.352941,160.803922 C135.352941,161.442839 134.834996,161.960784 134.196078,161.960784 Z M160.803922,161.960784 C160.165004,161.960784 159.647059,161.442839 159.647059,160.803922 C159.647059,160.165004 160.165004,159.647059 160.803922,159.647059 C161.442839,159.647059 161.960784,160.165004 161.960784,160.803922 C161.960784,161.442839 161.442839,161.960784 160.803922,161.960784 Z M187.411765,161.960784 C186.772847,161.960784 186.254902,161.442839 186.254902,160.803922 C186.254902,160.165004 186.772847,159.647059 187.411765,159.647059 C188.050682,159.647059 188.568627,160.165004 188.568627,160.803922 C188.568627,161.442839 188.050682,161.960784 187.411765,161.960784 Z M214.019608,161.960784 C213.38069,161.960784 212.862745,161.442839 212.862745,160.803922 C212.862745,160.165004 213.38069,159.647059 214.019608,159.647059 C214.658525,159.647059 215.176471,160.165004 215.176471,160.803922 C215.176471,161.442839 214.658525,161.960784 214.019608,161.960784 Z M1.15686275,188.568627 C0.517945093,188.568627 0,188.050682 0,187.411765 C0,186.772847 0.517945093,186.254902 1.15686275,186.254902 C1.7957804,186.254902 2.31372549,186.772847 2.31372549,187.411765 C2.31372549,188.050682 1.7957804,188.568627 1.15686275,188.568627 Z M27.7647059,188.568627 C27.1257882,188.568627 26.6078431,188.050682 26.6078431,187.411765 C26.6078431,186.772847 27.1257882,186.254902 27.7647059,186.254902 C28.4036235,186.254902 28.9215686,186.772847 28.9215686,187.411765 C28.9215686,188.050682 28.4036235,188.568627 27.7647059,188.568627 Z M54.372549,188.568627 C53.7336314,188.568627 53.2156863,188.050682 53.2156863,187.411765 C53.2156863,186.772847 53.7336314,186.254902 54.372549,186.254902 C55.0114667,186.254902 55.5294118,186.772847 55.5294118,187.411765 C55.5294118,188.050682 55.0114667,188.568627 54.372549,188.568627 Z M80.9803922,188.568627 C80.3414745,188.568627 79.8235294,188.050682 79.8235294,187.411765 C79.8235294,186.772847 80.3414745,186.254902 80.9803922,186.254902 C81.6193098,186.254902 82.1372549,186.772847 82.1372549,187.411765 C82.1372549,188.050682 81.6193098,188.568627 80.9803922,188.568627 Z M107.588235,188.568627 C106.949318,188.568627 106.431373,188.050682 106.431373,187.411765 C106.431373,186.772847 106.949318,186.254902 107.588235,186.254902 C108.227153,186.254902 108.745098,186.772847 108.745098,187.411765 C108.745098,188.050682 108.227153,188.568627 107.588235,188.568627 Z M134.196078,188.568627 C133.557161,188.568627 133.039216,188.050682 133.039216,187.411765 C133.039216,186.772847 133.557161,186.254902 134.196078,186.254902 C134.834996,186.254902 135.352941,186.772847 135.352941,187.411765 C135.352941,188.050682 134.834996,188.568627 134.196078,188.568627 Z M160.803922,188.568627 C160.165004,188.568627 159.647059,188.050682 159.647059,187.411765 C159.647059,186.772847 160.165004,186.254902 160.803922,186.254902 C161.442839,186.254902 161.960784,186.772847 161.960784,187.411765 C161.960784,188.050682 161.442839,188.568627 160.803922,188.568627 Z M187.411765,188.568627 C186.772847,188.568627 186.254902,188.050682 186.254902,187.411765 C186.254902,186.772847 186.772847,186.254902 187.411765,186.254902 C188.050682,186.254902 188.568627,186.772847 188.568627,187.411765 C188.568627,188.050682 188.050682,188.568627 187.411765,188.568627 Z M214.019608,188.568627 C213.38069,188.568627 212.862745,188.050682 212.862745,187.411765 C212.862745,186.772847 213.38069,186.254902 214.019608,186.254902 C214.658525,186.254902 215.176471,186.772847 215.176471,187.411765 C215.176471,188.050682 214.658525,188.568627 214.019608,188.568627 Z M1.15686275,215.176471 C0.517945093,215.176471 0,214.658525 0,214.019608 C0,213.38069 0.517945093,212.862745 1.15686275,212.862745 C1.7957804,212.862745 2.31372549,213.38069 2.31372549,214.019608 C2.31372549,214.658525 1.7957804,215.176471 1.15686275,215.176471 Z M27.7647059,215.176471 C27.1257882,215.176471 26.6078431,214.658525 26.6078431,214.019608 C26.6078431,213.38069 27.1257882,212.862745 27.7647059,212.862745 C28.4036235,212.862745 28.9215686,213.38069 28.9215686,214.019608 C28.9215686,214.658525 28.4036235,215.176471 27.7647059,215.176471 Z M54.372549,215.176471 C53.7336314,215.176471 53.2156863,214.658525 53.2156863,214.019608 C53.2156863,213.38069 53.7336314,212.862745 54.372549,212.862745 C55.0114667,212.862745 55.5294118,213.38069 55.5294118,214.019608 C55.5294118,214.658525 55.0114667,215.176471 54.372549,215.176471 Z M80.9803922,215.176471 C80.3414745,215.176471 79.8235294,214.658525 79.8235294,214.019608 C79.8235294,213.38069 80.3414745,212.862745 80.9803922,212.862745 C81.6193098,212.862745 82.1372549,213.38069 82.1372549,214.019608 C82.1372549,214.658525 81.6193098,215.176471 80.9803922,215.176471 Z M107.588235,215.176471 C106.949318,215.176471 106.431373,214.658525 106.431373,214.019608 C106.431373,213.38069 106.949318,212.862745 107.588235,212.862745 C108.227153,212.862745 108.745098,213.38069 108.745098,214.019608 C108.745098,214.658525 108.227153,215.176471 107.588235,215.176471 Z M134.196078,215.176471 C133.557161,215.176471 133.039216,214.658525 133.039216,214.019608 C133.039216,213.38069 133.557161,212.862745 134.196078,212.862745 C134.834996,212.862745 135.352941,213.38069 135.352941,214.019608 C135.352941,214.658525 134.834996,215.176471 134.196078,215.176471 Z M160.803922,215.176471 C160.165004,215.176471 159.647059,214.658525 159.647059,214.019608 C159.647059,213.38069 160.165004,212.862745 160.803922,212.862745 C161.442839,212.862745 161.960784,213.38069 161.960784,214.019608 C161.960784,214.658525 161.442839,215.176471 160.803922,215.176471 Z M187.411765,215.176471 C186.772847,215.176471 186.254902,214.658525 186.254902,214.019608 C186.254902,213.38069 186.772847,212.862745 187.411765,212.862745 C188.050682,212.862745 188.568627,213.38069 188.568627,214.019608 C188.568627,214.658525 188.050682,215.176471 187.411765,215.176471 Z M214.019608,215.176471 C213.38069,215.176471 212.862745,214.658525 212.862745,214.019608 C212.862745,213.38069 213.38069,212.862745 214.019608,212.862745 C214.658525,212.862745 215.176471,213.38069 215.176471,214.019608 C215.176471,214.658525 214.658525,215.176471 214.019608,215.176471 Z M1.15686275,241.784314 C0.517945093,241.784314 0,241.266369 0,240.627451 C0,239.988533 0.517945093,239.470588 1.15686275,239.470588 C1.7957804,239.470588 2.31372549,239.988533 2.31372549,240.627451 C2.31372549,241.266369 1.7957804,241.784314 1.15686275,241.784314 Z M27.7647059,241.784314 C27.1257882,241.784314 26.6078431,241.266369 26.6078431,240.627451 C26.6078431,239.988533 27.1257882,239.470588 27.7647059,239.470588 C28.4036235,239.470588 28.9215686,239.988533 28.9215686,240.627451 C28.9215686,241.266369 28.4036235,241.784314 27.7647059,241.784314 Z M54.372549,241.784314 C53.7336314,241.784314 53.2156863,241.266369 53.2156863,240.627451 C53.2156863,239.988533 53.7336314,239.470588 54.372549,239.470588 C55.0114667,239.470588 55.5294118,239.988533 55.5294118,240.627451 C55.5294118,241.266369 55.0114667,241.784314 54.372549,241.784314 Z M80.9803922,241.784314 C80.3414745,241.784314 79.8235294,241.266369 79.8235294,240.627451 C79.8235294,239.988533 80.3414745,239.470588 80.9803922,239.470588 C81.6193098,239.470588 82.1372549,239.988533 82.1372549,240.627451 C82.1372549,241.266369 81.6193098,241.784314 80.9803922,241.784314 Z M107.588235,241.784314 C106.949318,241.784314 106.431373,241.266369 106.431373,240.627451 C106.431373,239.988533 106.949318,239.470588 107.588235,239.470588 C108.227153,239.470588 108.745098,239.988533 108.745098,240.627451 C108.745098,241.266369 108.227153,241.784314 107.588235,241.784314 Z M134.196078,241.784314 C133.557161,241.784314 133.039216,241.266369 133.039216,240.627451 C133.039216,239.988533 133.557161,239.470588 134.196078,239.470588 C134.834996,239.470588 135.352941,239.988533 135.352941,240.627451 C135.352941,241.266369 134.834996,241.784314 134.196078,241.784314 Z M160.803922,241.784314 C160.165004,241.784314 159.647059,241.266369 159.647059,240.627451 C159.647059,239.988533 160.165004,239.470588 160.803922,239.470588 C161.442839,239.470588 161.960784,239.988533 161.960784,240.627451 C161.960784,241.266369 161.442839,241.784314 160.803922,241.784314 Z M187.411765,241.784314 C186.772847,241.784314 186.254902,241.266369 186.254902,240.627451 C186.254902,239.988533 186.772847,239.470588 187.411765,239.470588 C188.050682,239.470588 188.568627,239.988533 188.568627,240.627451 C188.568627,241.266369 188.050682,241.784314 187.411765,241.784314 Z M214.019608,241.784314 C213.38069,241.784314 212.862745,241.266369 212.862745,240.627451 C212.862745,239.988533 213.38069,239.470588 214.019608,239.470588 C214.658525,239.470588 215.176471,239.988533 215.176471,240.627451 C215.176471,241.266369 214.658525,241.784314 214.019608,241.784314 Z M1.15686275,268.392157 C0.517945093,268.392157 0,267.874212 0,267.235294 C0,266.596376 0.517945093,266.078431 1.15686275,266.078431 C1.7957804,266.078431 2.31372549,266.596376 2.31372549,267.235294 C2.31372549,267.874212 1.7957804,268.392157 1.15686275,268.392157 Z M27.7647059,268.392157 C27.1257882,268.392157 26.6078431,267.874212 26.6078431,267.235294 C26.6078431,266.596376 27.1257882,266.078431 27.7647059,266.078431 C28.4036235,266.078431 28.9215686,266.596376 28.9215686,267.235294 C28.9215686,267.874212 28.4036235,268.392157 27.7647059,268.392157 Z M54.372549,268.392157 C53.7336314,268.392157 53.2156863,267.874212 53.2156863,267.235294 C53.2156863,266.596376 53.7336314,266.078431 54.372549,266.078431 C55.0114667,266.078431 55.5294118,266.596376 55.5294118,267.235294 C55.5294118,267.874212 55.0114667,268.392157 54.372549,268.392157 Z M80.9803922,268.392157 C80.3414745,268.392157 79.8235294,267.874212 79.8235294,267.235294 C79.8235294,266.596376 80.3414745,266.078431 80.9803922,266.078431 C81.6193098,266.078431 82.1372549,266.596376 82.1372549,267.235294 C82.1372549,267.874212 81.6193098,268.392157 80.9803922,268.392157 Z M107.588235,268.392157 C106.949318,268.392157 106.431373,267.874212 106.431373,267.235294 C106.431373,266.596376 106.949318,266.078431 107.588235,266.078431 C108.227153,266.078431 108.745098,266.596376 108.745098,267.235294 C108.745098,267.874212 108.227153,268.392157 107.588235,268.392157 Z M134.196078,268.392157 C133.557161,268.392157 133.039216,267.874212 133.039216,267.235294 C133.039216,266.596376 133.557161,266.078431 134.196078,266.078431 C134.834996,266.078431 135.352941,266.596376 135.352941,267.235294 C135.352941,267.874212 134.834996,268.392157 134.196078,268.392157 Z M160.803922,268.392157 C160.165004,268.392157 159.647059,267.874212 159.647059,267.235294 C159.647059,266.596376 160.165004,266.078431 160.803922,266.078431 C161.442839,266.078431 161.960784,266.596376 161.960784,267.235294 C161.960784,267.874212 161.442839,268.392157 160.803922,268.392157 Z M187.411765,268.392157 C186.772847,268.392157 186.254902,267.874212 186.254902,267.235294 C186.254902,266.596376 186.772847,266.078431 187.411765,266.078431 C188.050682,266.078431 188.568627,266.596376 188.568627,267.235294 C188.568627,267.874212 188.050682,268.392157 187.411765,268.392157 Z M214.019608,268.392157 C213.38069,268.392157 212.862745,267.874212 212.862745,267.235294 C212.862745,266.596376 213.38069,266.078431 214.019608,266.078431 C214.658525,266.078431 215.176471,266.596376 215.176471,267.235294 C215.176471,267.874212 214.658525,268.392157 214.019608,268.392157 Z M1.15686275,295 C0.517945093,295 0,294.482055 0,293.843137 C0,293.20422 0.517945093,292.686275 1.15686275,292.686275 C1.7957804,292.686275 2.31372549,293.20422 2.31372549,293.843137 C2.31372549,294.482055 1.7957804,295 1.15686275,295 Z M27.7647059,295 C27.1257882,295 26.6078431,294.482055 26.6078431,293.843137 C26.6078431,293.20422 27.1257882,292.686275 27.7647059,292.686275 C28.4036235,292.686275 28.9215686,293.20422 28.9215686,293.843137 C28.9215686,294.482055 28.4036235,295 27.7647059,295 Z M54.372549,295 C53.7336314,295 53.2156863,294.482055 53.2156863,293.843137 C53.2156863,293.20422 53.7336314,292.686275 54.372549,292.686275 C55.0114667,292.686275 55.5294118,293.20422 55.5294118,293.843137 C55.5294118,294.482055 55.0114667,295 54.372549,295 Z M80.9803922,295 C80.3414745,295 79.8235294,294.482055 79.8235294,293.843137 C79.8235294,293.20422 80.3414745,292.686275 80.9803922,292.686275 C81.6193098,292.686275 82.1372549,293.20422 82.1372549,293.843137 C82.1372549,294.482055 81.6193098,295 80.9803922,295 Z M107.588235,295 C106.949318,295 106.431373,294.482055 106.431373,293.843137 C106.431373,293.20422 106.949318,292.686275 107.588235,292.686275 C108.227153,292.686275 108.745098,293.20422 108.745098,293.843137 C108.745098,294.482055 108.227153,295 107.588235,295 Z M134.196078,295 C133.557161,295 133.039216,294.482055 133.039216,293.843137 C133.039216,293.20422 133.557161,292.686275 134.196078,292.686275 C134.834996,292.686275 135.352941,293.20422 135.352941,293.843137 C135.352941,294.482055 134.834996,295 134.196078,295 Z M160.803922,295 C160.165004,295 159.647059,294.482055 159.647059,293.843137 C159.647059,293.20422 160.165004,292.686275 160.803922,292.686275 C161.442839,292.686275 161.960784,293.20422 161.960784,293.843137 C161.960784,294.482055 161.442839,295 160.803922,295 Z M187.411765,295 C186.772847,295 186.254902,294.482055 186.254902,293.843137 C186.254902,293.20422 186.772847,292.686275 187.411765,292.686275 C188.050682,292.686275 188.568627,293.20422 188.568627,293.843137 C188.568627,294.482055 188.050682,295 187.411765,295 Z M214.019608,295 C213.38069,295 212.862745,294.482055 212.862745,293.843137 C212.862745,293.20422 213.38069,292.686275 214.019608,292.686275 C214.658525,292.686275 215.176471,293.20422 215.176471,293.843137 C215.176471,294.482055 214.658525,295 214.019608,295 Z"></path>
                            </g>
                        </g>
                        <g id="Icons/dash-Copy" mask="url(#mask-2)" fill="#777777">
                            <g transform="translate(23.137255, 25.450980)" id="dash">
                                <path d="M1.15686275,2.31372549 C0.517945093,2.31372549 0,1.7957804 0,1.15686275 C0,0.517945093 0.517945093,0 1.15686275,0 C1.7957804,0 2.31372549,0.517945093 2.31372549,1.15686275 C2.31372549,1.7957804 1.7957804,2.31372549 1.15686275,2.31372549 Z M27.7647059,2.31372549 C27.1257882,2.31372549 26.6078431,1.7957804 26.6078431,1.15686275 C26.6078431,0.517945093 27.1257882,0 27.7647059,0 C28.4036235,0 28.9215686,0.517945093 28.9215686,1.15686275 C28.9215686,1.7957804 28.4036235,2.31372549 27.7647059,2.31372549 Z M54.372549,2.31372549 C53.7336314,2.31372549 53.2156863,1.7957804 53.2156863,1.15686275 C53.2156863,0.517945093 53.7336314,0 54.372549,0 C55.0114667,0 55.5294118,0.517945093 55.5294118,1.15686275 C55.5294118,1.7957804 55.0114667,2.31372549 54.372549,2.31372549 Z M80.9803922,2.31372549 C80.3414745,2.31372549 79.8235294,1.7957804 79.8235294,1.15686275 C79.8235294,0.517945093 80.3414745,0 80.9803922,0 C81.6193098,0 82.1372549,0.517945093 82.1372549,1.15686275 C82.1372549,1.7957804 81.6193098,2.31372549 80.9803922,2.31372549 Z M107.588235,2.31372549 C106.949318,2.31372549 106.431373,1.7957804 106.431373,1.15686275 C106.431373,0.517945093 106.949318,0 107.588235,0 C108.227153,0 108.745098,0.517945093 108.745098,1.15686275 C108.745098,1.7957804 108.227153,2.31372549 107.588235,2.31372549 Z M134.196078,2.31372549 C133.557161,2.31372549 133.039216,1.7957804 133.039216,1.15686275 C133.039216,0.517945093 133.557161,0 134.196078,0 C134.834996,0 135.352941,0.517945093 135.352941,1.15686275 C135.352941,1.7957804 134.834996,2.31372549 134.196078,2.31372549 Z M160.803922,2.31372549 C160.165004,2.31372549 159.647059,1.7957804 159.647059,1.15686275 C159.647059,0.517945093 160.165004,0 160.803922,0 C161.442839,0 161.960784,0.517945093 161.960784,1.15686275 C161.960784,1.7957804 161.442839,2.31372549 160.803922,2.31372549 Z M187.411765,2.31372549 C186.772847,2.31372549 186.254902,1.7957804 186.254902,1.15686275 C186.254902,0.517945093 186.772847,0 187.411765,0 C188.050682,0 188.568627,0.517945093 188.568627,1.15686275 C188.568627,1.7957804 188.050682,2.31372549 187.411765,2.31372549 Z M214.019608,2.31372549 C213.38069,2.31372549 212.862745,1.7957804 212.862745,1.15686275 C212.862745,0.517945093 213.38069,0 214.019608,0 C214.658525,0 215.176471,0.517945093 215.176471,1.15686275 C215.176471,1.7957804 214.658525,2.31372549 214.019608,2.31372549 Z M1.15686275,28.9215686 C0.517945093,28.9215686 0,28.4036235 0,27.7647059 C0,27.1257882 0.517945093,26.6078431 1.15686275,26.6078431 C1.7957804,26.6078431 2.31372549,27.1257882 2.31372549,27.7647059 C2.31372549,28.4036235 1.7957804,28.9215686 1.15686275,28.9215686 Z M27.7647059,28.9215686 C27.1257882,28.9215686 26.6078431,28.4036235 26.6078431,27.7647059 C26.6078431,27.1257882 27.1257882,26.6078431 27.7647059,26.6078431 C28.4036235,26.6078431 28.9215686,27.1257882 28.9215686,27.7647059 C28.9215686,28.4036235 28.4036235,28.9215686 27.7647059,28.9215686 Z M54.372549,28.9215686 C53.7336314,28.9215686 53.2156863,28.4036235 53.2156863,27.7647059 C53.2156863,27.1257882 53.7336314,26.6078431 54.372549,26.6078431 C55.0114667,26.6078431 55.5294118,27.1257882 55.5294118,27.7647059 C55.5294118,28.4036235 55.0114667,28.9215686 54.372549,28.9215686 Z M80.9803922,28.9215686 C80.3414745,28.9215686 79.8235294,28.4036235 79.8235294,27.7647059 C79.8235294,27.1257882 80.3414745,26.6078431 80.9803922,26.6078431 C81.6193098,26.6078431 82.1372549,27.1257882 82.1372549,27.7647059 C82.1372549,28.4036235 81.6193098,28.9215686 80.9803922,28.9215686 Z M107.588235,28.9215686 C106.949318,28.9215686 106.431373,28.4036235 106.431373,27.7647059 C106.431373,27.1257882 106.949318,26.6078431 107.588235,26.6078431 C108.227153,26.6078431 108.745098,27.1257882 108.745098,27.7647059 C108.745098,28.4036235 108.227153,28.9215686 107.588235,28.9215686 Z M134.196078,28.9215686 C133.557161,28.9215686 133.039216,28.4036235 133.039216,27.7647059 C133.039216,27.1257882 133.557161,26.6078431 134.196078,26.6078431 C134.834996,26.6078431 135.352941,27.1257882 135.352941,27.7647059 C135.352941,28.4036235 134.834996,28.9215686 134.196078,28.9215686 Z M160.803922,28.9215686 C160.165004,28.9215686 159.647059,28.4036235 159.647059,27.7647059 C159.647059,27.1257882 160.165004,26.6078431 160.803922,26.6078431 C161.442839,26.6078431 161.960784,27.1257882 161.960784,27.7647059 C161.960784,28.4036235 161.442839,28.9215686 160.803922,28.9215686 Z M187.411765,28.9215686 C186.772847,28.9215686 186.254902,28.4036235 186.254902,27.7647059 C186.254902,27.1257882 186.772847,26.6078431 187.411765,26.6078431 C188.050682,26.6078431 188.568627,27.1257882 188.568627,27.7647059 C188.568627,28.4036235 188.050682,28.9215686 187.411765,28.9215686 Z M214.019608,28.9215686 C213.38069,28.9215686 212.862745,28.4036235 212.862745,27.7647059 C212.862745,27.1257882 213.38069,26.6078431 214.019608,26.6078431 C214.658525,26.6078431 215.176471,27.1257882 215.176471,27.7647059 C215.176471,28.4036235 214.658525,28.9215686 214.019608,28.9215686 Z M1.15686275,55.5294118 C0.517945093,55.5294118 0,55.0114667 0,54.372549 C0,53.7336314 0.517945093,53.2156863 1.15686275,53.2156863 C1.7957804,53.2156863 2.31372549,53.7336314 2.31372549,54.372549 C2.31372549,55.0114667 1.7957804,55.5294118 1.15686275,55.5294118 Z M27.7647059,55.5294118 C27.1257882,55.5294118 26.6078431,55.0114667 26.6078431,54.372549 C26.6078431,53.7336314 27.1257882,53.2156863 27.7647059,53.2156863 C28.4036235,53.2156863 28.9215686,53.7336314 28.9215686,54.372549 C28.9215686,55.0114667 28.4036235,55.5294118 27.7647059,55.5294118 Z M54.372549,55.5294118 C53.7336314,55.5294118 53.2156863,55.0114667 53.2156863,54.372549 C53.2156863,53.7336314 53.7336314,53.2156863 54.372549,53.2156863 C55.0114667,53.2156863 55.5294118,53.7336314 55.5294118,54.372549 C55.5294118,55.0114667 55.0114667,55.5294118 54.372549,55.5294118 Z M80.9803922,55.5294118 C80.3414745,55.5294118 79.8235294,55.0114667 79.8235294,54.372549 C79.8235294,53.7336314 80.3414745,53.2156863 80.9803922,53.2156863 C81.6193098,53.2156863 82.1372549,53.7336314 82.1372549,54.372549 C82.1372549,55.0114667 81.6193098,55.5294118 80.9803922,55.5294118 Z M107.588235,55.5294118 C106.949318,55.5294118 106.431373,55.0114667 106.431373,54.372549 C106.431373,53.7336314 106.949318,53.2156863 107.588235,53.2156863 C108.227153,53.2156863 108.745098,53.7336314 108.745098,54.372549 C108.745098,55.0114667 108.227153,55.5294118 107.588235,55.5294118 Z M134.196078,55.5294118 C133.557161,55.5294118 133.039216,55.0114667 133.039216,54.372549 C133.039216,53.7336314 133.557161,53.2156863 134.196078,53.2156863 C134.834996,53.2156863 135.352941,53.7336314 135.352941,54.372549 C135.352941,55.0114667 134.834996,55.5294118 134.196078,55.5294118 Z M160.803922,55.5294118 C160.165004,55.5294118 159.647059,55.0114667 159.647059,54.372549 C159.647059,53.7336314 160.165004,53.2156863 160.803922,53.2156863 C161.442839,53.2156863 161.960784,53.7336314 161.960784,54.372549 C161.960784,55.0114667 161.442839,55.5294118 160.803922,55.5294118 Z M187.411765,55.5294118 C186.772847,55.5294118 186.254902,55.0114667 186.254902,54.372549 C186.254902,53.7336314 186.772847,53.2156863 187.411765,53.2156863 C188.050682,53.2156863 188.568627,53.7336314 188.568627,54.372549 C188.568627,55.0114667 188.050682,55.5294118 187.411765,55.5294118 Z M214.019608,55.5294118 C213.38069,55.5294118 212.862745,55.0114667 212.862745,54.372549 C212.862745,53.7336314 213.38069,53.2156863 214.019608,53.2156863 C214.658525,53.2156863 215.176471,53.7336314 215.176471,54.372549 C215.176471,55.0114667 214.658525,55.5294118 214.019608,55.5294118 Z M1.15686275,82.1372549 C0.517945093,82.1372549 0,81.6193098 0,80.9803922 C0,80.3414745 0.517945093,79.8235294 1.15686275,79.8235294 C1.7957804,79.8235294 2.31372549,80.3414745 2.31372549,80.9803922 C2.31372549,81.6193098 1.7957804,82.1372549 1.15686275,82.1372549 Z M27.7647059,82.1372549 C27.1257882,82.1372549 26.6078431,81.6193098 26.6078431,80.9803922 C26.6078431,80.3414745 27.1257882,79.8235294 27.7647059,79.8235294 C28.4036235,79.8235294 28.9215686,80.3414745 28.9215686,80.9803922 C28.9215686,81.6193098 28.4036235,82.1372549 27.7647059,82.1372549 Z M54.372549,82.1372549 C53.7336314,82.1372549 53.2156863,81.6193098 53.2156863,80.9803922 C53.2156863,80.3414745 53.7336314,79.8235294 54.372549,79.8235294 C55.0114667,79.8235294 55.5294118,80.3414745 55.5294118,80.9803922 C55.5294118,81.6193098 55.0114667,82.1372549 54.372549,82.1372549 Z M80.9803922,82.1372549 C80.3414745,82.1372549 79.8235294,81.6193098 79.8235294,80.9803922 C79.8235294,80.3414745 80.3414745,79.8235294 80.9803922,79.8235294 C81.6193098,79.8235294 82.1372549,80.3414745 82.1372549,80.9803922 C82.1372549,81.6193098 81.6193098,82.1372549 80.9803922,82.1372549 Z M107.588235,82.1372549 C106.949318,82.1372549 106.431373,81.6193098 106.431373,80.9803922 C106.431373,80.3414745 106.949318,79.8235294 107.588235,79.8235294 C108.227153,79.8235294 108.745098,80.3414745 108.745098,80.9803922 C108.745098,81.6193098 108.227153,82.1372549 107.588235,82.1372549 Z M134.196078,82.1372549 C133.557161,82.1372549 133.039216,81.6193098 133.039216,80.9803922 C133.039216,80.3414745 133.557161,79.8235294 134.196078,79.8235294 C134.834996,79.8235294 135.352941,80.3414745 135.352941,80.9803922 C135.352941,81.6193098 134.834996,82.1372549 134.196078,82.1372549 Z M160.803922,82.1372549 C160.165004,82.1372549 159.647059,81.6193098 159.647059,80.9803922 C159.647059,80.3414745 160.165004,79.8235294 160.803922,79.8235294 C161.442839,79.8235294 161.960784,80.3414745 161.960784,80.9803922 C161.960784,81.6193098 161.442839,82.1372549 160.803922,82.1372549 Z M187.411765,82.1372549 C186.772847,82.1372549 186.254902,81.6193098 186.254902,80.9803922 C186.254902,80.3414745 186.772847,79.8235294 187.411765,79.8235294 C188.050682,79.8235294 188.568627,80.3414745 188.568627,80.9803922 C188.568627,81.6193098 188.050682,82.1372549 187.411765,82.1372549 Z M214.019608,82.1372549 C213.38069,82.1372549 212.862745,81.6193098 212.862745,80.9803922 C212.862745,80.3414745 213.38069,79.8235294 214.019608,79.8235294 C214.658525,79.8235294 215.176471,80.3414745 215.176471,80.9803922 C215.176471,81.6193098 214.658525,82.1372549 214.019608,82.1372549 Z M1.15686275,108.745098 C0.517945093,108.745098 0,108.227153 0,107.588235 C0,106.949318 0.517945093,106.431373 1.15686275,106.431373 C1.7957804,106.431373 2.31372549,106.949318 2.31372549,107.588235 C2.31372549,108.227153 1.7957804,108.745098 1.15686275,108.745098 Z M27.7647059,108.745098 C27.1257882,108.745098 26.6078431,108.227153 26.6078431,107.588235 C26.6078431,106.949318 27.1257882,106.431373 27.7647059,106.431373 C28.4036235,106.431373 28.9215686,106.949318 28.9215686,107.588235 C28.9215686,108.227153 28.4036235,108.745098 27.7647059,108.745098 Z M54.372549,108.745098 C53.7336314,108.745098 53.2156863,108.227153 53.2156863,107.588235 C53.2156863,106.949318 53.7336314,106.431373 54.372549,106.431373 C55.0114667,106.431373 55.5294118,106.949318 55.5294118,107.588235 C55.5294118,108.227153 55.0114667,108.745098 54.372549,108.745098 Z M80.9803922,108.745098 C80.3414745,108.745098 79.8235294,108.227153 79.8235294,107.588235 C79.8235294,106.949318 80.3414745,106.431373 80.9803922,106.431373 C81.6193098,106.431373 82.1372549,106.949318 82.1372549,107.588235 C82.1372549,108.227153 81.6193098,108.745098 80.9803922,108.745098 Z M107.588235,108.745098 C106.949318,108.745098 106.431373,108.227153 106.431373,107.588235 C106.431373,106.949318 106.949318,106.431373 107.588235,106.431373 C108.227153,106.431373 108.745098,106.949318 108.745098,107.588235 C108.745098,108.227153 108.227153,108.745098 107.588235,108.745098 Z M134.196078,108.745098 C133.557161,108.745098 133.039216,108.227153 133.039216,107.588235 C133.039216,106.949318 133.557161,106.431373 134.196078,106.431373 C134.834996,106.431373 135.352941,106.949318 135.352941,107.588235 C135.352941,108.227153 134.834996,108.745098 134.196078,108.745098 Z M160.803922,108.745098 C160.165004,108.745098 159.647059,108.227153 159.647059,107.588235 C159.647059,106.949318 160.165004,106.431373 160.803922,106.431373 C161.442839,106.431373 161.960784,106.949318 161.960784,107.588235 C161.960784,108.227153 161.442839,108.745098 160.803922,108.745098 Z M187.411765,108.745098 C186.772847,108.745098 186.254902,108.227153 186.254902,107.588235 C186.254902,106.949318 186.772847,106.431373 187.411765,106.431373 C188.050682,106.431373 188.568627,106.949318 188.568627,107.588235 C188.568627,108.227153 188.050682,108.745098 187.411765,108.745098 Z M214.019608,108.745098 C213.38069,108.745098 212.862745,108.227153 212.862745,107.588235 C212.862745,106.949318 213.38069,106.431373 214.019608,106.431373 C214.658525,106.431373 215.176471,106.949318 215.176471,107.588235 C215.176471,108.227153 214.658525,108.745098 214.019608,108.745098 Z M1.15686275,135.352941 C0.517945093,135.352941 0,134.834996 0,134.196078 C0,133.557161 0.517945093,133.039216 1.15686275,133.039216 C1.7957804,133.039216 2.31372549,133.557161 2.31372549,134.196078 C2.31372549,134.834996 1.7957804,135.352941 1.15686275,135.352941 Z M27.7647059,135.352941 C27.1257882,135.352941 26.6078431,134.834996 26.6078431,134.196078 C26.6078431,133.557161 27.1257882,133.039216 27.7647059,133.039216 C28.4036235,133.039216 28.9215686,133.557161 28.9215686,134.196078 C28.9215686,134.834996 28.4036235,135.352941 27.7647059,135.352941 Z M54.372549,135.352941 C53.7336314,135.352941 53.2156863,134.834996 53.2156863,134.196078 C53.2156863,133.557161 53.7336314,133.039216 54.372549,133.039216 C55.0114667,133.039216 55.5294118,133.557161 55.5294118,134.196078 C55.5294118,134.834996 55.0114667,135.352941 54.372549,135.352941 Z M80.9803922,135.352941 C80.3414745,135.352941 79.8235294,134.834996 79.8235294,134.196078 C79.8235294,133.557161 80.3414745,133.039216 80.9803922,133.039216 C81.6193098,133.039216 82.1372549,133.557161 82.1372549,134.196078 C82.1372549,134.834996 81.6193098,135.352941 80.9803922,135.352941 Z M107.588235,135.352941 C106.949318,135.352941 106.431373,134.834996 106.431373,134.196078 C106.431373,133.557161 106.949318,133.039216 107.588235,133.039216 C108.227153,133.039216 108.745098,133.557161 108.745098,134.196078 C108.745098,134.834996 108.227153,135.352941 107.588235,135.352941 Z M134.196078,135.352941 C133.557161,135.352941 133.039216,134.834996 133.039216,134.196078 C133.039216,133.557161 133.557161,133.039216 134.196078,133.039216 C134.834996,133.039216 135.352941,133.557161 135.352941,134.196078 C135.352941,134.834996 134.834996,135.352941 134.196078,135.352941 Z M160.803922,135.352941 C160.165004,135.352941 159.647059,134.834996 159.647059,134.196078 C159.647059,133.557161 160.165004,133.039216 160.803922,133.039216 C161.442839,133.039216 161.960784,133.557161 161.960784,134.196078 C161.960784,134.834996 161.442839,135.352941 160.803922,135.352941 Z M187.411765,135.352941 C186.772847,135.352941 186.254902,134.834996 186.254902,134.196078 C186.254902,133.557161 186.772847,133.039216 187.411765,133.039216 C188.050682,133.039216 188.568627,133.557161 188.568627,134.196078 C188.568627,134.834996 188.050682,135.352941 187.411765,135.352941 Z M214.019608,135.352941 C213.38069,135.352941 212.862745,134.834996 212.862745,134.196078 C212.862745,133.557161 213.38069,133.039216 214.019608,133.039216 C214.658525,133.039216 215.176471,133.557161 215.176471,134.196078 C215.176471,134.834996 214.658525,135.352941 214.019608,135.352941 Z M1.15686275,161.960784 C0.517945093,161.960784 0,161.442839 0,160.803922 C0,160.165004 0.517945093,159.647059 1.15686275,159.647059 C1.7957804,159.647059 2.31372549,160.165004 2.31372549,160.803922 C2.31372549,161.442839 1.7957804,161.960784 1.15686275,161.960784 Z M27.7647059,161.960784 C27.1257882,161.960784 26.6078431,161.442839 26.6078431,160.803922 C26.6078431,160.165004 27.1257882,159.647059 27.7647059,159.647059 C28.4036235,159.647059 28.9215686,160.165004 28.9215686,160.803922 C28.9215686,161.442839 28.4036235,161.960784 27.7647059,161.960784 Z M54.372549,161.960784 C53.7336314,161.960784 53.2156863,161.442839 53.2156863,160.803922 C53.2156863,160.165004 53.7336314,159.647059 54.372549,159.647059 C55.0114667,159.647059 55.5294118,160.165004 55.5294118,160.803922 C55.5294118,161.442839 55.0114667,161.960784 54.372549,161.960784 Z M80.9803922,161.960784 C80.3414745,161.960784 79.8235294,161.442839 79.8235294,160.803922 C79.8235294,160.165004 80.3414745,159.647059 80.9803922,159.647059 C81.6193098,159.647059 82.1372549,160.165004 82.1372549,160.803922 C82.1372549,161.442839 81.6193098,161.960784 80.9803922,161.960784 Z M107.588235,161.960784 C106.949318,161.960784 106.431373,161.442839 106.431373,160.803922 C106.431373,160.165004 106.949318,159.647059 107.588235,159.647059 C108.227153,159.647059 108.745098,160.165004 108.745098,160.803922 C108.745098,161.442839 108.227153,161.960784 107.588235,161.960784 Z M134.196078,161.960784 C133.557161,161.960784 133.039216,161.442839 133.039216,160.803922 C133.039216,160.165004 133.557161,159.647059 134.196078,159.647059 C134.834996,159.647059 135.352941,160.165004 135.352941,160.803922 C135.352941,161.442839 134.834996,161.960784 134.196078,161.960784 Z M160.803922,161.960784 C160.165004,161.960784 159.647059,161.442839 159.647059,160.803922 C159.647059,160.165004 160.165004,159.647059 160.803922,159.647059 C161.442839,159.647059 161.960784,160.165004 161.960784,160.803922 C161.960784,161.442839 161.442839,161.960784 160.803922,161.960784 Z M187.411765,161.960784 C186.772847,161.960784 186.254902,161.442839 186.254902,160.803922 C186.254902,160.165004 186.772847,159.647059 187.411765,159.647059 C188.050682,159.647059 188.568627,160.165004 188.568627,160.803922 C188.568627,161.442839 188.050682,161.960784 187.411765,161.960784 Z M214.019608,161.960784 C213.38069,161.960784 212.862745,161.442839 212.862745,160.803922 C212.862745,160.165004 213.38069,159.647059 214.019608,159.647059 C214.658525,159.647059 215.176471,160.165004 215.176471,160.803922 C215.176471,161.442839 214.658525,161.960784 214.019608,161.960784 Z M1.15686275,188.568627 C0.517945093,188.568627 0,188.050682 0,187.411765 C0,186.772847 0.517945093,186.254902 1.15686275,186.254902 C1.7957804,186.254902 2.31372549,186.772847 2.31372549,187.411765 C2.31372549,188.050682 1.7957804,188.568627 1.15686275,188.568627 Z M27.7647059,188.568627 C27.1257882,188.568627 26.6078431,188.050682 26.6078431,187.411765 C26.6078431,186.772847 27.1257882,186.254902 27.7647059,186.254902 C28.4036235,186.254902 28.9215686,186.772847 28.9215686,187.411765 C28.9215686,188.050682 28.4036235,188.568627 27.7647059,188.568627 Z M54.372549,188.568627 C53.7336314,188.568627 53.2156863,188.050682 53.2156863,187.411765 C53.2156863,186.772847 53.7336314,186.254902 54.372549,186.254902 C55.0114667,186.254902 55.5294118,186.772847 55.5294118,187.411765 C55.5294118,188.050682 55.0114667,188.568627 54.372549,188.568627 Z M80.9803922,188.568627 C80.3414745,188.568627 79.8235294,188.050682 79.8235294,187.411765 C79.8235294,186.772847 80.3414745,186.254902 80.9803922,186.254902 C81.6193098,186.254902 82.1372549,186.772847 82.1372549,187.411765 C82.1372549,188.050682 81.6193098,188.568627 80.9803922,188.568627 Z M107.588235,188.568627 C106.949318,188.568627 106.431373,188.050682 106.431373,187.411765 C106.431373,186.772847 106.949318,186.254902 107.588235,186.254902 C108.227153,186.254902 108.745098,186.772847 108.745098,187.411765 C108.745098,188.050682 108.227153,188.568627 107.588235,188.568627 Z M134.196078,188.568627 C133.557161,188.568627 133.039216,188.050682 133.039216,187.411765 C133.039216,186.772847 133.557161,186.254902 134.196078,186.254902 C134.834996,186.254902 135.352941,186.772847 135.352941,187.411765 C135.352941,188.050682 134.834996,188.568627 134.196078,188.568627 Z M160.803922,188.568627 C160.165004,188.568627 159.647059,188.050682 159.647059,187.411765 C159.647059,186.772847 160.165004,186.254902 160.803922,186.254902 C161.442839,186.254902 161.960784,186.772847 161.960784,187.411765 C161.960784,188.050682 161.442839,188.568627 160.803922,188.568627 Z M187.411765,188.568627 C186.772847,188.568627 186.254902,188.050682 186.254902,187.411765 C186.254902,186.772847 186.772847,186.254902 187.411765,186.254902 C188.050682,186.254902 188.568627,186.772847 188.568627,187.411765 C188.568627,188.050682 188.050682,188.568627 187.411765,188.568627 Z M214.019608,188.568627 C213.38069,188.568627 212.862745,188.050682 212.862745,187.411765 C212.862745,186.772847 213.38069,186.254902 214.019608,186.254902 C214.658525,186.254902 215.176471,186.772847 215.176471,187.411765 C215.176471,188.050682 214.658525,188.568627 214.019608,188.568627 Z M1.15686275,215.176471 C0.517945093,215.176471 0,214.658525 0,214.019608 C0,213.38069 0.517945093,212.862745 1.15686275,212.862745 C1.7957804,212.862745 2.31372549,213.38069 2.31372549,214.019608 C2.31372549,214.658525 1.7957804,215.176471 1.15686275,215.176471 Z M27.7647059,215.176471 C27.1257882,215.176471 26.6078431,214.658525 26.6078431,214.019608 C26.6078431,213.38069 27.1257882,212.862745 27.7647059,212.862745 C28.4036235,212.862745 28.9215686,213.38069 28.9215686,214.019608 C28.9215686,214.658525 28.4036235,215.176471 27.7647059,215.176471 Z M54.372549,215.176471 C53.7336314,215.176471 53.2156863,214.658525 53.2156863,214.019608 C53.2156863,213.38069 53.7336314,212.862745 54.372549,212.862745 C55.0114667,212.862745 55.5294118,213.38069 55.5294118,214.019608 C55.5294118,214.658525 55.0114667,215.176471 54.372549,215.176471 Z M80.9803922,215.176471 C80.3414745,215.176471 79.8235294,214.658525 79.8235294,214.019608 C79.8235294,213.38069 80.3414745,212.862745 80.9803922,212.862745 C81.6193098,212.862745 82.1372549,213.38069 82.1372549,214.019608 C82.1372549,214.658525 81.6193098,215.176471 80.9803922,215.176471 Z M107.588235,215.176471 C106.949318,215.176471 106.431373,214.658525 106.431373,214.019608 C106.431373,213.38069 106.949318,212.862745 107.588235,212.862745 C108.227153,212.862745 108.745098,213.38069 108.745098,214.019608 C108.745098,214.658525 108.227153,215.176471 107.588235,215.176471 Z M134.196078,215.176471 C133.557161,215.176471 133.039216,214.658525 133.039216,214.019608 C133.039216,213.38069 133.557161,212.862745 134.196078,212.862745 C134.834996,212.862745 135.352941,213.38069 135.352941,214.019608 C135.352941,214.658525 134.834996,215.176471 134.196078,215.176471 Z M160.803922,215.176471 C160.165004,215.176471 159.647059,214.658525 159.647059,214.019608 C159.647059,213.38069 160.165004,212.862745 160.803922,212.862745 C161.442839,212.862745 161.960784,213.38069 161.960784,214.019608 C161.960784,214.658525 161.442839,215.176471 160.803922,215.176471 Z M187.411765,215.176471 C186.772847,215.176471 186.254902,214.658525 186.254902,214.019608 C186.254902,213.38069 186.772847,212.862745 187.411765,212.862745 C188.050682,212.862745 188.568627,213.38069 188.568627,214.019608 C188.568627,214.658525 188.050682,215.176471 187.411765,215.176471 Z M214.019608,215.176471 C213.38069,215.176471 212.862745,214.658525 212.862745,214.019608 C212.862745,213.38069 213.38069,212.862745 214.019608,212.862745 C214.658525,212.862745 215.176471,213.38069 215.176471,214.019608 C215.176471,214.658525 214.658525,215.176471 214.019608,215.176471 Z M1.15686275,241.784314 C0.517945093,241.784314 0,241.266369 0,240.627451 C0,239.988533 0.517945093,239.470588 1.15686275,239.470588 C1.7957804,239.470588 2.31372549,239.988533 2.31372549,240.627451 C2.31372549,241.266369 1.7957804,241.784314 1.15686275,241.784314 Z M27.7647059,241.784314 C27.1257882,241.784314 26.6078431,241.266369 26.6078431,240.627451 C26.6078431,239.988533 27.1257882,239.470588 27.7647059,239.470588 C28.4036235,239.470588 28.9215686,239.988533 28.9215686,240.627451 C28.9215686,241.266369 28.4036235,241.784314 27.7647059,241.784314 Z M54.372549,241.784314 C53.7336314,241.784314 53.2156863,241.266369 53.2156863,240.627451 C53.2156863,239.988533 53.7336314,239.470588 54.372549,239.470588 C55.0114667,239.470588 55.5294118,239.988533 55.5294118,240.627451 C55.5294118,241.266369 55.0114667,241.784314 54.372549,241.784314 Z M80.9803922,241.784314 C80.3414745,241.784314 79.8235294,241.266369 79.8235294,240.627451 C79.8235294,239.988533 80.3414745,239.470588 80.9803922,239.470588 C81.6193098,239.470588 82.1372549,239.988533 82.1372549,240.627451 C82.1372549,241.266369 81.6193098,241.784314 80.9803922,241.784314 Z M107.588235,241.784314 C106.949318,241.784314 106.431373,241.266369 106.431373,240.627451 C106.431373,239.988533 106.949318,239.470588 107.588235,239.470588 C108.227153,239.470588 108.745098,239.988533 108.745098,240.627451 C108.745098,241.266369 108.227153,241.784314 107.588235,241.784314 Z M134.196078,241.784314 C133.557161,241.784314 133.039216,241.266369 133.039216,240.627451 C133.039216,239.988533 133.557161,239.470588 134.196078,239.470588 C134.834996,239.470588 135.352941,239.988533 135.352941,240.627451 C135.352941,241.266369 134.834996,241.784314 134.196078,241.784314 Z M160.803922,241.784314 C160.165004,241.784314 159.647059,241.266369 159.647059,240.627451 C159.647059,239.988533 160.165004,239.470588 160.803922,239.470588 C161.442839,239.470588 161.960784,239.988533 161.960784,240.627451 C161.960784,241.266369 161.442839,241.784314 160.803922,241.784314 Z M187.411765,241.784314 C186.772847,241.784314 186.254902,241.266369 186.254902,240.627451 C186.254902,239.988533 186.772847,239.470588 187.411765,239.470588 C188.050682,239.470588 188.568627,239.988533 188.568627,240.627451 C188.568627,241.266369 188.050682,241.784314 187.411765,241.784314 Z M214.019608,241.784314 C213.38069,241.784314 212.862745,241.266369 212.862745,240.627451 C212.862745,239.988533 213.38069,239.470588 214.019608,239.470588 C214.658525,239.470588 215.176471,239.988533 215.176471,240.627451 C215.176471,241.266369 214.658525,241.784314 214.019608,241.784314 Z M1.15686275,268.392157 C0.517945093,268.392157 0,267.874212 0,267.235294 C0,266.596376 0.517945093,266.078431 1.15686275,266.078431 C1.7957804,266.078431 2.31372549,266.596376 2.31372549,267.235294 C2.31372549,267.874212 1.7957804,268.392157 1.15686275,268.392157 Z M27.7647059,268.392157 C27.1257882,268.392157 26.6078431,267.874212 26.6078431,267.235294 C26.6078431,266.596376 27.1257882,266.078431 27.7647059,266.078431 C28.4036235,266.078431 28.9215686,266.596376 28.9215686,267.235294 C28.9215686,267.874212 28.4036235,268.392157 27.7647059,268.392157 Z M54.372549,268.392157 C53.7336314,268.392157 53.2156863,267.874212 53.2156863,267.235294 C53.2156863,266.596376 53.7336314,266.078431 54.372549,266.078431 C55.0114667,266.078431 55.5294118,266.596376 55.5294118,267.235294 C55.5294118,267.874212 55.0114667,268.392157 54.372549,268.392157 Z M80.9803922,268.392157 C80.3414745,268.392157 79.8235294,267.874212 79.8235294,267.235294 C79.8235294,266.596376 80.3414745,266.078431 80.9803922,266.078431 C81.6193098,266.078431 82.1372549,266.596376 82.1372549,267.235294 C82.1372549,267.874212 81.6193098,268.392157 80.9803922,268.392157 Z M107.588235,268.392157 C106.949318,268.392157 106.431373,267.874212 106.431373,267.235294 C106.431373,266.596376 106.949318,266.078431 107.588235,266.078431 C108.227153,266.078431 108.745098,266.596376 108.745098,267.235294 C108.745098,267.874212 108.227153,268.392157 107.588235,268.392157 Z M134.196078,268.392157 C133.557161,268.392157 133.039216,267.874212 133.039216,267.235294 C133.039216,266.596376 133.557161,266.078431 134.196078,266.078431 C134.834996,266.078431 135.352941,266.596376 135.352941,267.235294 C135.352941,267.874212 134.834996,268.392157 134.196078,268.392157 Z M160.803922,268.392157 C160.165004,268.392157 159.647059,267.874212 159.647059,267.235294 C159.647059,266.596376 160.165004,266.078431 160.803922,266.078431 C161.442839,266.078431 161.960784,266.596376 161.960784,267.235294 C161.960784,267.874212 161.442839,268.392157 160.803922,268.392157 Z M187.411765,268.392157 C186.772847,268.392157 186.254902,267.874212 186.254902,267.235294 C186.254902,266.596376 186.772847,266.078431 187.411765,266.078431 C188.050682,266.078431 188.568627,266.596376 188.568627,267.235294 C188.568627,267.874212 188.050682,268.392157 187.411765,268.392157 Z M214.019608,268.392157 C213.38069,268.392157 212.862745,267.874212 212.862745,267.235294 C212.862745,266.596376 213.38069,266.078431 214.019608,266.078431 C214.658525,266.078431 215.176471,266.596376 215.176471,267.235294 C215.176471,267.874212 214.658525,268.392157 214.019608,268.392157 Z M1.15686275,295 C0.517945093,295 0,294.482055 0,293.843137 C0,293.20422 0.517945093,292.686275 1.15686275,292.686275 C1.7957804,292.686275 2.31372549,293.20422 2.31372549,293.843137 C2.31372549,294.482055 1.7957804,295 1.15686275,295 Z M27.7647059,295 C27.1257882,295 26.6078431,294.482055 26.6078431,293.843137 C26.6078431,293.20422 27.1257882,292.686275 27.7647059,292.686275 C28.4036235,292.686275 28.9215686,293.20422 28.9215686,293.843137 C28.9215686,294.482055 28.4036235,295 27.7647059,295 Z M54.372549,295 C53.7336314,295 53.2156863,294.482055 53.2156863,293.843137 C53.2156863,293.20422 53.7336314,292.686275 54.372549,292.686275 C55.0114667,292.686275 55.5294118,293.20422 55.5294118,293.843137 C55.5294118,294.482055 55.0114667,295 54.372549,295 Z M80.9803922,295 C80.3414745,295 79.8235294,294.482055 79.8235294,293.843137 C79.8235294,293.20422 80.3414745,292.686275 80.9803922,292.686275 C81.6193098,292.686275 82.1372549,293.20422 82.1372549,293.843137 C82.1372549,294.482055 81.6193098,295 80.9803922,295 Z M107.588235,295 C106.949318,295 106.431373,294.482055 106.431373,293.843137 C106.431373,293.20422 106.949318,292.686275 107.588235,292.686275 C108.227153,292.686275 108.745098,293.20422 108.745098,293.843137 C108.745098,294.482055 108.227153,295 107.588235,295 Z M134.196078,295 C133.557161,295 133.039216,294.482055 133.039216,293.843137 C133.039216,293.20422 133.557161,292.686275 134.196078,292.686275 C134.834996,292.686275 135.352941,293.20422 135.352941,293.843137 C135.352941,294.482055 134.834996,295 134.196078,295 Z M160.803922,295 C160.165004,295 159.647059,294.482055 159.647059,293.843137 C159.647059,293.20422 160.165004,292.686275 160.803922,292.686275 C161.442839,292.686275 161.960784,293.20422 161.960784,293.843137 C161.960784,294.482055 161.442839,295 160.803922,295 Z M187.411765,295 C186.772847,295 186.254902,294.482055 186.254902,293.843137 C186.254902,293.20422 186.772847,292.686275 187.411765,292.686275 C188.050682,292.686275 188.568627,293.20422 188.568627,293.843137 C188.568627,294.482055 188.050682,295 187.411765,295 Z M214.019608,295 C213.38069,295 212.862745,294.482055 212.862745,293.843137 C212.862745,293.20422 213.38069,292.686275 214.019608,292.686275 C214.658525,292.686275 215.176471,293.20422 215.176471,293.843137 C215.176471,294.482055 214.658525,295 214.019608,295 Z"></path>
                            </g>
                        </g>
                    </g>
                </g>
            </g>
        </g>
    </g>
</svg>