<svg id="SvgjsSvg1000" xmlns="http://www.w3.org/2000/svg" version="1.1" xmlns:xlink="http://www.w3.org/1999/xlink" xmlns:svgjs="http://svgjs.com/svgjs" width="2139" height="239" viewBox="0 0 2139 239"><title>Shape 4 copy 11</title><desc>Created with Avocode.</desc><defs id="SvgjsDefs1001"><clipPath id="SvgjsClipPath1010"><path id="SvgjsPath1009" d="M1146.37 9628.49C1099.3999999999999 9582 1023.3 9582 976.2859999999998 9628.49C929.3479999999998 9674.98 929.3169999999998 9750.36 976.2859999999998 9796.85C1019.7999999999998 9839.890000000001 1088.2299999999998 9843 1135.3799999999999 9806.36L1161.04 9831.730000000001L1181.6 9811.380000000001L1155.9499999999998 9786.01C1192.9799999999998 9739.300000000001 1189.83 9671.53 1146.37 9628.49ZM7.25224 9593.62C-59.1301 9593.62 -113 9646.94 -113 9712.68C-113 9778.42 -59.1301 9831.73 7.2522400000000005 9831.73C73.6792 9831.73 127.503 9778.42 127.503 9712.68C127.503 9646.94 73.67920000000001 9593.62 7.2522400000000005 9593.62ZM1624.29 9593.62C1557.8899999999999 9593.62 1504.04 9646.94 1504.04 9712.68C1504.04 9778.42 1557.8899999999999 9831.73 1624.29 9831.73C1690.69 9831.73 1744.54 9778.42 1744.54 9712.68C1744.54 9646.94 1690.69 9593.62 1624.29 9593.62ZM1343.02 9593.62C1276.62 9593.62 1222.79 9646.94 1222.79 9712.68C1222.79 9778.42 1276.62 9831.73 1343.02 9831.73C1409.41 9831.73 1463.24 9778.42 1463.24 9712.68C1463.24 9646.94 1409.41 9593.62 1343.02 9593.62ZM1989.36 9697.7C1989.3553 9697.701570000001 1989.35134 9697.70289 1989.3478799999998 9697.704160000001C2000.8432099999998 9686.687230000001 2009.1999999999998 9671.276310000001 2009.1999999999998 9654.2C2009.1999999999998 9620.76 1980.61 9593.62 1946.7899999999997 9593.62C1945.1099999999997 9593.62 1800.0699999999997 9593.62 1800.0699999999997 9593.62L1800.0699999999997 9831.1L1951.9699999999998 9831.1C1992.0799999999997 9831.1 2025.9999999999998 9799.11 2025.9999999999998 9759.390000000001C2025.9999999999998 9733.160000000002 2010.5499999999997 9710.250000000002 1989.3599999999997 9697.7ZM415.156 9620.23L513.63 9620.23L513.63 9830.74L542.7139999999999 9830.74L542.7139999999999 9620.23L641.141 9620.23L641.141 9593.619999999999L415.15599999999995 9593.619999999999ZM390.641 9659.12C390.641 9618.75 363.338 9593.62 317.356 9593.62L183.26 9593.62L183.26 9831.37L212.37199999999999 9831.37L212.37199999999999 9725.84L303.017 9725.84L364.625 9831.37L396.747 9831.37L335.094 9725.400000000001C369.371 9719.390000000001 390.64099999999996 9691.770000000002 390.64099999999996 9659.12ZM1343.02 9803.73C1292.24 9803.73 1251.05 9762.949999999999 1251.05 9712.68C1251.05 9662.380000000001 1292.24 9621.630000000001 1343.02 9621.630000000001C1393.82 9621.630000000001 1434.98 9662.380000000001 1434.98 9712.68C1434.98 9762.95 1393.82 9803.73 1343.02 9803.73ZM1624.29 9803.73C1573.52 9803.73 1532.33 9762.949999999999 1532.33 9712.68C1532.33 9662.380000000001 1573.52 9621.630000000001 1624.29 9621.630000000001C1675.09 9621.630000000001 1716.25 9662.380000000001 1716.25 9712.68C1716.25 9762.95 1675.09 9803.73 1624.29 9803.73ZM996.329 9777.03C960.405 9741.5 960.405 9683.87 996.329 9648.29C1032.25 9612.730000000001 1090.48 9612.730000000001 1126.37 9648.29C1162.29 9683.87 1162.29 9741.5 1126.37 9777.03C1090.4799999999998 9812.6 1032.25 9812.6 996.329 9777.03ZM1951.97 9804.23C1951.49 9804.23 1829.14 9804.23 1829.14 9804.23L1829.14 9714.63L1953.1000000000001 9714.71L1953.1000000000001 9714.769999999999C1977.5900000000001 9715.259999999998 1997.3500000000001 9735.029999999999 1997.3500000000001 9759.39C1997.3500000000001 9784.07 1976.9 9804.23 1951.97 9804.23ZM7.25224 9621.63C53.5781 9621.63 91.7916 9655.57 98.1682 9699.67L-83.61720000000001 9699.67C-77.25680000000001 9655.57 -39.059500000000014 9621.63 7.252239999999986 9621.63ZM7.25224 9803.73C-38.8187 9803.73 -76.92699999999999 9770.09 -83.5423 9726.23L98.07719999999999 9726.23C91.4314 9770.09 53.38389999999999 9803.73 7.252239999999986 9803.73ZM212.372 9698.75L212.372 9620.23L316.87800000000004 9620.23C345.09200000000004 9620.23 360.25500000000005 9635.949999999999 360.25500000000005 9660.01C360.25500000000005 9684.47 345.09200000000004 9698.75 315.5590000000001 9698.75ZM1829.14 9620.35C1829.14 9620.35 1946.13 9620.35 1946.7900000000002 9620.35C1965.7400000000002 9620.35 1981.0900000000001 9635.44 1981.0900000000001 9654.2C1981.0900000000001 9672.460000000001 1966.5400000000002 9687.29 1948.2800000000002 9688.08L1829.14 9688.08ZM780.402 9593.62C714.004 9593.62 660.152 9646.94 660.152 9712.68C660.152 9778.42 714.004 9831.73 780.402 9831.73C846.831 9831.73 900.638 9778.42 900.638 9712.68C900.638 9646.94 846.831 9593.62 780.402 9593.62ZM780.402 9621.63C826.714 9621.63 864.9090000000001 9655.57 871.288 9699.67L689.486 9699.67C695.877 9655.57 734.121 9621.63 780.402 9621.63ZM780.402 9803.73C734.303 9803.73 696.2230000000001 9770.09 689.5790000000001 9726.23L871.2410000000001 9726.23C864.5820000000001 9770.09 826.5320000000002 9803.73 780.402 9803.73Z " fill="#ffffff"></path></clipPath></defs><path id="SvgjsPath1007" d="M1146.37 9628.49C1099.3999999999999 9582 1023.3 9582 976.2859999999998 9628.49C929.3479999999998 9674.98 929.3169999999998 9750.36 976.2859999999998 9796.85C1019.7999999999998 9839.890000000001 1088.2299999999998 9843 1135.3799999999999 9806.36L1161.04 9831.730000000001L1181.6 9811.380000000001L1155.9499999999998 9786.01C1192.9799999999998 9739.300000000001 1189.83 9671.53 1146.37 9628.49ZM7.25224 9593.62C-59.1301 9593.62 -113 9646.94 -113 9712.68C-113 9778.42 -59.1301 9831.73 7.2522400000000005 9831.73C73.6792 9831.73 127.503 9778.42 127.503 9712.68C127.503 9646.94 73.67920000000001 9593.62 7.2522400000000005 9593.62ZM1624.29 9593.62C1557.8899999999999 9593.62 1504.04 9646.94 1504.04 9712.68C1504.04 9778.42 1557.8899999999999 9831.73 1624.29 9831.73C1690.69 9831.73 1744.54 9778.42 1744.54 9712.68C1744.54 9646.94 1690.69 9593.62 1624.29 9593.62ZM1343.02 9593.62C1276.62 9593.62 1222.79 9646.94 1222.79 9712.68C1222.79 9778.42 1276.62 9831.73 1343.02 9831.73C1409.41 9831.73 1463.24 9778.42 1463.24 9712.68C1463.24 9646.94 1409.41 9593.62 1343.02 9593.62ZM1989.36 9697.7C1989.3553 9697.701570000001 1989.35134 9697.70289 1989.3478799999998 9697.704160000001C2000.8432099999998 9686.687230000001 2009.1999999999998 9671.276310000001 2009.1999999999998 9654.2C2009.1999999999998 9620.76 1980.61 9593.62 1946.7899999999997 9593.62C1945.1099999999997 9593.62 1800.0699999999997 9593.62 1800.0699999999997 9593.62L1800.0699999999997 9831.1L1951.9699999999998 9831.1C1992.0799999999997 9831.1 2025.9999999999998 9799.11 2025.9999999999998 9759.390000000001C2025.9999999999998 9733.160000000002 2010.5499999999997 9710.250000000002 1989.3599999999997 9697.7ZM415.156 9620.23L513.63 9620.23L513.63 9830.74L542.7139999999999 9830.74L542.7139999999999 9620.23L641.141 9620.23L641.141 9593.619999999999L415.15599999999995 9593.619999999999ZM390.641 9659.12C390.641 9618.75 363.338 9593.62 317.356 9593.62L183.26 9593.62L183.26 9831.37L212.37199999999999 9831.37L212.37199999999999 9725.84L303.017 9725.84L364.625 9831.37L396.747 9831.37L335.094 9725.400000000001C369.371 9719.390000000001 390.64099999999996 9691.770000000002 390.64099999999996 9659.12ZM1343.02 9803.73C1292.24 9803.73 1251.05 9762.949999999999 1251.05 9712.68C1251.05 9662.380000000001 1292.24 9621.630000000001 1343.02 9621.630000000001C1393.82 9621.630000000001 1434.98 9662.380000000001 1434.98 9712.68C1434.98 9762.95 1393.82 9803.73 1343.02 9803.73ZM1624.29 9803.73C1573.52 9803.73 1532.33 9762.949999999999 1532.33 9712.68C1532.33 9662.380000000001 1573.52 9621.630000000001 1624.29 9621.630000000001C1675.09 9621.630000000001 1716.25 9662.380000000001 1716.25 9712.68C1716.25 9762.95 1675.09 9803.73 1624.29 9803.73ZM996.329 9777.03C960.405 9741.5 960.405 9683.87 996.329 9648.29C1032.25 9612.730000000001 1090.48 9612.730000000001 1126.37 9648.29C1162.29 9683.87 1162.29 9741.5 1126.37 9777.03C1090.4799999999998 9812.6 1032.25 9812.6 996.329 9777.03ZM1951.97 9804.23C1951.49 9804.23 1829.14 9804.23 1829.14 9804.23L1829.14 9714.63L1953.1000000000001 9714.71L1953.1000000000001 9714.769999999999C1977.5900000000001 9715.259999999998 1997.3500000000001 9735.029999999999 1997.3500000000001 9759.39C1997.3500000000001 9784.07 1976.9 9804.23 1951.97 9804.23ZM7.25224 9621.63C53.5781 9621.63 91.7916 9655.57 98.1682 9699.67L-83.61720000000001 9699.67C-77.25680000000001 9655.57 -39.059500000000014 9621.63 7.252239999999986 9621.63ZM7.25224 9803.73C-38.8187 9803.73 -76.92699999999999 9770.09 -83.5423 9726.23L98.07719999999999 9726.23C91.4314 9770.09 53.38389999999999 9803.73 7.252239999999986 9803.73ZM212.372 9698.75L212.372 9620.23L316.87800000000004 9620.23C345.09200000000004 9620.23 360.25500000000005 9635.949999999999 360.25500000000005 9660.01C360.25500000000005 9684.47 345.09200000000004 9698.75 315.5590000000001 9698.75ZM1829.14 9620.35C1829.14 9620.35 1946.13 9620.35 1946.7900000000002 9620.35C1965.7400000000002 9620.35 1981.0900000000001 9635.44 1981.0900000000001 9654.2C1981.0900000000001 9672.460000000001 1966.5400000000002 9687.29 1948.2800000000002 9688.08L1829.14 9688.08ZM780.402 9593.62C714.004 9593.62 660.152 9646.94 660.152 9712.68C660.152 9778.42 714.004 9831.73 780.402 9831.73C846.831 9831.73 900.638 9778.42 900.638 9712.68C900.638 9646.94 846.831 9593.62 780.402 9593.62ZM780.402 9621.63C826.714 9621.63 864.9090000000001 9655.57 871.288 9699.67L689.486 9699.67C695.877 9655.57 734.121 9621.63 780.402 9621.63ZM780.402 9803.73C734.303 9803.73 696.2230000000001 9770.09 689.5790000000001 9726.23L871.2410000000001 9726.23C864.5820000000001 9770.09 826.5320000000002 9803.73 780.402 9803.73Z " fill="#606060" fill-opacity="0" transform="matrix(1,0,0,1,113,-9593)"></path><path id="SvgjsPath1008" d="M1146.37 9628.49C1099.3999999999999 9582 1023.3 9582 976.2859999999998 9628.49C929.3479999999998 9674.98 929.3169999999998 9750.36 976.2859999999998 9796.85C1019.7999999999998 9839.890000000001 1088.2299999999998 9843 1135.3799999999999 9806.36L1161.04 9831.730000000001L1181.6 9811.380000000001L1155.9499999999998 9786.01C1192.9799999999998 9739.300000000001 1189.83 9671.53 1146.37 9628.49ZM7.25224 9593.62C-59.1301 9593.62 -113 9646.94 -113 9712.68C-113 9778.42 -59.1301 9831.73 7.2522400000000005 9831.73C73.6792 9831.73 127.503 9778.42 127.503 9712.68C127.503 9646.94 73.67920000000001 9593.62 7.2522400000000005 9593.62ZM1624.29 9593.62C1557.8899999999999 9593.62 1504.04 9646.94 1504.04 9712.68C1504.04 9778.42 1557.8899999999999 9831.73 1624.29 9831.73C1690.69 9831.73 1744.54 9778.42 1744.54 9712.68C1744.54 9646.94 1690.69 9593.62 1624.29 9593.62ZM1343.02 9593.62C1276.62 9593.62 1222.79 9646.94 1222.79 9712.68C1222.79 9778.42 1276.62 9831.73 1343.02 9831.73C1409.41 9831.73 1463.24 9778.42 1463.24 9712.68C1463.24 9646.94 1409.41 9593.62 1343.02 9593.62ZM1989.36 9697.7C1989.3553 9697.701570000001 1989.35134 9697.70289 1989.3478799999998 9697.704160000001C2000.8432099999998 9686.687230000001 2009.1999999999998 9671.276310000001 2009.1999999999998 9654.2C2009.1999999999998 9620.76 1980.61 9593.62 1946.7899999999997 9593.62C1945.1099999999997 9593.62 1800.0699999999997 9593.62 1800.0699999999997 9593.62L1800.0699999999997 9831.1L1951.9699999999998 9831.1C1992.0799999999997 9831.1 2025.9999999999998 9799.11 2025.9999999999998 9759.390000000001C2025.9999999999998 9733.160000000002 2010.5499999999997 9710.250000000002 1989.3599999999997 9697.7ZM415.156 9620.23L513.63 9620.23L513.63 9830.74L542.7139999999999 9830.74L542.7139999999999 9620.23L641.141 9620.23L641.141 9593.619999999999L415.15599999999995 9593.619999999999ZM390.641 9659.12C390.641 9618.75 363.338 9593.62 317.356 9593.62L183.26 9593.62L183.26 9831.37L212.37199999999999 9831.37L212.37199999999999 9725.84L303.017 9725.84L364.625 9831.37L396.747 9831.37L335.094 9725.400000000001C369.371 9719.390000000001 390.64099999999996 9691.770000000002 390.64099999999996 9659.12ZM1343.02 9803.73C1292.24 9803.73 1251.05 9762.949999999999 1251.05 9712.68C1251.05 9662.380000000001 1292.24 9621.630000000001 1343.02 9621.630000000001C1393.82 9621.630000000001 1434.98 9662.380000000001 1434.98 9712.68C1434.98 9762.95 1393.82 9803.73 1343.02 9803.73ZM1624.29 9803.73C1573.52 9803.73 1532.33 9762.949999999999 1532.33 9712.68C1532.33 9662.380000000001 1573.52 9621.630000000001 1624.29 9621.630000000001C1675.09 9621.630000000001 1716.25 9662.380000000001 1716.25 9712.68C1716.25 9762.95 1675.09 9803.73 1624.29 9803.73ZM996.329 9777.03C960.405 9741.5 960.405 9683.87 996.329 9648.29C1032.25 9612.730000000001 1090.48 9612.730000000001 1126.37 9648.29C1162.29 9683.87 1162.29 9741.5 1126.37 9777.03C1090.4799999999998 9812.6 1032.25 9812.6 996.329 9777.03ZM1951.97 9804.23C1951.49 9804.23 1829.14 9804.23 1829.14 9804.23L1829.14 9714.63L1953.1000000000001 9714.71L1953.1000000000001 9714.769999999999C1977.5900000000001 9715.259999999998 1997.3500000000001 9735.029999999999 1997.3500000000001 9759.39C1997.3500000000001 9784.07 1976.9 9804.23 1951.97 9804.23ZM7.25224 9621.63C53.5781 9621.63 91.7916 9655.57 98.1682 9699.67L-83.61720000000001 9699.67C-77.25680000000001 9655.57 -39.059500000000014 9621.63 7.252239999999986 9621.63ZM7.25224 9803.73C-38.8187 9803.73 -76.92699999999999 9770.09 -83.5423 9726.23L98.07719999999999 9726.23C91.4314 9770.09 53.38389999999999 9803.73 7.252239999999986 9803.73ZM212.372 9698.75L212.372 9620.23L316.87800000000004 9620.23C345.09200000000004 9620.23 360.25500000000005 9635.949999999999 360.25500000000005 9660.01C360.25500000000005 9684.47 345.09200000000004 9698.75 315.5590000000001 9698.75ZM1829.14 9620.35C1829.14 9620.35 1946.13 9620.35 1946.7900000000002 9620.35C1965.7400000000002 9620.35 1981.0900000000001 9635.44 1981.0900000000001 9654.2C1981.0900000000001 9672.460000000001 1966.5400000000002 9687.29 1948.2800000000002 9688.08L1829.14 9688.08ZM780.402 9593.62C714.004 9593.62 660.152 9646.94 660.152 9712.68C660.152 9778.42 714.004 9831.73 780.402 9831.73C846.831 9831.73 900.638 9778.42 900.638 9712.68C900.638 9646.94 846.831 9593.62 780.402 9593.62ZM780.402 9621.63C826.714 9621.63 864.9090000000001 9655.57 871.288 9699.67L689.486 9699.67C695.877 9655.57 734.121 9621.63 780.402 9621.63ZM780.402 9803.73C734.303 9803.73 696.2230000000001 9770.09 689.5790000000001 9726.23L871.2410000000001 9726.23C864.5820000000001 9770.09 826.5320000000002 9803.73 780.402 9803.73Z " fill-opacity="0" fill="#ffffff" stroke-dasharray="0" stroke-linejoin="round" stroke-linecap="round" stroke-opacity="1" stroke="#717171" stroke-miterlimit="50" stroke-width="2" clip-path="url(&quot;#SvgjsClipPath1010&quot;)" transform="matrix(1,0,0,1,113,-9593)"></path></svg>