<svg id="SvgjsSvg1018" xmlns="http://www.w3.org/2000/svg" version="1.1" xmlns:xlink="http://www.w3.org/1999/xlink" xmlns:svgjs="http://svgjs.com/svgjs" width="152" height="149" viewBox="0 0 152 149"><title>Shape 3 copy 6</title><desc>Created with Avocode.</desc><defs id="SvgjsDefs1019"></defs><path id="SvgjsPath1020" d="M1014.27 272.999C984.913 244.00000000000003 937.307 244.002 907.958 272.999C878.601 301.99600000000004 878.598 349.005 907.958 377.99600000000004C935.127 404.83700000000005 977.9159999999999 406.773 1007.41 383.92400000000004L1023.42 399.737L1036.28 387.038L1020.28 371.221C1043.3999999999999 342.086 1041.44 299.84000000000003 1014.27 272.999ZM920.471 285.348C942.905 263.178 979.32 263.178 1001.76 285.348C1010.88 294.369 1016.24 305.67400000000004 1017.9399999999999 317.389L904.2839999999999 317.389C905.9829999999998 305.67400000000004 911.3359999999999 294.369 920.4709999999999 285.348ZM920.471 365.641C911.432 356.718 906.103 345.555 904.341 333.96000000000004L1017.89 333.96000000000004C1016.13 345.55500000000006 1010.79 356.718 1001.76 365.641C979.3199999999999 387.81300000000005 942.905 387.81300000000005 920.471 365.641Z " fill="#ffffff" fill-opacity="1" transform="matrix(1,0,0,1,-885,-251)"></path></svg>