<svg id="SvgjsSvg1008" xmlns="http://www.w3.org/2000/svg" version="1.1" xmlns:xlink="http://www.w3.org/1999/xlink" xmlns:svgjs="http://svgjs.com/svgjs" width="363" height="360" viewBox="0 0 363 360"><title>Shape 4 copy 22</title><desc>Created with Avocode.</desc><defs id="SvgjsDefs1009"><clipPath id="SvgjsClipPath1013"><path id="SvgjsPath1012" d="M1086.81 4412.19C1016.0999999999999 4342 901.4259999999999 4342.009999999999 830.7269999999999 4412.19C760.0089999999999 4482.379999999999 759.9999999999999 4596.169999999999 830.7269999999999 4666.339999999999C896.1749999999998 4731.3099999999995 999.2499999999999 4735.999999999999 1070.29 4680.69L1108.8799999999999 4718.969999999999L1139.84 4688.23L1101.29 4649.95C1157 4579.42 1152.27 4477.16 1086.81 4412.19ZM860.868 4442.09C914.9110000000001 4388.42 1002.6300000000001 4388.42 1056.68 4442.09C1078.67 4463.92 1091.5600000000002 4491.28 1095.67 4519.64L821.8760000000001 4519.64C825.969 4491.280000000001 838.863 4463.92 860.868 4442.09ZM860.868 4636.44C839.095 4614.83 826.258 4587.82 822.014 4559.75L1095.54 4559.75C1091.29 4587.82 1078.43 4614.83 1056.68 4636.44C1002.6300000000001 4690.11 914.9110000000001 4690.11 860.868 4636.44Z " fill="#ffffff"></path></clipPath></defs><path id="SvgjsPath1010" d="M1086.81 4412.19C1016.0999999999999 4342 901.4259999999999 4342.009999999999 830.7269999999999 4412.19C760.0089999999999 4482.379999999999 759.9999999999999 4596.169999999999 830.7269999999999 4666.339999999999C896.1749999999998 4731.3099999999995 999.2499999999999 4735.999999999999 1070.29 4680.69L1108.8799999999999 4718.969999999999L1139.84 4688.23L1101.29 4649.95C1157 4579.42 1152.27 4477.16 1086.81 4412.19ZM860.868 4442.09C914.9110000000001 4388.42 1002.6300000000001 4388.42 1056.68 4442.09C1078.67 4463.92 1091.5600000000002 4491.28 1095.67 4519.64L821.8760000000001 4519.64C825.969 4491.280000000001 838.863 4463.92 860.868 4442.09ZM860.868 4636.44C839.095 4614.83 826.258 4587.82 822.014 4559.75L1095.54 4559.75C1091.29 4587.82 1078.43 4614.83 1056.68 4636.44C1002.6300000000001 4690.11 914.9110000000001 4690.11 860.868 4636.44Z " fill="#292b2c" fill-opacity="0" transform="matrix(1,0,0,1,-777,-4359)"></path><path id="SvgjsPath1011" d="M1086.81 4412.19C1016.0999999999999 4342 901.4259999999999 4342.009999999999 830.7269999999999 4412.19C760.0089999999999 4482.379999999999 759.9999999999999 4596.169999999999 830.7269999999999 4666.339999999999C896.1749999999998 4731.3099999999995 999.2499999999999 4735.999999999999 1070.29 4680.69L1108.8799999999999 4718.969999999999L1139.84 4688.23L1101.29 4649.95C1157 4579.42 1152.27 4477.16 1086.81 4412.19ZM860.868 4442.09C914.9110000000001 4388.42 1002.6300000000001 4388.42 1056.68 4442.09C1078.67 4463.92 1091.5600000000002 4491.28 1095.67 4519.64L821.8760000000001 4519.64C825.969 4491.280000000001 838.863 4463.92 860.868 4442.09ZM860.868 4636.44C839.095 4614.83 826.258 4587.82 822.014 4559.75L1095.54 4559.75C1091.29 4587.82 1078.43 4614.83 1056.68 4636.44C1002.6300000000001 4690.11 914.9110000000001 4690.11 860.868 4636.44Z " fill-opacity="0" fill="#ffffff" stroke-dasharray="0" stroke-linejoin="round" stroke-linecap="round" stroke-opacity="1" stroke="#ffffff" stroke-miterlimit="50" stroke-width="2" clip-path="url(&quot;#SvgjsClipPath1013&quot;)" transform="matrix(1,0,0,1,-777,-4359)"></path></svg>