<svg id="SvgjsSvg1021" xmlns="http://www.w3.org/2000/svg" version="1.1" xmlns:xlink="http://www.w3.org/1999/xlink" xmlns:svgjs="http://svgjs.com/svgjs" width="642" height="141" viewBox="0 0 642 141"><title>Shape 4 copy 17</title><desc>Created with Avocode.</desc><defs id="SvgjsDefs1022"></defs><path id="SvgjsPath1023" d="M1017.99 476.679C1003.89 463.039 981.049 463.039 966.939 476.679C952.8499999999999 490.323 952.842 512.441 966.939 526.084C979.9989999999999 538.7139999999999 1000.54 539.626 1014.6899999999999 528.876L1022.39 536.317L1028.56 530.345L1020.8599999999999 522.9C1031.9799999999998 509.19599999999997 1031.03 489.30999999999995 1017.9899999999999 476.679ZM676.092 466.448C656.169 466.448 640 482.092 640 501.38399999999996C640 520.673 656.169 536.317 676.092 536.317C696.03 536.317 712.184 520.673 712.184 501.384C712.184 482.092 696.03 466.44800000000004 676.092 466.44800000000004ZM1161.43 466.448C1141.5 466.448 1125.3400000000001 482.092 1125.3400000000001 501.38399999999996C1125.3400000000001 520.673 1141.5000000000002 536.317 1161.43 536.317C1181.3600000000001 536.317 1197.52 520.673 1197.52 501.384C1197.52 482.092 1181.36 466.44800000000004 1161.43 466.44800000000004ZM908.146 466.448C888.217 466.448 872.054 482.092 872.054 501.38399999999996C872.054 520.673 888.217 536.317 908.146 536.317C928.084 536.317 944.2339999999999 520.673 944.2339999999999 501.384C944.2339999999999 482.092 928.084 466.44800000000004 908.146 466.44800000000004ZM1077.01 466.448C1057.08 466.448 1040.93 482.092 1040.93 501.38399999999996C1040.93 520.673 1057.0800000000002 536.317 1077.01 536.317C1096.94 536.317 1113.09 520.673 1113.09 501.384C1113.09 482.092 1096.9399999999998 466.44800000000004 1077.01 466.44800000000004ZM1271 496.988C1270.9944 496.98968 1270.99194 496.99042 1270.9891 496.9925C1274.44442 493.76206 1276.96 489.2366 1276.96 484.224C1276.96 474.408 1268.38 466.448 1258.23 466.448C1257.72 466.448 1214.19 466.448 1214.19 466.448L1214.19 536.131L1259.78 536.131C1271.82 536.131 1282 526.7479999999999 1282 515.091C1282 507.394 1277.36 500.671 1271 496.988ZM798.521 474.255L828.077 474.255L828.077 536.027L836.806 536.027L836.806 474.25500000000005L866.349 474.25500000000005L866.349 466.44800000000004L798.5210000000001 466.44800000000004ZM791.163 485.669C791.163 473.822 782.968 466.448 769.167 466.448L728.919 466.448L728.919 536.211L737.6569999999999 536.211L737.6569999999999 505.245L764.8629999999999 505.245L783.3549999999999 536.211L792.9949999999999 536.211L774.4909999999999 505.116C784.7789999999999 503.352 791.1629999999999 495.24899999999997 791.1629999999999 485.669ZM1161.43 528.104C1146.19 528.104 1133.8300000000002 516.134 1133.8300000000002 501.384C1133.8300000000002 486.623 1146.19 474.668 1161.43 474.668C1176.68 474.668 1189.03 486.623 1189.03 501.384C1189.03 516.134 1176.68 528.104 1161.43 528.104ZM1077.01 528.104C1061.77 528.104 1049.41 516.134 1049.41 501.384C1049.41 486.623 1061.77 474.668 1077.01 474.668C1092.26 474.668 1104.61 486.623 1104.61 501.384C1104.61 516.134 1092.26 528.104 1077.01 528.104ZM972.955 520.265C962.172 509.841 962.172 492.933 972.955 482.485C983.735 472.058 1001.21 472.058 1011.98 482.485C1022.77 492.933 1022.77 509.841 1011.98 520.265C1001.21 530.706 983.735 530.706 972.955 520.265ZM1259.78 528.248C1259.6399999999999 528.248 1222.92 528.248 1222.92 528.248L1222.92 501.956L1260.1200000000001 501.97900000000004L1260.1200000000001 501.99500000000006C1267.47 502.14000000000004 1273.4 507.9390000000001 1273.4 515.091C1273.4 522.332 1267.26 528.248 1259.7800000000002 528.248ZM908.146 474.668C922.0459999999999 474.668 933.51 484.625 935.424 497.567L880.8589999999999 497.567C882.7769999999999 484.625 894.2549999999999 474.668 908.146 474.668ZM676.092 474.668C689.996 474.668 701.466 484.625 703.38 497.567L648.819 497.567C650.728 484.625 662.193 474.668 676.092 474.668ZM908.146 528.104C894.31 528.104 882.88 518.2320000000001 880.887 505.35900000000004L935.411 505.35900000000004C933.4119999999999 518.2320000000001 921.991 528.104 908.146 528.104ZM676.092 528.104C662.264 528.104 650.827 518.2320000000001 648.842 505.35900000000004L703.353 505.35900000000004C701.358 518.2320000000001 689.938 528.104 676.092 528.104ZM1059.06 577.282L1049.06 601.7420000000001L1039.06 577.282L1033.59 577.282L1030.9399999999998 605.9060000000001L1034.9699999999998 605.9060000000001L1036.7799999999997 581.3870000000001L1046.9099999999999 605.9060000000001L1051.2299999999998 605.9060000000001L1061.3199999999997 581.3870000000001L1063.1499999999996 605.9060000000001L1067.1599999999996 605.9060000000001L1064.5299999999995 577.282ZM737.657 497.296L737.657 474.255L769.024 474.255C777.492 474.255 782.043 478.867 782.043 485.928C782.043 493.102 777.492 497.296 768.628 497.296ZM1222.92 474.291C1222.92 474.291 1258.03 474.291 1258.23 474.291C1263.91 474.291 1268.52 478.721 1268.52 484.224C1268.52 489.58 1264.16 493.935 1258.67 494.164L1222.92 494.164ZM879.263 578.783C877.049 577.37 874.273 576.652 870.9530000000001 576.652C866.3340000000001 576.652 862.6720000000001 577.9920000000001 859.9630000000001 580.6700000000001C857.272 583.3510000000001 855.922 586.9920000000001 855.922 591.595C855.922 596.313 857.238 600.065 859.885 602.842C862.528 605.614 866.106 607 870.634 607C877.6220000000001 607 881.979 604.318 883.706 598.931L878.91 598.931C877.579 602.061 874.8689999999999 603.634 870.778 603.634C867.503 603.634 864.937 602.5790000000001 863.078 600.481C861.2239999999999 598.384 860.2909999999999 595.476 860.2909999999999 591.76C860.2909999999999 588.083 861.209 585.212 863.044 583.141C864.875 581.092 867.4209999999999 580.058 870.701 580.058C874.9 580.058 877.594 581.569 878.798 584.586L883.319 584.586C882.8309999999999 582.139 881.473 580.2040000000001 879.2629999999999 578.783ZM822.303 577.219L811.038 605.9060000000001L815.324 605.9060000000001L818.1759999999999 598.3240000000001L831.4029999999999 598.3240000000001L834.2369999999999 605.9060000000001L838.5369999999998 605.9060000000001L827.2879999999998 577.219ZM912.022 577.219L900.7570000000001 605.9060000000001L905.046 605.9060000000001L907.904 598.3240000000001L921.119 598.3240000000001L923.96 605.9060000000001L928.2560000000001 605.9060000000001L917.008 577.219ZM947.518 605.906L958.457 605.906C963.9929999999999 605.906 968.01 604.4319999999999 970.504 601.4749999999999C972.787 598.781 973.933 595.3789999999999 973.933 591.2509999999999C973.933 587.4009999999998 972.934 584.2369999999999 970.938 581.7779999999999C969.6129999999999 580.1299999999999 967.9879999999999 578.9599999999999 966.045 578.2839999999999C964.116 577.6279999999999 961.429 577.2819999999999 957.9929999999999 577.2819999999999L947.5179999999999 577.2819999999999ZM994.217 577.282L994.217 605.9060000000001L1010.89 605.9060000000001L1010.89 602.22L998.119 602.22L998.119 592.885L1010.27 592.885L1010.27 589.324L998.119 589.324L998.119 580.8309999999999L1010.5500000000001 580.8309999999999L1010.5500000000001 577.2819999999999ZM956.925 580.831C961.438 580.831 964.6819999999999 581.643 966.625 583.261C968.567 584.879 969.536 587.578 969.536 591.341C969.536 598.698 965.6569999999999 602.37 957.923 602.37L951.428 602.37L951.428 580.831ZM909.142 595.071L914.5070000000001 580.023L919.849 595.071ZM819.426 595.071L824.796 580.023L830.129 595.071ZM1106.38 577.282L1098.5600000000002 591.4920000000001L1090.7600000000002 577.282L1086.0800000000002 577.282L1095.7900000000002 593.789C1096.3100000000002 594.6659999999999 1096.5600000000002 595.449 1096.5600000000002 596.122L1096.5600000000002 605.906L1100.4600000000003 605.906L1100.4600000000003 596.227C1100.4600000000003 595.505 1100.5400000000002 594.994 1100.7100000000003 594.6899999999999L1101.1500000000003 593.9639999999999L1110.9600000000003 577.2819999999999Z " fill="#ffffff" fill-opacity="1" transform="matrix(1,0,0,1,-640,-466)"></path></svg>