<?xml version="1.0" encoding="utf-8"?>
<!-- Generator: Adobe Illustrator 20.1.0, SVG Export Plug-In . SVG Version: 6.00 Build 0)  -->
<svg version="1.1" id="SvgjsSvg1021" xmlns:svgjs="http://svgjs.com/svgjs"
	 xmlns="http://www.w3.org/2000/svg" xmlns:xlink="http://www.w3.org/1999/xlink" x="0px" y="0px" viewBox="0 0 642 70.5"
	 style="enable-background:new 0 0 642 70.5;" xml:space="preserve">
<title>Shape 4 copy 17</title>
<desc>Created with Avocode.</desc>
<path id="SvgjsPath1023" style="fill:#FFFFFF;" d="M377.9899902,10.6789856
	c-14.0999756-13.6399841-36.940979-13.6399841-51.0509644,0c-14.0890503,13.6440125-14.0970459,35.7619934,0,49.4049988
	c13.0599976,12.6300049,33.6009521,13.5419922,47.7509766,2.7919922l7.7000122,7.44104l6.1700439-5.9720459l-7.7000732-7.4449463
	C391.9799805,43.1960144,391.0300293,23.3099976,377.9899902,10.6789856z M36.09198,0.447998
	C16.1690063,0.447998,0,16.0920105,0,35.3840027c0,19.2889709,16.1690063,34.9330139,36.09198,34.9330139
	c19.9380493,0,36.092041-15.644043,36.092041-34.9330139C72.184021,16.0920105,56.0300293,0.447998,36.09198,0.447998z
	 M521.4300537,0.447998c-19.9300537,0-36.0900879,15.6440125-36.0900879,34.9360046
	c0,19.2889709,16.1600342,34.9330139,36.0900879,34.9330139c19.9299316,0,36.0899658-15.644043,36.0899658-34.9330139
	C557.5200195,16.0920105,541.3599854,0.447998,521.4300537,0.447998z M268.1459961,0.447998
	c-19.9290161,0-36.09198,15.6440125-36.09198,34.9360046c0,19.2889709,16.1629639,34.9330139,36.09198,34.9330139
	c19.9379883,0,36.0880127-15.644043,36.0880127-34.9330139C304.2340088,16.0920105,288.0839844,0.447998,268.1459961,0.447998z
	 M437.0100098,0.447998c-19.9300537,0-36.0799561,15.6440125-36.0799561,34.9360046
	c0,19.2889709,16.1499023,34.9330139,36.0799561,34.9330139c19.9299316,0,36.0799561-15.644043,36.0799561-34.9330139
	C473.0899658,16.0920105,456.9399414,0.447998,437.0100098,0.447998z M631,30.9880066
	c-0.0056152,0.0016785-0.0080566,0.0024109-0.0108643,0.0044861c3.4553223-3.2304382,5.9708252-7.7558899,5.9708252-12.7684937
	c0-9.8160095-8.5799561-17.776001-18.7299805-17.776001c-0.5100098,0-44.0400391,0-44.0400391,0v69.6829834h45.5900879
	C631.8199463,70.1309814,642,60.7479858,642,49.0910034C642,41.3940125,637.3599854,34.67099,631,30.9880066z
	 M158.5209961,8.2550049h29.5560303v61.7719727h8.7290039V8.2550049h29.5429688V0.447998h-67.8280029V8.2550049z
	 M151.1630249,19.6690063c0-11.8470154-8.1950073-19.2210083-21.9960327-19.2210083H88.9190063v69.7630005h8.7379761V39.2449951
	h27.2059937l18.4920044,30.9660034h9.6400146l-18.5039673-31.0950012
	C144.7789917,37.3519897,151.1630249,29.2489929,151.1630249,19.6690063z M521.4300537,62.1040039
	c-15.2401123,0-27.6000977-11.9700317-27.6000977-26.7200012c0-14.7610168,12.3599854-26.7160034,27.6000977-26.7160034
	c15.25,0,27.5999756,11.9549866,27.5999756,26.7160034C549.0300293,50.1339722,536.6800537,62.1040039,521.4300537,62.1040039z
	 M437.0100098,62.1040039c-15.2399902,0-27.5999756-11.9700317-27.5999756-26.7200012
	c0-14.7610168,12.3599854-26.7160034,27.5999756-26.7160034c15.25,0,27.5999756,11.9549866,27.5999756,26.7160034
	C464.6099854,50.1339722,452.2600098,62.1040039,437.0100098,62.1040039z M332.9550171,54.2650146
	c-10.78302-10.4240112-10.78302-27.3320007,0-37.7800293c10.7799683-10.4269714,28.2550049-10.4269714,39.0249634,0
	c10.7900391,10.4480286,10.7900391,27.3560181,0,37.7800293C361.210022,64.7059937,343.7349854,64.7059937,332.9550171,54.2650146z
	 M619.7800293,62.2479858c-0.1400146,0-36.8599854,0-36.8599854,0V35.9559937l37.1999512,0.0230103v0.0159912
	c7.3499756,0.1450195,13.2800293,5.9440002,13.2800293,13.0960083
	C633.4000244,56.3319702,627.2600098,62.2479858,619.7800293,62.2479858z M268.1459961,8.6679993
	c13.9000244,0,25.3640137,9.9570007,27.2780151,22.8989868h-54.5650024
	C242.7769775,18.625,254.2550049,8.6679993,268.1459961,8.6679993z M36.09198,8.6679993
	c13.9039917,0,25.3740234,9.9570007,27.2880249,22.8989868H8.8189697C10.7280273,18.625,22.1929932,8.6679993,36.09198,8.6679993z
	 M268.1459961,62.1040039c-13.8359985,0-25.2659912-9.8720093-27.2589722-22.7449951h54.5239868
	C293.4119873,52.2319946,281.9910278,62.1040039,268.1459961,62.1040039z M36.09198,62.1040039
	c-13.8280029,0-25.2649536-9.8720093-27.25-22.7449951h54.5110474C61.3579712,52.2319946,49.9379883,62.1040039,36.09198,62.1040039
	z M419.0600586,111.2819824l-10,24.460022l-10-24.460022h-5.4700928l-2.6500244,28.6240234h4.0300293l1.8100586-24.5189819
	l10.1300049,24.5189819h4.3199463l10.0899658-24.5189819l1.8300781,24.5189819h4.0100098l-2.6300049-28.6240234H419.0600586z
	 M97.6569824,31.29599V8.2550049h31.3670044c8.4680176,0,13.019043,4.6119995,13.019043,11.6730042
	c0,7.1739807-4.5510254,11.367981-13.4150391,11.367981H97.6569824z M582.9200439,8.2909851c0,0,35.1099854,0,35.3099365,0
	c5.6800537,0,10.2900391,4.4300232,10.2900391,9.9330139c0,5.3559875-4.3599854,9.7109985-9.8499756,9.9400024h-35.75V8.2909851z
	 M239.2630005,112.78302c-2.2139893-1.4130249-4.9899902-2.1310425-8.3099976-2.1310425
	c-4.6190186,0-8.2810059,1.3400269-10.9899902,4.0180054c-2.69104,2.6810303-4.0410156,6.3220215-4.0410156,10.9249878
	c0,4.7180176,1.315979,8.4700317,3.9630127,11.2470093C222.5280151,139.6140137,226.1060181,141,230.6339722,141
	c6.9880371,0,11.3450317-2.6820068,13.0720215-8.0689697h-4.7960205c-1.3309937,3.1299438-4.0409546,4.7029419-8.131958,4.7029419
	c-3.2750244,0-5.8410034-1.0549927-7.7000122-3.1529541c-1.8540039-2.0970459-2.7869873-5.0050049-2.7869873-8.7210083
	c0-3.677002,0.9179688-6.5480347,2.7529907-8.6190186c1.8309937-2.0490112,4.3770142-3.0830078,7.6569824-3.0830078
	c4.1990356,0,6.8930054,1.5109863,8.0969849,4.5280151h4.5209961
	C242.8309937,116.1389771,241.4730225,114.2039795,239.2630005,112.78302z M182.3029785,111.2189941l-11.2649536,28.6870117
	h4.2859497l2.8520508-7.5820312h13.2269897l2.8339844,7.5820312h4.2999878l-11.2489624-28.6870117H182.3029785z
	 M272.0219727,111.2189941l-11.2649536,28.6870117h4.2890015l2.8579712-7.5820312h13.2150269l2.8410034,7.5820312h4.2959595
	l-11.2479858-28.6870117H272.0219727z M307.5180054,139.9060059h10.9389648c5.5360107,0,9.5530396-1.473999,12.0470581-4.4310303
	c2.282959-2.6939697,3.4289551-6.0959473,3.4289551-10.223999c0-3.8499756-0.9989624-7.0139771-2.9949951-9.4729614
	c-1.3250122-1.6480103-2.9500122-2.8179932-4.8930054-3.4940186c-1.9289551-0.6560059-4.6159668-1.0020142-8.052002-1.0020142
	h-10.4749756V139.9060059z M354.21698,111.2819824v28.6240234h16.6730347v-3.6860352h-12.7709961v-9.3349609h12.151001v-3.5610352
	h-12.151001v-8.492981h12.4309692v-3.5490112H354.21698z M316.9249878,114.8309937
	c4.5130005,0,7.757019,0.8120117,9.7000122,2.4299927c1.9420166,1.618042,2.9110107,4.3170166,2.9110107,8.0800171
	c0,7.3569946-3.8790283,11.0289917-11.6130371,11.0289917h-6.4949951v-21.5390015H316.9249878z M269.1420288,129.0709839
	l5.3649902-15.0479736l5.34198,15.0479736H269.1420288z M179.4260254,129.0709839l5.3699951-15.0479736l5.3330078,15.0479736
	H179.4260254z M466.3800049,111.2819824l-7.8199463,14.210022l-7.8000488-14.210022h-4.6800537l9.710083,16.507019
	c0.5200195,0.8770142,0.7700195,1.6599731,0.7700195,2.3330078v9.7839966h3.8999023v-9.6790161
	c0-0.7219849,0.0800781-1.2329712,0.25-1.5369873l0.4400635-0.7260132l9.8099365-16.6820068H466.3800049z"/>
</svg>
