<svg width="79px" height="79px" viewBox="0 0 79 79" version="1.1" xmlns="http://www.w3.org/2000/svg" xmlns:xlink="http://www.w3.org/1999/xlink">
    <defs>
        <rect id="path-1" x="0" y="0" width="114" height="112"></rect>
    </defs>
    <g id="Page-1" stroke="none" stroke-width="1" fill="none" fill-rule="evenodd" opacity="0.400000006">
        <g id="GBW-general-1920x1080" transform="translate(-131.000000, -4862.000000)">
            <g id="block-5" transform="translate(0.000000, 4325.000000)">
                <g id="text" transform="translate(112.000000, 513.000000)">
                    <g id="1">
                        <g id="dash-1" transform="translate(56.000000, 57.000000) rotate(90.000000) translate(-56.000000, -57.000000) translate(-1.000000, 1.000000)">
                            <mask id="mask-2" fill="white">
                                <use xlink:href="#path-1"></use>
                            </mask>
                            <g id="Mask"></g>
                            <g id="Icons/dash" mask="url(#mask-2)" fill="#777777">
                                <g transform="translate(-124.000000, -23.000000)" id="dash">
                                    <path d="M1.61827957,3.24705882 C0.724528443,3.24705882 0,2.52017995 0,1.62352941 C0,0.726878877 0.724528443,0 1.61827957,0 C2.5120307,0 3.23655914,0.726878877 3.23655914,1.62352941 C3.23655914,2.52017995 2.5120307,3.24705882 1.61827957,3.24705882 Z M38.8387097,3.24705882 C37.9449586,3.24705882 37.2204301,2.52017995 37.2204301,1.62352941 C37.2204301,0.726878877 37.9449586,0 38.8387097,0 C39.7324608,0 40.4569892,0.726878877 40.4569892,1.62352941 C40.4569892,2.52017995 39.7324608,3.24705882 38.8387097,3.24705882 Z M76.0591398,3.24705882 C75.1653887,3.24705882 74.4408602,2.52017995 74.4408602,1.62352941 C74.4408602,0.726878877 75.1653887,0 76.0591398,0 C76.9528909,0 77.6774194,0.726878877 77.6774194,1.62352941 C77.6774194,2.52017995 76.9528909,3.24705882 76.0591398,3.24705882 Z M113.27957,3.24705882 C112.385819,3.24705882 111.66129,2.52017995 111.66129,1.62352941 C111.66129,0.726878877 112.385819,0 113.27957,0 C114.173321,0 114.897849,0.726878877 114.897849,1.62352941 C114.897849,2.52017995 114.173321,3.24705882 113.27957,3.24705882 Z M150.5,3.24705882 C149.606249,3.24705882 148.88172,2.52017995 148.88172,1.62352941 C148.88172,0.726878877 149.606249,0 150.5,0 C151.393751,0 152.11828,0.726878877 152.11828,1.62352941 C152.11828,2.52017995 151.393751,3.24705882 150.5,3.24705882 Z M187.72043,3.24705882 C186.826679,3.24705882 186.102151,2.52017995 186.102151,1.62352941 C186.102151,0.726878877 186.826679,0 187.72043,0 C188.614181,0 189.33871,0.726878877 189.33871,1.62352941 C189.33871,2.52017995 188.614181,3.24705882 187.72043,3.24705882 Z M224.94086,3.24705882 C224.047109,3.24705882 223.322581,2.52017995 223.322581,1.62352941 C223.322581,0.726878877 224.047109,0 224.94086,0 C225.834611,0 226.55914,0.726878877 226.55914,1.62352941 C226.55914,2.52017995 225.834611,3.24705882 224.94086,3.24705882 Z M262.16129,3.24705882 C261.267539,3.24705882 260.543011,2.52017995 260.543011,1.62352941 C260.543011,0.726878877 261.267539,0 262.16129,0 C263.055041,0 263.77957,0.726878877 263.77957,1.62352941 C263.77957,2.52017995 263.055041,3.24705882 262.16129,3.24705882 Z M299.38172,3.24705882 C298.487969,3.24705882 297.763441,2.52017995 297.763441,1.62352941 C297.763441,0.726878877 298.487969,0 299.38172,0 C300.275472,0 301,0.726878877 301,1.62352941 C301,2.52017995 300.275472,3.24705882 299.38172,3.24705882 Z M1.61827957,40.5882353 C0.724528443,40.5882353 0,39.8613564 0,38.9647059 C0,38.0680553 0.724528443,37.3411765 1.61827957,37.3411765 C2.5120307,37.3411765 3.23655914,38.0680553 3.23655914,38.9647059 C3.23655914,39.8613564 2.5120307,40.5882353 1.61827957,40.5882353 Z M38.8387097,40.5882353 C37.9449586,40.5882353 37.2204301,39.8613564 37.2204301,38.9647059 C37.2204301,38.0680553 37.9449586,37.3411765 38.8387097,37.3411765 C39.7324608,37.3411765 40.4569892,38.0680553 40.4569892,38.9647059 C40.4569892,39.8613564 39.7324608,40.5882353 38.8387097,40.5882353 Z M76.0591398,40.5882353 C75.1653887,40.5882353 74.4408602,39.8613564 74.4408602,38.9647059 C74.4408602,38.0680553 75.1653887,37.3411765 76.0591398,37.3411765 C76.9528909,37.3411765 77.6774194,38.0680553 77.6774194,38.9647059 C77.6774194,39.8613564 76.9528909,40.5882353 76.0591398,40.5882353 Z M113.27957,40.5882353 C112.385819,40.5882353 111.66129,39.8613564 111.66129,38.9647059 C111.66129,38.0680553 112.385819,37.3411765 113.27957,37.3411765 C114.173321,37.3411765 114.897849,38.0680553 114.897849,38.9647059 C114.897849,39.8613564 114.173321,40.5882353 113.27957,40.5882353 Z M150.5,40.5882353 C149.606249,40.5882353 148.88172,39.8613564 148.88172,38.9647059 C148.88172,38.0680553 149.606249,37.3411765 150.5,37.3411765 C151.393751,37.3411765 152.11828,38.0680553 152.11828,38.9647059 C152.11828,39.8613564 151.393751,40.5882353 150.5,40.5882353 Z M187.72043,40.5882353 C186.826679,40.5882353 186.102151,39.8613564 186.102151,38.9647059 C186.102151,38.0680553 186.826679,37.3411765 187.72043,37.3411765 C188.614181,37.3411765 189.33871,38.0680553 189.33871,38.9647059 C189.33871,39.8613564 188.614181,40.5882353 187.72043,40.5882353 Z M224.94086,40.5882353 C224.047109,40.5882353 223.322581,39.8613564 223.322581,38.9647059 C223.322581,38.0680553 224.047109,37.3411765 224.94086,37.3411765 C225.834611,37.3411765 226.55914,38.0680553 226.55914,38.9647059 C226.55914,39.8613564 225.834611,40.5882353 224.94086,40.5882353 Z M262.16129,40.5882353 C261.267539,40.5882353 260.543011,39.8613564 260.543011,38.9647059 C260.543011,38.0680553 261.267539,37.3411765 262.16129,37.3411765 C263.055041,37.3411765 263.77957,38.0680553 263.77957,38.9647059 C263.77957,39.8613564 263.055041,40.5882353 262.16129,40.5882353 Z M299.38172,40.5882353 C298.487969,40.5882353 297.763441,39.8613564 297.763441,38.9647059 C297.763441,38.0680553 298.487969,37.3411765 299.38172,37.3411765 C300.275472,37.3411765 301,38.0680553 301,38.9647059 C301,39.8613564 300.275472,40.5882353 299.38172,40.5882353 Z M1.61827957,77.9294118 C0.724528443,77.9294118 0,77.2025329 0,76.3058824 C0,75.4092318 0.724528443,74.6823529 1.61827957,74.6823529 C2.5120307,74.6823529 3.23655914,75.4092318 3.23655914,76.3058824 C3.23655914,77.2025329 2.5120307,77.9294118 1.61827957,77.9294118 Z M38.8387097,77.9294118 C37.9449586,77.9294118 37.2204301,77.2025329 37.2204301,76.3058824 C37.2204301,75.4092318 37.9449586,74.6823529 38.8387097,74.6823529 C39.7324608,74.6823529 40.4569892,75.4092318 40.4569892,76.3058824 C40.4569892,77.2025329 39.7324608,77.9294118 38.8387097,77.9294118 Z M76.0591398,77.9294118 C75.1653887,77.9294118 74.4408602,77.2025329 74.4408602,76.3058824 C74.4408602,75.4092318 75.1653887,74.6823529 76.0591398,74.6823529 C76.9528909,74.6823529 77.6774194,75.4092318 77.6774194,76.3058824 C77.6774194,77.2025329 76.9528909,77.9294118 76.0591398,77.9294118 Z M113.27957,77.9294118 C112.385819,77.9294118 111.66129,77.2025329 111.66129,76.3058824 C111.66129,75.4092318 112.385819,74.6823529 113.27957,74.6823529 C114.173321,74.6823529 114.897849,75.4092318 114.897849,76.3058824 C114.897849,77.2025329 114.173321,77.9294118 113.27957,77.9294118 Z M150.5,77.9294118 C149.606249,77.9294118 148.88172,77.2025329 148.88172,76.3058824 C148.88172,75.4092318 149.606249,74.6823529 150.5,74.6823529 C151.393751,74.6823529 152.11828,75.4092318 152.11828,76.3058824 C152.11828,77.2025329 151.393751,77.9294118 150.5,77.9294118 Z M187.72043,77.9294118 C186.826679,77.9294118 186.102151,77.2025329 186.102151,76.3058824 C186.102151,75.4092318 186.826679,74.6823529 187.72043,74.6823529 C188.614181,74.6823529 189.33871,75.4092318 189.33871,76.3058824 C189.33871,77.2025329 188.614181,77.9294118 187.72043,77.9294118 Z M224.94086,77.9294118 C224.047109,77.9294118 223.322581,77.2025329 223.322581,76.3058824 C223.322581,75.4092318 224.047109,74.6823529 224.94086,74.6823529 C225.834611,74.6823529 226.55914,75.4092318 226.55914,76.3058824 C226.55914,77.2025329 225.834611,77.9294118 224.94086,77.9294118 Z M262.16129,77.9294118 C261.267539,77.9294118 260.543011,77.2025329 260.543011,76.3058824 C260.543011,75.4092318 261.267539,74.6823529 262.16129,74.6823529 C263.055041,74.6823529 263.77957,75.4092318 263.77957,76.3058824 C263.77957,77.2025329 263.055041,77.9294118 262.16129,77.9294118 Z M299.38172,77.9294118 C298.487969,77.9294118 297.763441,77.2025329 297.763441,76.3058824 C297.763441,75.4092318 298.487969,74.6823529 299.38172,74.6823529 C300.275472,74.6823529 301,75.4092318 301,76.3058824 C301,77.2025329 300.275472,77.9294118 299.38172,77.9294118 Z M1.61827957,115.270588 C0.724528443,115.270588 0,114.543709 0,113.647059 C0,112.750408 0.724528443,112.023529 1.61827957,112.023529 C2.5120307,112.023529 3.23655914,112.750408 3.23655914,113.647059 C3.23655914,114.543709 2.5120307,115.270588 1.61827957,115.270588 Z M38.8387097,115.270588 C37.9449586,115.270588 37.2204301,114.543709 37.2204301,113.647059 C37.2204301,112.750408 37.9449586,112.023529 38.8387097,112.023529 C39.7324608,112.023529 40.4569892,112.750408 40.4569892,113.647059 C40.4569892,114.543709 39.7324608,115.270588 38.8387097,115.270588 Z M76.0591398,115.270588 C75.1653887,115.270588 74.4408602,114.543709 74.4408602,113.647059 C74.4408602,112.750408 75.1653887,112.023529 76.0591398,112.023529 C76.9528909,112.023529 77.6774194,112.750408 77.6774194,113.647059 C77.6774194,114.543709 76.9528909,115.270588 76.0591398,115.270588 Z M113.27957,115.270588 C112.385819,115.270588 111.66129,114.543709 111.66129,113.647059 C111.66129,112.750408 112.385819,112.023529 113.27957,112.023529 C114.173321,112.023529 114.897849,112.750408 114.897849,113.647059 C114.897849,114.543709 114.173321,115.270588 113.27957,115.270588 Z M150.5,115.270588 C149.606249,115.270588 148.88172,114.543709 148.88172,113.647059 C148.88172,112.750408 149.606249,112.023529 150.5,112.023529 C151.393751,112.023529 152.11828,112.750408 152.11828,113.647059 C152.11828,114.543709 151.393751,115.270588 150.5,115.270588 Z M187.72043,115.270588 C186.826679,115.270588 186.102151,114.543709 186.102151,113.647059 C186.102151,112.750408 186.826679,112.023529 187.72043,112.023529 C188.614181,112.023529 189.33871,112.750408 189.33871,113.647059 C189.33871,114.543709 188.614181,115.270588 187.72043,115.270588 Z M224.94086,115.270588 C224.047109,115.270588 223.322581,114.543709 223.322581,113.647059 C223.322581,112.750408 224.047109,112.023529 224.94086,112.023529 C225.834611,112.023529 226.55914,112.750408 226.55914,113.647059 C226.55914,114.543709 225.834611,115.270588 224.94086,115.270588 Z M262.16129,115.270588 C261.267539,115.270588 260.543011,114.543709 260.543011,113.647059 C260.543011,112.750408 261.267539,112.023529 262.16129,112.023529 C263.055041,112.023529 263.77957,112.750408 263.77957,113.647059 C263.77957,114.543709 263.055041,115.270588 262.16129,115.270588 Z M299.38172,115.270588 C298.487969,115.270588 297.763441,114.543709 297.763441,113.647059 C297.763441,112.750408 298.487969,112.023529 299.38172,112.023529 C300.275472,112.023529 301,112.750408 301,113.647059 C301,114.543709 300.275472,115.270588 299.38172,115.270588 Z M1.61827957,152.611765 C0.724528443,152.611765 0,151.884886 0,150.988235 C0,150.091585 0.724528443,149.364706 1.61827957,149.364706 C2.5120307,149.364706 3.23655914,150.091585 3.23655914,150.988235 C3.23655914,151.884886 2.5120307,152.611765 1.61827957,152.611765 Z M38.8387097,152.611765 C37.9449586,152.611765 37.2204301,151.884886 37.2204301,150.988235 C37.2204301,150.091585 37.9449586,149.364706 38.8387097,149.364706 C39.7324608,149.364706 40.4569892,150.091585 40.4569892,150.988235 C40.4569892,151.884886 39.7324608,152.611765 38.8387097,152.611765 Z M76.0591398,152.611765 C75.1653887,152.611765 74.4408602,151.884886 74.4408602,150.988235 C74.4408602,150.091585 75.1653887,149.364706 76.0591398,149.364706 C76.9528909,149.364706 77.6774194,150.091585 77.6774194,150.988235 C77.6774194,151.884886 76.9528909,152.611765 76.0591398,152.611765 Z M113.27957,152.611765 C112.385819,152.611765 111.66129,151.884886 111.66129,150.988235 C111.66129,150.091585 112.385819,149.364706 113.27957,149.364706 C114.173321,149.364706 114.897849,150.091585 114.897849,150.988235 C114.897849,151.884886 114.173321,152.611765 113.27957,152.611765 Z M150.5,152.611765 C149.606249,152.611765 148.88172,151.884886 148.88172,150.988235 C148.88172,150.091585 149.606249,149.364706 150.5,149.364706 C151.393751,149.364706 152.11828,150.091585 152.11828,150.988235 C152.11828,151.884886 151.393751,152.611765 150.5,152.611765 Z M187.72043,152.611765 C186.826679,152.611765 186.102151,151.884886 186.102151,150.988235 C186.102151,150.091585 186.826679,149.364706 187.72043,149.364706 C188.614181,149.364706 189.33871,150.091585 189.33871,150.988235 C189.33871,151.884886 188.614181,152.611765 187.72043,152.611765 Z M224.94086,152.611765 C224.047109,152.611765 223.322581,151.884886 223.322581,150.988235 C223.322581,150.091585 224.047109,149.364706 224.94086,149.364706 C225.834611,149.364706 226.55914,150.091585 226.55914,150.988235 C226.55914,151.884886 225.834611,152.611765 224.94086,152.611765 Z M262.16129,152.611765 C261.267539,152.611765 260.543011,151.884886 260.543011,150.988235 C260.543011,150.091585 261.267539,149.364706 262.16129,149.364706 C263.055041,149.364706 263.77957,150.091585 263.77957,150.988235 C263.77957,151.884886 263.055041,152.611765 262.16129,152.611765 Z M299.38172,152.611765 C298.487969,152.611765 297.763441,151.884886 297.763441,150.988235 C297.763441,150.091585 298.487969,149.364706 299.38172,149.364706 C300.275472,149.364706 301,150.091585 301,150.988235 C301,151.884886 300.275472,152.611765 299.38172,152.611765 Z M1.61827957,189.952941 C0.724528443,189.952941 0,189.226062 0,188.329412 C0,187.432761 0.724528443,186.705882 1.61827957,186.705882 C2.5120307,186.705882 3.23655914,187.432761 3.23655914,188.329412 C3.23655914,189.226062 2.5120307,189.952941 1.61827957,189.952941 Z M38.8387097,189.952941 C37.9449586,189.952941 37.2204301,189.226062 37.2204301,188.329412 C37.2204301,187.432761 37.9449586,186.705882 38.8387097,186.705882 C39.7324608,186.705882 40.4569892,187.432761 40.4569892,188.329412 C40.4569892,189.226062 39.7324608,189.952941 38.8387097,189.952941 Z M76.0591398,189.952941 C75.1653887,189.952941 74.4408602,189.226062 74.4408602,188.329412 C74.4408602,187.432761 75.1653887,186.705882 76.0591398,186.705882 C76.9528909,186.705882 77.6774194,187.432761 77.6774194,188.329412 C77.6774194,189.226062 76.9528909,189.952941 76.0591398,189.952941 Z M113.27957,189.952941 C112.385819,189.952941 111.66129,189.226062 111.66129,188.329412 C111.66129,187.432761 112.385819,186.705882 113.27957,186.705882 C114.173321,186.705882 114.897849,187.432761 114.897849,188.329412 C114.897849,189.226062 114.173321,189.952941 113.27957,189.952941 Z M150.5,189.952941 C149.606249,189.952941 148.88172,189.226062 148.88172,188.329412 C148.88172,187.432761 149.606249,186.705882 150.5,186.705882 C151.393751,186.705882 152.11828,187.432761 152.11828,188.329412 C152.11828,189.226062 151.393751,189.952941 150.5,189.952941 Z M187.72043,189.952941 C186.826679,189.952941 186.102151,189.226062 186.102151,188.329412 C186.102151,187.432761 186.826679,186.705882 187.72043,186.705882 C188.614181,186.705882 189.33871,187.432761 189.33871,188.329412 C189.33871,189.226062 188.614181,189.952941 187.72043,189.952941 Z M224.94086,189.952941 C224.047109,189.952941 223.322581,189.226062 223.322581,188.329412 C223.322581,187.432761 224.047109,186.705882 224.94086,186.705882 C225.834611,186.705882 226.55914,187.432761 226.55914,188.329412 C226.55914,189.226062 225.834611,189.952941 224.94086,189.952941 Z M262.16129,189.952941 C261.267539,189.952941 260.543011,189.226062 260.543011,188.329412 C260.543011,187.432761 261.267539,186.705882 262.16129,186.705882 C263.055041,186.705882 263.77957,187.432761 263.77957,188.329412 C263.77957,189.226062 263.055041,189.952941 262.16129,189.952941 Z M299.38172,189.952941 C298.487969,189.952941 297.763441,189.226062 297.763441,188.329412 C297.763441,187.432761 298.487969,186.705882 299.38172,186.705882 C300.275472,186.705882 301,187.432761 301,188.329412 C301,189.226062 300.275472,189.952941 299.38172,189.952941 Z M1.61827957,227.294118 C0.724528443,227.294118 0,226.567239 0,225.670588 C0,224.773938 0.724528443,224.047059 1.61827957,224.047059 C2.5120307,224.047059 3.23655914,224.773938 3.23655914,225.670588 C3.23655914,226.567239 2.5120307,227.294118 1.61827957,227.294118 Z M38.8387097,227.294118 C37.9449586,227.294118 37.2204301,226.567239 37.2204301,225.670588 C37.2204301,224.773938 37.9449586,224.047059 38.8387097,224.047059 C39.7324608,224.047059 40.4569892,224.773938 40.4569892,225.670588 C40.4569892,226.567239 39.7324608,227.294118 38.8387097,227.294118 Z M76.0591398,227.294118 C75.1653887,227.294118 74.4408602,226.567239 74.4408602,225.670588 C74.4408602,224.773938 75.1653887,224.047059 76.0591398,224.047059 C76.9528909,224.047059 77.6774194,224.773938 77.6774194,225.670588 C77.6774194,226.567239 76.9528909,227.294118 76.0591398,227.294118 Z M113.27957,227.294118 C112.385819,227.294118 111.66129,226.567239 111.66129,225.670588 C111.66129,224.773938 112.385819,224.047059 113.27957,224.047059 C114.173321,224.047059 114.897849,224.773938 114.897849,225.670588 C114.897849,226.567239 114.173321,227.294118 113.27957,227.294118 Z M150.5,227.294118 C149.606249,227.294118 148.88172,226.567239 148.88172,225.670588 C148.88172,224.773938 149.606249,224.047059 150.5,224.047059 C151.393751,224.047059 152.11828,224.773938 152.11828,225.670588 C152.11828,226.567239 151.393751,227.294118 150.5,227.294118 Z M187.72043,227.294118 C186.826679,227.294118 186.102151,226.567239 186.102151,225.670588 C186.102151,224.773938 186.826679,224.047059 187.72043,224.047059 C188.614181,224.047059 189.33871,224.773938 189.33871,225.670588 C189.33871,226.567239 188.614181,227.294118 187.72043,227.294118 Z M224.94086,227.294118 C224.047109,227.294118 223.322581,226.567239 223.322581,225.670588 C223.322581,224.773938 224.047109,224.047059 224.94086,224.047059 C225.834611,224.047059 226.55914,224.773938 226.55914,225.670588 C226.55914,226.567239 225.834611,227.294118 224.94086,227.294118 Z M262.16129,227.294118 C261.267539,227.294118 260.543011,226.567239 260.543011,225.670588 C260.543011,224.773938 261.267539,224.047059 262.16129,224.047059 C263.055041,224.047059 263.77957,224.773938 263.77957,225.670588 C263.77957,226.567239 263.055041,227.294118 262.16129,227.294118 Z M299.38172,227.294118 C298.487969,227.294118 297.763441,226.567239 297.763441,225.670588 C297.763441,224.773938 298.487969,224.047059 299.38172,224.047059 C300.275472,224.047059 301,224.773938 301,225.670588 C301,226.567239 300.275472,227.294118 299.38172,227.294118 Z M1.61827957,264.635294 C0.724528443,264.635294 0,263.908415 0,263.011765 C0,262.115114 0.724528443,261.388235 1.61827957,261.388235 C2.5120307,261.388235 3.23655914,262.115114 3.23655914,263.011765 C3.23655914,263.908415 2.5120307,264.635294 1.61827957,264.635294 Z M38.8387097,264.635294 C37.9449586,264.635294 37.2204301,263.908415 37.2204301,263.011765 C37.2204301,262.115114 37.9449586,261.388235 38.8387097,261.388235 C39.7324608,261.388235 40.4569892,262.115114 40.4569892,263.011765 C40.4569892,263.908415 39.7324608,264.635294 38.8387097,264.635294 Z M76.0591398,264.635294 C75.1653887,264.635294 74.4408602,263.908415 74.4408602,263.011765 C74.4408602,262.115114 75.1653887,261.388235 76.0591398,261.388235 C76.9528909,261.388235 77.6774194,262.115114 77.6774194,263.011765 C77.6774194,263.908415 76.9528909,264.635294 76.0591398,264.635294 Z M113.27957,264.635294 C112.385819,264.635294 111.66129,263.908415 111.66129,263.011765 C111.66129,262.115114 112.385819,261.388235 113.27957,261.388235 C114.173321,261.388235 114.897849,262.115114 114.897849,263.011765 C114.897849,263.908415 114.173321,264.635294 113.27957,264.635294 Z M150.5,264.635294 C149.606249,264.635294 148.88172,263.908415 148.88172,263.011765 C148.88172,262.115114 149.606249,261.388235 150.5,261.388235 C151.393751,261.388235 152.11828,262.115114 152.11828,263.011765 C152.11828,263.908415 151.393751,264.635294 150.5,264.635294 Z M187.72043,264.635294 C186.826679,264.635294 186.102151,263.908415 186.102151,263.011765 C186.102151,262.115114 186.826679,261.388235 187.72043,261.388235 C188.614181,261.388235 189.33871,262.115114 189.33871,263.011765 C189.33871,263.908415 188.614181,264.635294 187.72043,264.635294 Z M224.94086,264.635294 C224.047109,264.635294 223.322581,263.908415 223.322581,263.011765 C223.322581,262.115114 224.047109,261.388235 224.94086,261.388235 C225.834611,261.388235 226.55914,262.115114 226.55914,263.011765 C226.55914,263.908415 225.834611,264.635294 224.94086,264.635294 Z M262.16129,264.635294 C261.267539,264.635294 260.543011,263.908415 260.543011,263.011765 C260.543011,262.115114 261.267539,261.388235 262.16129,261.388235 C263.055041,261.388235 263.77957,262.115114 263.77957,263.011765 C263.77957,263.908415 263.055041,264.635294 262.16129,264.635294 Z M299.38172,264.635294 C298.487969,264.635294 297.763441,263.908415 297.763441,263.011765 C297.763441,262.115114 298.487969,261.388235 299.38172,261.388235 C300.275472,261.388235 301,262.115114 301,263.011765 C301,263.908415 300.275472,264.635294 299.38172,264.635294 Z M1.61827957,301.976471 C0.724528443,301.976471 0,301.249592 0,300.352941 C0,299.456291 0.724528443,298.729412 1.61827957,298.729412 C2.5120307,298.729412 3.23655914,299.456291 3.23655914,300.352941 C3.23655914,301.249592 2.5120307,301.976471 1.61827957,301.976471 Z M38.8387097,301.976471 C37.9449586,301.976471 37.2204301,301.249592 37.2204301,300.352941 C37.2204301,299.456291 37.9449586,298.729412 38.8387097,298.729412 C39.7324608,298.729412 40.4569892,299.456291 40.4569892,300.352941 C40.4569892,301.249592 39.7324608,301.976471 38.8387097,301.976471 Z M76.0591398,301.976471 C75.1653887,301.976471 74.4408602,301.249592 74.4408602,300.352941 C74.4408602,299.456291 75.1653887,298.729412 76.0591398,298.729412 C76.9528909,298.729412 77.6774194,299.456291 77.6774194,300.352941 C77.6774194,301.249592 76.9528909,301.976471 76.0591398,301.976471 Z M113.27957,301.976471 C112.385819,301.976471 111.66129,301.249592 111.66129,300.352941 C111.66129,299.456291 112.385819,298.729412 113.27957,298.729412 C114.173321,298.729412 114.897849,299.456291 114.897849,300.352941 C114.897849,301.249592 114.173321,301.976471 113.27957,301.976471 Z M150.5,301.976471 C149.606249,301.976471 148.88172,301.249592 148.88172,300.352941 C148.88172,299.456291 149.606249,298.729412 150.5,298.729412 C151.393751,298.729412 152.11828,299.456291 152.11828,300.352941 C152.11828,301.249592 151.393751,301.976471 150.5,301.976471 Z M187.72043,301.976471 C186.826679,301.976471 186.102151,301.249592 186.102151,300.352941 C186.102151,299.456291 186.826679,298.729412 187.72043,298.729412 C188.614181,298.729412 189.33871,299.456291 189.33871,300.352941 C189.33871,301.249592 188.614181,301.976471 187.72043,301.976471 Z M224.94086,301.976471 C224.047109,301.976471 223.322581,301.249592 223.322581,300.352941 C223.322581,299.456291 224.047109,298.729412 224.94086,298.729412 C225.834611,298.729412 226.55914,299.456291 226.55914,300.352941 C226.55914,301.249592 225.834611,301.976471 224.94086,301.976471 Z M262.16129,301.976471 C261.267539,301.976471 260.543011,301.249592 260.543011,300.352941 C260.543011,299.456291 261.267539,298.729412 262.16129,298.729412 C263.055041,298.729412 263.77957,299.456291 263.77957,300.352941 C263.77957,301.249592 263.055041,301.976471 262.16129,301.976471 Z M299.38172,301.976471 C298.487969,301.976471 297.763441,301.249592 297.763441,300.352941 C297.763441,299.456291 298.487969,298.729412 299.38172,298.729412 C300.275472,298.729412 301,299.456291 301,300.352941 C301,301.249592 300.275472,301.976471 299.38172,301.976471 Z M1.61827957,339.317647 C0.724528443,339.317647 0,338.590768 0,337.694118 C0,336.797467 0.724528443,336.070588 1.61827957,336.070588 C2.5120307,336.070588 3.23655914,336.797467 3.23655914,337.694118 C3.23655914,338.590768 2.5120307,339.317647 1.61827957,339.317647 Z M38.8387097,339.317647 C37.9449586,339.317647 37.2204301,338.590768 37.2204301,337.694118 C37.2204301,336.797467 37.9449586,336.070588 38.8387097,336.070588 C39.7324608,336.070588 40.4569892,336.797467 40.4569892,337.694118 C40.4569892,338.590768 39.7324608,339.317647 38.8387097,339.317647 Z M76.0591398,339.317647 C75.1653887,339.317647 74.4408602,338.590768 74.4408602,337.694118 C74.4408602,336.797467 75.1653887,336.070588 76.0591398,336.070588 C76.9528909,336.070588 77.6774194,336.797467 77.6774194,337.694118 C77.6774194,338.590768 76.9528909,339.317647 76.0591398,339.317647 Z M113.27957,339.317647 C112.385819,339.317647 111.66129,338.590768 111.66129,337.694118 C111.66129,336.797467 112.385819,336.070588 113.27957,336.070588 C114.173321,336.070588 114.897849,336.797467 114.897849,337.694118 C114.897849,338.590768 114.173321,339.317647 113.27957,339.317647 Z M150.5,339.317647 C149.606249,339.317647 148.88172,338.590768 148.88172,337.694118 C148.88172,336.797467 149.606249,336.070588 150.5,336.070588 C151.393751,336.070588 152.11828,336.797467 152.11828,337.694118 C152.11828,338.590768 151.393751,339.317647 150.5,339.317647 Z M187.72043,339.317647 C186.826679,339.317647 186.102151,338.590768 186.102151,337.694118 C186.102151,336.797467 186.826679,336.070588 187.72043,336.070588 C188.614181,336.070588 189.33871,336.797467 189.33871,337.694118 C189.33871,338.590768 188.614181,339.317647 187.72043,339.317647 Z M224.94086,339.317647 C224.047109,339.317647 223.322581,338.590768 223.322581,337.694118 C223.322581,336.797467 224.047109,336.070588 224.94086,336.070588 C225.834611,336.070588 226.55914,336.797467 226.55914,337.694118 C226.55914,338.590768 225.834611,339.317647 224.94086,339.317647 Z M262.16129,339.317647 C261.267539,339.317647 260.543011,338.590768 260.543011,337.694118 C260.543011,336.797467 261.267539,336.070588 262.16129,336.070588 C263.055041,336.070588 263.77957,336.797467 263.77957,337.694118 C263.77957,338.590768 263.055041,339.317647 262.16129,339.317647 Z M299.38172,339.317647 C298.487969,339.317647 297.763441,338.590768 297.763441,337.694118 C297.763441,336.797467 298.487969,336.070588 299.38172,336.070588 C300.275472,336.070588 301,336.797467 301,337.694118 C301,338.590768 300.275472,339.317647 299.38172,339.317647 Z M1.61827957,376.658824 C0.724528443,376.658824 0,375.931945 0,375.035294 C0,374.138644 0.724528443,373.411765 1.61827957,373.411765 C2.5120307,373.411765 3.23655914,374.138644 3.23655914,375.035294 C3.23655914,375.931945 2.5120307,376.658824 1.61827957,376.658824 Z M38.8387097,376.658824 C37.9449586,376.658824 37.2204301,375.931945 37.2204301,375.035294 C37.2204301,374.138644 37.9449586,373.411765 38.8387097,373.411765 C39.7324608,373.411765 40.4569892,374.138644 40.4569892,375.035294 C40.4569892,375.931945 39.7324608,376.658824 38.8387097,376.658824 Z M76.0591398,376.658824 C75.1653887,376.658824 74.4408602,375.931945 74.4408602,375.035294 C74.4408602,374.138644 75.1653887,373.411765 76.0591398,373.411765 C76.9528909,373.411765 77.6774194,374.138644 77.6774194,375.035294 C77.6774194,375.931945 76.9528909,376.658824 76.0591398,376.658824 Z M113.27957,376.658824 C112.385819,376.658824 111.66129,375.931945 111.66129,375.035294 C111.66129,374.138644 112.385819,373.411765 113.27957,373.411765 C114.173321,373.411765 114.897849,374.138644 114.897849,375.035294 C114.897849,375.931945 114.173321,376.658824 113.27957,376.658824 Z M150.5,376.658824 C149.606249,376.658824 148.88172,375.931945 148.88172,375.035294 C148.88172,374.138644 149.606249,373.411765 150.5,373.411765 C151.393751,373.411765 152.11828,374.138644 152.11828,375.035294 C152.11828,375.931945 151.393751,376.658824 150.5,376.658824 Z M187.72043,376.658824 C186.826679,376.658824 186.102151,375.931945 186.102151,375.035294 C186.102151,374.138644 186.826679,373.411765 187.72043,373.411765 C188.614181,373.411765 189.33871,374.138644 189.33871,375.035294 C189.33871,375.931945 188.614181,376.658824 187.72043,376.658824 Z M224.94086,376.658824 C224.047109,376.658824 223.322581,375.931945 223.322581,375.035294 C223.322581,374.138644 224.047109,373.411765 224.94086,373.411765 C225.834611,373.411765 226.55914,374.138644 226.55914,375.035294 C226.55914,375.931945 225.834611,376.658824 224.94086,376.658824 Z M262.16129,376.658824 C261.267539,376.658824 260.543011,375.931945 260.543011,375.035294 C260.543011,374.138644 261.267539,373.411765 262.16129,373.411765 C263.055041,373.411765 263.77957,374.138644 263.77957,375.035294 C263.77957,375.931945 263.055041,376.658824 262.16129,376.658824 Z M299.38172,376.658824 C298.487969,376.658824 297.763441,375.931945 297.763441,375.035294 C297.763441,374.138644 298.487969,373.411765 299.38172,373.411765 C300.275472,373.411765 301,374.138644 301,375.035294 C301,375.931945 300.275472,376.658824 299.38172,376.658824 Z M1.61827957,414 C0.724528443,414 0,413.273121 0,412.376471 C0,411.47982 0.724528443,410.752941 1.61827957,410.752941 C2.5120307,410.752941 3.23655914,411.47982 3.23655914,412.376471 C3.23655914,413.273121 2.5120307,414 1.61827957,414 Z M38.8387097,414 C37.9449586,414 37.2204301,413.273121 37.2204301,412.376471 C37.2204301,411.47982 37.9449586,410.752941 38.8387097,410.752941 C39.7324608,410.752941 40.4569892,411.47982 40.4569892,412.376471 C40.4569892,413.273121 39.7324608,414 38.8387097,414 Z M76.0591398,414 C75.1653887,414 74.4408602,413.273121 74.4408602,412.376471 C74.4408602,411.47982 75.1653887,410.752941 76.0591398,410.752941 C76.9528909,410.752941 77.6774194,411.47982 77.6774194,412.376471 C77.6774194,413.273121 76.9528909,414 76.0591398,414 Z M113.27957,414 C112.385819,414 111.66129,413.273121 111.66129,412.376471 C111.66129,411.47982 112.385819,410.752941 113.27957,410.752941 C114.173321,410.752941 114.897849,411.47982 114.897849,412.376471 C114.897849,413.273121 114.173321,414 113.27957,414 Z M150.5,414 C149.606249,414 148.88172,413.273121 148.88172,412.376471 C148.88172,411.47982 149.606249,410.752941 150.5,410.752941 C151.393751,410.752941 152.11828,411.47982 152.11828,412.376471 C152.11828,413.273121 151.393751,414 150.5,414 Z M187.72043,414 C186.826679,414 186.102151,413.273121 186.102151,412.376471 C186.102151,411.47982 186.826679,410.752941 187.72043,410.752941 C188.614181,410.752941 189.33871,411.47982 189.33871,412.376471 C189.33871,413.273121 188.614181,414 187.72043,414 Z M224.94086,414 C224.047109,414 223.322581,413.273121 223.322581,412.376471 C223.322581,411.47982 224.047109,410.752941 224.94086,410.752941 C225.834611,410.752941 226.55914,411.47982 226.55914,412.376471 C226.55914,413.273121 225.834611,414 224.94086,414 Z M262.16129,414 C261.267539,414 260.543011,413.273121 260.543011,412.376471 C260.543011,411.47982 261.267539,410.752941 262.16129,410.752941 C263.055041,410.752941 263.77957,411.47982 263.77957,412.376471 C263.77957,413.273121 263.055041,414 262.16129,414 Z M299.38172,414 C298.487969,414 297.763441,413.273121 297.763441,412.376471 C297.763441,411.47982 298.487969,410.752941 299.38172,410.752941 C300.275472,410.752941 301,411.47982 301,412.376471 C301,413.273121 300.275472,414 299.38172,414 Z"></path>
                                </g>
                            </g>
                            <g id="Icons/dash-Copy-2" mask="url(#mask-2)" fill="#777777">
                                <g transform="translate(-124.000000, -23.000000)" id="dash">
                                    <path d="M1.61827957,3.24705882 C0.724528443,3.24705882 0,2.52017995 0,1.62352941 C0,0.726878877 0.724528443,0 1.61827957,0 C2.5120307,0 3.23655914,0.726878877 3.23655914,1.62352941 C3.23655914,2.52017995 2.5120307,3.24705882 1.61827957,3.24705882 Z M38.8387097,3.24705882 C37.9449586,3.24705882 37.2204301,2.52017995 37.2204301,1.62352941 C37.2204301,0.726878877 37.9449586,0 38.8387097,0 C39.7324608,0 40.4569892,0.726878877 40.4569892,1.62352941 C40.4569892,2.52017995 39.7324608,3.24705882 38.8387097,3.24705882 Z M76.0591398,3.24705882 C75.1653887,3.24705882 74.4408602,2.52017995 74.4408602,1.62352941 C74.4408602,0.726878877 75.1653887,0 76.0591398,0 C76.9528909,0 77.6774194,0.726878877 77.6774194,1.62352941 C77.6774194,2.52017995 76.9528909,3.24705882 76.0591398,3.24705882 Z M113.27957,3.24705882 C112.385819,3.24705882 111.66129,2.52017995 111.66129,1.62352941 C111.66129,0.726878877 112.385819,0 113.27957,0 C114.173321,0 114.897849,0.726878877 114.897849,1.62352941 C114.897849,2.52017995 114.173321,3.24705882 113.27957,3.24705882 Z M150.5,3.24705882 C149.606249,3.24705882 148.88172,2.52017995 148.88172,1.62352941 C148.88172,0.726878877 149.606249,0 150.5,0 C151.393751,0 152.11828,0.726878877 152.11828,1.62352941 C152.11828,2.52017995 151.393751,3.24705882 150.5,3.24705882 Z M187.72043,3.24705882 C186.826679,3.24705882 186.102151,2.52017995 186.102151,1.62352941 C186.102151,0.726878877 186.826679,0 187.72043,0 C188.614181,0 189.33871,0.726878877 189.33871,1.62352941 C189.33871,2.52017995 188.614181,3.24705882 187.72043,3.24705882 Z M224.94086,3.24705882 C224.047109,3.24705882 223.322581,2.52017995 223.322581,1.62352941 C223.322581,0.726878877 224.047109,0 224.94086,0 C225.834611,0 226.55914,0.726878877 226.55914,1.62352941 C226.55914,2.52017995 225.834611,3.24705882 224.94086,3.24705882 Z M262.16129,3.24705882 C261.267539,3.24705882 260.543011,2.52017995 260.543011,1.62352941 C260.543011,0.726878877 261.267539,0 262.16129,0 C263.055041,0 263.77957,0.726878877 263.77957,1.62352941 C263.77957,2.52017995 263.055041,3.24705882 262.16129,3.24705882 Z M299.38172,3.24705882 C298.487969,3.24705882 297.763441,2.52017995 297.763441,1.62352941 C297.763441,0.726878877 298.487969,0 299.38172,0 C300.275472,0 301,0.726878877 301,1.62352941 C301,2.52017995 300.275472,3.24705882 299.38172,3.24705882 Z M1.61827957,40.5882353 C0.724528443,40.5882353 0,39.8613564 0,38.9647059 C0,38.0680553 0.724528443,37.3411765 1.61827957,37.3411765 C2.5120307,37.3411765 3.23655914,38.0680553 3.23655914,38.9647059 C3.23655914,39.8613564 2.5120307,40.5882353 1.61827957,40.5882353 Z M38.8387097,40.5882353 C37.9449586,40.5882353 37.2204301,39.8613564 37.2204301,38.9647059 C37.2204301,38.0680553 37.9449586,37.3411765 38.8387097,37.3411765 C39.7324608,37.3411765 40.4569892,38.0680553 40.4569892,38.9647059 C40.4569892,39.8613564 39.7324608,40.5882353 38.8387097,40.5882353 Z M76.0591398,40.5882353 C75.1653887,40.5882353 74.4408602,39.8613564 74.4408602,38.9647059 C74.4408602,38.0680553 75.1653887,37.3411765 76.0591398,37.3411765 C76.9528909,37.3411765 77.6774194,38.0680553 77.6774194,38.9647059 C77.6774194,39.8613564 76.9528909,40.5882353 76.0591398,40.5882353 Z M113.27957,40.5882353 C112.385819,40.5882353 111.66129,39.8613564 111.66129,38.9647059 C111.66129,38.0680553 112.385819,37.3411765 113.27957,37.3411765 C114.173321,37.3411765 114.897849,38.0680553 114.897849,38.9647059 C114.897849,39.8613564 114.173321,40.5882353 113.27957,40.5882353 Z M150.5,40.5882353 C149.606249,40.5882353 148.88172,39.8613564 148.88172,38.9647059 C148.88172,38.0680553 149.606249,37.3411765 150.5,37.3411765 C151.393751,37.3411765 152.11828,38.0680553 152.11828,38.9647059 C152.11828,39.8613564 151.393751,40.5882353 150.5,40.5882353 Z M187.72043,40.5882353 C186.826679,40.5882353 186.102151,39.8613564 186.102151,38.9647059 C186.102151,38.0680553 186.826679,37.3411765 187.72043,37.3411765 C188.614181,37.3411765 189.33871,38.0680553 189.33871,38.9647059 C189.33871,39.8613564 188.614181,40.5882353 187.72043,40.5882353 Z M224.94086,40.5882353 C224.047109,40.5882353 223.322581,39.8613564 223.322581,38.9647059 C223.322581,38.0680553 224.047109,37.3411765 224.94086,37.3411765 C225.834611,37.3411765 226.55914,38.0680553 226.55914,38.9647059 C226.55914,39.8613564 225.834611,40.5882353 224.94086,40.5882353 Z M262.16129,40.5882353 C261.267539,40.5882353 260.543011,39.8613564 260.543011,38.9647059 C260.543011,38.0680553 261.267539,37.3411765 262.16129,37.3411765 C263.055041,37.3411765 263.77957,38.0680553 263.77957,38.9647059 C263.77957,39.8613564 263.055041,40.5882353 262.16129,40.5882353 Z M299.38172,40.5882353 C298.487969,40.5882353 297.763441,39.8613564 297.763441,38.9647059 C297.763441,38.0680553 298.487969,37.3411765 299.38172,37.3411765 C300.275472,37.3411765 301,38.0680553 301,38.9647059 C301,39.8613564 300.275472,40.5882353 299.38172,40.5882353 Z M1.61827957,77.9294118 C0.724528443,77.9294118 0,77.2025329 0,76.3058824 C0,75.4092318 0.724528443,74.6823529 1.61827957,74.6823529 C2.5120307,74.6823529 3.23655914,75.4092318 3.23655914,76.3058824 C3.23655914,77.2025329 2.5120307,77.9294118 1.61827957,77.9294118 Z M38.8387097,77.9294118 C37.9449586,77.9294118 37.2204301,77.2025329 37.2204301,76.3058824 C37.2204301,75.4092318 37.9449586,74.6823529 38.8387097,74.6823529 C39.7324608,74.6823529 40.4569892,75.4092318 40.4569892,76.3058824 C40.4569892,77.2025329 39.7324608,77.9294118 38.8387097,77.9294118 Z M76.0591398,77.9294118 C75.1653887,77.9294118 74.4408602,77.2025329 74.4408602,76.3058824 C74.4408602,75.4092318 75.1653887,74.6823529 76.0591398,74.6823529 C76.9528909,74.6823529 77.6774194,75.4092318 77.6774194,76.3058824 C77.6774194,77.2025329 76.9528909,77.9294118 76.0591398,77.9294118 Z M113.27957,77.9294118 C112.385819,77.9294118 111.66129,77.2025329 111.66129,76.3058824 C111.66129,75.4092318 112.385819,74.6823529 113.27957,74.6823529 C114.173321,74.6823529 114.897849,75.4092318 114.897849,76.3058824 C114.897849,77.2025329 114.173321,77.9294118 113.27957,77.9294118 Z M150.5,77.9294118 C149.606249,77.9294118 148.88172,77.2025329 148.88172,76.3058824 C148.88172,75.4092318 149.606249,74.6823529 150.5,74.6823529 C151.393751,74.6823529 152.11828,75.4092318 152.11828,76.3058824 C152.11828,77.2025329 151.393751,77.9294118 150.5,77.9294118 Z M187.72043,77.9294118 C186.826679,77.9294118 186.102151,77.2025329 186.102151,76.3058824 C186.102151,75.4092318 186.826679,74.6823529 187.72043,74.6823529 C188.614181,74.6823529 189.33871,75.4092318 189.33871,76.3058824 C189.33871,77.2025329 188.614181,77.9294118 187.72043,77.9294118 Z M224.94086,77.9294118 C224.047109,77.9294118 223.322581,77.2025329 223.322581,76.3058824 C223.322581,75.4092318 224.047109,74.6823529 224.94086,74.6823529 C225.834611,74.6823529 226.55914,75.4092318 226.55914,76.3058824 C226.55914,77.2025329 225.834611,77.9294118 224.94086,77.9294118 Z M262.16129,77.9294118 C261.267539,77.9294118 260.543011,77.2025329 260.543011,76.3058824 C260.543011,75.4092318 261.267539,74.6823529 262.16129,74.6823529 C263.055041,74.6823529 263.77957,75.4092318 263.77957,76.3058824 C263.77957,77.2025329 263.055041,77.9294118 262.16129,77.9294118 Z M299.38172,77.9294118 C298.487969,77.9294118 297.763441,77.2025329 297.763441,76.3058824 C297.763441,75.4092318 298.487969,74.6823529 299.38172,74.6823529 C300.275472,74.6823529 301,75.4092318 301,76.3058824 C301,77.2025329 300.275472,77.9294118 299.38172,77.9294118 Z M1.61827957,115.270588 C0.724528443,115.270588 0,114.543709 0,113.647059 C0,112.750408 0.724528443,112.023529 1.61827957,112.023529 C2.5120307,112.023529 3.23655914,112.750408 3.23655914,113.647059 C3.23655914,114.543709 2.5120307,115.270588 1.61827957,115.270588 Z M38.8387097,115.270588 C37.9449586,115.270588 37.2204301,114.543709 37.2204301,113.647059 C37.2204301,112.750408 37.9449586,112.023529 38.8387097,112.023529 C39.7324608,112.023529 40.4569892,112.750408 40.4569892,113.647059 C40.4569892,114.543709 39.7324608,115.270588 38.8387097,115.270588 Z M76.0591398,115.270588 C75.1653887,115.270588 74.4408602,114.543709 74.4408602,113.647059 C74.4408602,112.750408 75.1653887,112.023529 76.0591398,112.023529 C76.9528909,112.023529 77.6774194,112.750408 77.6774194,113.647059 C77.6774194,114.543709 76.9528909,115.270588 76.0591398,115.270588 Z M113.27957,115.270588 C112.385819,115.270588 111.66129,114.543709 111.66129,113.647059 C111.66129,112.750408 112.385819,112.023529 113.27957,112.023529 C114.173321,112.023529 114.897849,112.750408 114.897849,113.647059 C114.897849,114.543709 114.173321,115.270588 113.27957,115.270588 Z M150.5,115.270588 C149.606249,115.270588 148.88172,114.543709 148.88172,113.647059 C148.88172,112.750408 149.606249,112.023529 150.5,112.023529 C151.393751,112.023529 152.11828,112.750408 152.11828,113.647059 C152.11828,114.543709 151.393751,115.270588 150.5,115.270588 Z M187.72043,115.270588 C186.826679,115.270588 186.102151,114.543709 186.102151,113.647059 C186.102151,112.750408 186.826679,112.023529 187.72043,112.023529 C188.614181,112.023529 189.33871,112.750408 189.33871,113.647059 C189.33871,114.543709 188.614181,115.270588 187.72043,115.270588 Z M224.94086,115.270588 C224.047109,115.270588 223.322581,114.543709 223.322581,113.647059 C223.322581,112.750408 224.047109,112.023529 224.94086,112.023529 C225.834611,112.023529 226.55914,112.750408 226.55914,113.647059 C226.55914,114.543709 225.834611,115.270588 224.94086,115.270588 Z M262.16129,115.270588 C261.267539,115.270588 260.543011,114.543709 260.543011,113.647059 C260.543011,112.750408 261.267539,112.023529 262.16129,112.023529 C263.055041,112.023529 263.77957,112.750408 263.77957,113.647059 C263.77957,114.543709 263.055041,115.270588 262.16129,115.270588 Z M299.38172,115.270588 C298.487969,115.270588 297.763441,114.543709 297.763441,113.647059 C297.763441,112.750408 298.487969,112.023529 299.38172,112.023529 C300.275472,112.023529 301,112.750408 301,113.647059 C301,114.543709 300.275472,115.270588 299.38172,115.270588 Z M1.61827957,152.611765 C0.724528443,152.611765 0,151.884886 0,150.988235 C0,150.091585 0.724528443,149.364706 1.61827957,149.364706 C2.5120307,149.364706 3.23655914,150.091585 3.23655914,150.988235 C3.23655914,151.884886 2.5120307,152.611765 1.61827957,152.611765 Z M38.8387097,152.611765 C37.9449586,152.611765 37.2204301,151.884886 37.2204301,150.988235 C37.2204301,150.091585 37.9449586,149.364706 38.8387097,149.364706 C39.7324608,149.364706 40.4569892,150.091585 40.4569892,150.988235 C40.4569892,151.884886 39.7324608,152.611765 38.8387097,152.611765 Z M76.0591398,152.611765 C75.1653887,152.611765 74.4408602,151.884886 74.4408602,150.988235 C74.4408602,150.091585 75.1653887,149.364706 76.0591398,149.364706 C76.9528909,149.364706 77.6774194,150.091585 77.6774194,150.988235 C77.6774194,151.884886 76.9528909,152.611765 76.0591398,152.611765 Z M113.27957,152.611765 C112.385819,152.611765 111.66129,151.884886 111.66129,150.988235 C111.66129,150.091585 112.385819,149.364706 113.27957,149.364706 C114.173321,149.364706 114.897849,150.091585 114.897849,150.988235 C114.897849,151.884886 114.173321,152.611765 113.27957,152.611765 Z M150.5,152.611765 C149.606249,152.611765 148.88172,151.884886 148.88172,150.988235 C148.88172,150.091585 149.606249,149.364706 150.5,149.364706 C151.393751,149.364706 152.11828,150.091585 152.11828,150.988235 C152.11828,151.884886 151.393751,152.611765 150.5,152.611765 Z M187.72043,152.611765 C186.826679,152.611765 186.102151,151.884886 186.102151,150.988235 C186.102151,150.091585 186.826679,149.364706 187.72043,149.364706 C188.614181,149.364706 189.33871,150.091585 189.33871,150.988235 C189.33871,151.884886 188.614181,152.611765 187.72043,152.611765 Z M224.94086,152.611765 C224.047109,152.611765 223.322581,151.884886 223.322581,150.988235 C223.322581,150.091585 224.047109,149.364706 224.94086,149.364706 C225.834611,149.364706 226.55914,150.091585 226.55914,150.988235 C226.55914,151.884886 225.834611,152.611765 224.94086,152.611765 Z M262.16129,152.611765 C261.267539,152.611765 260.543011,151.884886 260.543011,150.988235 C260.543011,150.091585 261.267539,149.364706 262.16129,149.364706 C263.055041,149.364706 263.77957,150.091585 263.77957,150.988235 C263.77957,151.884886 263.055041,152.611765 262.16129,152.611765 Z M299.38172,152.611765 C298.487969,152.611765 297.763441,151.884886 297.763441,150.988235 C297.763441,150.091585 298.487969,149.364706 299.38172,149.364706 C300.275472,149.364706 301,150.091585 301,150.988235 C301,151.884886 300.275472,152.611765 299.38172,152.611765 Z M1.61827957,189.952941 C0.724528443,189.952941 0,189.226062 0,188.329412 C0,187.432761 0.724528443,186.705882 1.61827957,186.705882 C2.5120307,186.705882 3.23655914,187.432761 3.23655914,188.329412 C3.23655914,189.226062 2.5120307,189.952941 1.61827957,189.952941 Z M38.8387097,189.952941 C37.9449586,189.952941 37.2204301,189.226062 37.2204301,188.329412 C37.2204301,187.432761 37.9449586,186.705882 38.8387097,186.705882 C39.7324608,186.705882 40.4569892,187.432761 40.4569892,188.329412 C40.4569892,189.226062 39.7324608,189.952941 38.8387097,189.952941 Z M76.0591398,189.952941 C75.1653887,189.952941 74.4408602,189.226062 74.4408602,188.329412 C74.4408602,187.432761 75.1653887,186.705882 76.0591398,186.705882 C76.9528909,186.705882 77.6774194,187.432761 77.6774194,188.329412 C77.6774194,189.226062 76.9528909,189.952941 76.0591398,189.952941 Z M113.27957,189.952941 C112.385819,189.952941 111.66129,189.226062 111.66129,188.329412 C111.66129,187.432761 112.385819,186.705882 113.27957,186.705882 C114.173321,186.705882 114.897849,187.432761 114.897849,188.329412 C114.897849,189.226062 114.173321,189.952941 113.27957,189.952941 Z M150.5,189.952941 C149.606249,189.952941 148.88172,189.226062 148.88172,188.329412 C148.88172,187.432761 149.606249,186.705882 150.5,186.705882 C151.393751,186.705882 152.11828,187.432761 152.11828,188.329412 C152.11828,189.226062 151.393751,189.952941 150.5,189.952941 Z M187.72043,189.952941 C186.826679,189.952941 186.102151,189.226062 186.102151,188.329412 C186.102151,187.432761 186.826679,186.705882 187.72043,186.705882 C188.614181,186.705882 189.33871,187.432761 189.33871,188.329412 C189.33871,189.226062 188.614181,189.952941 187.72043,189.952941 Z M224.94086,189.952941 C224.047109,189.952941 223.322581,189.226062 223.322581,188.329412 C223.322581,187.432761 224.047109,186.705882 224.94086,186.705882 C225.834611,186.705882 226.55914,187.432761 226.55914,188.329412 C226.55914,189.226062 225.834611,189.952941 224.94086,189.952941 Z M262.16129,189.952941 C261.267539,189.952941 260.543011,189.226062 260.543011,188.329412 C260.543011,187.432761 261.267539,186.705882 262.16129,186.705882 C263.055041,186.705882 263.77957,187.432761 263.77957,188.329412 C263.77957,189.226062 263.055041,189.952941 262.16129,189.952941 Z M299.38172,189.952941 C298.487969,189.952941 297.763441,189.226062 297.763441,188.329412 C297.763441,187.432761 298.487969,186.705882 299.38172,186.705882 C300.275472,186.705882 301,187.432761 301,188.329412 C301,189.226062 300.275472,189.952941 299.38172,189.952941 Z M1.61827957,227.294118 C0.724528443,227.294118 0,226.567239 0,225.670588 C0,224.773938 0.724528443,224.047059 1.61827957,224.047059 C2.5120307,224.047059 3.23655914,224.773938 3.23655914,225.670588 C3.23655914,226.567239 2.5120307,227.294118 1.61827957,227.294118 Z M38.8387097,227.294118 C37.9449586,227.294118 37.2204301,226.567239 37.2204301,225.670588 C37.2204301,224.773938 37.9449586,224.047059 38.8387097,224.047059 C39.7324608,224.047059 40.4569892,224.773938 40.4569892,225.670588 C40.4569892,226.567239 39.7324608,227.294118 38.8387097,227.294118 Z M76.0591398,227.294118 C75.1653887,227.294118 74.4408602,226.567239 74.4408602,225.670588 C74.4408602,224.773938 75.1653887,224.047059 76.0591398,224.047059 C76.9528909,224.047059 77.6774194,224.773938 77.6774194,225.670588 C77.6774194,226.567239 76.9528909,227.294118 76.0591398,227.294118 Z M113.27957,227.294118 C112.385819,227.294118 111.66129,226.567239 111.66129,225.670588 C111.66129,224.773938 112.385819,224.047059 113.27957,224.047059 C114.173321,224.047059 114.897849,224.773938 114.897849,225.670588 C114.897849,226.567239 114.173321,227.294118 113.27957,227.294118 Z M150.5,227.294118 C149.606249,227.294118 148.88172,226.567239 148.88172,225.670588 C148.88172,224.773938 149.606249,224.047059 150.5,224.047059 C151.393751,224.047059 152.11828,224.773938 152.11828,225.670588 C152.11828,226.567239 151.393751,227.294118 150.5,227.294118 Z M187.72043,227.294118 C186.826679,227.294118 186.102151,226.567239 186.102151,225.670588 C186.102151,224.773938 186.826679,224.047059 187.72043,224.047059 C188.614181,224.047059 189.33871,224.773938 189.33871,225.670588 C189.33871,226.567239 188.614181,227.294118 187.72043,227.294118 Z M224.94086,227.294118 C224.047109,227.294118 223.322581,226.567239 223.322581,225.670588 C223.322581,224.773938 224.047109,224.047059 224.94086,224.047059 C225.834611,224.047059 226.55914,224.773938 226.55914,225.670588 C226.55914,226.567239 225.834611,227.294118 224.94086,227.294118 Z M262.16129,227.294118 C261.267539,227.294118 260.543011,226.567239 260.543011,225.670588 C260.543011,224.773938 261.267539,224.047059 262.16129,224.047059 C263.055041,224.047059 263.77957,224.773938 263.77957,225.670588 C263.77957,226.567239 263.055041,227.294118 262.16129,227.294118 Z M299.38172,227.294118 C298.487969,227.294118 297.763441,226.567239 297.763441,225.670588 C297.763441,224.773938 298.487969,224.047059 299.38172,224.047059 C300.275472,224.047059 301,224.773938 301,225.670588 C301,226.567239 300.275472,227.294118 299.38172,227.294118 Z M1.61827957,264.635294 C0.724528443,264.635294 0,263.908415 0,263.011765 C0,262.115114 0.724528443,261.388235 1.61827957,261.388235 C2.5120307,261.388235 3.23655914,262.115114 3.23655914,263.011765 C3.23655914,263.908415 2.5120307,264.635294 1.61827957,264.635294 Z M38.8387097,264.635294 C37.9449586,264.635294 37.2204301,263.908415 37.2204301,263.011765 C37.2204301,262.115114 37.9449586,261.388235 38.8387097,261.388235 C39.7324608,261.388235 40.4569892,262.115114 40.4569892,263.011765 C40.4569892,263.908415 39.7324608,264.635294 38.8387097,264.635294 Z M76.0591398,264.635294 C75.1653887,264.635294 74.4408602,263.908415 74.4408602,263.011765 C74.4408602,262.115114 75.1653887,261.388235 76.0591398,261.388235 C76.9528909,261.388235 77.6774194,262.115114 77.6774194,263.011765 C77.6774194,263.908415 76.9528909,264.635294 76.0591398,264.635294 Z M113.27957,264.635294 C112.385819,264.635294 111.66129,263.908415 111.66129,263.011765 C111.66129,262.115114 112.385819,261.388235 113.27957,261.388235 C114.173321,261.388235 114.897849,262.115114 114.897849,263.011765 C114.897849,263.908415 114.173321,264.635294 113.27957,264.635294 Z M150.5,264.635294 C149.606249,264.635294 148.88172,263.908415 148.88172,263.011765 C148.88172,262.115114 149.606249,261.388235 150.5,261.388235 C151.393751,261.388235 152.11828,262.115114 152.11828,263.011765 C152.11828,263.908415 151.393751,264.635294 150.5,264.635294 Z M187.72043,264.635294 C186.826679,264.635294 186.102151,263.908415 186.102151,263.011765 C186.102151,262.115114 186.826679,261.388235 187.72043,261.388235 C188.614181,261.388235 189.33871,262.115114 189.33871,263.011765 C189.33871,263.908415 188.614181,264.635294 187.72043,264.635294 Z M224.94086,264.635294 C224.047109,264.635294 223.322581,263.908415 223.322581,263.011765 C223.322581,262.115114 224.047109,261.388235 224.94086,261.388235 C225.834611,261.388235 226.55914,262.115114 226.55914,263.011765 C226.55914,263.908415 225.834611,264.635294 224.94086,264.635294 Z M262.16129,264.635294 C261.267539,264.635294 260.543011,263.908415 260.543011,263.011765 C260.543011,262.115114 261.267539,261.388235 262.16129,261.388235 C263.055041,261.388235 263.77957,262.115114 263.77957,263.011765 C263.77957,263.908415 263.055041,264.635294 262.16129,264.635294 Z M299.38172,264.635294 C298.487969,264.635294 297.763441,263.908415 297.763441,263.011765 C297.763441,262.115114 298.487969,261.388235 299.38172,261.388235 C300.275472,261.388235 301,262.115114 301,263.011765 C301,263.908415 300.275472,264.635294 299.38172,264.635294 Z M1.61827957,301.976471 C0.724528443,301.976471 0,301.249592 0,300.352941 C0,299.456291 0.724528443,298.729412 1.61827957,298.729412 C2.5120307,298.729412 3.23655914,299.456291 3.23655914,300.352941 C3.23655914,301.249592 2.5120307,301.976471 1.61827957,301.976471 Z M38.8387097,301.976471 C37.9449586,301.976471 37.2204301,301.249592 37.2204301,300.352941 C37.2204301,299.456291 37.9449586,298.729412 38.8387097,298.729412 C39.7324608,298.729412 40.4569892,299.456291 40.4569892,300.352941 C40.4569892,301.249592 39.7324608,301.976471 38.8387097,301.976471 Z M76.0591398,301.976471 C75.1653887,301.976471 74.4408602,301.249592 74.4408602,300.352941 C74.4408602,299.456291 75.1653887,298.729412 76.0591398,298.729412 C76.9528909,298.729412 77.6774194,299.456291 77.6774194,300.352941 C77.6774194,301.249592 76.9528909,301.976471 76.0591398,301.976471 Z M113.27957,301.976471 C112.385819,301.976471 111.66129,301.249592 111.66129,300.352941 C111.66129,299.456291 112.385819,298.729412 113.27957,298.729412 C114.173321,298.729412 114.897849,299.456291 114.897849,300.352941 C114.897849,301.249592 114.173321,301.976471 113.27957,301.976471 Z M150.5,301.976471 C149.606249,301.976471 148.88172,301.249592 148.88172,300.352941 C148.88172,299.456291 149.606249,298.729412 150.5,298.729412 C151.393751,298.729412 152.11828,299.456291 152.11828,300.352941 C152.11828,301.249592 151.393751,301.976471 150.5,301.976471 Z M187.72043,301.976471 C186.826679,301.976471 186.102151,301.249592 186.102151,300.352941 C186.102151,299.456291 186.826679,298.729412 187.72043,298.729412 C188.614181,298.729412 189.33871,299.456291 189.33871,300.352941 C189.33871,301.249592 188.614181,301.976471 187.72043,301.976471 Z M224.94086,301.976471 C224.047109,301.976471 223.322581,301.249592 223.322581,300.352941 C223.322581,299.456291 224.047109,298.729412 224.94086,298.729412 C225.834611,298.729412 226.55914,299.456291 226.55914,300.352941 C226.55914,301.249592 225.834611,301.976471 224.94086,301.976471 Z M262.16129,301.976471 C261.267539,301.976471 260.543011,301.249592 260.543011,300.352941 C260.543011,299.456291 261.267539,298.729412 262.16129,298.729412 C263.055041,298.729412 263.77957,299.456291 263.77957,300.352941 C263.77957,301.249592 263.055041,301.976471 262.16129,301.976471 Z M299.38172,301.976471 C298.487969,301.976471 297.763441,301.249592 297.763441,300.352941 C297.763441,299.456291 298.487969,298.729412 299.38172,298.729412 C300.275472,298.729412 301,299.456291 301,300.352941 C301,301.249592 300.275472,301.976471 299.38172,301.976471 Z M1.61827957,339.317647 C0.724528443,339.317647 0,338.590768 0,337.694118 C0,336.797467 0.724528443,336.070588 1.61827957,336.070588 C2.5120307,336.070588 3.23655914,336.797467 3.23655914,337.694118 C3.23655914,338.590768 2.5120307,339.317647 1.61827957,339.317647 Z M38.8387097,339.317647 C37.9449586,339.317647 37.2204301,338.590768 37.2204301,337.694118 C37.2204301,336.797467 37.9449586,336.070588 38.8387097,336.070588 C39.7324608,336.070588 40.4569892,336.797467 40.4569892,337.694118 C40.4569892,338.590768 39.7324608,339.317647 38.8387097,339.317647 Z M76.0591398,339.317647 C75.1653887,339.317647 74.4408602,338.590768 74.4408602,337.694118 C74.4408602,336.797467 75.1653887,336.070588 76.0591398,336.070588 C76.9528909,336.070588 77.6774194,336.797467 77.6774194,337.694118 C77.6774194,338.590768 76.9528909,339.317647 76.0591398,339.317647 Z M113.27957,339.317647 C112.385819,339.317647 111.66129,338.590768 111.66129,337.694118 C111.66129,336.797467 112.385819,336.070588 113.27957,336.070588 C114.173321,336.070588 114.897849,336.797467 114.897849,337.694118 C114.897849,338.590768 114.173321,339.317647 113.27957,339.317647 Z M150.5,339.317647 C149.606249,339.317647 148.88172,338.590768 148.88172,337.694118 C148.88172,336.797467 149.606249,336.070588 150.5,336.070588 C151.393751,336.070588 152.11828,336.797467 152.11828,337.694118 C152.11828,338.590768 151.393751,339.317647 150.5,339.317647 Z M187.72043,339.317647 C186.826679,339.317647 186.102151,338.590768 186.102151,337.694118 C186.102151,336.797467 186.826679,336.070588 187.72043,336.070588 C188.614181,336.070588 189.33871,336.797467 189.33871,337.694118 C189.33871,338.590768 188.614181,339.317647 187.72043,339.317647 Z M224.94086,339.317647 C224.047109,339.317647 223.322581,338.590768 223.322581,337.694118 C223.322581,336.797467 224.047109,336.070588 224.94086,336.070588 C225.834611,336.070588 226.55914,336.797467 226.55914,337.694118 C226.55914,338.590768 225.834611,339.317647 224.94086,339.317647 Z M262.16129,339.317647 C261.267539,339.317647 260.543011,338.590768 260.543011,337.694118 C260.543011,336.797467 261.267539,336.070588 262.16129,336.070588 C263.055041,336.070588 263.77957,336.797467 263.77957,337.694118 C263.77957,338.590768 263.055041,339.317647 262.16129,339.317647 Z M299.38172,339.317647 C298.487969,339.317647 297.763441,338.590768 297.763441,337.694118 C297.763441,336.797467 298.487969,336.070588 299.38172,336.070588 C300.275472,336.070588 301,336.797467 301,337.694118 C301,338.590768 300.275472,339.317647 299.38172,339.317647 Z M1.61827957,376.658824 C0.724528443,376.658824 0,375.931945 0,375.035294 C0,374.138644 0.724528443,373.411765 1.61827957,373.411765 C2.5120307,373.411765 3.23655914,374.138644 3.23655914,375.035294 C3.23655914,375.931945 2.5120307,376.658824 1.61827957,376.658824 Z M38.8387097,376.658824 C37.9449586,376.658824 37.2204301,375.931945 37.2204301,375.035294 C37.2204301,374.138644 37.9449586,373.411765 38.8387097,373.411765 C39.7324608,373.411765 40.4569892,374.138644 40.4569892,375.035294 C40.4569892,375.931945 39.7324608,376.658824 38.8387097,376.658824 Z M76.0591398,376.658824 C75.1653887,376.658824 74.4408602,375.931945 74.4408602,375.035294 C74.4408602,374.138644 75.1653887,373.411765 76.0591398,373.411765 C76.9528909,373.411765 77.6774194,374.138644 77.6774194,375.035294 C77.6774194,375.931945 76.9528909,376.658824 76.0591398,376.658824 Z M113.27957,376.658824 C112.385819,376.658824 111.66129,375.931945 111.66129,375.035294 C111.66129,374.138644 112.385819,373.411765 113.27957,373.411765 C114.173321,373.411765 114.897849,374.138644 114.897849,375.035294 C114.897849,375.931945 114.173321,376.658824 113.27957,376.658824 Z M150.5,376.658824 C149.606249,376.658824 148.88172,375.931945 148.88172,375.035294 C148.88172,374.138644 149.606249,373.411765 150.5,373.411765 C151.393751,373.411765 152.11828,374.138644 152.11828,375.035294 C152.11828,375.931945 151.393751,376.658824 150.5,376.658824 Z M187.72043,376.658824 C186.826679,376.658824 186.102151,375.931945 186.102151,375.035294 C186.102151,374.138644 186.826679,373.411765 187.72043,373.411765 C188.614181,373.411765 189.33871,374.138644 189.33871,375.035294 C189.33871,375.931945 188.614181,376.658824 187.72043,376.658824 Z M224.94086,376.658824 C224.047109,376.658824 223.322581,375.931945 223.322581,375.035294 C223.322581,374.138644 224.047109,373.411765 224.94086,373.411765 C225.834611,373.411765 226.55914,374.138644 226.55914,375.035294 C226.55914,375.931945 225.834611,376.658824 224.94086,376.658824 Z M262.16129,376.658824 C261.267539,376.658824 260.543011,375.931945 260.543011,375.035294 C260.543011,374.138644 261.267539,373.411765 262.16129,373.411765 C263.055041,373.411765 263.77957,374.138644 263.77957,375.035294 C263.77957,375.931945 263.055041,376.658824 262.16129,376.658824 Z M299.38172,376.658824 C298.487969,376.658824 297.763441,375.931945 297.763441,375.035294 C297.763441,374.138644 298.487969,373.411765 299.38172,373.411765 C300.275472,373.411765 301,374.138644 301,375.035294 C301,375.931945 300.275472,376.658824 299.38172,376.658824 Z M1.61827957,414 C0.724528443,414 0,413.273121 0,412.376471 C0,411.47982 0.724528443,410.752941 1.61827957,410.752941 C2.5120307,410.752941 3.23655914,411.47982 3.23655914,412.376471 C3.23655914,413.273121 2.5120307,414 1.61827957,414 Z M38.8387097,414 C37.9449586,414 37.2204301,413.273121 37.2204301,412.376471 C37.2204301,411.47982 37.9449586,410.752941 38.8387097,410.752941 C39.7324608,410.752941 40.4569892,411.47982 40.4569892,412.376471 C40.4569892,413.273121 39.7324608,414 38.8387097,414 Z M76.0591398,414 C75.1653887,414 74.4408602,413.273121 74.4408602,412.376471 C74.4408602,411.47982 75.1653887,410.752941 76.0591398,410.752941 C76.9528909,410.752941 77.6774194,411.47982 77.6774194,412.376471 C77.6774194,413.273121 76.9528909,414 76.0591398,414 Z M113.27957,414 C112.385819,414 111.66129,413.273121 111.66129,412.376471 C111.66129,411.47982 112.385819,410.752941 113.27957,410.752941 C114.173321,410.752941 114.897849,411.47982 114.897849,412.376471 C114.897849,413.273121 114.173321,414 113.27957,414 Z M150.5,414 C149.606249,414 148.88172,413.273121 148.88172,412.376471 C148.88172,411.47982 149.606249,410.752941 150.5,410.752941 C151.393751,410.752941 152.11828,411.47982 152.11828,412.376471 C152.11828,413.273121 151.393751,414 150.5,414 Z M187.72043,414 C186.826679,414 186.102151,413.273121 186.102151,412.376471 C186.102151,411.47982 186.826679,410.752941 187.72043,410.752941 C188.614181,410.752941 189.33871,411.47982 189.33871,412.376471 C189.33871,413.273121 188.614181,414 187.72043,414 Z M224.94086,414 C224.047109,414 223.322581,413.273121 223.322581,412.376471 C223.322581,411.47982 224.047109,410.752941 224.94086,410.752941 C225.834611,410.752941 226.55914,411.47982 226.55914,412.376471 C226.55914,413.273121 225.834611,414 224.94086,414 Z M262.16129,414 C261.267539,414 260.543011,413.273121 260.543011,412.376471 C260.543011,411.47982 261.267539,410.752941 262.16129,410.752941 C263.055041,410.752941 263.77957,411.47982 263.77957,412.376471 C263.77957,413.273121 263.055041,414 262.16129,414 Z M299.38172,414 C298.487969,414 297.763441,413.273121 297.763441,412.376471 C297.763441,411.47982 298.487969,410.752941 299.38172,410.752941 C300.275472,410.752941 301,411.47982 301,412.376471 C301,413.273121 300.275472,414 299.38172,414 Z"></path>
                                </g>
                            </g>
                        </g>
                    </g>
                </g>
            </g>
        </g>
    </g>
</svg>