<svg xmlns="http://www.w3.org/2000/svg" xmlns:xlink="http://www.w3.org/1999/xlink" width="725" height="742" viewBox="0 0 725 742"><defs><path id="a" d="M959.51 54.03c-18.78-.38-35.12 10.71-49.54 21.53-11.13 8.42-23.85 16.82-38.43 15.92-20.96-.9-41.8-9.19-62.83-4.18-17.78 3.63-30.33 18.44-38.55 33.71-8.38 14.73-15.19 32.5-31.48 40.27-19.15 9.14-41.98 9.67-59.15 23.1-15.4 11.24-21.13 30.88-21.97 49.12-1.29 16.55.5 35.17-10.55 48.98-12.99 16.09-32.47 26.4-42.44 45.06-9.15 15.63-7.81 35.1-1.19 51.4 5.78 16.33 16.5 32.32 14.03 50.38-3.37 20.43-16.99 37.78-18.96 58.62-2.43 17.16 5.23 34.19 17.24 46.17 11.32 12.51 27.18 21.06 35.29 36.31 7.68 16.9 3.93 36.05 7.35 53.86 2.32 16.96 11.64 33.35 26.95 41.72 17.15 10.53 38.26 10.96 55.73 20.67 15.5 9.46 21.2 27.76 30.49 42.35 8.9 15.5 23.48 29.22 41.88 31.46 20.55 3.27 40.41-5.57 60.84-5.29 17.41.74 30.92 13.31 44.74 22.43 12.93 9.09 28.18 16.64 44.44 15.1 19.52-1.39 35.49-13.92 50.69-25.03 10.11-7.62 22.32-13.59 35.3-12.29 21.02 1.53 42.25 9.54 63.27 3.53 18.18-4.73 29.98-20.87 38.18-36.73 7.55-14.17 15.1-30.29 30.65-37.21 18.49-8.47 40.2-9.2 56.89-21.71 15.27-10.58 21.78-29.4 22.93-47.25 1.69-17.07-.93-36.27 10.07-50.84 12.97-16.59 32.92-26.97 43.08-45.93 9.19-15.63 7.74-35.08 1.23-51.4-5.92-16.66-17.03-33.09-13.84-51.56 3.98-20.8 17.99-38.68 19.03-60.24 1.67-17.89-7.87-34.62-20.58-46.47-11.45-11.73-27.15-20.43-33.53-36.26-6.32-18.12-2.36-37.85-7.11-56.3-3.41-16.87-14.92-31.75-30.67-38.83-16.84-8.68-36.88-9.08-52.99-19.32-15.63-11.11-20.7-30.75-31.44-45.78-9.13-14.24-23.89-25.78-41.22-27.04-20.11-2.42-39.44 6.09-59.44 5.52-16.55-1.03-29.48-12.86-42.69-21.57-12.28-8.5-26.23-16.61-41.7-15.98z"/></defs><g opacity=".5" transform="translate(-597 -52)"><use fill="#fff" fill-opacity="0" stroke="#fff" stroke-miterlimit="50" stroke-width="1.35" xlink:href="#a"/></g></svg>