<svg xmlns="http://www.w3.org/2000/svg" width="27" height="31" viewBox="0 0 27 31"><path fill="#767676" d="M3.53 3.04h19.08a1.52 1.52 0 1 0 0-3.04H3.53a1.52 1.52 0 1 0 0 3.04M3.84 8a.85.85 0 0 0-.84.84.85.85 0 0 0 1.69 0A.85.85 0 0 0 3.84 8"/><path fill="#767676" d="M3.96 5a3.94 3.94 0 1 0 2.53 6.94v16.81c0 .91.74 1.65 1.65 1.65h10.71c.92 0 1.65-.74 1.65-1.65V11.94a3.95 3.95 0 0 0 6.5-3A3.95 3.95 0 0 0 23.04 5zm6.49 22.22c0 .42-.34.76-.77.76a.76.76 0 0 1-.76-.76V12.63c0-.42.34-.76.76-.76.43 0 .77.34.77.76zm3.81 0a.76.76 0 1 1-1.52 0V12.63a.76.76 0 1 1 1.52 0zm3.05.76a.76.76 0 0 1-.76-.76V12.63a.76.76 0 1 1 1.52 0v14.59c0 .42-.34.76-.76.76zm3.36-19.04c0-.3.06-.58.16-.84H6.16a2.36 2.36 0 0 1-2.2 3.19 2.36 2.36 0 1 1 0-4.71h19.08c1.3 0 2.37 1.06 2.37 2.36 0 1.3-1.07 2.35-2.37 2.35a2.36 2.36 0 0 1-2.37-2.35z"/><path fill="#767676" d="M22.84 8a.85.85 0 0 0-.84.84.85.85 0 0 0 1.69 0 .85.85 0 0 0-.85-.84"/></svg>