<svg xmlns="http://www.w3.org/2000/svg" width="28" height="28" viewBox="0 0 28 28"><path fill="#767676" d="M4.11 21.33V9.89a.31.31 0 0 0-.09-.22L.5 6.09C.32 5.9 0 6.03 0 6.3v18.62c0 .27.32.4.5.21l3.52-3.59a.27.27 0 0 0 .09-.21M5.61 8.46c.05.06.13.09.21.09h16.05c.07 0 .15-.03.2-.09l3.52-3.58c.19-.19.06-.51-.2-.51h-5.75l-4.46-3.14A1.36 1.36 0 0 0 13.84 0c-.7 0-1.27.54-1.34 1.23L8.04 4.37H2.29c-.26 0-.39.32-.2.51zM13.5 2.7c.22.06.45.07.68 0l2.37 1.67h-5.41zM22.07 23.09a.27.27 0 0 0-.2-.09H5.82a.27.27 0 0 0-.21.09l-3.52 3.58c-.19.19-.06.51.2.51h23.1c.26 0 .39-.32.2-.51zM26.61 6.09l-3.52 3.58a.31.31 0 0 0-.09.22v11.44c0 .08.03.16.09.21l3.52 3.59c.18.19.5.06.5-.21V6.3c0-.27-.32-.4-.5-.21"/></svg>