<svg xmlns="http://www.w3.org/2000/svg" width="20" height="35" viewBox="0 0 20 35"><path fill="#767676" d="M11.13 19.54v-2.23h1.73a1.15 1.15 0 0 0 2.3-.02v-2.24a1.15 1.15 0 0 0-2.3-.02h-1.73v-2.46h5.59c1.48 0 2.68-1.2 2.68-2.67V2.66C19.4 1.19 18.2 0 16.72 0H3.25A2.67 2.67 0 0 0 .57 2.66V9.9c0 1.47 1.2 2.67 2.68 2.67h5.59v6.97L.18 33.25c-.34.53-.18 1.24.36 1.57.53.34 1.24.18 1.58-.35l3.78-5.98 2.94 2.05v3.32c0 .63.51 1.14 1.14 1.14.64 0 1.15-.51 1.15-1.14v-3.32l2.94-2.05 3.78 5.98c.34.53 1.05.69 1.58.35.54-.33.7-1.04.36-1.57zm-2.29 8.21l-1.72-1.2 1.72-2.72zM6.75 6.28a3.22 3.22 0 0 1 3.23-3.21 3.23 3.23 0 0 1 3.24 3.21 3.23 3.23 0 0 1-6.47 0zm4.38 21.47v-3.92l1.72 2.72z"/></svg>