<svg xmlns="http://www.w3.org/2000/svg" width="14" height="38" viewBox="0 0 14 38"><path fill="#767676" d="M.02 20.7a7.9 7.9 0 0 0 1.61 5.32c1.26 1.76 2.85 2.71 4.73 2.83.63.04 1.23.03 1.78-.05l.33 1.89c.13.85.18 1.58.14 2.18a3.28 3.28 0 0 1-.78 2.02c-.5.55-1.12.8-1.9.74a2.02 2.02 0 0 1-.91-.26 2.08 2.08 0 0 0 1.63-2 2.42 2.42 0 0 0-.5-1.73c-.4-.52-.95-.81-1.63-.86a2.21 2.21 0 0 0-1.83.82 2.98 2.98 0 0 0 .4 4.38c.73.6 1.61.95 2.6 1.01a4.4 4.4 0 0 0 1.63-.19c.42-.14.82-.35 1.2-.62a3.27 3.27 0 0 0 1.47-2.54c.06-.79.02-1.73-.12-2.79l-.37-2.4a4.99 4.99 0 0 0 2.38-1.7 5.84 5.84 0 0 0 .11-6.77 4.27 4.27 0 0 0-3.89-1.96l-.39-2.95a10.4 10.4 0 0 0 2.65-3.49 12.17 12.17 0 0 0 1.13-4.43c.06-.92-.07-2.06-.37-3.39-.43-1.8-1.03-2.7-1.86-2.76-.29-.02-.61.13-1 .47a7.36 7.36 0 0 0-2.05 3.07c-.32.91-.54 2.11-.63 3.59-.05.74.07 1.99.36 3.83a32.4 32.4 0 0 0-3.74 3.71A9.02 9.02 0 0 0 .02 20.7zm9.23 6.05l-.69-5.2a2.25 2.25 0 0 1 1.84 2.21c0 .97-.48 2.59-1.15 2.99zM7.69 6.67c.52-1.34 1.01-1.75 1.33-1.85a.75.75 0 0 1 .26-.04c.42.03.83.21.76 1.3a6.09 6.09 0 0 1-1.1 2.93 8.33 8.33 0 0 1-1.86 2.04c-.1-.38-.13-.83-.1-1.35.06-.94.3-1.96.71-3.03zM6.73 18.3a5 5 0 0 0-1.97 1.46 4.46 4.46 0 0 0-1.04 2.53 4.14 4.14 0 0 0 1.61 3.6c.64.48 1.38.44 1.5.19.12-.26-.32-.67-.67-1.21a2.26 2.26 0 0 1 1.06-3.17l.74 5.77a5.08 5.08 0 0 1-4.6-1.44 3.94 3.94 0 0 1-1.35-3.22c.15-2.29 1.65-4.56 4.45-6.75z"/></svg>