<svg xmlns="http://www.w3.org/2000/svg" width="142" height="79" viewBox="0 0 142 79"><path fill="#fff" d="M33.43 52.26c0-2.61-1.81-4.24-4.86-4.24h-8.9V63.4h1.93v-6.83h6.02l4.09 6.83h2.13l-4.09-6.85a4.28 4.28 0 0 0 3.68-4.29zM21.6 54.82v-5.08h6.94c1.87 0 2.88 1.02 2.88 2.58 0 1.58-1.01 2.5-2.97 2.5zm13.46-5.08h6.54v13.62h1.93V49.74h6.53v-1.72h-15zm104.51 5.01l-.01.01h.01zm1.31-2.81c0-2.16-1.89-3.92-4.14-3.92H127v15.36h10.09c2.66 0 4.91-2.07 4.91-4.64a4.72 4.72 0 0 0-2.43-3.99c.77-.7 1.31-1.7 1.31-2.81zm-11.95-2.19h7.81c1.26 0 2.28.98 2.28 2.19 0 1.18-.97 2.14-2.18 2.19h-7.91zm8.16 11.89h-8.16v-5.79h8.23v.01a2.94 2.94 0 0 1 2.94 2.88c0 1.6-1.36 2.9-3.01 2.9zM96.66 48.02c-4.41 0-7.98 3.45-7.98 7.7s3.57 7.7 7.98 7.7 7.98-3.45 7.98-7.7-3.57-7.7-7.98-7.7zm0 13.59a6 6 0 0 1-6.11-5.89 6 6 0 0 1 6.11-5.88 6 6 0 0 1 6.1 5.88 6 6 0 0 1-6.1 5.89zm18.67-13.59c-4.41 0-7.98 3.45-7.98 7.7s3.57 7.7 7.98 7.7 7.99-3.45 7.99-7.7-3.58-7.7-7.99-7.7zm0 13.59a6 6 0 0 1-6.1-5.89 6 6 0 0 1 6.1-5.88 6 6 0 0 1 6.11 5.88 6 6 0 0 1-6.11 5.89zM83.6 50.28a8.19 8.19 0 0 0-11.29 0 7.52 7.52 0 0 0 0 10.89 8.2 8.2 0 0 0 10.56.61l1.71 1.64 1.36-1.31-1.7-1.64a7.5 7.5 0 0 0-.64-10.19zm-9.96 9.6a5.74 5.74 0 0 1 0-8.32 6.27 6.27 0 0 1 8.64 0 5.74 5.74 0 0 1 0 8.32 6.25 6.25 0 0 1-8.64 0zM7.98 48.02c-4.4 0-7.98 3.45-7.98 7.7s3.58 7.7 7.98 7.7c4.41 0 7.99-3.45 7.99-7.7s-3.58-7.7-7.99-7.7zm0 1.82a6.03 6.03 0 0 1 6.04 5.04H1.95a6.02 6.02 0 0 1 6.03-5.04zm0 11.77a6.01 6.01 0 0 1-6.02-5.01h12.05a6.02 6.02 0 0 1-6.03 5.01zm51.33-13.59c-4.41 0-7.98 3.45-7.98 7.7s3.57 7.7 7.98 7.7 7.98-3.45 7.98-7.7-3.57-7.7-7.98-7.7zm0 1.82a6.02 6.02 0 0 1 6.03 5.04H53.27a6.04 6.04 0 0 1 6.04-5.04zm0 11.77a6.03 6.03 0 0 1-6.03-5.01h12.06a6.03 6.03 0 0 1-6.03 5.01zM40.32 72.44l-2.49 6.32h.95l.63-1.67h2.93l.62 1.67h.95l-2.49-6.32zm-.63 3.93l1.18-3.32 1.18 3.32zm13.23-3.59a3.37 3.37 0 0 0-1.84-.47c-1.02 0-1.83.3-2.43.89a3.25 3.25 0 0 0-.89 2.4c0 1.04.29 1.87.88 2.48.58.61 1.37.92 2.37.92 1.55 0 2.51-.59 2.89-1.78h-1.06c-.29.69-.89 1.04-1.8 1.04-.72 0-1.29-.24-1.7-.7a2.79 2.79 0 0 1-.62-1.92c0-.81.21-1.44.61-1.9.41-.45.97-.68 1.7-.68.93 0 1.52.34 1.79 1h1a1.92 1.92 0 0 0-.9-1.28zm7.25-.34l-2.49 6.32h.94l.64-1.67h2.92l.63 1.67h.95l-2.49-6.32zm-.64 3.93l1.19-3.32 1.18 3.32zm8.49 2.39h2.42c1.22 0 2.11-.33 2.66-.98.51-.59.76-1.34.76-2.25a3.2 3.2 0 0 0-.66-2.09c-.3-.36-.65-.62-1.08-.77a5.94 5.94 0 0 0-1.79-.22h-2.31zm2.08-5.53c1 0 1.71.18 2.14.54.43.35.65.95.65 1.78 0 1.62-.86 2.43-2.57 2.43h-1.44v-4.75zm8.25-.78v6.31h3.69v-.81h-2.83v-2.06h2.69v-.79h-2.69v-1.87h2.75v-.78zm14.34 0l-2.21 5.39-2.22-5.39h-1.2l-.59 6.31h.89l.4-5.4 2.24 5.4h.96l2.23-5.4.4 5.4h.89l-.58-6.31zm10.47 0l-1.73 3.13-1.73-3.13h-1.03l2.14 3.64c.12.19.17.36.17.51v2.16h.87v-2.13c0-.16.01-.28.05-.34l.1-.16 2.17-3.68zM82.78 5.39a16.81 16.81 0 0 0-23.51 0 16.17 16.17 0 0 0 0 23.14 16.81 16.81 0 0 0 21.99 1.31l3.55 3.48 2.84-2.8-3.54-3.48a16.17 16.17 0 0 0-1.33-21.65zM62.04 8.11a12.86 12.86 0 0 1 17.97 0 12.41 12.41 0 0 1 3.59 7.06H58.46a12.34 12.34 0 0 1 3.58-7.06zm0 17.7c-2-1.97-3.18-4.43-3.57-6.98h25.11a12.38 12.38 0 0 1-3.57 6.98 12.86 12.86 0 0 1-17.97 0z"/></svg>