<?xml version="1.0" encoding="utf-8"?>
<!-- Generator: Adobe Illustrator 20.1.0, SVG Export Plug-In . SVG Version: 6.00 Build 0)  -->
<svg version="1.1" id="Слой_1" xmlns="http://www.w3.org/2000/svg" xmlns:xlink="http://www.w3.org/1999/xlink" x="0px" y="0px"
	 viewBox="0 0 142 63.420002" style="enable-background:new 0 0 142 63.420002;" xml:space="preserve">
<path style="fill:#FFFFFF;" d="M33.4300003,52.2599983c0-2.6100006-1.8099995-4.2400017-4.8600006-4.2400017h-8.8999996v15.3800049
	h1.9300003v-6.8300018h6.0200005l4.0900002,6.8300018h2.1299992L29.75,56.5500031
	C31.8807259,56.2484894,33.4562569,54.4117928,33.4300003,52.2599983z M21.6000004,54.8199997v-5.0800018h6.9400005
	c1.8700008,0,2.8800011,1.0200005,2.8800011,2.5800018c0,1.5800018-1.0100002,2.5-2.9699993,2.5H21.6000004z M35.0600014,49.7399979
	h6.5400009v13.6199989h1.9300003V49.7400017h6.5299988v-1.7200012h-15V49.7399979z M139.5700073,54.75l-0.0099945,0.0099983
	h0.0099945V54.75z M140.8800049,51.9399986c0-2.1599998-1.8899994-3.920002-4.1399994-3.920002H127v15.3600006h10.0899963
	C139.75,63.3799973,142,61.3099976,142,58.7399979c-0.0488586-1.6657104-0.9724426-3.1822166-2.4299927-3.9900017
	C140.3400116,54.0499954,140.8800049,53.0499954,140.8800049,51.9399986z M128.9300079,49.75h7.8099976
	c1.2599945,0,2.2799988,0.9799995,2.2799988,2.1899986c0,1.1800003-0.9700012,2.1399994-2.1799927,2.1899986h-7.9100037V49.75z
	 M137.0900116,61.6399994h-8.1600037v-5.7900009h8.2299957v0.0099983c1.6005707-0.0003357,2.9073334,1.2797623,2.9400024,2.8800011
	C140.1000061,60.3399963,138.7400055,61.6399994,137.0900116,61.6399994z M96.6600037,48.0200005
	c-4.4100037,0-7.9800034,3.4500008-7.9800034,7.7000008S92.25,63.420002,96.6600037,63.420002
	s7.9800034-3.4500008,7.9800034-7.7000008S101.0700073,48.0200005,96.6600037,48.0200005z M96.6600037,61.6100006
	c-3.3131409,0.0612984-6.0486679-2.5748405-6.1099625-5.8879814c-0.0000153-0.0006752-0.0000229-0.0013466-0.0000381-0.002018
	c0.0656433-3.3100166,2.7999039-5.941349,6.1100006-5.8800011c3.306221-0.0557632,6.0343323,2.5739594,6.0999985,5.8800011
	C102.6997757,59.0299759,99.9700546,61.6657219,96.6600037,61.6100006z M115.3300018,48.0200005
	c-4.4100037,0-7.9800034,3.4500008-7.9800034,7.7000008s3.5699997,7.7000008,7.9800034,7.7000008
	s7.9899979-3.4500008,7.9899979-7.7000008S119.7399979,48.0200005,115.3300018,48.0200005z M115.3300018,61.6100006
	c-3.310051,0.0557213-6.039772-2.5800247-6.0999985-5.8899994c0.0656662-3.3060417,2.7937775-5.9357643,6.0999985-5.8800011
	c3.3100967-0.061348,6.0443573,2.5699844,6.1100006,5.8800011c-0.0601883,3.3131638-2.7948227,5.950222-6.1079865,5.8900375
	C115.3313446,61.6100235,115.3306732,61.6100121,115.3300018,61.6100006z M83.5999985,50.2799988
	c-3.1621628-3.008255-8.1278381-3.008255-11.2900009,0c-3.0071869,2.864563-3.1228104,7.6245613-0.2582474,10.6317482
	c0.0839767,0.0881615,0.1700897,0.1742706,0.2582474,0.2582512c2.900856,2.7499123,7.3617935,3.0075989,10.5599976,0.6100006
	l1.7099991,1.6399994l1.3600006-1.3100014l-1.6999969-1.6399994C86.728447,57.4299583,86.4492645,52.9847946,83.5999985,50.2799988z
	 M73.6399994,59.8799973c-2.2975082-2.1842842-2.3892899-5.8174934-0.2050018-8.1149979
	c0.066597-0.0700493,0.1349487-0.1384048,0.2050018-0.2050018c2.4204178-2.3009567,6.2195816-2.3009567,8.6399994,0
	c2.2975082,2.1842842,2.3892899,5.8174934,0.2050018,8.1149979c-0.066597,0.0700493-0.1349487,0.1384048-0.2050018,0.2050018
	C79.8636551,62.1911354,76.0563431,62.1911354,73.6399994,59.8799973z M7.98,48.0200005c-4.4000001,0-7.98,3.4500008-7.98,7.7000008
	s3.5799999,7.7000008,7.98,7.7000008c4.4099994,0,7.9899993-3.4500008,7.9899993-7.7000008S12.3899994,48.0200005,7.98,48.0200005z
	 M7.98,49.8400002c2.982862-0.045372,5.5505662,2.0972176,6.0400004,5.0400009H1.95
	C2.4349353,51.9387627,4.9993877,49.7953377,7.98,49.8400002z M7.98,61.6100006
	c-2.9687123,0.0462685-5.5263395-2.0822563-6.02-5.0100021h12.0500002C13.511858,59.5292892,10.9509726,61.6569901,7.98,61.6100006z
	 M59.3100014,48.0200005c-4.4099998,0-7.9799995,3.4500008-7.9799995,7.7000008s3.5699997,7.7000008,7.9799995,7.7000008
	s7.9799995-3.4500008,7.9799995-7.7000008S63.7200012,48.0200005,59.3100014,48.0200005z M59.3100014,49.8400002
	c2.9806137-0.0446625,5.5450706,2.0987625,6.0300026,5.0400009H53.2700005
	C53.7633629,51.9394684,56.3286514,49.7988968,59.3100014,49.8400002z M59.3100014,61.6100006
	c-2.9694748,0.0427437-5.5279579-2.082962-6.0299988-5.0100021H65.340004
	C64.8379593,59.5270386,62.27948,61.6527443,59.3100014,61.6100006z M40.3199997,72.4400024l-2.4900017,6.3199997h0.9500008
	l0.6300011-1.6699982h2.9300003l0.6199989,1.6699982h0.9500008l-2.4900017-6.3199997H40.3199997z M39.6899986,76.3700027
	l1.1800003-3.3199997l1.1800003,3.3199997H39.6899986z M52.9199982,72.7800064
	c-0.5555954-0.3298187-1.194294-0.4929581-1.8400002-0.4700012c-1.0200005,0-1.8300018,0.3000031-2.4300003,0.8899994
	c-0.6124802,0.6445694-0.9341278,1.51194-0.8899994,2.4000015c0,1.0400009,0.2900009,1.8700027,0.8800011,2.4800034
	c0.5800018,0.6100006,1.3699989,0.9199982,2.3699989,0.9199982c1.5499992,0,2.5099983-0.5899963,2.8899994-1.7799988h-1.0600014
	c-0.2900009,0.6900024-0.8899994,1.0400009-1.7999992,1.0400009c-0.7200012,0-1.2900009-0.2399979-1.7000008-0.6999969
	c-0.4389458-0.5402451-0.6600838-1.2250671-0.6199989-1.9199982c0-0.8099976,0.2099991-1.4400024,0.6100006-1.9000015
	c0.4099998-0.4499969,0.9700012-0.6800003,1.7000008-0.6800003c0.9300003,0,1.5200005,0.3399963,1.7900009,1h1
	C53.7153549,73.52491,53.3881378,73.0595322,52.9199982,72.7800064z M60.1699982,72.4400101l-2.4900017,6.3199997h0.9399986
	l0.6399994-1.6699982h2.9199982l0.6300011,1.6699982h0.9500008l-2.4900017-6.3199997H60.1699982z M59.5299988,76.3700104
	l1.1899986-3.3199997l1.1800003,3.3199997H59.5299988z M68.0199966,78.7600098h2.4199982
	c1.2200012,0,2.1100006-0.3300018,2.6600037-0.9800034c0.5100021-0.5899963,0.7600021-1.3399963,0.7600021-2.25
	c0.0328751-0.7526398-0.2008438-1.4927368-0.6600037-2.0899963c-0.3000031-0.3600006-0.6500015-0.6200027-1.0800018-0.7699966
	c-0.5819931-0.1640091-1.1856155-0.238205-1.7900009-0.2200012h-2.3099976V78.7600098z M70.0999985,73.230011
	c1,0,1.7099991,0.1800003,2.1399994,0.5400009c0.4300003,0.3499985,0.6500015,0.9499969,0.6500015,1.7799988
	c0,1.6200027-0.8600006,2.4300003-2.5699997,2.4300003h-1.4400024v-4.75H70.0999985z M78.3499985,72.4500122v6.3099976h3.6900024
	v-0.8099976h-2.8300018v-2.0599976h2.6900024v-0.7900009h-2.6900024V73.230011h2.75v-0.7799988H78.3499985z M92.6900024,72.4500122
	l-2.2099991,5.3899994l-2.2200012-5.3899994h-1.1999969l-0.5899963,6.3099976h0.8899994l0.4000015-5.4000015l2.2399979,5.4000015
	h0.9599991l2.2300034-5.4000015l0.4000015,5.4000015h0.8899994l-0.5800018-6.3099976H92.6900024z M103.1600037,72.4500122
	l-1.7300034,3.1299973l-1.7300034-3.1299973h-1.0299988l2.1399994,3.6399994
	c0.1200027,0.1900024,0.1699982,0.3600006,0.1699982,0.5100021v2.1600037h0.8700027v-2.1299973
	c0-0.1600037,0.0100021-0.2799988,0.0500031-0.3399963L102,76.1300201l2.1699982-3.6800003L103.1600037,72.4500122z
	 M82.7799988,5.3899999c-6.5335236-6.391346-16.9764786-6.391346-23.5100021,0
	c-6.3899345,6.2387156-6.5125198,16.4762611-0.2738037,22.8661938c0.0901718,0.0923595,0.1814461,0.1836338,0.2738037,0.2738056
	c5.9827652,5.8478546,15.3552704,6.4062004,21.9899979,1.3099995l3.5500031,3.4800014l2.8399963-2.7999992l-3.5400009-3.4799995
	C89.2904816,20.5520592,88.7156601,11.195055,82.7799988,5.3899999z M62.0400009,8.1099997
	c4.9963531-4.8793216,12.9736481-4.8793216,17.9700012,0c1.9356766,1.8980436,3.1965866,4.377718,3.5899963,7.0600004H58.4599991
	C58.8456726,12.4873867,60.1037636,10.0063496,62.0400009,8.1099997z M62.0400009,25.8100014
	c-2-1.9699993-3.1800003-4.4300003-3.5699997-6.9799995h25.1100006c-0.4024124,2.6519775-1.6552582,5.1015224-3.5699997,6.9799995
	C75.013649,30.6893234,67.0363541,30.6893234,62.0400009,25.8100014z"/>
</svg>
